M48
;DRILL file {KiCad 5.0.2-bee76a0~70~ubuntu18.04.1} date Di 07 Mai 2019 12:57:44 CEST
;FORMAT={-:-/ absolute / inch / decimal}
FMAT,2
INCH,TZ
T1C0.0157
T2C0.0256
T3C0.0315
T4C0.0315
T5C0.0394
T6C0.0394
T7C0.0400
T8C0.0433
T9C0.0472
T10C0.0591
T11C0.0787
%
G90
G05
T1
X3.925Y-2.675
X4.325Y-3.325
X4.325Y-3.375
X4.325Y-3.425
X4.325Y-3.475
X4.325Y-3.525
X4.325Y-3.575
X4.325Y-3.625
X4.325Y-3.675
X4.375Y-3.325
X4.375Y-3.375
X4.375Y-3.425
X4.375Y-3.475
X4.375Y-3.525
X4.375Y-3.575
X4.375Y-3.625
X4.375Y-3.675
X4.425Y-3.325
X4.425Y-3.375
X4.425Y-3.425
X4.425Y-3.475
X4.425Y-3.525
X4.425Y-3.575
X4.425Y-3.625
X4.425Y-3.675
X4.475Y-3.325
X4.475Y-3.375
X4.475Y-3.425
X4.475Y-3.475
X4.475Y-3.525
X4.475Y-3.575
X4.475Y-3.625
X4.475Y-3.675
X4.525Y-3.325
X4.525Y-3.375
X4.525Y-3.425
X4.525Y-3.475
X4.525Y-3.525
X4.525Y-3.575
X4.525Y-3.625
X4.525Y-3.675
X4.575Y-3.325
X4.575Y-3.375
X4.575Y-3.425
X4.575Y-3.475
X4.575Y-3.525
X4.575Y-3.575
X4.575Y-3.625
X4.575Y-3.675
X4.625Y-3.325
X4.625Y-3.375
X4.625Y-3.425
X4.625Y-3.475
X4.625Y-3.525
X4.625Y-3.575
X4.625Y-3.625
X4.625Y-3.675
X5.725Y-3.425
X6.45Y-3.7
T2
X5.5906Y-3.5039
X5.5906Y-3.5827
X5.5906Y-3.6614
X5.5906Y-3.7402
X5.5906Y-3.8189
X5.5906Y-3.8976
X5.5906Y-3.9764
X5.5906Y-4.0551
X6.1417Y-3.5039
X6.1417Y-3.5827
X6.1417Y-3.6614
X6.1417Y-3.7402
X6.1417Y-3.8189
X6.1417Y-3.8976
X6.1417Y-3.9764
X6.1417Y-4.0551
T3
X5.95Y-2.875
X5.95Y-2.975
X5.95Y-3.075
X6.325Y-2.875
X6.325Y-2.975
X6.325Y-3.075
X4.125Y-3.3
X5.4Y-2.875
X5.4Y-2.975
X5.4Y-3.075
X4.125Y-3.7
X5.625Y-2.875
X5.625Y-2.975
X5.625Y-3.075
T4
X4.125Y-3.2016
X4.125Y-3.7984
T5
X3.3744Y-2.8189
X3.3744Y-3.7087
X3.5043Y-2.8189
X3.7957Y-2.8189
X3.9256Y-2.8189
X3.9256Y-3.7087
X3.7894Y-4.3
X3.7894Y-4.4
X3.7894Y-4.5
X3.7894Y-4.6
X3.7894Y-4.7
X3.7894Y-4.8
X4.7886Y-4.4
X4.7886Y-4.5
X4.7886Y-4.6
X4.7886Y-4.7
T6
X6.3386Y-3.7402
X6.3386Y-4.1402
X5.4Y-4.05
X5.4Y-4.45
X6.3386Y-3.2283
X6.3386Y-3.6283
X4.125Y-3.4
X4.125Y-3.5
X4.125Y-3.6
X6.4961Y-2.7559
X6.4961Y-3.1559
X5.4Y-3.4
X5.4Y-3.8
X5.625Y-4.425
X6.025Y-4.425
X5.6299Y-2.3165
X5.6299Y-2.7165
X5.9843Y-2.3165
X5.9843Y-2.7165
X6.325Y-2.3165
X6.325Y-2.7165
X3.65Y-4.
X4.05Y-4.
X6.1417Y-2.7559
X6.1417Y-3.1559
X5.25Y-3.2
X5.25Y-3.6
X5.35Y-2.3
X5.35Y-2.7
X5.625Y-4.25
X6.025Y-4.25
X5.25Y-3.75
X5.25Y-4.15
X5.7874Y-2.7559
X5.7874Y-3.1559
T7
X4.2Y-4.
X4.3Y-4.
X6.5748Y-3.5039
X6.5748Y-3.6039
X6.5748Y-3.7039
X6.5748Y-3.8039
X3.5Y-4.4
X3.5Y-4.5
X3.5Y-4.6
X3.5Y-4.7
X3.5Y-4.8
X3.05Y-3.15
X3.05Y-3.25
X3.05Y-3.35
X3.05Y-3.45
X3.15Y-3.15
X3.15Y-3.25
X3.15Y-3.35
X3.15Y-3.45
X5.35Y-2.15
X5.45Y-2.15
X5.7874Y-2.1654
X5.8874Y-2.1654
X5.9874Y-2.1654
X6.0874Y-2.1654
T8
X4.1449Y-2.6689
X4.1449Y-3.0311
X4.7551Y-2.6689
X4.7551Y-3.0311
T9
X3.1Y-2.3
X3.1Y-2.5
X3.15Y-4.
X3.35Y-4.
T10
X3.3917Y-2.072
X3.3917Y-2.328
X4.6398Y-2.072
X4.6398Y-2.328
T11
X2.5787Y-1.9685
X2.5787Y-4.7244
T0
M30
