G04 #@! TF.GenerationSoftware,KiCad,Pcbnew,5.0.2-bee76a0~70~ubuntu18.04.1*
G04 #@! TF.CreationDate,2019-05-07T12:57:47+02:00*
G04 #@! TF.ProjectId,pcb_wifi,7063625f-7769-4666-992e-6b696361645f,rev?*
G04 #@! TF.SameCoordinates,Original*
G04 #@! TF.FileFunction,Legend,Top*
G04 #@! TF.FilePolarity,Positive*
%FSLAX46Y46*%
G04 Gerber Fmt 4.6, Leading zero omitted, Abs format (unit mm)*
G04 Created by KiCad (PCBNEW 5.0.2-bee76a0~70~ubuntu18.04.1) date Di 07 Mai 2019 12:57:47 CEST*
%MOMM*%
%LPD*%
G01*
G04 APERTURE LIST*
%ADD10C,0.300000*%
%ADD11C,0.150000*%
%ADD12C,0.152400*%
G04 APERTURE END LIST*
D10*
X122960000Y-72203571D02*
X123245714Y-72203571D01*
X123388571Y-72275000D01*
X123531428Y-72417857D01*
X123602857Y-72703571D01*
X123602857Y-73203571D01*
X123531428Y-73489285D01*
X123388571Y-73632142D01*
X123245714Y-73703571D01*
X122960000Y-73703571D01*
X122817142Y-73632142D01*
X122674285Y-73489285D01*
X122602857Y-73203571D01*
X122602857Y-72703571D01*
X122674285Y-72417857D01*
X122817142Y-72275000D01*
X122960000Y-72203571D01*
X124245714Y-72203571D02*
X124245714Y-73417857D01*
X124317142Y-73560714D01*
X124388571Y-73632142D01*
X124531428Y-73703571D01*
X124817142Y-73703571D01*
X124960000Y-73632142D01*
X125031428Y-73560714D01*
X125102857Y-73417857D01*
X125102857Y-72203571D01*
X125602857Y-72203571D02*
X126460000Y-72203571D01*
X126031428Y-73703571D02*
X126031428Y-72203571D01*
X102084285Y-73068571D02*
X102084285Y-71568571D01*
X102798571Y-73068571D02*
X102798571Y-71568571D01*
X103655714Y-73068571D01*
X103655714Y-71568571D01*
X121690000Y-55058571D02*
X121975714Y-55058571D01*
X122118571Y-55130000D01*
X122261428Y-55272857D01*
X122332857Y-55558571D01*
X122332857Y-56058571D01*
X122261428Y-56344285D01*
X122118571Y-56487142D01*
X121975714Y-56558571D01*
X121690000Y-56558571D01*
X121547142Y-56487142D01*
X121404285Y-56344285D01*
X121332857Y-56058571D01*
X121332857Y-55558571D01*
X121404285Y-55272857D01*
X121547142Y-55130000D01*
X121690000Y-55058571D01*
X122975714Y-55058571D02*
X122975714Y-56272857D01*
X123047142Y-56415714D01*
X123118571Y-56487142D01*
X123261428Y-56558571D01*
X123547142Y-56558571D01*
X123690000Y-56487142D01*
X123761428Y-56415714D01*
X123832857Y-56272857D01*
X123832857Y-55058571D01*
X124332857Y-55058571D02*
X125190000Y-55058571D01*
X124761428Y-56558571D02*
X124761428Y-55058571D01*
X81129285Y-54018571D02*
X81129285Y-52518571D01*
X81843571Y-54018571D02*
X81843571Y-52518571D01*
X82700714Y-54018571D01*
X82700714Y-52518571D01*
X83169285Y-119630000D02*
X83883571Y-119630000D01*
X83026428Y-120058571D02*
X83526428Y-118558571D01*
X84026428Y-120058571D01*
X84526428Y-119487142D02*
X85669285Y-119487142D01*
X83169285Y-117090000D02*
X83883571Y-117090000D01*
X83026428Y-117518571D02*
X83526428Y-116018571D01*
X84026428Y-117518571D01*
X84526428Y-116947142D02*
X85669285Y-116947142D01*
X85097857Y-117518571D02*
X85097857Y-116375714D01*
X83205000Y-114192857D02*
X83705000Y-114192857D01*
X83919285Y-114978571D02*
X83205000Y-114978571D01*
X83205000Y-113478571D01*
X83919285Y-113478571D01*
X84562142Y-114407142D02*
X85705000Y-114407142D01*
X83205000Y-111652857D02*
X83705000Y-111652857D01*
X83919285Y-112438571D02*
X83205000Y-112438571D01*
X83205000Y-110938571D01*
X83919285Y-110938571D01*
X84562142Y-111867142D02*
X85705000Y-111867142D01*
X85133571Y-112438571D02*
X85133571Y-111295714D01*
X80006428Y-122527142D02*
X80220714Y-122598571D01*
X80577857Y-122598571D01*
X80720714Y-122527142D01*
X80792142Y-122455714D01*
X80863571Y-122312857D01*
X80863571Y-122170000D01*
X80792142Y-122027142D01*
X80720714Y-121955714D01*
X80577857Y-121884285D01*
X80292142Y-121812857D01*
X80149285Y-121741428D01*
X80077857Y-121670000D01*
X80006428Y-121527142D01*
X80006428Y-121384285D01*
X80077857Y-121241428D01*
X80149285Y-121170000D01*
X80292142Y-121098571D01*
X80649285Y-121098571D01*
X80863571Y-121170000D01*
X81506428Y-122598571D02*
X81506428Y-121098571D01*
X82149285Y-122598571D02*
X82149285Y-121812857D01*
X82077857Y-121670000D01*
X81935000Y-121598571D01*
X81720714Y-121598571D01*
X81577857Y-121670000D01*
X81506428Y-121741428D01*
X82863571Y-122598571D02*
X82863571Y-121598571D01*
X82863571Y-121098571D02*
X82792142Y-121170000D01*
X82863571Y-121241428D01*
X82935000Y-121170000D01*
X82863571Y-121098571D01*
X82863571Y-121241428D01*
X84149285Y-122527142D02*
X84006428Y-122598571D01*
X83720714Y-122598571D01*
X83577857Y-122527142D01*
X83506428Y-122384285D01*
X83506428Y-121812857D01*
X83577857Y-121670000D01*
X83720714Y-121598571D01*
X84006428Y-121598571D01*
X84149285Y-121670000D01*
X84220714Y-121812857D01*
X84220714Y-121955714D01*
X83506428Y-122098571D01*
X85077857Y-122598571D02*
X84935000Y-122527142D01*
X84863571Y-122384285D01*
X84863571Y-121098571D01*
X86292142Y-122598571D02*
X86292142Y-121098571D01*
X86292142Y-122527142D02*
X86149285Y-122598571D01*
X85863571Y-122598571D01*
X85720714Y-122527142D01*
X85649285Y-122455714D01*
X85577857Y-122312857D01*
X85577857Y-121884285D01*
X85649285Y-121741428D01*
X85720714Y-121670000D01*
X85863571Y-121598571D01*
X86149285Y-121598571D01*
X86292142Y-121670000D01*
X83090000Y-107128571D02*
X83590000Y-108628571D01*
X84090000Y-107128571D01*
X85447142Y-108485714D02*
X85375714Y-108557142D01*
X85161428Y-108628571D01*
X85018571Y-108628571D01*
X84804285Y-108557142D01*
X84661428Y-108414285D01*
X84590000Y-108271428D01*
X84518571Y-107985714D01*
X84518571Y-107771428D01*
X84590000Y-107485714D01*
X84661428Y-107342857D01*
X84804285Y-107200000D01*
X85018571Y-107128571D01*
X85161428Y-107128571D01*
X85375714Y-107200000D01*
X85447142Y-107271428D01*
X86947142Y-108485714D02*
X86875714Y-108557142D01*
X86661428Y-108628571D01*
X86518571Y-108628571D01*
X86304285Y-108557142D01*
X86161428Y-108414285D01*
X86090000Y-108271428D01*
X86018571Y-107985714D01*
X86018571Y-107771428D01*
X86090000Y-107485714D01*
X86161428Y-107342857D01*
X86304285Y-107200000D01*
X86518571Y-107128571D01*
X86661428Y-107128571D01*
X86875714Y-107200000D01*
X86947142Y-107271428D01*
X78232142Y-107200000D02*
X78089285Y-107128571D01*
X77875000Y-107128571D01*
X77660714Y-107200000D01*
X77517857Y-107342857D01*
X77446428Y-107485714D01*
X77375000Y-107771428D01*
X77375000Y-107985714D01*
X77446428Y-108271428D01*
X77517857Y-108414285D01*
X77660714Y-108557142D01*
X77875000Y-108628571D01*
X78017857Y-108628571D01*
X78232142Y-108557142D01*
X78303571Y-108485714D01*
X78303571Y-107985714D01*
X78017857Y-107985714D01*
X78946428Y-108628571D02*
X78946428Y-107128571D01*
X79803571Y-108628571D01*
X79803571Y-107128571D01*
X80517857Y-108628571D02*
X80517857Y-107128571D01*
X80875000Y-107128571D01*
X81089285Y-107200000D01*
X81232142Y-107342857D01*
X81303571Y-107485714D01*
X81375000Y-107771428D01*
X81375000Y-107985714D01*
X81303571Y-108271428D01*
X81232142Y-108414285D01*
X81089285Y-108557142D01*
X80875000Y-108628571D01*
X80517857Y-108628571D01*
X74355000Y-67917142D02*
X74569285Y-67988571D01*
X74926428Y-67988571D01*
X75069285Y-67917142D01*
X75140714Y-67845714D01*
X75212142Y-67702857D01*
X75212142Y-67560000D01*
X75140714Y-67417142D01*
X75069285Y-67345714D01*
X74926428Y-67274285D01*
X74640714Y-67202857D01*
X74497857Y-67131428D01*
X74426428Y-67060000D01*
X74355000Y-66917142D01*
X74355000Y-66774285D01*
X74426428Y-66631428D01*
X74497857Y-66560000D01*
X74640714Y-66488571D01*
X74997857Y-66488571D01*
X75212142Y-66560000D01*
X75712142Y-66488571D02*
X76069285Y-67988571D01*
X76355000Y-66917142D01*
X76640714Y-67988571D01*
X76997857Y-66488571D01*
X77569285Y-67988571D02*
X77569285Y-66488571D01*
X78069285Y-66488571D02*
X78926428Y-66488571D01*
X78497857Y-67988571D02*
X78497857Y-66488571D01*
X80283571Y-67845714D02*
X80212142Y-67917142D01*
X79997857Y-67988571D01*
X79855000Y-67988571D01*
X79640714Y-67917142D01*
X79497857Y-67774285D01*
X79426428Y-67631428D01*
X79355000Y-67345714D01*
X79355000Y-67131428D01*
X79426428Y-66845714D01*
X79497857Y-66702857D01*
X79640714Y-66560000D01*
X79855000Y-66488571D01*
X79997857Y-66488571D01*
X80212142Y-66560000D01*
X80283571Y-66631428D01*
X80926428Y-67988571D02*
X80926428Y-66488571D01*
X80926428Y-67202857D02*
X81783571Y-67202857D01*
X81783571Y-67988571D02*
X81783571Y-66488571D01*
X112379285Y-102278571D02*
X111879285Y-101564285D01*
X111522142Y-102278571D02*
X111522142Y-100778571D01*
X112093571Y-100778571D01*
X112236428Y-100850000D01*
X112307857Y-100921428D01*
X112379285Y-101064285D01*
X112379285Y-101278571D01*
X112307857Y-101421428D01*
X112236428Y-101492857D01*
X112093571Y-101564285D01*
X111522142Y-101564285D01*
X113665000Y-102278571D02*
X113665000Y-101492857D01*
X113593571Y-101350000D01*
X113450714Y-101278571D01*
X113165000Y-101278571D01*
X113022142Y-101350000D01*
X113665000Y-102207142D02*
X113522142Y-102278571D01*
X113165000Y-102278571D01*
X113022142Y-102207142D01*
X112950714Y-102064285D01*
X112950714Y-101921428D01*
X113022142Y-101778571D01*
X113165000Y-101707142D01*
X113522142Y-101707142D01*
X113665000Y-101635714D01*
X114165000Y-101278571D02*
X114736428Y-101278571D01*
X114379285Y-100778571D02*
X114379285Y-102064285D01*
X114450714Y-102207142D01*
X114593571Y-102278571D01*
X114736428Y-102278571D01*
X115807857Y-102207142D02*
X115665000Y-102278571D01*
X115379285Y-102278571D01*
X115236428Y-102207142D01*
X115165000Y-102064285D01*
X115165000Y-101492857D01*
X115236428Y-101350000D01*
X115379285Y-101278571D01*
X115665000Y-101278571D01*
X115807857Y-101350000D01*
X115879285Y-101492857D01*
X115879285Y-101635714D01*
X115165000Y-101778571D01*
X170450000Y-89578571D02*
X169950000Y-88864285D01*
X169592857Y-89578571D02*
X169592857Y-88078571D01*
X170164285Y-88078571D01*
X170307142Y-88150000D01*
X170378571Y-88221428D01*
X170450000Y-88364285D01*
X170450000Y-88578571D01*
X170378571Y-88721428D01*
X170307142Y-88792857D01*
X170164285Y-88864285D01*
X169592857Y-88864285D01*
X170950000Y-88078571D02*
X171950000Y-89578571D01*
X171950000Y-88078571D02*
X170950000Y-89578571D01*
X172521428Y-89578571D02*
X172521428Y-88078571D01*
X172878571Y-88078571D01*
X173092857Y-88150000D01*
X173235714Y-88292857D01*
X173307142Y-88435714D01*
X173378571Y-88721428D01*
X173378571Y-88935714D01*
X173307142Y-89221428D01*
X173235714Y-89364285D01*
X173092857Y-89507142D01*
X172878571Y-89578571D01*
X172521428Y-89578571D01*
X169557142Y-90618571D02*
X170414285Y-90618571D01*
X169985714Y-92118571D02*
X169985714Y-90618571D01*
X170771428Y-90618571D02*
X171771428Y-92118571D01*
X171771428Y-90618571D02*
X170771428Y-92118571D01*
X172342857Y-92118571D02*
X172342857Y-90618571D01*
X172700000Y-90618571D01*
X172914285Y-90690000D01*
X173057142Y-90832857D01*
X173128571Y-90975714D01*
X173200000Y-91261428D01*
X173200000Y-91475714D01*
X173128571Y-91761428D01*
X173057142Y-91904285D01*
X172914285Y-92047142D01*
X172700000Y-92118571D01*
X172342857Y-92118571D01*
X170628571Y-94658571D02*
X170128571Y-93944285D01*
X169771428Y-94658571D02*
X169771428Y-93158571D01*
X170342857Y-93158571D01*
X170485714Y-93230000D01*
X170557142Y-93301428D01*
X170628571Y-93444285D01*
X170628571Y-93658571D01*
X170557142Y-93801428D01*
X170485714Y-93872857D01*
X170342857Y-93944285D01*
X169771428Y-93944285D01*
X171057142Y-93158571D02*
X171914285Y-93158571D01*
X171485714Y-94658571D02*
X171485714Y-93158571D01*
X172342857Y-94587142D02*
X172557142Y-94658571D01*
X172914285Y-94658571D01*
X173057142Y-94587142D01*
X173128571Y-94515714D01*
X173200000Y-94372857D01*
X173200000Y-94230000D01*
X173128571Y-94087142D01*
X173057142Y-94015714D01*
X172914285Y-93944285D01*
X172628571Y-93872857D01*
X172485714Y-93801428D01*
X172414285Y-93730000D01*
X172342857Y-93587142D01*
X172342857Y-93444285D01*
X172414285Y-93301428D01*
X172485714Y-93230000D01*
X172628571Y-93158571D01*
X172985714Y-93158571D01*
X173200000Y-93230000D01*
X169735714Y-97198571D02*
X169735714Y-95698571D01*
X170092857Y-95698571D01*
X170307142Y-95770000D01*
X170450000Y-95912857D01*
X170521428Y-96055714D01*
X170592857Y-96341428D01*
X170592857Y-96555714D01*
X170521428Y-96841428D01*
X170450000Y-96984285D01*
X170307142Y-97127142D01*
X170092857Y-97198571D01*
X169735714Y-97198571D01*
X171021428Y-95698571D02*
X171878571Y-95698571D01*
X171450000Y-97198571D02*
X171450000Y-95698571D01*
X173235714Y-97198571D02*
X172735714Y-96484285D01*
X172378571Y-97198571D02*
X172378571Y-95698571D01*
X172950000Y-95698571D01*
X173092857Y-95770000D01*
X173164285Y-95841428D01*
X173235714Y-95984285D01*
X173235714Y-96198571D01*
X173164285Y-96341428D01*
X173092857Y-96412857D01*
X172950000Y-96484285D01*
X172378571Y-96484285D01*
X158381428Y-54495000D02*
X158238571Y-54423571D01*
X158024285Y-54423571D01*
X157810000Y-54495000D01*
X157667142Y-54637857D01*
X157595714Y-54780714D01*
X157524285Y-55066428D01*
X157524285Y-55280714D01*
X157595714Y-55566428D01*
X157667142Y-55709285D01*
X157810000Y-55852142D01*
X158024285Y-55923571D01*
X158167142Y-55923571D01*
X158381428Y-55852142D01*
X158452857Y-55780714D01*
X158452857Y-55280714D01*
X158167142Y-55280714D01*
X159095714Y-55923571D02*
X159095714Y-54423571D01*
X159952857Y-55923571D01*
X159952857Y-54423571D01*
X160667142Y-55923571D02*
X160667142Y-54423571D01*
X161024285Y-54423571D01*
X161238571Y-54495000D01*
X161381428Y-54637857D01*
X161452857Y-54780714D01*
X161524285Y-55066428D01*
X161524285Y-55280714D01*
X161452857Y-55566428D01*
X161381428Y-55709285D01*
X161238571Y-55852142D01*
X161024285Y-55923571D01*
X160667142Y-55923571D01*
X163238571Y-54352142D02*
X161952857Y-56280714D01*
X164595714Y-55923571D02*
X164095714Y-55209285D01*
X163738571Y-55923571D02*
X163738571Y-54423571D01*
X164310000Y-54423571D01*
X164452857Y-54495000D01*
X164524285Y-54566428D01*
X164595714Y-54709285D01*
X164595714Y-54923571D01*
X164524285Y-55066428D01*
X164452857Y-55137857D01*
X164310000Y-55209285D01*
X163738571Y-55209285D01*
X166024285Y-54495000D02*
X165881428Y-54423571D01*
X165667142Y-54423571D01*
X165452857Y-54495000D01*
X165310000Y-54637857D01*
X165238571Y-54780714D01*
X165167142Y-55066428D01*
X165167142Y-55280714D01*
X165238571Y-55566428D01*
X165310000Y-55709285D01*
X165452857Y-55852142D01*
X165667142Y-55923571D01*
X165810000Y-55923571D01*
X166024285Y-55852142D01*
X166095714Y-55780714D01*
X166095714Y-55280714D01*
X165810000Y-55280714D01*
X167238571Y-55137857D02*
X167452857Y-55209285D01*
X167524285Y-55280714D01*
X167595714Y-55423571D01*
X167595714Y-55637857D01*
X167524285Y-55780714D01*
X167452857Y-55852142D01*
X167310000Y-55923571D01*
X166738571Y-55923571D01*
X166738571Y-54423571D01*
X167238571Y-54423571D01*
X167381428Y-54495000D01*
X167452857Y-54566428D01*
X167524285Y-54709285D01*
X167524285Y-54852142D01*
X167452857Y-54995000D01*
X167381428Y-55066428D01*
X167238571Y-55137857D01*
X166738571Y-55137857D01*
X131588571Y-52113571D02*
X130874285Y-52113571D01*
X130874285Y-50613571D01*
X132088571Y-51327857D02*
X132588571Y-51327857D01*
X132802857Y-52113571D02*
X132088571Y-52113571D01*
X132088571Y-50613571D01*
X132802857Y-50613571D01*
X133445714Y-52113571D02*
X133445714Y-50613571D01*
X133802857Y-50613571D01*
X134017142Y-50685000D01*
X134160000Y-50827857D01*
X134231428Y-50970714D01*
X134302857Y-51256428D01*
X134302857Y-51470714D01*
X134231428Y-51756428D01*
X134160000Y-51899285D01*
X134017142Y-52042142D01*
X133802857Y-52113571D01*
X133445714Y-52113571D01*
X134588571Y-52256428D02*
X135731428Y-52256428D01*
X136017142Y-52042142D02*
X136231428Y-52113571D01*
X136588571Y-52113571D01*
X136731428Y-52042142D01*
X136802857Y-51970714D01*
X136874285Y-51827857D01*
X136874285Y-51685000D01*
X136802857Y-51542142D01*
X136731428Y-51470714D01*
X136588571Y-51399285D01*
X136302857Y-51327857D01*
X136160000Y-51256428D01*
X136088571Y-51185000D01*
X136017142Y-51042142D01*
X136017142Y-50899285D01*
X136088571Y-50756428D01*
X136160000Y-50685000D01*
X136302857Y-50613571D01*
X136660000Y-50613571D01*
X136874285Y-50685000D01*
X137374285Y-50613571D02*
X137731428Y-52113571D01*
X138017142Y-51042142D01*
X138302857Y-52113571D01*
X138660000Y-50613571D01*
X139231428Y-52113571D02*
X139231428Y-50613571D01*
X139731428Y-50613571D02*
X140588571Y-50613571D01*
X140160000Y-52113571D02*
X140160000Y-50613571D01*
X141945714Y-51970714D02*
X141874285Y-52042142D01*
X141660000Y-52113571D01*
X141517142Y-52113571D01*
X141302857Y-52042142D01*
X141160000Y-51899285D01*
X141088571Y-51756428D01*
X141017142Y-51470714D01*
X141017142Y-51256428D01*
X141088571Y-50970714D01*
X141160000Y-50827857D01*
X141302857Y-50685000D01*
X141517142Y-50613571D01*
X141660000Y-50613571D01*
X141874285Y-50685000D01*
X141945714Y-50756428D01*
X142588571Y-52113571D02*
X142588571Y-50613571D01*
X142588571Y-51327857D02*
X143445714Y-51327857D01*
X143445714Y-52113571D02*
X143445714Y-50613571D01*
D11*
G04 #@! TO.C,U5*
X108458000Y-88900000D02*
X108458000Y-94234000D01*
X108458000Y-88900000D02*
X108458000Y-83566000D01*
X116967000Y-83566000D02*
X108458000Y-83566000D01*
X108458000Y-94234000D02*
X116967000Y-94234000D01*
X124968000Y-83566000D02*
X116967000Y-83566000D01*
X124968000Y-94234000D02*
X124968000Y-83566000D01*
X116967000Y-94234000D02*
X124968000Y-94234000D01*
X108458000Y-91440000D02*
X106680000Y-91440000D01*
X108458000Y-88900000D02*
X106680000Y-88900000D01*
X108458000Y-86360000D02*
X106680000Y-86360000D01*
X124053472Y-88900000D02*
G75*
G03X124053472Y-88900000I-2514472J0D01*
G01*
G04 #@! TO.C,C1*
X103525000Y-84070000D02*
X103525000Y-81070000D01*
X106025000Y-81070000D02*
X106025000Y-84070000D01*
G04 #@! TO.C,C2*
X103525000Y-96730000D02*
X103525000Y-93730000D01*
X106025000Y-93730000D02*
X106025000Y-96730000D01*
G04 #@! TO.C,P1*
X134620000Y-53340000D02*
X134620000Y-55880000D01*
X137160000Y-53340000D02*
X134620000Y-53340000D01*
X139980000Y-53060000D02*
X139980000Y-56160000D01*
X138430000Y-53060000D02*
X139980000Y-53060000D01*
X137160000Y-55880000D02*
X137160000Y-53340000D01*
X139980000Y-56160000D02*
X138430000Y-56160000D01*
X137160000Y-55880000D02*
X134620000Y-55880000D01*
G04 #@! TO.C,P4*
X76200000Y-81280000D02*
X76200000Y-88900000D01*
X76200000Y-88900000D02*
X81280000Y-88900000D01*
X81280000Y-88900000D02*
X81280000Y-78740000D01*
X81280000Y-78740000D02*
X78740000Y-78740000D01*
X77470000Y-78460000D02*
X75920000Y-78460000D01*
X78740000Y-78740000D02*
X78740000Y-81280000D01*
X78740000Y-81280000D02*
X76200000Y-81280000D01*
X75920000Y-78460000D02*
X75920000Y-80010000D01*
G04 #@! TO.C,P5*
X87350000Y-111760000D02*
X87350000Y-110210000D01*
X87350000Y-110210000D02*
X90450000Y-110210000D01*
X90450000Y-110210000D02*
X90450000Y-111760000D01*
X90170000Y-113030000D02*
X90170000Y-123190000D01*
X90170000Y-123190000D02*
X87630000Y-123190000D01*
X87630000Y-123190000D02*
X87630000Y-113030000D01*
X90170000Y-113030000D02*
X87630000Y-113030000D01*
G04 #@! TO.C,P6*
X165730000Y-90270000D02*
X165730000Y-97890000D01*
X168270000Y-90270000D02*
X168270000Y-97890000D01*
X168550000Y-87450000D02*
X168550000Y-89000000D01*
X165730000Y-97890000D02*
X168270000Y-97890000D01*
X168270000Y-90270000D02*
X165730000Y-90270000D01*
X165450000Y-89000000D02*
X165450000Y-87450000D01*
X165450000Y-87450000D02*
X168550000Y-87450000D01*
G04 #@! TO.C,P7*
X107950000Y-100330000D02*
X110490000Y-100330000D01*
X105130000Y-100050000D02*
X106680000Y-100050000D01*
X107950000Y-100330000D02*
X107950000Y-102870000D01*
X106680000Y-103150000D02*
X105130000Y-103150000D01*
X105130000Y-103150000D02*
X105130000Y-100050000D01*
X107950000Y-102870000D02*
X110490000Y-102870000D01*
X110490000Y-102870000D02*
X110490000Y-100330000D01*
G04 #@! TO.C,P8*
X145450000Y-56550000D02*
X145450000Y-53450000D01*
X147000000Y-56550000D02*
X145450000Y-56550000D01*
X148270000Y-53730000D02*
X148270000Y-56270000D01*
X155890000Y-56270000D02*
X155890000Y-53730000D01*
X145450000Y-53450000D02*
X147000000Y-53450000D01*
X148270000Y-53730000D02*
X155890000Y-53730000D01*
X148270000Y-56270000D02*
X155890000Y-56270000D01*
G04 #@! TO.C,R1*
X135890000Y-60960000D02*
X135890000Y-59690000D01*
X135890000Y-66040000D02*
X135890000Y-67310000D01*
X137160000Y-66040000D02*
X134620000Y-66040000D01*
X137160000Y-60960000D02*
X137160000Y-66040000D01*
X134620000Y-60960000D02*
X137160000Y-60960000D01*
X134620000Y-66040000D02*
X134620000Y-60960000D01*
G04 #@! TO.C,R2*
X133350000Y-83820000D02*
X133350000Y-82550000D01*
X133350000Y-88900000D02*
X133350000Y-90170000D01*
X134620000Y-88900000D02*
X132080000Y-88900000D01*
X134620000Y-83820000D02*
X134620000Y-88900000D01*
X132080000Y-83820000D02*
X134620000Y-83820000D01*
X132080000Y-88900000D02*
X132080000Y-83820000D01*
G04 #@! TO.C,R3*
X132080000Y-102870000D02*
X132080000Y-97790000D01*
X132080000Y-97790000D02*
X134620000Y-97790000D01*
X134620000Y-97790000D02*
X134620000Y-102870000D01*
X134620000Y-102870000D02*
X132080000Y-102870000D01*
X133350000Y-102870000D02*
X133350000Y-104140000D01*
X133350000Y-97790000D02*
X133350000Y-96520000D01*
G04 #@! TO.C,R4*
X138430000Y-88900000D02*
X138430000Y-93980000D01*
X138430000Y-93980000D02*
X135890000Y-93980000D01*
X135890000Y-93980000D02*
X135890000Y-88900000D01*
X135890000Y-88900000D02*
X138430000Y-88900000D01*
X137160000Y-88900000D02*
X137160000Y-87630000D01*
X137160000Y-93980000D02*
X137160000Y-95250000D01*
G04 #@! TO.C,R5*
X138430000Y-105410000D02*
X138430000Y-110490000D01*
X138430000Y-110490000D02*
X135890000Y-110490000D01*
X135890000Y-110490000D02*
X135890000Y-105410000D01*
X135890000Y-105410000D02*
X138430000Y-105410000D01*
X137160000Y-105410000D02*
X137160000Y-104140000D01*
X137160000Y-110490000D02*
X137160000Y-111760000D01*
G04 #@! TO.C,R6*
X150495000Y-112395000D02*
X151765000Y-112395000D01*
X145415000Y-112395000D02*
X144145000Y-112395000D01*
X145415000Y-113665000D02*
X145415000Y-111125000D01*
X150495000Y-113665000D02*
X145415000Y-113665000D01*
X150495000Y-111125000D02*
X150495000Y-113665000D01*
X145415000Y-111125000D02*
X150495000Y-111125000D01*
G04 #@! TO.C,R7*
X161000000Y-102620000D02*
X161000000Y-103890000D01*
X161000000Y-97540000D02*
X161000000Y-96270000D01*
X159730000Y-97540000D02*
X162270000Y-97540000D01*
X159730000Y-102620000D02*
X159730000Y-97540000D01*
X162270000Y-102620000D02*
X159730000Y-102620000D01*
X162270000Y-97540000D02*
X162270000Y-102620000D01*
G04 #@! TO.C,R8*
X162270000Y-84540000D02*
X162270000Y-89620000D01*
X162270000Y-89620000D02*
X159730000Y-89620000D01*
X159730000Y-89620000D02*
X159730000Y-84540000D01*
X159730000Y-84540000D02*
X162270000Y-84540000D01*
X161000000Y-84540000D02*
X161000000Y-83270000D01*
X161000000Y-89620000D02*
X161000000Y-90890000D01*
G04 #@! TO.C,R9*
X145415000Y-106680000D02*
X150495000Y-106680000D01*
X150495000Y-106680000D02*
X150495000Y-109220000D01*
X150495000Y-109220000D02*
X145415000Y-109220000D01*
X145415000Y-109220000D02*
X145415000Y-106680000D01*
X145415000Y-107950000D02*
X144145000Y-107950000D01*
X150495000Y-107950000D02*
X151765000Y-107950000D01*
G04 #@! TO.C,R10*
X95250000Y-101600000D02*
X93980000Y-101600000D01*
X100330000Y-101600000D02*
X101600000Y-101600000D01*
X100330000Y-100330000D02*
X100330000Y-102870000D01*
X95250000Y-100330000D02*
X100330000Y-100330000D01*
X95250000Y-102870000D02*
X95250000Y-100330000D01*
X100330000Y-102870000D02*
X95250000Y-102870000D01*
G04 #@! TO.C,R11*
X165000000Y-77620000D02*
X165000000Y-78890000D01*
X165000000Y-72540000D02*
X165000000Y-71270000D01*
X163730000Y-72540000D02*
X166270000Y-72540000D01*
X163730000Y-77620000D02*
X163730000Y-72540000D01*
X166270000Y-77620000D02*
X163730000Y-77620000D01*
X166270000Y-72540000D02*
X166270000Y-77620000D01*
G04 #@! TO.C,R12*
X157270000Y-72540000D02*
X157270000Y-77620000D01*
X157270000Y-77620000D02*
X154730000Y-77620000D01*
X154730000Y-77620000D02*
X154730000Y-72540000D01*
X154730000Y-72540000D02*
X157270000Y-72540000D01*
X156000000Y-72540000D02*
X156000000Y-71270000D01*
X156000000Y-77620000D02*
X156000000Y-78890000D01*
G04 #@! TO.C,R13*
X148270000Y-72540000D02*
X148270000Y-77620000D01*
X148270000Y-77620000D02*
X145730000Y-77620000D01*
X145730000Y-77620000D02*
X145730000Y-72540000D01*
X145730000Y-72540000D02*
X148270000Y-72540000D01*
X147000000Y-72540000D02*
X147000000Y-71270000D01*
X147000000Y-77620000D02*
X147000000Y-78890000D01*
G04 #@! TO.C,R14*
X159385000Y-66460000D02*
X159385000Y-61380000D01*
X159385000Y-61380000D02*
X161925000Y-61380000D01*
X161925000Y-61380000D02*
X161925000Y-66460000D01*
X161925000Y-66460000D02*
X159385000Y-66460000D01*
X160655000Y-66460000D02*
X160655000Y-67730000D01*
X160655000Y-61380000D02*
X160655000Y-60110000D01*
G04 #@! TO.C,R15*
X152000000Y-61380000D02*
X152000000Y-60110000D01*
X152000000Y-66460000D02*
X152000000Y-67730000D01*
X153270000Y-66460000D02*
X150730000Y-66460000D01*
X153270000Y-61380000D02*
X153270000Y-66460000D01*
X150730000Y-61380000D02*
X153270000Y-61380000D01*
X150730000Y-66460000D02*
X150730000Y-61380000D01*
G04 #@! TO.C,R16*
X143000000Y-61380000D02*
X143000000Y-60110000D01*
X143000000Y-66460000D02*
X143000000Y-67730000D01*
X144270000Y-66460000D02*
X141730000Y-66460000D01*
X144270000Y-61380000D02*
X144270000Y-66460000D01*
X141730000Y-61380000D02*
X144270000Y-61380000D01*
X141730000Y-66460000D02*
X141730000Y-61380000D01*
G04 #@! TO.C,U1*
X84060000Y-96500000D02*
X84060000Y-68600000D01*
X101360000Y-96500000D02*
X101360000Y-68600000D01*
X84060000Y-96500000D02*
X101360000Y-96500000D01*
X84060000Y-68600000D02*
X101360000Y-68600000D01*
G04 #@! TO.C,U2*
X83500000Y-46880000D02*
X120500000Y-46880000D01*
X83500000Y-46880000D02*
X83500000Y-64880000D01*
X83500000Y-64880000D02*
X120500000Y-64880000D01*
X120500000Y-46880000D02*
X120500000Y-64880000D01*
D12*
G04 #@! TO.C,U3*
X141000000Y-82600000D02*
X157000000Y-82600000D01*
X157000000Y-82600000D02*
X157000000Y-88000000D01*
X141000000Y-82600000D02*
X141000000Y-88000000D01*
X141000000Y-103800000D02*
X141000000Y-104600000D01*
X141000000Y-104600000D02*
X157000000Y-104600000D01*
X157000000Y-104600000D02*
X157000000Y-103800000D01*
X157000000Y-82600000D02*
X141000000Y-86400000D01*
X141000000Y-82600000D02*
X157000000Y-86400000D01*
X140992000Y-86400000D02*
X156992000Y-86400000D01*
D11*
G04 #@! TO.C,U4*
X122030000Y-78215000D02*
X104030000Y-78215000D01*
X122030000Y-78215000D02*
X122030000Y-66565000D01*
X122030000Y-66565000D02*
X104030000Y-66565000D01*
X104030000Y-66565000D02*
X104030000Y-78215000D01*
G04 #@! TO.C,U6*
X92220000Y-105070000D02*
X126220000Y-105070000D01*
X92220000Y-105070000D02*
X92220000Y-126070000D01*
X126220000Y-105070000D02*
X126220000Y-126070000D01*
X92220000Y-126070000D02*
X126220000Y-126070000D01*
G04 #@! TO.C,P2*
X73290000Y-63800000D02*
X73890000Y-63500000D01*
X73290000Y-63200000D02*
X73290000Y-63800000D01*
X73890000Y-63500000D02*
X73290000Y-63200000D01*
X80890000Y-56920000D02*
X80890000Y-57670000D01*
X76590000Y-56920000D02*
X80890000Y-56920000D01*
X76590000Y-57670000D02*
X76590000Y-56920000D01*
X76590000Y-57670000D02*
X76590000Y-57670000D01*
X76240000Y-57670000D02*
X76590000Y-57670000D01*
X76240000Y-57170000D02*
X76240000Y-57670000D01*
X75240000Y-56920000D02*
X76240000Y-57170000D01*
X75240000Y-59920000D02*
X75240000Y-56920000D01*
X76240000Y-59670000D02*
X75240000Y-59920000D01*
X76240000Y-59170000D02*
X76240000Y-59670000D01*
X76590000Y-59170000D02*
X76240000Y-59170000D01*
X76590000Y-59920000D02*
X76590000Y-59170000D01*
X80890000Y-59920000D02*
X76590000Y-59920000D01*
X80890000Y-59170000D02*
X80890000Y-59920000D01*
X80890000Y-62000000D02*
X80890000Y-62750000D01*
X76590000Y-62000000D02*
X80890000Y-62000000D01*
X76590000Y-62750000D02*
X76590000Y-62000000D01*
X76590000Y-62750000D02*
X76590000Y-62750000D01*
X76240000Y-62750000D02*
X76590000Y-62750000D01*
X76240000Y-62250000D02*
X76240000Y-62750000D01*
X75240000Y-62000000D02*
X76240000Y-62250000D01*
X75240000Y-65000000D02*
X75240000Y-62000000D01*
X76240000Y-64750000D02*
X75240000Y-65000000D01*
X76240000Y-64250000D02*
X76240000Y-64750000D01*
X76590000Y-64250000D02*
X76240000Y-64250000D01*
X76590000Y-65000000D02*
X76590000Y-64250000D01*
X80890000Y-65000000D02*
X76590000Y-65000000D01*
X80890000Y-64250000D02*
X80890000Y-65000000D01*
X74310000Y-55800000D02*
X74310000Y-66120000D01*
X81720000Y-55800000D02*
X74310000Y-55800000D01*
X81720000Y-66120000D02*
X81720000Y-55800000D01*
X74310000Y-66120000D02*
X81720000Y-66120000D01*
X80889845Y-57670353D02*
G75*
G03X80890000Y-59170000I1700155J-749647D01*
G01*
X80889845Y-62750353D02*
G75*
G03X80890000Y-64250000I1700155J-749647D01*
G01*
G04 #@! TO.C,P3*
X84340353Y-99450155D02*
G75*
G03X85840000Y-99450000I749647J1700155D01*
G01*
X79260353Y-99450155D02*
G75*
G03X80760000Y-99450000I749647J1700155D01*
G01*
X87710000Y-106030000D02*
X87710000Y-98620000D01*
X87710000Y-98620000D02*
X77390000Y-98620000D01*
X77390000Y-98620000D02*
X77390000Y-106030000D01*
X77390000Y-106030000D02*
X87710000Y-106030000D01*
X85840000Y-99450000D02*
X86590000Y-99450000D01*
X86590000Y-99450000D02*
X86590000Y-103750000D01*
X86590000Y-103750000D02*
X85840000Y-103750000D01*
X85840000Y-103750000D02*
X85840000Y-104100000D01*
X85840000Y-104100000D02*
X86340000Y-104100000D01*
X86340000Y-104100000D02*
X86590000Y-105100000D01*
X86590000Y-105100000D02*
X83590000Y-105100000D01*
X83590000Y-105100000D02*
X83840000Y-104100000D01*
X83840000Y-104100000D02*
X84340000Y-104100000D01*
X84340000Y-104100000D02*
X84340000Y-103750000D01*
X84340000Y-103750000D02*
X84340000Y-103750000D01*
X84340000Y-103750000D02*
X83590000Y-103750000D01*
X83590000Y-103750000D02*
X83590000Y-99450000D01*
X83590000Y-99450000D02*
X84340000Y-99450000D01*
X80760000Y-99450000D02*
X81510000Y-99450000D01*
X81510000Y-99450000D02*
X81510000Y-103750000D01*
X81510000Y-103750000D02*
X80760000Y-103750000D01*
X80760000Y-103750000D02*
X80760000Y-104100000D01*
X80760000Y-104100000D02*
X81260000Y-104100000D01*
X81260000Y-104100000D02*
X81510000Y-105100000D01*
X81510000Y-105100000D02*
X78510000Y-105100000D01*
X78510000Y-105100000D02*
X78760000Y-104100000D01*
X78760000Y-104100000D02*
X79260000Y-104100000D01*
X79260000Y-104100000D02*
X79260000Y-103750000D01*
X79260000Y-103750000D02*
X79260000Y-103750000D01*
X79260000Y-103750000D02*
X78510000Y-103750000D01*
X78510000Y-103750000D02*
X78510000Y-99450000D01*
X78510000Y-99450000D02*
X79260000Y-99450000D01*
X85090000Y-106450000D02*
X84790000Y-107050000D01*
X84790000Y-107050000D02*
X85390000Y-107050000D01*
X85390000Y-107050000D02*
X85090000Y-106450000D01*
G04 #@! TO.C,Q1*
X136163010Y-73377305D02*
G75*
G03X135460000Y-73865000I996990J-2187695D01*
G01*
X136163010Y-77752695D02*
G75*
G02X135460000Y-77265000I996990J2187695D01*
G01*
X135460000Y-73865000D02*
X135460000Y-77265000D01*
X138153127Y-73380121D02*
G75*
G02X139560000Y-75565000I-993127J-2184879D01*
G01*
X138153127Y-77749879D02*
G75*
G03X139560000Y-75565000I-993127J2184879D01*
G01*
G04 #@! TO.C,Q2*
X161648127Y-77749879D02*
G75*
G03X163055000Y-75565000I-993127J2184879D01*
G01*
X161648127Y-73380121D02*
G75*
G02X163055000Y-75565000I-993127J-2184879D01*
G01*
X158955000Y-73865000D02*
X158955000Y-77265000D01*
X159658010Y-77752695D02*
G75*
G02X158955000Y-77265000I996990J2187695D01*
G01*
X159658010Y-73377305D02*
G75*
G03X158955000Y-73865000I996990J-2187695D01*
G01*
G04 #@! TO.C,Q3*
X150133010Y-73377305D02*
G75*
G03X149430000Y-73865000I996990J-2187695D01*
G01*
X150133010Y-77752695D02*
G75*
G02X149430000Y-77265000I996990J2187695D01*
G01*
X149430000Y-73865000D02*
X149430000Y-77265000D01*
X152123127Y-73380121D02*
G75*
G02X153530000Y-75565000I-993127J-2184879D01*
G01*
X152123127Y-77749879D02*
G75*
G03X153530000Y-75565000I-993127J2184879D01*
G01*
G04 #@! TO.C,Q4*
X143868127Y-77749879D02*
G75*
G03X145275000Y-75565000I-993127J2184879D01*
G01*
X143868127Y-73380121D02*
G75*
G02X145275000Y-75565000I-993127J-2184879D01*
G01*
X141175000Y-73865000D02*
X141175000Y-77265000D01*
X141878010Y-77752695D02*
G75*
G02X141175000Y-77265000I996990J2187695D01*
G01*
X141878010Y-73377305D02*
G75*
G03X141175000Y-73865000I996990J-2187695D01*
G01*
G04 #@! TO.C,U5*
X116078095Y-81367380D02*
X116078095Y-82176904D01*
X116125714Y-82272142D01*
X116173333Y-82319761D01*
X116268571Y-82367380D01*
X116459047Y-82367380D01*
X116554285Y-82319761D01*
X116601904Y-82272142D01*
X116649523Y-82176904D01*
X116649523Y-81367380D01*
X117601904Y-81367380D02*
X117125714Y-81367380D01*
X117078095Y-81843571D01*
X117125714Y-81795952D01*
X117220952Y-81748333D01*
X117459047Y-81748333D01*
X117554285Y-81795952D01*
X117601904Y-81843571D01*
X117649523Y-81938809D01*
X117649523Y-82176904D01*
X117601904Y-82272142D01*
X117554285Y-82319761D01*
X117459047Y-82367380D01*
X117220952Y-82367380D01*
X117125714Y-82319761D01*
X117078095Y-82272142D01*
G04 #@! TO.C,C1*
X107672142Y-80811666D02*
X107719761Y-80859285D01*
X107767380Y-81002142D01*
X107767380Y-81097380D01*
X107719761Y-81240238D01*
X107624523Y-81335476D01*
X107529285Y-81383095D01*
X107338809Y-81430714D01*
X107195952Y-81430714D01*
X107005476Y-81383095D01*
X106910238Y-81335476D01*
X106815000Y-81240238D01*
X106767380Y-81097380D01*
X106767380Y-81002142D01*
X106815000Y-80859285D01*
X106862619Y-80811666D01*
X107767380Y-79859285D02*
X107767380Y-80430714D01*
X107767380Y-80145000D02*
X106767380Y-80145000D01*
X106910238Y-80240238D01*
X107005476Y-80335476D01*
X107053095Y-80430714D01*
G04 #@! TO.C,C2*
X107632142Y-96686666D02*
X107679761Y-96734285D01*
X107727380Y-96877142D01*
X107727380Y-96972380D01*
X107679761Y-97115238D01*
X107584523Y-97210476D01*
X107489285Y-97258095D01*
X107298809Y-97305714D01*
X107155952Y-97305714D01*
X106965476Y-97258095D01*
X106870238Y-97210476D01*
X106775000Y-97115238D01*
X106727380Y-96972380D01*
X106727380Y-96877142D01*
X106775000Y-96734285D01*
X106822619Y-96686666D01*
X106822619Y-96305714D02*
X106775000Y-96258095D01*
X106727380Y-96162857D01*
X106727380Y-95924761D01*
X106775000Y-95829523D01*
X106822619Y-95781904D01*
X106917857Y-95734285D01*
X107013095Y-95734285D01*
X107155952Y-95781904D01*
X107727380Y-96353333D01*
X107727380Y-95734285D01*
G04 #@! TO.C,P1*
X131976904Y-55062380D02*
X131976904Y-54062380D01*
X132357857Y-54062380D01*
X132453095Y-54110000D01*
X132500714Y-54157619D01*
X132548333Y-54252857D01*
X132548333Y-54395714D01*
X132500714Y-54490952D01*
X132453095Y-54538571D01*
X132357857Y-54586190D01*
X131976904Y-54586190D01*
X133500714Y-55062380D02*
X132929285Y-55062380D01*
X133215000Y-55062380D02*
X133215000Y-54062380D01*
X133119761Y-54205238D01*
X133024523Y-54300476D01*
X132929285Y-54348095D01*
G04 #@! TO.C,P4*
X78001904Y-90622380D02*
X78001904Y-89622380D01*
X78382857Y-89622380D01*
X78478095Y-89670000D01*
X78525714Y-89717619D01*
X78573333Y-89812857D01*
X78573333Y-89955714D01*
X78525714Y-90050952D01*
X78478095Y-90098571D01*
X78382857Y-90146190D01*
X78001904Y-90146190D01*
X79430476Y-89955714D02*
X79430476Y-90622380D01*
X79192380Y-89574761D02*
X78954285Y-90289047D01*
X79573333Y-90289047D01*
G04 #@! TO.C,P5*
X88161904Y-124912380D02*
X88161904Y-123912380D01*
X88542857Y-123912380D01*
X88638095Y-123960000D01*
X88685714Y-124007619D01*
X88733333Y-124102857D01*
X88733333Y-124245714D01*
X88685714Y-124340952D01*
X88638095Y-124388571D01*
X88542857Y-124436190D01*
X88161904Y-124436190D01*
X89638095Y-123912380D02*
X89161904Y-123912380D01*
X89114285Y-124388571D01*
X89161904Y-124340952D01*
X89257142Y-124293333D01*
X89495238Y-124293333D01*
X89590476Y-124340952D01*
X89638095Y-124388571D01*
X89685714Y-124483809D01*
X89685714Y-124721904D01*
X89638095Y-124817142D01*
X89590476Y-124864761D01*
X89495238Y-124912380D01*
X89257142Y-124912380D01*
X89161904Y-124864761D01*
X89114285Y-124817142D01*
G04 #@! TO.C,P6*
X166261904Y-86452380D02*
X166261904Y-85452380D01*
X166642857Y-85452380D01*
X166738095Y-85500000D01*
X166785714Y-85547619D01*
X166833333Y-85642857D01*
X166833333Y-85785714D01*
X166785714Y-85880952D01*
X166738095Y-85928571D01*
X166642857Y-85976190D01*
X166261904Y-85976190D01*
X167690476Y-85452380D02*
X167500000Y-85452380D01*
X167404761Y-85500000D01*
X167357142Y-85547619D01*
X167261904Y-85690476D01*
X167214285Y-85880952D01*
X167214285Y-86261904D01*
X167261904Y-86357142D01*
X167309523Y-86404761D01*
X167404761Y-86452380D01*
X167595238Y-86452380D01*
X167690476Y-86404761D01*
X167738095Y-86357142D01*
X167785714Y-86261904D01*
X167785714Y-86023809D01*
X167738095Y-85928571D01*
X167690476Y-85880952D01*
X167595238Y-85833333D01*
X167404761Y-85833333D01*
X167309523Y-85880952D01*
X167261904Y-85928571D01*
X167214285Y-86023809D01*
G04 #@! TO.C,P7*
X107211904Y-99512380D02*
X107211904Y-98512380D01*
X107592857Y-98512380D01*
X107688095Y-98560000D01*
X107735714Y-98607619D01*
X107783333Y-98702857D01*
X107783333Y-98845714D01*
X107735714Y-98940952D01*
X107688095Y-98988571D01*
X107592857Y-99036190D01*
X107211904Y-99036190D01*
X108116666Y-98512380D02*
X108783333Y-98512380D01*
X108354761Y-99512380D01*
G04 #@! TO.C,P8*
X143406904Y-55062380D02*
X143406904Y-54062380D01*
X143787857Y-54062380D01*
X143883095Y-54110000D01*
X143930714Y-54157619D01*
X143978333Y-54252857D01*
X143978333Y-54395714D01*
X143930714Y-54490952D01*
X143883095Y-54538571D01*
X143787857Y-54586190D01*
X143406904Y-54586190D01*
X144549761Y-54490952D02*
X144454523Y-54443333D01*
X144406904Y-54395714D01*
X144359285Y-54300476D01*
X144359285Y-54252857D01*
X144406904Y-54157619D01*
X144454523Y-54110000D01*
X144549761Y-54062380D01*
X144740238Y-54062380D01*
X144835476Y-54110000D01*
X144883095Y-54157619D01*
X144930714Y-54252857D01*
X144930714Y-54300476D01*
X144883095Y-54395714D01*
X144835476Y-54443333D01*
X144740238Y-54490952D01*
X144549761Y-54490952D01*
X144454523Y-54538571D01*
X144406904Y-54586190D01*
X144359285Y-54681428D01*
X144359285Y-54871904D01*
X144406904Y-54967142D01*
X144454523Y-55014761D01*
X144549761Y-55062380D01*
X144740238Y-55062380D01*
X144835476Y-55014761D01*
X144883095Y-54967142D01*
X144930714Y-54871904D01*
X144930714Y-54681428D01*
X144883095Y-54586190D01*
X144835476Y-54538571D01*
X144740238Y-54490952D01*
G04 #@! TO.C,R1*
X133802380Y-63666666D02*
X133326190Y-64000000D01*
X133802380Y-64238095D02*
X132802380Y-64238095D01*
X132802380Y-63857142D01*
X132850000Y-63761904D01*
X132897619Y-63714285D01*
X132992857Y-63666666D01*
X133135714Y-63666666D01*
X133230952Y-63714285D01*
X133278571Y-63761904D01*
X133326190Y-63857142D01*
X133326190Y-64238095D01*
X133802380Y-62714285D02*
X133802380Y-63285714D01*
X133802380Y-63000000D02*
X132802380Y-63000000D01*
X132945238Y-63095238D01*
X133040476Y-63190476D01*
X133088095Y-63285714D01*
G04 #@! TO.C,R2*
X131262380Y-86526666D02*
X130786190Y-86860000D01*
X131262380Y-87098095D02*
X130262380Y-87098095D01*
X130262380Y-86717142D01*
X130310000Y-86621904D01*
X130357619Y-86574285D01*
X130452857Y-86526666D01*
X130595714Y-86526666D01*
X130690952Y-86574285D01*
X130738571Y-86621904D01*
X130786190Y-86717142D01*
X130786190Y-87098095D01*
X130357619Y-86145714D02*
X130310000Y-86098095D01*
X130262380Y-86002857D01*
X130262380Y-85764761D01*
X130310000Y-85669523D01*
X130357619Y-85621904D01*
X130452857Y-85574285D01*
X130548095Y-85574285D01*
X130690952Y-85621904D01*
X131262380Y-86193333D01*
X131262380Y-85574285D01*
G04 #@! TO.C,R3*
X131262380Y-100496666D02*
X130786190Y-100830000D01*
X131262380Y-101068095D02*
X130262380Y-101068095D01*
X130262380Y-100687142D01*
X130310000Y-100591904D01*
X130357619Y-100544285D01*
X130452857Y-100496666D01*
X130595714Y-100496666D01*
X130690952Y-100544285D01*
X130738571Y-100591904D01*
X130786190Y-100687142D01*
X130786190Y-101068095D01*
X130262380Y-100163333D02*
X130262380Y-99544285D01*
X130643333Y-99877619D01*
X130643333Y-99734761D01*
X130690952Y-99639523D01*
X130738571Y-99591904D01*
X130833809Y-99544285D01*
X131071904Y-99544285D01*
X131167142Y-99591904D01*
X131214761Y-99639523D01*
X131262380Y-99734761D01*
X131262380Y-100020476D01*
X131214761Y-100115714D01*
X131167142Y-100163333D01*
G04 #@! TO.C,R4*
X137612380Y-99226666D02*
X137136190Y-99560000D01*
X137612380Y-99798095D02*
X136612380Y-99798095D01*
X136612380Y-99417142D01*
X136660000Y-99321904D01*
X136707619Y-99274285D01*
X136802857Y-99226666D01*
X136945714Y-99226666D01*
X137040952Y-99274285D01*
X137088571Y-99321904D01*
X137136190Y-99417142D01*
X137136190Y-99798095D01*
X136945714Y-98369523D02*
X137612380Y-98369523D01*
X136564761Y-98607619D02*
X137279047Y-98845714D01*
X137279047Y-98226666D01*
G04 #@! TO.C,R5*
X135072380Y-108116666D02*
X134596190Y-108450000D01*
X135072380Y-108688095D02*
X134072380Y-108688095D01*
X134072380Y-108307142D01*
X134120000Y-108211904D01*
X134167619Y-108164285D01*
X134262857Y-108116666D01*
X134405714Y-108116666D01*
X134500952Y-108164285D01*
X134548571Y-108211904D01*
X134596190Y-108307142D01*
X134596190Y-108688095D01*
X134072380Y-107211904D02*
X134072380Y-107688095D01*
X134548571Y-107735714D01*
X134500952Y-107688095D01*
X134453333Y-107592857D01*
X134453333Y-107354761D01*
X134500952Y-107259523D01*
X134548571Y-107211904D01*
X134643809Y-107164285D01*
X134881904Y-107164285D01*
X134977142Y-107211904D01*
X135024761Y-107259523D01*
X135072380Y-107354761D01*
X135072380Y-107592857D01*
X135024761Y-107688095D01*
X134977142Y-107735714D01*
G04 #@! TO.C,R6*
X155408333Y-112847380D02*
X155075000Y-112371190D01*
X154836904Y-112847380D02*
X154836904Y-111847380D01*
X155217857Y-111847380D01*
X155313095Y-111895000D01*
X155360714Y-111942619D01*
X155408333Y-112037857D01*
X155408333Y-112180714D01*
X155360714Y-112275952D01*
X155313095Y-112323571D01*
X155217857Y-112371190D01*
X154836904Y-112371190D01*
X156265476Y-111847380D02*
X156075000Y-111847380D01*
X155979761Y-111895000D01*
X155932142Y-111942619D01*
X155836904Y-112085476D01*
X155789285Y-112275952D01*
X155789285Y-112656904D01*
X155836904Y-112752142D01*
X155884523Y-112799761D01*
X155979761Y-112847380D01*
X156170238Y-112847380D01*
X156265476Y-112799761D01*
X156313095Y-112752142D01*
X156360714Y-112656904D01*
X156360714Y-112418809D01*
X156313095Y-112323571D01*
X156265476Y-112275952D01*
X156170238Y-112228333D01*
X155979761Y-112228333D01*
X155884523Y-112275952D01*
X155836904Y-112323571D01*
X155789285Y-112418809D01*
G04 #@! TO.C,R7*
X163452380Y-100495586D02*
X162976190Y-100828920D01*
X163452380Y-101067015D02*
X162452380Y-101067015D01*
X162452380Y-100686062D01*
X162500000Y-100590824D01*
X162547619Y-100543205D01*
X162642857Y-100495586D01*
X162785714Y-100495586D01*
X162880952Y-100543205D01*
X162928571Y-100590824D01*
X162976190Y-100686062D01*
X162976190Y-101067015D01*
X162452380Y-100162253D02*
X162452380Y-99495586D01*
X163452380Y-99924158D01*
G04 #@! TO.C,R8*
X163452380Y-87495586D02*
X162976190Y-87828920D01*
X163452380Y-88067015D02*
X162452380Y-88067015D01*
X162452380Y-87686062D01*
X162500000Y-87590824D01*
X162547619Y-87543205D01*
X162642857Y-87495586D01*
X162785714Y-87495586D01*
X162880952Y-87543205D01*
X162928571Y-87590824D01*
X162976190Y-87686062D01*
X162976190Y-88067015D01*
X162880952Y-86924158D02*
X162833333Y-87019396D01*
X162785714Y-87067015D01*
X162690476Y-87114634D01*
X162642857Y-87114634D01*
X162547619Y-87067015D01*
X162500000Y-87019396D01*
X162452380Y-86924158D01*
X162452380Y-86733681D01*
X162500000Y-86638443D01*
X162547619Y-86590824D01*
X162642857Y-86543205D01*
X162690476Y-86543205D01*
X162785714Y-86590824D01*
X162833333Y-86638443D01*
X162880952Y-86733681D01*
X162880952Y-86924158D01*
X162928571Y-87019396D01*
X162976190Y-87067015D01*
X163071428Y-87114634D01*
X163261904Y-87114634D01*
X163357142Y-87067015D01*
X163404761Y-87019396D01*
X163452380Y-86924158D01*
X163452380Y-86733681D01*
X163404761Y-86638443D01*
X163357142Y-86590824D01*
X163261904Y-86543205D01*
X163071428Y-86543205D01*
X162976190Y-86590824D01*
X162928571Y-86638443D01*
X162880952Y-86733681D01*
G04 #@! TO.C,R9*
X155408333Y-108402380D02*
X155075000Y-107926190D01*
X154836904Y-108402380D02*
X154836904Y-107402380D01*
X155217857Y-107402380D01*
X155313095Y-107450000D01*
X155360714Y-107497619D01*
X155408333Y-107592857D01*
X155408333Y-107735714D01*
X155360714Y-107830952D01*
X155313095Y-107878571D01*
X155217857Y-107926190D01*
X154836904Y-107926190D01*
X155884523Y-108402380D02*
X156075000Y-108402380D01*
X156170238Y-108354761D01*
X156217857Y-108307142D01*
X156313095Y-108164285D01*
X156360714Y-107973809D01*
X156360714Y-107592857D01*
X156313095Y-107497619D01*
X156265476Y-107450000D01*
X156170238Y-107402380D01*
X155979761Y-107402380D01*
X155884523Y-107450000D01*
X155836904Y-107497619D01*
X155789285Y-107592857D01*
X155789285Y-107830952D01*
X155836904Y-107926190D01*
X155884523Y-107973809D01*
X155979761Y-108021428D01*
X156170238Y-108021428D01*
X156265476Y-107973809D01*
X156313095Y-107926190D01*
X156360714Y-107830952D01*
G04 #@! TO.C,R10*
X96898222Y-99512380D02*
X96564889Y-99036190D01*
X96326794Y-99512380D02*
X96326794Y-98512380D01*
X96707746Y-98512380D01*
X96802984Y-98560000D01*
X96850603Y-98607619D01*
X96898222Y-98702857D01*
X96898222Y-98845714D01*
X96850603Y-98940952D01*
X96802984Y-98988571D01*
X96707746Y-99036190D01*
X96326794Y-99036190D01*
X97850603Y-99512380D02*
X97279175Y-99512380D01*
X97564889Y-99512380D02*
X97564889Y-98512380D01*
X97469651Y-98655238D01*
X97374413Y-98750476D01*
X97279175Y-98798095D01*
X98469651Y-98512380D02*
X98564889Y-98512380D01*
X98660127Y-98560000D01*
X98707746Y-98607619D01*
X98755365Y-98702857D01*
X98802984Y-98893333D01*
X98802984Y-99131428D01*
X98755365Y-99321904D01*
X98707746Y-99417142D01*
X98660127Y-99464761D01*
X98564889Y-99512380D01*
X98469651Y-99512380D01*
X98374413Y-99464761D01*
X98326794Y-99417142D01*
X98279175Y-99321904D01*
X98231556Y-99131428D01*
X98231556Y-98893333D01*
X98279175Y-98702857D01*
X98326794Y-98607619D01*
X98374413Y-98560000D01*
X98469651Y-98512380D01*
G04 #@! TO.C,R11*
X165552380Y-67317857D02*
X165076190Y-67651190D01*
X165552380Y-67889285D02*
X164552380Y-67889285D01*
X164552380Y-67508333D01*
X164600000Y-67413095D01*
X164647619Y-67365476D01*
X164742857Y-67317857D01*
X164885714Y-67317857D01*
X164980952Y-67365476D01*
X165028571Y-67413095D01*
X165076190Y-67508333D01*
X165076190Y-67889285D01*
X165552380Y-66365476D02*
X165552380Y-66936904D01*
X165552380Y-66651190D02*
X164552380Y-66651190D01*
X164695238Y-66746428D01*
X164790476Y-66841666D01*
X164838095Y-66936904D01*
X165552380Y-65413095D02*
X165552380Y-65984523D01*
X165552380Y-65698809D02*
X164552380Y-65698809D01*
X164695238Y-65794047D01*
X164790476Y-65889285D01*
X164838095Y-65984523D01*
G04 #@! TO.C,R12*
X156452380Y-67642857D02*
X155976190Y-67976190D01*
X156452380Y-68214285D02*
X155452380Y-68214285D01*
X155452380Y-67833333D01*
X155500000Y-67738095D01*
X155547619Y-67690476D01*
X155642857Y-67642857D01*
X155785714Y-67642857D01*
X155880952Y-67690476D01*
X155928571Y-67738095D01*
X155976190Y-67833333D01*
X155976190Y-68214285D01*
X156452380Y-66690476D02*
X156452380Y-67261904D01*
X156452380Y-66976190D02*
X155452380Y-66976190D01*
X155595238Y-67071428D01*
X155690476Y-67166666D01*
X155738095Y-67261904D01*
X155547619Y-66309523D02*
X155500000Y-66261904D01*
X155452380Y-66166666D01*
X155452380Y-65928571D01*
X155500000Y-65833333D01*
X155547619Y-65785714D01*
X155642857Y-65738095D01*
X155738095Y-65738095D01*
X155880952Y-65785714D01*
X156452380Y-66357142D01*
X156452380Y-65738095D01*
G04 #@! TO.C,R13*
X147452380Y-67642857D02*
X146976190Y-67976190D01*
X147452380Y-68214285D02*
X146452380Y-68214285D01*
X146452380Y-67833333D01*
X146500000Y-67738095D01*
X146547619Y-67690476D01*
X146642857Y-67642857D01*
X146785714Y-67642857D01*
X146880952Y-67690476D01*
X146928571Y-67738095D01*
X146976190Y-67833333D01*
X146976190Y-68214285D01*
X147452380Y-66690476D02*
X147452380Y-67261904D01*
X147452380Y-66976190D02*
X146452380Y-66976190D01*
X146595238Y-67071428D01*
X146690476Y-67166666D01*
X146738095Y-67261904D01*
X146452380Y-66357142D02*
X146452380Y-65738095D01*
X146833333Y-66071428D01*
X146833333Y-65928571D01*
X146880952Y-65833333D01*
X146928571Y-65785714D01*
X147023809Y-65738095D01*
X147261904Y-65738095D01*
X147357142Y-65785714D01*
X147404761Y-65833333D01*
X147452380Y-65928571D01*
X147452380Y-66214285D01*
X147404761Y-66309523D01*
X147357142Y-66357142D01*
G04 #@! TO.C,R14*
X158567380Y-64562857D02*
X158091190Y-64896190D01*
X158567380Y-65134285D02*
X157567380Y-65134285D01*
X157567380Y-64753333D01*
X157615000Y-64658095D01*
X157662619Y-64610476D01*
X157757857Y-64562857D01*
X157900714Y-64562857D01*
X157995952Y-64610476D01*
X158043571Y-64658095D01*
X158091190Y-64753333D01*
X158091190Y-65134285D01*
X158567380Y-63610476D02*
X158567380Y-64181904D01*
X158567380Y-63896190D02*
X157567380Y-63896190D01*
X157710238Y-63991428D01*
X157805476Y-64086666D01*
X157853095Y-64181904D01*
X157900714Y-62753333D02*
X158567380Y-62753333D01*
X157519761Y-62991428D02*
X158234047Y-63229523D01*
X158234047Y-62610476D01*
G04 #@! TO.C,R15*
X149912380Y-64562857D02*
X149436190Y-64896190D01*
X149912380Y-65134285D02*
X148912380Y-65134285D01*
X148912380Y-64753333D01*
X148960000Y-64658095D01*
X149007619Y-64610476D01*
X149102857Y-64562857D01*
X149245714Y-64562857D01*
X149340952Y-64610476D01*
X149388571Y-64658095D01*
X149436190Y-64753333D01*
X149436190Y-65134285D01*
X149912380Y-63610476D02*
X149912380Y-64181904D01*
X149912380Y-63896190D02*
X148912380Y-63896190D01*
X149055238Y-63991428D01*
X149150476Y-64086666D01*
X149198095Y-64181904D01*
X148912380Y-62705714D02*
X148912380Y-63181904D01*
X149388571Y-63229523D01*
X149340952Y-63181904D01*
X149293333Y-63086666D01*
X149293333Y-62848571D01*
X149340952Y-62753333D01*
X149388571Y-62705714D01*
X149483809Y-62658095D01*
X149721904Y-62658095D01*
X149817142Y-62705714D01*
X149864761Y-62753333D01*
X149912380Y-62848571D01*
X149912380Y-63086666D01*
X149864761Y-63181904D01*
X149817142Y-63229523D01*
G04 #@! TO.C,R16*
X140912380Y-64562857D02*
X140436190Y-64896190D01*
X140912380Y-65134285D02*
X139912380Y-65134285D01*
X139912380Y-64753333D01*
X139960000Y-64658095D01*
X140007619Y-64610476D01*
X140102857Y-64562857D01*
X140245714Y-64562857D01*
X140340952Y-64610476D01*
X140388571Y-64658095D01*
X140436190Y-64753333D01*
X140436190Y-65134285D01*
X140912380Y-63610476D02*
X140912380Y-64181904D01*
X140912380Y-63896190D02*
X139912380Y-63896190D01*
X140055238Y-63991428D01*
X140150476Y-64086666D01*
X140198095Y-64181904D01*
X139912380Y-62753333D02*
X139912380Y-62943809D01*
X139960000Y-63039047D01*
X140007619Y-63086666D01*
X140150476Y-63181904D01*
X140340952Y-63229523D01*
X140721904Y-63229523D01*
X140817142Y-63181904D01*
X140864761Y-63134285D01*
X140912380Y-63039047D01*
X140912380Y-62848571D01*
X140864761Y-62753333D01*
X140817142Y-62705714D01*
X140721904Y-62658095D01*
X140483809Y-62658095D01*
X140388571Y-62705714D01*
X140340952Y-62753333D01*
X140293333Y-62848571D01*
X140293333Y-63039047D01*
X140340952Y-63134285D01*
X140388571Y-63181904D01*
X140483809Y-63229523D01*
G04 #@! TO.C,U1*
X82002380Y-71881904D02*
X82811904Y-71881904D01*
X82907142Y-71834285D01*
X82954761Y-71786666D01*
X83002380Y-71691428D01*
X83002380Y-71500952D01*
X82954761Y-71405714D01*
X82907142Y-71358095D01*
X82811904Y-71310476D01*
X82002380Y-71310476D01*
X83002380Y-70310476D02*
X83002380Y-70881904D01*
X83002380Y-70596190D02*
X82002380Y-70596190D01*
X82145238Y-70691428D01*
X82240476Y-70786666D01*
X82288095Y-70881904D01*
G04 #@! TO.C,U2*
X117748095Y-45172380D02*
X117748095Y-45981904D01*
X117795714Y-46077142D01*
X117843333Y-46124761D01*
X117938571Y-46172380D01*
X118129047Y-46172380D01*
X118224285Y-46124761D01*
X118271904Y-46077142D01*
X118319523Y-45981904D01*
X118319523Y-45172380D01*
X118748095Y-45267619D02*
X118795714Y-45220000D01*
X118890952Y-45172380D01*
X119129047Y-45172380D01*
X119224285Y-45220000D01*
X119271904Y-45267619D01*
X119319523Y-45362857D01*
X119319523Y-45458095D01*
X119271904Y-45600952D01*
X118700476Y-46172380D01*
X119319523Y-46172380D01*
G04 #@! TO.C,U3*
X141478095Y-80732380D02*
X141478095Y-81541904D01*
X141525714Y-81637142D01*
X141573333Y-81684761D01*
X141668571Y-81732380D01*
X141859047Y-81732380D01*
X141954285Y-81684761D01*
X142001904Y-81637142D01*
X142049523Y-81541904D01*
X142049523Y-80732380D01*
X142430476Y-80732380D02*
X143049523Y-80732380D01*
X142716190Y-81113333D01*
X142859047Y-81113333D01*
X142954285Y-81160952D01*
X143001904Y-81208571D01*
X143049523Y-81303809D01*
X143049523Y-81541904D01*
X143001904Y-81637142D01*
X142954285Y-81684761D01*
X142859047Y-81732380D01*
X142573333Y-81732380D01*
X142478095Y-81684761D01*
X142430476Y-81637142D01*
X145177714Y-84052380D02*
X145177714Y-83052380D01*
X145749142Y-84052380D01*
X145749142Y-83052380D01*
X146368190Y-84052380D02*
X146272952Y-84004761D01*
X146225333Y-83957142D01*
X146177714Y-83861904D01*
X146177714Y-83576190D01*
X146225333Y-83480952D01*
X146272952Y-83433333D01*
X146368190Y-83385714D01*
X146511047Y-83385714D01*
X146606285Y-83433333D01*
X146653904Y-83480952D01*
X146701523Y-83576190D01*
X146701523Y-83861904D01*
X146653904Y-83957142D01*
X146606285Y-84004761D01*
X146511047Y-84052380D01*
X146368190Y-84052380D01*
X148463428Y-83957142D02*
X148415809Y-84004761D01*
X148272952Y-84052380D01*
X148177714Y-84052380D01*
X148034857Y-84004761D01*
X147939619Y-83909523D01*
X147892000Y-83814285D01*
X147844380Y-83623809D01*
X147844380Y-83480952D01*
X147892000Y-83290476D01*
X147939619Y-83195238D01*
X148034857Y-83100000D01*
X148177714Y-83052380D01*
X148272952Y-83052380D01*
X148415809Y-83100000D01*
X148463428Y-83147619D01*
X149034857Y-84052380D02*
X148939619Y-84004761D01*
X148892000Y-83957142D01*
X148844380Y-83861904D01*
X148844380Y-83576190D01*
X148892000Y-83480952D01*
X148939619Y-83433333D01*
X149034857Y-83385714D01*
X149177714Y-83385714D01*
X149272952Y-83433333D01*
X149320571Y-83480952D01*
X149368190Y-83576190D01*
X149368190Y-83861904D01*
X149320571Y-83957142D01*
X149272952Y-84004761D01*
X149177714Y-84052380D01*
X149034857Y-84052380D01*
X149796761Y-83385714D02*
X149796761Y-84385714D01*
X149796761Y-83433333D02*
X149892000Y-83385714D01*
X150082476Y-83385714D01*
X150177714Y-83433333D01*
X150225333Y-83480952D01*
X150272952Y-83576190D01*
X150272952Y-83861904D01*
X150225333Y-83957142D01*
X150177714Y-84004761D01*
X150082476Y-84052380D01*
X149892000Y-84052380D01*
X149796761Y-84004761D01*
X150701523Y-83385714D02*
X150701523Y-84385714D01*
X150701523Y-83433333D02*
X150796761Y-83385714D01*
X150987238Y-83385714D01*
X151082476Y-83433333D01*
X151130095Y-83480952D01*
X151177714Y-83576190D01*
X151177714Y-83861904D01*
X151130095Y-83957142D01*
X151082476Y-84004761D01*
X150987238Y-84052380D01*
X150796761Y-84052380D01*
X150701523Y-84004761D01*
X151987238Y-84004761D02*
X151892000Y-84052380D01*
X151701523Y-84052380D01*
X151606285Y-84004761D01*
X151558666Y-83909523D01*
X151558666Y-83528571D01*
X151606285Y-83433333D01*
X151701523Y-83385714D01*
X151892000Y-83385714D01*
X151987238Y-83433333D01*
X152034857Y-83528571D01*
X152034857Y-83623809D01*
X151558666Y-83719047D01*
X152463428Y-84052380D02*
X152463428Y-83385714D01*
X152463428Y-83576190D02*
X152511047Y-83480952D01*
X152558666Y-83433333D01*
X152653904Y-83385714D01*
X152749142Y-83385714D01*
G04 #@! TO.C,U4*
X119888095Y-78827380D02*
X119888095Y-79636904D01*
X119935714Y-79732142D01*
X119983333Y-79779761D01*
X120078571Y-79827380D01*
X120269047Y-79827380D01*
X120364285Y-79779761D01*
X120411904Y-79732142D01*
X120459523Y-79636904D01*
X120459523Y-78827380D01*
X121364285Y-79160714D02*
X121364285Y-79827380D01*
X121126190Y-78779761D02*
X120888095Y-79494047D01*
X121507142Y-79494047D01*
G04 #@! TO.C,U6*
X122428095Y-103592380D02*
X122428095Y-104401904D01*
X122475714Y-104497142D01*
X122523333Y-104544761D01*
X122618571Y-104592380D01*
X122809047Y-104592380D01*
X122904285Y-104544761D01*
X122951904Y-104497142D01*
X122999523Y-104401904D01*
X122999523Y-103592380D01*
X123904285Y-103592380D02*
X123713809Y-103592380D01*
X123618571Y-103640000D01*
X123570952Y-103687619D01*
X123475714Y-103830476D01*
X123428095Y-104020952D01*
X123428095Y-104401904D01*
X123475714Y-104497142D01*
X123523333Y-104544761D01*
X123618571Y-104592380D01*
X123809047Y-104592380D01*
X123904285Y-104544761D01*
X123951904Y-104497142D01*
X123999523Y-104401904D01*
X123999523Y-104163809D01*
X123951904Y-104068571D01*
X123904285Y-104020952D01*
X123809047Y-103973333D01*
X123618571Y-103973333D01*
X123523333Y-104020952D01*
X123475714Y-104068571D01*
X123428095Y-104163809D01*
G04 #@! TO.C,P2*
X73642380Y-60698095D02*
X72642380Y-60698095D01*
X72642380Y-60317142D01*
X72690000Y-60221904D01*
X72737619Y-60174285D01*
X72832857Y-60126666D01*
X72975714Y-60126666D01*
X73070952Y-60174285D01*
X73118571Y-60221904D01*
X73166190Y-60317142D01*
X73166190Y-60698095D01*
X72737619Y-59745714D02*
X72690000Y-59698095D01*
X72642380Y-59602857D01*
X72642380Y-59364761D01*
X72690000Y-59269523D01*
X72737619Y-59221904D01*
X72832857Y-59174285D01*
X72928095Y-59174285D01*
X73070952Y-59221904D01*
X73642380Y-59793333D01*
X73642380Y-59174285D01*
G04 #@! TO.C,P3*
X81811904Y-101417380D02*
X81811904Y-100417380D01*
X82192857Y-100417380D01*
X82288095Y-100465000D01*
X82335714Y-100512619D01*
X82383333Y-100607857D01*
X82383333Y-100750714D01*
X82335714Y-100845952D01*
X82288095Y-100893571D01*
X82192857Y-100941190D01*
X81811904Y-100941190D01*
X82716666Y-100417380D02*
X83335714Y-100417380D01*
X83002380Y-100798333D01*
X83145238Y-100798333D01*
X83240476Y-100845952D01*
X83288095Y-100893571D01*
X83335714Y-100988809D01*
X83335714Y-101226904D01*
X83288095Y-101322142D01*
X83240476Y-101369761D01*
X83145238Y-101417380D01*
X82859523Y-101417380D01*
X82764285Y-101369761D01*
X82716666Y-101322142D01*
G04 #@! TO.C,Q1*
X139612619Y-78835238D02*
X139565000Y-78930476D01*
X139469761Y-79025714D01*
X139326904Y-79168571D01*
X139279285Y-79263809D01*
X139279285Y-79359047D01*
X139517380Y-79311428D02*
X139469761Y-79406666D01*
X139374523Y-79501904D01*
X139184047Y-79549523D01*
X138850714Y-79549523D01*
X138660238Y-79501904D01*
X138565000Y-79406666D01*
X138517380Y-79311428D01*
X138517380Y-79120952D01*
X138565000Y-79025714D01*
X138660238Y-78930476D01*
X138850714Y-78882857D01*
X139184047Y-78882857D01*
X139374523Y-78930476D01*
X139469761Y-79025714D01*
X139517380Y-79120952D01*
X139517380Y-79311428D01*
X139517380Y-77930476D02*
X139517380Y-78501904D01*
X139517380Y-78216190D02*
X138517380Y-78216190D01*
X138660238Y-78311428D01*
X138755476Y-78406666D01*
X138803095Y-78501904D01*
G04 #@! TO.C,Q2*
X163047619Y-79095238D02*
X163000000Y-79190476D01*
X162904761Y-79285714D01*
X162761904Y-79428571D01*
X162714285Y-79523809D01*
X162714285Y-79619047D01*
X162952380Y-79571428D02*
X162904761Y-79666666D01*
X162809523Y-79761904D01*
X162619047Y-79809523D01*
X162285714Y-79809523D01*
X162095238Y-79761904D01*
X162000000Y-79666666D01*
X161952380Y-79571428D01*
X161952380Y-79380952D01*
X162000000Y-79285714D01*
X162095238Y-79190476D01*
X162285714Y-79142857D01*
X162619047Y-79142857D01*
X162809523Y-79190476D01*
X162904761Y-79285714D01*
X162952380Y-79380952D01*
X162952380Y-79571428D01*
X162047619Y-78761904D02*
X162000000Y-78714285D01*
X161952380Y-78619047D01*
X161952380Y-78380952D01*
X162000000Y-78285714D01*
X162047619Y-78238095D01*
X162142857Y-78190476D01*
X162238095Y-78190476D01*
X162380952Y-78238095D01*
X162952380Y-78809523D01*
X162952380Y-78190476D01*
G04 #@! TO.C,Q3*
X153547619Y-79095238D02*
X153500000Y-79190476D01*
X153404761Y-79285714D01*
X153261904Y-79428571D01*
X153214285Y-79523809D01*
X153214285Y-79619047D01*
X153452380Y-79571428D02*
X153404761Y-79666666D01*
X153309523Y-79761904D01*
X153119047Y-79809523D01*
X152785714Y-79809523D01*
X152595238Y-79761904D01*
X152500000Y-79666666D01*
X152452380Y-79571428D01*
X152452380Y-79380952D01*
X152500000Y-79285714D01*
X152595238Y-79190476D01*
X152785714Y-79142857D01*
X153119047Y-79142857D01*
X153309523Y-79190476D01*
X153404761Y-79285714D01*
X153452380Y-79380952D01*
X153452380Y-79571428D01*
X152452380Y-78809523D02*
X152452380Y-78190476D01*
X152833333Y-78523809D01*
X152833333Y-78380952D01*
X152880952Y-78285714D01*
X152928571Y-78238095D01*
X153023809Y-78190476D01*
X153261904Y-78190476D01*
X153357142Y-78238095D01*
X153404761Y-78285714D01*
X153452380Y-78380952D01*
X153452380Y-78666666D01*
X153404761Y-78761904D01*
X153357142Y-78809523D01*
G04 #@! TO.C,Q4*
X145327619Y-78835238D02*
X145280000Y-78930476D01*
X145184761Y-79025714D01*
X145041904Y-79168571D01*
X144994285Y-79263809D01*
X144994285Y-79359047D01*
X145232380Y-79311428D02*
X145184761Y-79406666D01*
X145089523Y-79501904D01*
X144899047Y-79549523D01*
X144565714Y-79549523D01*
X144375238Y-79501904D01*
X144280000Y-79406666D01*
X144232380Y-79311428D01*
X144232380Y-79120952D01*
X144280000Y-79025714D01*
X144375238Y-78930476D01*
X144565714Y-78882857D01*
X144899047Y-78882857D01*
X145089523Y-78930476D01*
X145184761Y-79025714D01*
X145232380Y-79120952D01*
X145232380Y-79311428D01*
X144565714Y-78025714D02*
X145232380Y-78025714D01*
X144184761Y-78263809D02*
X144899047Y-78501904D01*
X144899047Y-77882857D01*
G04 #@! TO.C,REF\002A\002A*
X72166666Y-42652380D02*
X71833333Y-42176190D01*
X71595238Y-42652380D02*
X71595238Y-41652380D01*
X71976190Y-41652380D01*
X72071428Y-41700000D01*
X72119047Y-41747619D01*
X72166666Y-41842857D01*
X72166666Y-41985714D01*
X72119047Y-42080952D01*
X72071428Y-42128571D01*
X71976190Y-42176190D01*
X71595238Y-42176190D01*
X72595238Y-42128571D02*
X72928571Y-42128571D01*
X73071428Y-42652380D02*
X72595238Y-42652380D01*
X72595238Y-41652380D01*
X73071428Y-41652380D01*
X73833333Y-42128571D02*
X73500000Y-42128571D01*
X73500000Y-42652380D02*
X73500000Y-41652380D01*
X73976190Y-41652380D01*
X74500000Y-41652380D02*
X74500000Y-41890476D01*
X74261904Y-41795238D02*
X74500000Y-41890476D01*
X74738095Y-41795238D01*
X74357142Y-42080952D02*
X74500000Y-41890476D01*
X74642857Y-42080952D01*
X75261904Y-41652380D02*
X75261904Y-41890476D01*
X75023809Y-41795238D02*
X75261904Y-41890476D01*
X75500000Y-41795238D01*
X75119047Y-42080952D02*
X75261904Y-41890476D01*
X75404761Y-42080952D01*
X150166666Y-42652380D02*
X149833333Y-42176190D01*
X149595238Y-42652380D02*
X149595238Y-41652380D01*
X149976190Y-41652380D01*
X150071428Y-41700000D01*
X150119047Y-41747619D01*
X150166666Y-41842857D01*
X150166666Y-41985714D01*
X150119047Y-42080952D01*
X150071428Y-42128571D01*
X149976190Y-42176190D01*
X149595238Y-42176190D01*
X150595238Y-42128571D02*
X150928571Y-42128571D01*
X151071428Y-42652380D02*
X150595238Y-42652380D01*
X150595238Y-41652380D01*
X151071428Y-41652380D01*
X151833333Y-42128571D02*
X151500000Y-42128571D01*
X151500000Y-42652380D02*
X151500000Y-41652380D01*
X151976190Y-41652380D01*
X152500000Y-41652380D02*
X152500000Y-41890476D01*
X152261904Y-41795238D02*
X152500000Y-41890476D01*
X152738095Y-41795238D01*
X152357142Y-42080952D02*
X152500000Y-41890476D01*
X152642857Y-42080952D01*
X153261904Y-41652380D02*
X153261904Y-41890476D01*
X153023809Y-41795238D02*
X153261904Y-41890476D01*
X153500000Y-41795238D01*
X153119047Y-42080952D02*
X153261904Y-41890476D01*
X153404761Y-42080952D01*
X150166666Y-117652380D02*
X149833333Y-117176190D01*
X149595238Y-117652380D02*
X149595238Y-116652380D01*
X149976190Y-116652380D01*
X150071428Y-116700000D01*
X150119047Y-116747619D01*
X150166666Y-116842857D01*
X150166666Y-116985714D01*
X150119047Y-117080952D01*
X150071428Y-117128571D01*
X149976190Y-117176190D01*
X149595238Y-117176190D01*
X150595238Y-117128571D02*
X150928571Y-117128571D01*
X151071428Y-117652380D02*
X150595238Y-117652380D01*
X150595238Y-116652380D01*
X151071428Y-116652380D01*
X151833333Y-117128571D02*
X151500000Y-117128571D01*
X151500000Y-117652380D02*
X151500000Y-116652380D01*
X151976190Y-116652380D01*
X152500000Y-116652380D02*
X152500000Y-116890476D01*
X152261904Y-116795238D02*
X152500000Y-116890476D01*
X152738095Y-116795238D01*
X152357142Y-117080952D02*
X152500000Y-116890476D01*
X152642857Y-117080952D01*
X153261904Y-116652380D02*
X153261904Y-116890476D01*
X153023809Y-116795238D02*
X153261904Y-116890476D01*
X153500000Y-116795238D01*
X153119047Y-117080952D02*
X153261904Y-116890476D01*
X153404761Y-117080952D01*
X72166666Y-117652380D02*
X71833333Y-117176190D01*
X71595238Y-117652380D02*
X71595238Y-116652380D01*
X71976190Y-116652380D01*
X72071428Y-116700000D01*
X72119047Y-116747619D01*
X72166666Y-116842857D01*
X72166666Y-116985714D01*
X72119047Y-117080952D01*
X72071428Y-117128571D01*
X71976190Y-117176190D01*
X71595238Y-117176190D01*
X72595238Y-117128571D02*
X72928571Y-117128571D01*
X73071428Y-117652380D02*
X72595238Y-117652380D01*
X72595238Y-116652380D01*
X73071428Y-116652380D01*
X73833333Y-117128571D02*
X73500000Y-117128571D01*
X73500000Y-117652380D02*
X73500000Y-116652380D01*
X73976190Y-116652380D01*
X74500000Y-116652380D02*
X74500000Y-116890476D01*
X74261904Y-116795238D02*
X74500000Y-116890476D01*
X74738095Y-116795238D01*
X74357142Y-117080952D02*
X74500000Y-116890476D01*
X74642857Y-117080952D01*
X75261904Y-116652380D02*
X75261904Y-116890476D01*
X75023809Y-116795238D02*
X75261904Y-116890476D01*
X75500000Y-116795238D01*
X75119047Y-117080952D02*
X75261904Y-116890476D01*
X75404761Y-117080952D01*
G04 #@! TD*
M02*
