G04 #@! TF.GenerationSoftware,KiCad,Pcbnew,5.0.2-bee76a0~70~ubuntu18.04.1*
G04 #@! TF.CreationDate,2019-05-07T12:57:47+02:00*
G04 #@! TF.ProjectId,pcb_wifi,7063625f-7769-4666-992e-6b696361645f,rev?*
G04 #@! TF.SameCoordinates,Original*
G04 #@! TF.FileFunction,Copper,L2,Bot*
G04 #@! TF.FilePolarity,Positive*
%FSLAX46Y46*%
G04 Gerber Fmt 4.6, Leading zero omitted, Abs format (unit mm)*
G04 Created by KiCad (PCBNEW 5.0.2-bee76a0~70~ubuntu18.04.1) date Di 07 Mai 2019 12:57:47 CEST*
%MOMM*%
%LPD*%
G01*
G04 APERTURE LIST*
G04 #@! TA.AperFunction,ComponentPad*
%ADD10O,2.499360X1.501140*%
G04 #@! TD*
G04 #@! TA.AperFunction,ComponentPad*
%ADD11R,1.300000X1.300000*%
G04 #@! TD*
G04 #@! TA.AperFunction,ComponentPad*
%ADD12C,1.300000*%
G04 #@! TD*
G04 #@! TA.AperFunction,ComponentPad*
%ADD13O,2.032000X2.032000*%
G04 #@! TD*
G04 #@! TA.AperFunction,ComponentPad*
%ADD14R,2.032000X2.032000*%
G04 #@! TD*
G04 #@! TA.AperFunction,ComponentPad*
%ADD15R,1.727200X1.727200*%
G04 #@! TD*
G04 #@! TA.AperFunction,ComponentPad*
%ADD16O,1.727200X1.727200*%
G04 #@! TD*
G04 #@! TA.AperFunction,ComponentPad*
%ADD17R,2.032000X1.727200*%
G04 #@! TD*
G04 #@! TA.AperFunction,ComponentPad*
%ADD18O,2.032000X1.727200*%
G04 #@! TD*
G04 #@! TA.AperFunction,ComponentPad*
%ADD19O,1.727200X2.032000*%
G04 #@! TD*
G04 #@! TA.AperFunction,ComponentPad*
%ADD20R,1.727200X2.032000*%
G04 #@! TD*
G04 #@! TA.AperFunction,ComponentPad*
%ADD21C,1.998980*%
G04 #@! TD*
G04 #@! TA.AperFunction,ComponentPad*
%ADD22C,2.000000*%
G04 #@! TD*
G04 #@! TA.AperFunction,ComponentPad*
%ADD23C,3.000000*%
G04 #@! TD*
G04 #@! TA.AperFunction,ComponentPad*
%ADD24R,2.500000X1.100000*%
G04 #@! TD*
G04 #@! TA.AperFunction,ComponentPad*
%ADD25O,2.500000X1.100000*%
G04 #@! TD*
G04 #@! TA.AperFunction,ComponentPad*
%ADD26O,3.600000X1.800000*%
G04 #@! TD*
G04 #@! TA.AperFunction,ComponentPad*
%ADD27R,3.600000X1.800000*%
G04 #@! TD*
G04 #@! TA.AperFunction,ComponentPad*
%ADD28R,1.800000X3.600000*%
G04 #@! TD*
G04 #@! TA.AperFunction,ComponentPad*
%ADD29O,1.800000X3.600000*%
G04 #@! TD*
G04 #@! TA.AperFunction,ComponentPad*
%ADD30C,1.524000*%
G04 #@! TD*
G04 #@! TA.AperFunction,ComponentPad*
%ADD31C,3.300000*%
G04 #@! TD*
G04 #@! TA.AperFunction,ViaPad*
%ADD32C,0.800000*%
G04 #@! TD*
G04 #@! TA.AperFunction,Conductor*
%ADD33C,0.500000*%
G04 #@! TD*
G04 #@! TA.AperFunction,Conductor*
%ADD34C,0.254000*%
G04 #@! TD*
G04 APERTURE END LIST*
D10*
G04 #@! TO.P,U5,3*
G04 #@! TO.N,+5V*
X104775000Y-91440000D03*
G04 #@! TO.P,U5,1*
G04 #@! TO.N,Net-(C1-Pad1)*
X104775000Y-86360000D03*
G04 #@! TO.P,U5,2*
G04 #@! TO.N,GND*
X104775000Y-88900000D03*
G04 #@! TD*
D11*
G04 #@! TO.P,C1,1*
G04 #@! TO.N,Net-(C1-Pad1)*
X104775000Y-83820000D03*
D12*
G04 #@! TO.P,C1,2*
G04 #@! TO.N,GND*
X104775000Y-81320000D03*
G04 #@! TD*
G04 #@! TO.P,C2,2*
G04 #@! TO.N,GND*
X104775000Y-96480000D03*
D11*
G04 #@! TO.P,C2,1*
G04 #@! TO.N,+5V*
X104775000Y-93980000D03*
G04 #@! TD*
D13*
G04 #@! TO.P,P1,2*
G04 #@! TO.N,Net-(P1-Pad2)*
X135890000Y-54610000D03*
D14*
G04 #@! TO.P,P1,1*
G04 #@! TO.N,+3V3*
X138430000Y-54610000D03*
G04 #@! TD*
D15*
G04 #@! TO.P,P4,1*
G04 #@! TO.N,Net-(P4-Pad1)*
X77470000Y-80010000D03*
D16*
G04 #@! TO.P,P4,2*
X80010000Y-80010000D03*
G04 #@! TO.P,P4,3*
G04 #@! TO.N,Net-(P4-Pad3)*
X77470000Y-82550000D03*
G04 #@! TO.P,P4,4*
X80010000Y-82550000D03*
G04 #@! TO.P,P4,5*
G04 #@! TO.N,Net-(P4-Pad5)*
X77470000Y-85090000D03*
G04 #@! TO.P,P4,6*
X80010000Y-85090000D03*
G04 #@! TO.P,P4,7*
G04 #@! TO.N,Net-(P4-Pad7)*
X77470000Y-87630000D03*
G04 #@! TO.P,P4,8*
X80010000Y-87630000D03*
G04 #@! TD*
D17*
G04 #@! TO.P,P5,1*
G04 #@! TO.N,Net-(P5-Pad1)*
X88900000Y-111760000D03*
D18*
G04 #@! TO.P,P5,2*
G04 #@! TO.N,Net-(P5-Pad2)*
X88900000Y-114300000D03*
G04 #@! TO.P,P5,3*
G04 #@! TO.N,Net-(P5-Pad3)*
X88900000Y-116840000D03*
G04 #@! TO.P,P5,4*
G04 #@! TO.N,Net-(P5-Pad4)*
X88900000Y-119380000D03*
G04 #@! TO.P,P5,5*
G04 #@! TO.N,GND*
X88900000Y-121920000D03*
G04 #@! TD*
D17*
G04 #@! TO.P,P6,1*
G04 #@! TO.N,/RXD*
X167000000Y-89000000D03*
D18*
G04 #@! TO.P,P6,2*
G04 #@! TO.N,/TXD*
X167000000Y-91540000D03*
G04 #@! TO.P,P6,3*
G04 #@! TO.N,/RTS*
X167000000Y-94080000D03*
G04 #@! TO.P,P6,4*
G04 #@! TO.N,/DTR*
X167000000Y-96620000D03*
G04 #@! TD*
D14*
G04 #@! TO.P,P7,1*
G04 #@! TO.N,Net-(P7-Pad1)*
X106680000Y-101600000D03*
D13*
G04 #@! TO.P,P7,2*
G04 #@! TO.N,N/C*
X109220000Y-101600000D03*
G04 #@! TD*
D19*
G04 #@! TO.P,P8,4*
G04 #@! TO.N,Net-(P8-Pad4)*
X154620000Y-55000000D03*
G04 #@! TO.P,P8,3*
G04 #@! TO.N,Net-(P8-Pad3)*
X152080000Y-55000000D03*
G04 #@! TO.P,P8,2*
G04 #@! TO.N,Net-(P8-Pad2)*
X149540000Y-55000000D03*
D20*
G04 #@! TO.P,P8,1*
G04 #@! TO.N,+3V3*
X147000000Y-55000000D03*
G04 #@! TD*
D21*
G04 #@! TO.P,R1,2*
G04 #@! TO.N,Net-(P1-Pad2)*
X135890000Y-58420000D03*
G04 #@! TO.P,R1,1*
G04 #@! TO.N,Net-(Q1-Pad1)*
X135890000Y-68580000D03*
G04 #@! TD*
G04 #@! TO.P,R2,2*
G04 #@! TO.N,+BATT*
X133350000Y-81280000D03*
G04 #@! TO.P,R2,1*
G04 #@! TO.N,Net-(R2-Pad1)*
X133350000Y-91440000D03*
G04 #@! TD*
G04 #@! TO.P,R3,1*
G04 #@! TO.N,GND*
X133350000Y-105410000D03*
G04 #@! TO.P,R3,2*
G04 #@! TO.N,Net-(R2-Pad1)*
X133350000Y-95250000D03*
G04 #@! TD*
G04 #@! TO.P,R4,1*
G04 #@! TO.N,Net-(Q1-Pad2)*
X137160000Y-86360000D03*
G04 #@! TO.P,R4,2*
G04 #@! TO.N,Net-(R4-Pad2)*
X137160000Y-96520000D03*
G04 #@! TD*
G04 #@! TO.P,R5,1*
G04 #@! TO.N,Net-(R5-Pad1)*
X137160000Y-102870000D03*
G04 #@! TO.P,R5,2*
G04 #@! TO.N,+3V3*
X137160000Y-113030000D03*
G04 #@! TD*
G04 #@! TO.P,R6,2*
G04 #@! TO.N,Net-(R6-Pad2)*
X153035000Y-112395000D03*
G04 #@! TO.P,R6,1*
G04 #@! TO.N,GND*
X142875000Y-112395000D03*
G04 #@! TD*
G04 #@! TO.P,R7,2*
G04 #@! TO.N,/DT*
X161000000Y-105160000D03*
G04 #@! TO.P,R7,1*
G04 #@! TO.N,Net-(R7-Pad1)*
X161000000Y-95000000D03*
G04 #@! TD*
G04 #@! TO.P,R8,1*
G04 #@! TO.N,GND*
X161000000Y-82000000D03*
G04 #@! TO.P,R8,2*
G04 #@! TO.N,Net-(R7-Pad1)*
X161000000Y-92160000D03*
G04 #@! TD*
G04 #@! TO.P,R9,1*
G04 #@! TO.N,+3V3*
X142875000Y-107950000D03*
G04 #@! TO.P,R9,2*
G04 #@! TO.N,Net-(R9-Pad2)*
X153035000Y-107950000D03*
G04 #@! TD*
G04 #@! TO.P,R10,2*
G04 #@! TO.N,+5V*
X92710000Y-101600000D03*
G04 #@! TO.P,R10,1*
G04 #@! TO.N,Net-(P7-Pad1)*
X102870000Y-101600000D03*
G04 #@! TD*
G04 #@! TO.P,R11,2*
G04 #@! TO.N,/BLUE*
X165000000Y-80160000D03*
G04 #@! TO.P,R11,1*
G04 #@! TO.N,Net-(Q2-Pad2)*
X165000000Y-70000000D03*
G04 #@! TD*
G04 #@! TO.P,R12,1*
G04 #@! TO.N,Net-(Q3-Pad2)*
X156000000Y-70000000D03*
G04 #@! TO.P,R12,2*
G04 #@! TO.N,/GREEN*
X156000000Y-80160000D03*
G04 #@! TD*
G04 #@! TO.P,R13,1*
G04 #@! TO.N,Net-(Q4-Pad2)*
X147000000Y-70000000D03*
G04 #@! TO.P,R13,2*
G04 #@! TO.N,/RED*
X147000000Y-80160000D03*
G04 #@! TD*
G04 #@! TO.P,R14,1*
G04 #@! TO.N,Net-(Q2-Pad1)*
X160655000Y-69000000D03*
G04 #@! TO.P,R14,2*
G04 #@! TO.N,Net-(P8-Pad4)*
X160655000Y-58840000D03*
G04 #@! TD*
G04 #@! TO.P,R15,2*
G04 #@! TO.N,Net-(P8-Pad3)*
X152000000Y-58840000D03*
G04 #@! TO.P,R15,1*
G04 #@! TO.N,Net-(Q3-Pad1)*
X152000000Y-69000000D03*
G04 #@! TD*
G04 #@! TO.P,R16,2*
G04 #@! TO.N,Net-(P8-Pad2)*
X143000000Y-58840000D03*
G04 #@! TO.P,R16,1*
G04 #@! TO.N,Net-(Q4-Pad1)*
X143000000Y-69000000D03*
G04 #@! TD*
D22*
G04 #@! TO.P,U1,1*
G04 #@! TO.N,Net-(P3-Pad1)*
X85710000Y-94200000D03*
G04 #@! TO.P,U1,2*
G04 #@! TO.N,GND*
X99710000Y-94200000D03*
G04 #@! TO.P,U1,3*
X99710000Y-71600000D03*
G04 #@! TO.P,U1,4*
G04 #@! TO.N,Net-(BT1-Pad-)*
X96410000Y-71600000D03*
G04 #@! TO.P,U1,5*
G04 #@! TO.N,Net-(P2-Pad1)*
X89010000Y-71600000D03*
G04 #@! TO.P,U1,6*
G04 #@! TO.N,+BATT*
X85710000Y-71600000D03*
G04 #@! TD*
D23*
G04 #@! TO.P,U2,1*
G04 #@! TO.N,GND*
X86150000Y-52630000D03*
G04 #@! TO.P,U2,2*
G04 #@! TO.N,+BATT*
X86150000Y-59130000D03*
G04 #@! TO.P,U2,3*
G04 #@! TO.N,Net-(C1-Pad1)*
X117850000Y-59130000D03*
G04 #@! TO.P,U2,4*
G04 #@! TO.N,GND*
X117850000Y-52630000D03*
G04 #@! TD*
D24*
G04 #@! TO.P,U3,1*
G04 #@! TO.N,/RTS*
X141300000Y-89000000D03*
D25*
G04 #@! TO.P,U3,2*
G04 #@! TO.N,Net-(R2-Pad1)*
X141300000Y-91000000D03*
G04 #@! TO.P,U3,3*
G04 #@! TO.N,Net-(R5-Pad1)*
X141300000Y-93000000D03*
G04 #@! TO.P,U3,4*
G04 #@! TO.N,Net-(R4-Pad2)*
X141300000Y-95000000D03*
G04 #@! TO.P,U3,5*
G04 #@! TO.N,/RED*
X141300000Y-97000000D03*
G04 #@! TO.P,U3,6*
G04 #@! TO.N,/GREEN*
X141300000Y-99000000D03*
G04 #@! TO.P,U3,7*
G04 #@! TO.N,/BLUE*
X141300000Y-101000000D03*
G04 #@! TO.P,U3,8*
G04 #@! TO.N,+3V3*
X141300000Y-103000000D03*
G04 #@! TO.P,U3,9*
G04 #@! TO.N,GND*
X156700000Y-103000000D03*
G04 #@! TO.P,U3,10*
G04 #@! TO.N,Net-(R6-Pad2)*
X156600000Y-101000000D03*
G04 #@! TO.P,U3,11*
G04 #@! TO.N,Net-(R9-Pad2)*
X156700000Y-99000000D03*
G04 #@! TO.P,U3,12*
G04 #@! TO.N,/DTR*
X156700000Y-97000000D03*
G04 #@! TO.P,U3,13*
G04 #@! TO.N,/SCK*
X156700000Y-95000000D03*
G04 #@! TO.P,U3,14*
G04 #@! TO.N,Net-(R7-Pad1)*
X156700000Y-93000000D03*
G04 #@! TO.P,U3,15*
G04 #@! TO.N,/TXD*
X156700000Y-91000000D03*
G04 #@! TO.P,U3,16*
G04 #@! TO.N,/RXD*
X156700000Y-89000000D03*
G04 #@! TD*
D22*
G04 #@! TO.P,U4,3*
G04 #@! TO.N,+3V3*
X120780000Y-76990000D03*
G04 #@! TO.P,U4,4*
G04 #@! TO.N,GND*
X120780000Y-67790000D03*
G04 #@! TO.P,U4,2*
X105280000Y-67790000D03*
G04 #@! TO.P,U4,1*
G04 #@! TO.N,Net-(C1-Pad1)*
X105280000Y-76990000D03*
G04 #@! TD*
G04 #@! TO.P,U6,10*
G04 #@! TO.N,GND*
X121630000Y-111760000D03*
G04 #@! TO.P,U6,9*
G04 #@! TO.N,/DT*
X121630000Y-114300000D03*
G04 #@! TO.P,U6,8*
G04 #@! TO.N,/SCK*
X121630000Y-116840000D03*
G04 #@! TO.P,U6,7*
G04 #@! TO.N,+5V*
X121630000Y-119380000D03*
G04 #@! TO.P,U6,6*
G04 #@! TO.N,N/C*
X96250000Y-121920000D03*
G04 #@! TO.P,U6,5*
X96250000Y-119380000D03*
G04 #@! TO.P,U6,4*
G04 #@! TO.N,Net-(P5-Pad4)*
X96250000Y-116840000D03*
G04 #@! TO.P,U6,3*
G04 #@! TO.N,Net-(P5-Pad3)*
X96250000Y-114300000D03*
G04 #@! TO.P,U6,2*
G04 #@! TO.N,Net-(P5-Pad2)*
X96250000Y-111760000D03*
G04 #@! TO.P,U6,1*
G04 #@! TO.N,Net-(P5-Pad1)*
X96250000Y-109220000D03*
G04 #@! TD*
D26*
G04 #@! TO.P,P2,2*
G04 #@! TO.N,Net-(BT1-Pad+)*
X78740000Y-58420000D03*
D27*
G04 #@! TO.P,P2,1*
G04 #@! TO.N,Net-(P2-Pad1)*
X78740000Y-63500000D03*
G04 #@! TD*
D28*
G04 #@! TO.P,P3,1*
G04 #@! TO.N,Net-(P3-Pad1)*
X85090000Y-101600000D03*
D29*
G04 #@! TO.P,P3,2*
G04 #@! TO.N,GND*
X80010000Y-101600000D03*
G04 #@! TD*
D30*
G04 #@! TO.P,Q1,2*
G04 #@! TO.N,Net-(Q1-Pad2)*
X137160000Y-75565000D03*
G04 #@! TO.P,Q1,3*
G04 #@! TO.N,GND*
X137160000Y-78105000D03*
G04 #@! TO.P,Q1,1*
G04 #@! TO.N,Net-(Q1-Pad1)*
X137160000Y-73025000D03*
G04 #@! TD*
G04 #@! TO.P,Q2,1*
G04 #@! TO.N,Net-(Q2-Pad1)*
X160655000Y-73025000D03*
G04 #@! TO.P,Q2,3*
G04 #@! TO.N,GND*
X160655000Y-78105000D03*
G04 #@! TO.P,Q2,2*
G04 #@! TO.N,Net-(Q2-Pad2)*
X160655000Y-75565000D03*
G04 #@! TD*
G04 #@! TO.P,Q3,2*
G04 #@! TO.N,Net-(Q3-Pad2)*
X151130000Y-75565000D03*
G04 #@! TO.P,Q3,3*
G04 #@! TO.N,GND*
X151130000Y-78105000D03*
G04 #@! TO.P,Q3,1*
G04 #@! TO.N,Net-(Q3-Pad1)*
X151130000Y-73025000D03*
G04 #@! TD*
G04 #@! TO.P,Q4,1*
G04 #@! TO.N,Net-(Q4-Pad1)*
X142875000Y-73025000D03*
G04 #@! TO.P,Q4,3*
G04 #@! TO.N,GND*
X142875000Y-78105000D03*
G04 #@! TO.P,Q4,2*
G04 #@! TO.N,Net-(Q4-Pad2)*
X142875000Y-75565000D03*
G04 #@! TD*
D31*
G04 #@! TO.P,BT1,+*
G04 #@! TO.N,Net-(BT1-Pad+)*
X65500000Y-50000000D03*
G04 #@! TO.P,BT1,-*
G04 #@! TO.N,Net-(BT1-Pad-)*
X65500000Y-120000000D03*
G04 #@! TD*
D32*
G04 #@! TO.N,GND*
X109855000Y-84455000D03*
X109855000Y-85725000D03*
X109855000Y-86995000D03*
X109855000Y-88265000D03*
X109855000Y-89535000D03*
X109855000Y-90805000D03*
X109855000Y-92075000D03*
X109855000Y-93345000D03*
X111125000Y-93345000D03*
X111125000Y-92075000D03*
X111125000Y-90805000D03*
X111125000Y-89535000D03*
X111125000Y-88265000D03*
X111125000Y-86995000D03*
X111125000Y-85725000D03*
X111125000Y-84455000D03*
X112395000Y-84455000D03*
X112395000Y-85725000D03*
X112395000Y-86995000D03*
X112395000Y-88265000D03*
X112395000Y-89535000D03*
X112395000Y-90805000D03*
X112395000Y-92075000D03*
X112395000Y-93345000D03*
X113665000Y-93345000D03*
X113665000Y-92075000D03*
X113665000Y-90805000D03*
X113665000Y-89535000D03*
X113665000Y-88265000D03*
X113665000Y-86995000D03*
X113665000Y-85725000D03*
X113665000Y-84455000D03*
X114935000Y-84455000D03*
X114935000Y-85725000D03*
X114935000Y-86995000D03*
X114935000Y-88265000D03*
X114935000Y-89535000D03*
X114935000Y-90805000D03*
X114935000Y-92075000D03*
X114935000Y-93345000D03*
X116205000Y-93345000D03*
X116205000Y-92075000D03*
X116205000Y-90805000D03*
X116205000Y-86995000D03*
X116205000Y-85725000D03*
X116205000Y-84455000D03*
X117475000Y-84455000D03*
X117475000Y-85725000D03*
X117475000Y-86995000D03*
X117475000Y-90805000D03*
X117475000Y-92075000D03*
X117475000Y-93345000D03*
X116205000Y-88265000D03*
X117475000Y-88265000D03*
X117475000Y-89535000D03*
X116205000Y-89535000D03*
G04 #@! TO.N,/RTS*
X163830000Y-93980000D03*
X145415000Y-86995000D03*
G04 #@! TO.N,+BATT*
X99695000Y-67945000D03*
G04 #@! TD*
D33*
G04 #@! TO.N,/RTS*
X163830000Y-93980000D02*
X163195000Y-93345000D01*
X163195000Y-93345000D02*
X163195000Y-90170000D01*
X163195000Y-90170000D02*
X160020000Y-86995000D01*
X160020000Y-86995000D02*
X145415000Y-86995000D01*
G04 #@! TO.N,+BATT*
X133350000Y-79375000D02*
X133350000Y-81280000D01*
X124460000Y-70485000D02*
X133350000Y-79375000D01*
X103505000Y-70485000D02*
X124460000Y-70485000D01*
X99695000Y-67945000D02*
X100965000Y-67945000D01*
X100965000Y-67945000D02*
X103505000Y-70485000D01*
G04 #@! TD*
D34*
G04 #@! TO.N,GND*
G36*
X164265001Y-52427607D02*
X164250601Y-52500000D01*
X164307646Y-52786783D01*
X164470095Y-53029905D01*
X164713217Y-53192354D01*
X164927612Y-53235000D01*
X165000000Y-53249399D01*
X165072388Y-53235000D01*
X174290000Y-53235000D01*
X174290001Y-116765000D01*
X165072388Y-116765000D01*
X165000000Y-116750601D01*
X164927612Y-116765000D01*
X164713217Y-116807646D01*
X164470095Y-116970095D01*
X164307646Y-117213217D01*
X164250601Y-117500000D01*
X164265000Y-117572388D01*
X164265001Y-126790000D01*
X60735000Y-126790000D01*
X60735000Y-119545485D01*
X63215000Y-119545485D01*
X63215000Y-120454515D01*
X63562870Y-121294349D01*
X64205651Y-121937130D01*
X65045485Y-122285000D01*
X65954515Y-122285000D01*
X66772864Y-121946029D01*
X70715000Y-121946029D01*
X70715000Y-123053971D01*
X71138991Y-124077576D01*
X71922424Y-124861009D01*
X72946029Y-125285000D01*
X74053971Y-125285000D01*
X75077576Y-124861009D01*
X75861009Y-124077576D01*
X76285000Y-123053971D01*
X76285000Y-122279026D01*
X87292642Y-122279026D01*
X87295291Y-122294791D01*
X87549268Y-122822036D01*
X87985680Y-123211954D01*
X88538087Y-123405184D01*
X88773000Y-123260924D01*
X88773000Y-122047000D01*
X89027000Y-122047000D01*
X89027000Y-123260924D01*
X89261913Y-123405184D01*
X89814320Y-123211954D01*
X90250732Y-122822036D01*
X90504709Y-122294791D01*
X90507358Y-122279026D01*
X90386217Y-122047000D01*
X89027000Y-122047000D01*
X88773000Y-122047000D01*
X87413783Y-122047000D01*
X87292642Y-122279026D01*
X76285000Y-122279026D01*
X76285000Y-121946029D01*
X75861009Y-120922424D01*
X75077576Y-120138991D01*
X74053971Y-119715000D01*
X72946029Y-119715000D01*
X71922424Y-120138991D01*
X71138991Y-120922424D01*
X70715000Y-121946029D01*
X66772864Y-121946029D01*
X66794349Y-121937130D01*
X67437130Y-121294349D01*
X67785000Y-120454515D01*
X67785000Y-119545485D01*
X67437130Y-118705651D01*
X66794349Y-118062870D01*
X65954515Y-117715000D01*
X65045485Y-117715000D01*
X64205651Y-118062870D01*
X63562870Y-118705651D01*
X63215000Y-119545485D01*
X60735000Y-119545485D01*
X60735000Y-117572388D01*
X60749399Y-117500000D01*
X60692354Y-117213217D01*
X60529905Y-116970095D01*
X60286783Y-116807646D01*
X60072388Y-116765000D01*
X60000000Y-116750601D01*
X59927612Y-116765000D01*
X50710000Y-116765000D01*
X50710000Y-114300000D01*
X87219641Y-114300000D01*
X87335950Y-114884725D01*
X87667170Y-115380430D01*
X87950881Y-115570000D01*
X87667170Y-115759570D01*
X87335950Y-116255275D01*
X87219641Y-116840000D01*
X87335950Y-117424725D01*
X87667170Y-117920430D01*
X87950881Y-118110000D01*
X87667170Y-118299570D01*
X87335950Y-118795275D01*
X87219641Y-119380000D01*
X87335950Y-119964725D01*
X87667170Y-120460430D01*
X87956732Y-120653910D01*
X87549268Y-121017964D01*
X87295291Y-121545209D01*
X87292642Y-121560974D01*
X87413783Y-121793000D01*
X88773000Y-121793000D01*
X88773000Y-121773000D01*
X89027000Y-121773000D01*
X89027000Y-121793000D01*
X90386217Y-121793000D01*
X90507358Y-121560974D01*
X90504709Y-121545209D01*
X90250732Y-121017964D01*
X89843268Y-120653910D01*
X90132830Y-120460430D01*
X90464050Y-119964725D01*
X90580359Y-119380000D01*
X90464050Y-118795275D01*
X90132830Y-118299570D01*
X89849119Y-118110000D01*
X90132830Y-117920430D01*
X90464050Y-117424725D01*
X90580359Y-116840000D01*
X90464050Y-116255275D01*
X90132830Y-115759570D01*
X89849119Y-115570000D01*
X90132830Y-115380430D01*
X90464050Y-114884725D01*
X90580359Y-114300000D01*
X90464050Y-113715275D01*
X90137749Y-113226932D01*
X90163765Y-113221757D01*
X90373809Y-113081409D01*
X90514157Y-112871365D01*
X90563440Y-112623600D01*
X90563440Y-110896400D01*
X90514157Y-110648635D01*
X90373809Y-110438591D01*
X90163765Y-110298243D01*
X89916000Y-110248960D01*
X87884000Y-110248960D01*
X87636235Y-110298243D01*
X87426191Y-110438591D01*
X87285843Y-110648635D01*
X87236560Y-110896400D01*
X87236560Y-112623600D01*
X87285843Y-112871365D01*
X87426191Y-113081409D01*
X87636235Y-113221757D01*
X87662251Y-113226932D01*
X87335950Y-113715275D01*
X87219641Y-114300000D01*
X50710000Y-114300000D01*
X50710000Y-108894778D01*
X94615000Y-108894778D01*
X94615000Y-109545222D01*
X94863914Y-110146153D01*
X95207761Y-110490000D01*
X94863914Y-110833847D01*
X94615000Y-111434778D01*
X94615000Y-112085222D01*
X94863914Y-112686153D01*
X95207761Y-113030000D01*
X94863914Y-113373847D01*
X94615000Y-113974778D01*
X94615000Y-114625222D01*
X94863914Y-115226153D01*
X95207761Y-115570000D01*
X94863914Y-115913847D01*
X94615000Y-116514778D01*
X94615000Y-117165222D01*
X94863914Y-117766153D01*
X95207761Y-118110000D01*
X94863914Y-118453847D01*
X94615000Y-119054778D01*
X94615000Y-119705222D01*
X94863914Y-120306153D01*
X95207761Y-120650000D01*
X94863914Y-120993847D01*
X94615000Y-121594778D01*
X94615000Y-122245222D01*
X94863914Y-122846153D01*
X95323847Y-123306086D01*
X95924778Y-123555000D01*
X96575222Y-123555000D01*
X97176153Y-123306086D01*
X97636086Y-122846153D01*
X97885000Y-122245222D01*
X97885000Y-121946029D01*
X148715000Y-121946029D01*
X148715000Y-123053971D01*
X149138991Y-124077576D01*
X149922424Y-124861009D01*
X150946029Y-125285000D01*
X152053971Y-125285000D01*
X153077576Y-124861009D01*
X153861009Y-124077576D01*
X154285000Y-123053971D01*
X154285000Y-121946029D01*
X153861009Y-120922424D01*
X153077576Y-120138991D01*
X152053971Y-119715000D01*
X150946029Y-119715000D01*
X149922424Y-120138991D01*
X149138991Y-120922424D01*
X148715000Y-121946029D01*
X97885000Y-121946029D01*
X97885000Y-121594778D01*
X97636086Y-120993847D01*
X97292239Y-120650000D01*
X97636086Y-120306153D01*
X97885000Y-119705222D01*
X97885000Y-119054778D01*
X97636086Y-118453847D01*
X97292239Y-118110000D01*
X97636086Y-117766153D01*
X97885000Y-117165222D01*
X97885000Y-116514778D01*
X97636086Y-115913847D01*
X97292239Y-115570000D01*
X97636086Y-115226153D01*
X97885000Y-114625222D01*
X97885000Y-113974778D01*
X119995000Y-113974778D01*
X119995000Y-114625222D01*
X120243914Y-115226153D01*
X120587761Y-115570000D01*
X120243914Y-115913847D01*
X119995000Y-116514778D01*
X119995000Y-117165222D01*
X120243914Y-117766153D01*
X120587761Y-118110000D01*
X120243914Y-118453847D01*
X119995000Y-119054778D01*
X119995000Y-119705222D01*
X120243914Y-120306153D01*
X120703847Y-120766086D01*
X121304778Y-121015000D01*
X121955222Y-121015000D01*
X122556153Y-120766086D01*
X123016086Y-120306153D01*
X123265000Y-119705222D01*
X123265000Y-119054778D01*
X123016086Y-118453847D01*
X122672239Y-118110000D01*
X123016086Y-117766153D01*
X123265000Y-117165222D01*
X123265000Y-116514778D01*
X123016086Y-115913847D01*
X122672239Y-115570000D01*
X123016086Y-115226153D01*
X123265000Y-114625222D01*
X123265000Y-113974778D01*
X123016086Y-113373847D01*
X122589928Y-112947689D01*
X122602927Y-112912532D01*
X121630000Y-111939605D01*
X120657073Y-112912532D01*
X120670072Y-112947689D01*
X120243914Y-113373847D01*
X119995000Y-113974778D01*
X97885000Y-113974778D01*
X97636086Y-113373847D01*
X97292239Y-113030000D01*
X97636086Y-112686153D01*
X97885000Y-112085222D01*
X97885000Y-111495461D01*
X119984092Y-111495461D01*
X120008144Y-112145460D01*
X120210613Y-112634264D01*
X120477468Y-112732927D01*
X121450395Y-111760000D01*
X121809605Y-111760000D01*
X122782532Y-112732927D01*
X122858391Y-112704880D01*
X135525510Y-112704880D01*
X135525510Y-113355120D01*
X135774346Y-113955864D01*
X136234136Y-114415654D01*
X136834880Y-114664490D01*
X137485120Y-114664490D01*
X138085864Y-114415654D01*
X138545654Y-113955864D01*
X138714943Y-113547163D01*
X141902443Y-113547163D01*
X142001042Y-113813965D01*
X142610582Y-114040401D01*
X143260377Y-114016341D01*
X143748958Y-113813965D01*
X143847557Y-113547163D01*
X142875000Y-112574605D01*
X141902443Y-113547163D01*
X138714943Y-113547163D01*
X138794490Y-113355120D01*
X138794490Y-112704880D01*
X138556609Y-112130582D01*
X141229599Y-112130582D01*
X141253659Y-112780377D01*
X141456035Y-113268958D01*
X141722837Y-113367557D01*
X142695395Y-112395000D01*
X143054605Y-112395000D01*
X144027163Y-113367557D01*
X144293965Y-113268958D01*
X144520401Y-112659418D01*
X144498573Y-112069880D01*
X151400510Y-112069880D01*
X151400510Y-112720120D01*
X151649346Y-113320864D01*
X152109136Y-113780654D01*
X152709880Y-114029490D01*
X153360120Y-114029490D01*
X153960864Y-113780654D01*
X154420654Y-113320864D01*
X154669490Y-112720120D01*
X154669490Y-112069880D01*
X154420654Y-111469136D01*
X153960864Y-111009346D01*
X153360120Y-110760510D01*
X152709880Y-110760510D01*
X152109136Y-111009346D01*
X151649346Y-111469136D01*
X151400510Y-112069880D01*
X144498573Y-112069880D01*
X144496341Y-112009623D01*
X144293965Y-111521042D01*
X144027163Y-111422443D01*
X143054605Y-112395000D01*
X142695395Y-112395000D01*
X141722837Y-111422443D01*
X141456035Y-111521042D01*
X141229599Y-112130582D01*
X138556609Y-112130582D01*
X138545654Y-112104136D01*
X138085864Y-111644346D01*
X137485120Y-111395510D01*
X136834880Y-111395510D01*
X136234136Y-111644346D01*
X135774346Y-112104136D01*
X135525510Y-112704880D01*
X122858391Y-112704880D01*
X123049387Y-112634264D01*
X123275908Y-112024539D01*
X123251856Y-111374540D01*
X123197303Y-111242837D01*
X141902443Y-111242837D01*
X142875000Y-112215395D01*
X143847557Y-111242837D01*
X143748958Y-110976035D01*
X143139418Y-110749599D01*
X142489623Y-110773659D01*
X142001042Y-110976035D01*
X141902443Y-111242837D01*
X123197303Y-111242837D01*
X123049387Y-110885736D01*
X122782532Y-110787073D01*
X121809605Y-111760000D01*
X121450395Y-111760000D01*
X120477468Y-110787073D01*
X120210613Y-110885736D01*
X119984092Y-111495461D01*
X97885000Y-111495461D01*
X97885000Y-111434778D01*
X97636086Y-110833847D01*
X97409707Y-110607468D01*
X120657073Y-110607468D01*
X121630000Y-111580395D01*
X122602927Y-110607468D01*
X122504264Y-110340613D01*
X121894539Y-110114092D01*
X121244540Y-110138144D01*
X120755736Y-110340613D01*
X120657073Y-110607468D01*
X97409707Y-110607468D01*
X97292239Y-110490000D01*
X97636086Y-110146153D01*
X97885000Y-109545222D01*
X97885000Y-108894778D01*
X97636086Y-108293847D01*
X97176153Y-107833914D01*
X96671501Y-107624880D01*
X141240510Y-107624880D01*
X141240510Y-108275120D01*
X141489346Y-108875864D01*
X141949136Y-109335654D01*
X142549880Y-109584490D01*
X143200120Y-109584490D01*
X143800864Y-109335654D01*
X144260654Y-108875864D01*
X144509490Y-108275120D01*
X144509490Y-107624880D01*
X151400510Y-107624880D01*
X151400510Y-108275120D01*
X151649346Y-108875864D01*
X152109136Y-109335654D01*
X152709880Y-109584490D01*
X153360120Y-109584490D01*
X153960864Y-109335654D01*
X154420654Y-108875864D01*
X154669490Y-108275120D01*
X154669490Y-107624880D01*
X154420654Y-107024136D01*
X153960864Y-106564346D01*
X153360120Y-106315510D01*
X152709880Y-106315510D01*
X152109136Y-106564346D01*
X151649346Y-107024136D01*
X151400510Y-107624880D01*
X144509490Y-107624880D01*
X144260654Y-107024136D01*
X143800864Y-106564346D01*
X143200120Y-106315510D01*
X142549880Y-106315510D01*
X141949136Y-106564346D01*
X141489346Y-107024136D01*
X141240510Y-107624880D01*
X96671501Y-107624880D01*
X96575222Y-107585000D01*
X95924778Y-107585000D01*
X95323847Y-107833914D01*
X94863914Y-108293847D01*
X94615000Y-108894778D01*
X50710000Y-108894778D01*
X50710000Y-106562163D01*
X132377443Y-106562163D01*
X132476042Y-106828965D01*
X133085582Y-107055401D01*
X133735377Y-107031341D01*
X134223958Y-106828965D01*
X134322557Y-106562163D01*
X133350000Y-105589605D01*
X132377443Y-106562163D01*
X50710000Y-106562163D01*
X50710000Y-105145582D01*
X131704599Y-105145582D01*
X131728659Y-105795377D01*
X131931035Y-106283958D01*
X132197837Y-106382557D01*
X133170395Y-105410000D01*
X133529605Y-105410000D01*
X134502163Y-106382557D01*
X134768965Y-106283958D01*
X134995401Y-105674418D01*
X134971341Y-105024623D01*
X134892748Y-104834880D01*
X159365510Y-104834880D01*
X159365510Y-105485120D01*
X159614346Y-106085864D01*
X160074136Y-106545654D01*
X160674880Y-106794490D01*
X161325120Y-106794490D01*
X161925864Y-106545654D01*
X162385654Y-106085864D01*
X162634490Y-105485120D01*
X162634490Y-104834880D01*
X162385654Y-104234136D01*
X161925864Y-103774346D01*
X161325120Y-103525510D01*
X160674880Y-103525510D01*
X160074136Y-103774346D01*
X159614346Y-104234136D01*
X159365510Y-104834880D01*
X134892748Y-104834880D01*
X134768965Y-104536042D01*
X134502163Y-104437443D01*
X133529605Y-105410000D01*
X133170395Y-105410000D01*
X132197837Y-104437443D01*
X131931035Y-104536042D01*
X131704599Y-105145582D01*
X50710000Y-105145582D01*
X50710000Y-104257837D01*
X132377443Y-104257837D01*
X133350000Y-105230395D01*
X134322557Y-104257837D01*
X134223958Y-103991035D01*
X133614418Y-103764599D01*
X132964623Y-103788659D01*
X132476042Y-103991035D01*
X132377443Y-104257837D01*
X50710000Y-104257837D01*
X50710000Y-101727000D01*
X78475000Y-101727000D01*
X78475000Y-102627000D01*
X78640446Y-103204752D01*
X79014394Y-103675212D01*
X79539914Y-103966756D01*
X79645260Y-103991036D01*
X79883000Y-103870378D01*
X79883000Y-101727000D01*
X80137000Y-101727000D01*
X80137000Y-103870378D01*
X80374740Y-103991036D01*
X80480086Y-103966756D01*
X81005606Y-103675212D01*
X81379554Y-103204752D01*
X81545000Y-102627000D01*
X81545000Y-101727000D01*
X80137000Y-101727000D01*
X79883000Y-101727000D01*
X78475000Y-101727000D01*
X50710000Y-101727000D01*
X50710000Y-100573000D01*
X78475000Y-100573000D01*
X78475000Y-101473000D01*
X79883000Y-101473000D01*
X79883000Y-99329622D01*
X80137000Y-99329622D01*
X80137000Y-101473000D01*
X81545000Y-101473000D01*
X81545000Y-100573000D01*
X81379554Y-99995248D01*
X81224360Y-99800000D01*
X83542560Y-99800000D01*
X83542560Y-103400000D01*
X83591843Y-103647765D01*
X83732191Y-103857809D01*
X83942235Y-103998157D01*
X84190000Y-104047440D01*
X85990000Y-104047440D01*
X86237765Y-103998157D01*
X86447809Y-103857809D01*
X86588157Y-103647765D01*
X86637440Y-103400000D01*
X86637440Y-101274880D01*
X91075510Y-101274880D01*
X91075510Y-101925120D01*
X91324346Y-102525864D01*
X91784136Y-102985654D01*
X92384880Y-103234490D01*
X93035120Y-103234490D01*
X93635864Y-102985654D01*
X94095654Y-102525864D01*
X94344490Y-101925120D01*
X94344490Y-101274880D01*
X101235510Y-101274880D01*
X101235510Y-101925120D01*
X101484346Y-102525864D01*
X101944136Y-102985654D01*
X102544880Y-103234490D01*
X103195120Y-103234490D01*
X103795864Y-102985654D01*
X104255654Y-102525864D01*
X104504490Y-101925120D01*
X104504490Y-101274880D01*
X104255654Y-100674136D01*
X104165518Y-100584000D01*
X105016560Y-100584000D01*
X105016560Y-102616000D01*
X105065843Y-102863765D01*
X105206191Y-103073809D01*
X105416235Y-103214157D01*
X105664000Y-103263440D01*
X107696000Y-103263440D01*
X107943765Y-103214157D01*
X108153809Y-103073809D01*
X108246463Y-102935144D01*
X108575812Y-103155208D01*
X109057391Y-103251000D01*
X109382609Y-103251000D01*
X109864188Y-103155208D01*
X110410305Y-102790305D01*
X110574292Y-102544880D01*
X135525510Y-102544880D01*
X135525510Y-103195120D01*
X135774346Y-103795864D01*
X136234136Y-104255654D01*
X136834880Y-104504490D01*
X137485120Y-104504490D01*
X138085864Y-104255654D01*
X138545654Y-103795864D01*
X138794490Y-103195120D01*
X138794490Y-102544880D01*
X138545654Y-101944136D01*
X138085864Y-101484346D01*
X137485120Y-101235510D01*
X136834880Y-101235510D01*
X136234136Y-101484346D01*
X135774346Y-101944136D01*
X135525510Y-102544880D01*
X110574292Y-102544880D01*
X110775208Y-102244188D01*
X110903345Y-101600000D01*
X110775208Y-100955812D01*
X110410305Y-100409695D01*
X109864188Y-100044792D01*
X109382609Y-99949000D01*
X109057391Y-99949000D01*
X108575812Y-100044792D01*
X108246463Y-100264856D01*
X108153809Y-100126191D01*
X107943765Y-99985843D01*
X107696000Y-99936560D01*
X105664000Y-99936560D01*
X105416235Y-99985843D01*
X105206191Y-100126191D01*
X105065843Y-100336235D01*
X105016560Y-100584000D01*
X104165518Y-100584000D01*
X103795864Y-100214346D01*
X103195120Y-99965510D01*
X102544880Y-99965510D01*
X101944136Y-100214346D01*
X101484346Y-100674136D01*
X101235510Y-101274880D01*
X94344490Y-101274880D01*
X94095654Y-100674136D01*
X93635864Y-100214346D01*
X93035120Y-99965510D01*
X92384880Y-99965510D01*
X91784136Y-100214346D01*
X91324346Y-100674136D01*
X91075510Y-101274880D01*
X86637440Y-101274880D01*
X86637440Y-99800000D01*
X86588157Y-99552235D01*
X86447809Y-99342191D01*
X86237765Y-99201843D01*
X85990000Y-99152560D01*
X84190000Y-99152560D01*
X83942235Y-99201843D01*
X83732191Y-99342191D01*
X83591843Y-99552235D01*
X83542560Y-99800000D01*
X81224360Y-99800000D01*
X81005606Y-99524788D01*
X80480086Y-99233244D01*
X80374740Y-99208964D01*
X80137000Y-99329622D01*
X79883000Y-99329622D01*
X79645260Y-99208964D01*
X79539914Y-99233244D01*
X79014394Y-99524788D01*
X78640446Y-99995248D01*
X78475000Y-100573000D01*
X50710000Y-100573000D01*
X50710000Y-97545485D01*
X53215000Y-97545485D01*
X53215000Y-98454515D01*
X53562870Y-99294349D01*
X54205651Y-99937130D01*
X55045485Y-100285000D01*
X55954515Y-100285000D01*
X56794349Y-99937130D01*
X57437130Y-99294349D01*
X57785000Y-98454515D01*
X57785000Y-97545485D01*
X73215000Y-97545485D01*
X73215000Y-98454515D01*
X73562870Y-99294349D01*
X74205651Y-99937130D01*
X75045485Y-100285000D01*
X75954515Y-100285000D01*
X76794349Y-99937130D01*
X77437130Y-99294349D01*
X77785000Y-98454515D01*
X77785000Y-97545485D01*
X77716047Y-97379016D01*
X104055590Y-97379016D01*
X104111271Y-97609611D01*
X104594078Y-97777622D01*
X105104428Y-97748083D01*
X105438729Y-97609611D01*
X105494410Y-97379016D01*
X104775000Y-96659605D01*
X104055590Y-97379016D01*
X77716047Y-97379016D01*
X77437130Y-96705651D01*
X77030557Y-96299078D01*
X103477378Y-96299078D01*
X103506917Y-96809428D01*
X103645389Y-97143729D01*
X103875984Y-97199410D01*
X104595395Y-96480000D01*
X104954605Y-96480000D01*
X105674016Y-97199410D01*
X105904611Y-97143729D01*
X106072622Y-96660922D01*
X106043083Y-96150572D01*
X105904611Y-95816271D01*
X105674016Y-95760590D01*
X104954605Y-96480000D01*
X104595395Y-96480000D01*
X103875984Y-95760590D01*
X103645389Y-95816271D01*
X103477378Y-96299078D01*
X77030557Y-96299078D01*
X76794349Y-96062870D01*
X75954515Y-95715000D01*
X75045485Y-95715000D01*
X74205651Y-96062870D01*
X73562870Y-96705651D01*
X73215000Y-97545485D01*
X57785000Y-97545485D01*
X57437130Y-96705651D01*
X56794349Y-96062870D01*
X55954515Y-95715000D01*
X55045485Y-95715000D01*
X54205651Y-96062870D01*
X53562870Y-96705651D01*
X53215000Y-97545485D01*
X50710000Y-97545485D01*
X50710000Y-93874778D01*
X84075000Y-93874778D01*
X84075000Y-94525222D01*
X84323914Y-95126153D01*
X84783847Y-95586086D01*
X85384778Y-95835000D01*
X86035222Y-95835000D01*
X86636153Y-95586086D01*
X86869707Y-95352532D01*
X98737073Y-95352532D01*
X98835736Y-95619387D01*
X99445461Y-95845908D01*
X100095460Y-95821856D01*
X100584264Y-95619387D01*
X100682927Y-95352532D01*
X99710000Y-94379605D01*
X98737073Y-95352532D01*
X86869707Y-95352532D01*
X87096086Y-95126153D01*
X87345000Y-94525222D01*
X87345000Y-93935461D01*
X98064092Y-93935461D01*
X98088144Y-94585460D01*
X98290613Y-95074264D01*
X98557468Y-95172927D01*
X99530395Y-94200000D01*
X99889605Y-94200000D01*
X100862532Y-95172927D01*
X101129387Y-95074264D01*
X101355908Y-94464539D01*
X101331856Y-93814540D01*
X101129387Y-93325736D01*
X100862532Y-93227073D01*
X99889605Y-94200000D01*
X99530395Y-94200000D01*
X98557468Y-93227073D01*
X98290613Y-93325736D01*
X98064092Y-93935461D01*
X87345000Y-93935461D01*
X87345000Y-93874778D01*
X87096086Y-93273847D01*
X86869707Y-93047468D01*
X98737073Y-93047468D01*
X99710000Y-94020395D01*
X100682927Y-93047468D01*
X100584264Y-92780613D01*
X99974539Y-92554092D01*
X99324540Y-92578144D01*
X98835736Y-92780613D01*
X98737073Y-93047468D01*
X86869707Y-93047468D01*
X86636153Y-92813914D01*
X86035222Y-92565000D01*
X85384778Y-92565000D01*
X84783847Y-92813914D01*
X84323914Y-93273847D01*
X84075000Y-93874778D01*
X50710000Y-93874778D01*
X50710000Y-91440000D01*
X102863176Y-91440000D01*
X102970712Y-91980622D01*
X103276950Y-92438940D01*
X103735268Y-92745178D01*
X103829289Y-92763880D01*
X103667191Y-92872191D01*
X103526843Y-93082235D01*
X103477560Y-93330000D01*
X103477560Y-94630000D01*
X103526843Y-94877765D01*
X103667191Y-95087809D01*
X103877235Y-95228157D01*
X104125000Y-95277440D01*
X104287385Y-95277440D01*
X104111271Y-95350389D01*
X104055590Y-95580984D01*
X104775000Y-96300395D01*
X105494410Y-95580984D01*
X105438729Y-95350389D01*
X105229098Y-95277440D01*
X105425000Y-95277440D01*
X105672765Y-95228157D01*
X105882809Y-95087809D01*
X105991675Y-94924880D01*
X131715510Y-94924880D01*
X131715510Y-95575120D01*
X131964346Y-96175864D01*
X132424136Y-96635654D01*
X133024880Y-96884490D01*
X133675120Y-96884490D01*
X134275864Y-96635654D01*
X134716638Y-96194880D01*
X135525510Y-96194880D01*
X135525510Y-96845120D01*
X135774346Y-97445864D01*
X136234136Y-97905654D01*
X136834880Y-98154490D01*
X137485120Y-98154490D01*
X138085864Y-97905654D01*
X138545654Y-97445864D01*
X138794490Y-96845120D01*
X138794490Y-96194880D01*
X138545654Y-95594136D01*
X138085864Y-95134346D01*
X137485120Y-94885510D01*
X136834880Y-94885510D01*
X136234136Y-95134346D01*
X135774346Y-95594136D01*
X135525510Y-96194880D01*
X134716638Y-96194880D01*
X134735654Y-96175864D01*
X134984490Y-95575120D01*
X134984490Y-94924880D01*
X134735654Y-94324136D01*
X134275864Y-93864346D01*
X133675120Y-93615510D01*
X133024880Y-93615510D01*
X132424136Y-93864346D01*
X131964346Y-94324136D01*
X131715510Y-94924880D01*
X105991675Y-94924880D01*
X106023157Y-94877765D01*
X106072440Y-94630000D01*
X106072440Y-93330000D01*
X106023157Y-93082235D01*
X105882809Y-92872191D01*
X105720711Y-92763880D01*
X105814732Y-92745178D01*
X106273050Y-92438940D01*
X106579288Y-91980622D01*
X106686824Y-91440000D01*
X106579288Y-90899378D01*
X106273050Y-90441060D01*
X105844115Y-90154455D01*
X105921677Y-90131499D01*
X106343658Y-89789944D01*
X106602810Y-89312903D01*
X106616993Y-89241275D01*
X106494339Y-89027000D01*
X104902000Y-89027000D01*
X104902000Y-89047000D01*
X104648000Y-89047000D01*
X104648000Y-89027000D01*
X103055661Y-89027000D01*
X102933007Y-89241275D01*
X102947190Y-89312903D01*
X103206342Y-89789944D01*
X103628323Y-90131499D01*
X103705885Y-90154455D01*
X103276950Y-90441060D01*
X102970712Y-90899378D01*
X102863176Y-91440000D01*
X50710000Y-91440000D01*
X50710000Y-82550000D01*
X75942041Y-82550000D01*
X76058350Y-83134725D01*
X76389570Y-83630430D01*
X76673281Y-83820000D01*
X76389570Y-84009570D01*
X76058350Y-84505275D01*
X75942041Y-85090000D01*
X76058350Y-85674725D01*
X76389570Y-86170430D01*
X76673281Y-86360000D01*
X76389570Y-86549570D01*
X76058350Y-87045275D01*
X75942041Y-87630000D01*
X76058350Y-88214725D01*
X76389570Y-88710430D01*
X76885275Y-89041650D01*
X77322402Y-89128600D01*
X77617598Y-89128600D01*
X78054725Y-89041650D01*
X78550430Y-88710430D01*
X78740000Y-88426719D01*
X78929570Y-88710430D01*
X79425275Y-89041650D01*
X79862402Y-89128600D01*
X80157598Y-89128600D01*
X80594725Y-89041650D01*
X81090430Y-88710430D01*
X81421650Y-88214725D01*
X81537959Y-87630000D01*
X81421650Y-87045275D01*
X81090430Y-86549570D01*
X80806719Y-86360000D01*
X102863176Y-86360000D01*
X102970712Y-86900622D01*
X103276950Y-87358940D01*
X103705885Y-87645545D01*
X103628323Y-87668501D01*
X103206342Y-88010056D01*
X102947190Y-88487097D01*
X102933007Y-88558725D01*
X103055661Y-88773000D01*
X104648000Y-88773000D01*
X104648000Y-88753000D01*
X104902000Y-88753000D01*
X104902000Y-88773000D01*
X106494339Y-88773000D01*
X106616993Y-88558725D01*
X106602810Y-88487097D01*
X106553199Y-88395773D01*
X119004080Y-88395773D01*
X119004080Y-89404227D01*
X119389999Y-90335917D01*
X120103083Y-91049001D01*
X121034773Y-91434920D01*
X122043227Y-91434920D01*
X122815871Y-91114880D01*
X131715510Y-91114880D01*
X131715510Y-91765120D01*
X131964346Y-92365864D01*
X132424136Y-92825654D01*
X133024880Y-93074490D01*
X133675120Y-93074490D01*
X134275864Y-92825654D01*
X134735654Y-92365864D01*
X134984490Y-91765120D01*
X134984490Y-91114880D01*
X134936906Y-91000000D01*
X139391785Y-91000000D01*
X139483755Y-91462364D01*
X139745663Y-91854337D01*
X139963663Y-92000000D01*
X139745663Y-92145663D01*
X139483755Y-92537636D01*
X139391785Y-93000000D01*
X139483755Y-93462364D01*
X139745663Y-93854337D01*
X139963663Y-94000000D01*
X139745663Y-94145663D01*
X139483755Y-94537636D01*
X139391785Y-95000000D01*
X139483755Y-95462364D01*
X139745663Y-95854337D01*
X139963663Y-96000000D01*
X139745663Y-96145663D01*
X139483755Y-96537636D01*
X139391785Y-97000000D01*
X139483755Y-97462364D01*
X139745663Y-97854337D01*
X139963663Y-98000000D01*
X139745663Y-98145663D01*
X139483755Y-98537636D01*
X139391785Y-99000000D01*
X139483755Y-99462364D01*
X139745663Y-99854337D01*
X139963663Y-100000000D01*
X139745663Y-100145663D01*
X139483755Y-100537636D01*
X139391785Y-101000000D01*
X139483755Y-101462364D01*
X139745663Y-101854337D01*
X139963663Y-102000000D01*
X139745663Y-102145663D01*
X139483755Y-102537636D01*
X139391785Y-103000000D01*
X139483755Y-103462364D01*
X139745663Y-103854337D01*
X140137636Y-104116245D01*
X140483290Y-104185000D01*
X142116710Y-104185000D01*
X142462364Y-104116245D01*
X142854337Y-103854337D01*
X143116245Y-103462364D01*
X143146603Y-103309744D01*
X154856197Y-103309744D01*
X154856602Y-103336146D01*
X155072276Y-103748118D01*
X155429187Y-104046196D01*
X155873000Y-104185000D01*
X156573000Y-104185000D01*
X156573000Y-103127000D01*
X156827000Y-103127000D01*
X156827000Y-104185000D01*
X157527000Y-104185000D01*
X157970813Y-104046196D01*
X158327724Y-103748118D01*
X158543398Y-103336146D01*
X158543803Y-103309744D01*
X158418361Y-103127000D01*
X156827000Y-103127000D01*
X156573000Y-103127000D01*
X154981639Y-103127000D01*
X154856197Y-103309744D01*
X143146603Y-103309744D01*
X143208215Y-103000000D01*
X143116245Y-102537636D01*
X142854337Y-102145663D01*
X142636337Y-102000000D01*
X142854337Y-101854337D01*
X143116245Y-101462364D01*
X143208215Y-101000000D01*
X143116245Y-100537636D01*
X142854337Y-100145663D01*
X142636337Y-100000000D01*
X142854337Y-99854337D01*
X143116245Y-99462364D01*
X143208215Y-99000000D01*
X143116245Y-98537636D01*
X142854337Y-98145663D01*
X142636337Y-98000000D01*
X142854337Y-97854337D01*
X143116245Y-97462364D01*
X143208215Y-97000000D01*
X143116245Y-96537636D01*
X142854337Y-96145663D01*
X142636337Y-96000000D01*
X142854337Y-95854337D01*
X143116245Y-95462364D01*
X143208215Y-95000000D01*
X143116245Y-94537636D01*
X142854337Y-94145663D01*
X142636337Y-94000000D01*
X142854337Y-93854337D01*
X143116245Y-93462364D01*
X143208215Y-93000000D01*
X143116245Y-92537636D01*
X142854337Y-92145663D01*
X142636337Y-92000000D01*
X142854337Y-91854337D01*
X143116245Y-91462364D01*
X143208215Y-91000000D01*
X143116245Y-90537636D01*
X142854337Y-90145663D01*
X142827917Y-90128010D01*
X143007809Y-90007809D01*
X143148157Y-89797765D01*
X143197440Y-89550000D01*
X143197440Y-88450000D01*
X143148157Y-88202235D01*
X143007809Y-87992191D01*
X142797765Y-87851843D01*
X142550000Y-87802560D01*
X140050000Y-87802560D01*
X139802235Y-87851843D01*
X139592191Y-87992191D01*
X139451843Y-88202235D01*
X139402560Y-88450000D01*
X139402560Y-89550000D01*
X139451843Y-89797765D01*
X139592191Y-90007809D01*
X139772083Y-90128010D01*
X139745663Y-90145663D01*
X139483755Y-90537636D01*
X139391785Y-91000000D01*
X134936906Y-91000000D01*
X134735654Y-90514136D01*
X134275864Y-90054346D01*
X133675120Y-89805510D01*
X133024880Y-89805510D01*
X132424136Y-90054346D01*
X131964346Y-90514136D01*
X131715510Y-91114880D01*
X122815871Y-91114880D01*
X122974917Y-91049001D01*
X123688001Y-90335917D01*
X124073920Y-89404227D01*
X124073920Y-88395773D01*
X123688001Y-87464083D01*
X122974917Y-86750999D01*
X122043227Y-86365080D01*
X121034773Y-86365080D01*
X120103083Y-86750999D01*
X119389999Y-87464083D01*
X119004080Y-88395773D01*
X106553199Y-88395773D01*
X106343658Y-88010056D01*
X105921677Y-87668501D01*
X105844115Y-87645545D01*
X106273050Y-87358940D01*
X106579288Y-86900622D01*
X106686824Y-86360000D01*
X106622154Y-86034880D01*
X135525510Y-86034880D01*
X135525510Y-86685120D01*
X135774346Y-87285864D01*
X136234136Y-87745654D01*
X136834880Y-87994490D01*
X137485120Y-87994490D01*
X138085864Y-87745654D01*
X138545654Y-87285864D01*
X138751409Y-86789126D01*
X144380000Y-86789126D01*
X144380000Y-87200874D01*
X144537569Y-87581280D01*
X144828720Y-87872431D01*
X145209126Y-88030000D01*
X145620874Y-88030000D01*
X145983007Y-87880000D01*
X155556514Y-87880000D01*
X155537636Y-87883755D01*
X155145663Y-88145663D01*
X154883755Y-88537636D01*
X154791785Y-89000000D01*
X154883755Y-89462364D01*
X155145663Y-89854337D01*
X155363663Y-90000000D01*
X155145663Y-90145663D01*
X154883755Y-90537636D01*
X154791785Y-91000000D01*
X154883755Y-91462364D01*
X155145663Y-91854337D01*
X155363663Y-92000000D01*
X155145663Y-92145663D01*
X154883755Y-92537636D01*
X154791785Y-93000000D01*
X154883755Y-93462364D01*
X155145663Y-93854337D01*
X155363663Y-94000000D01*
X155145663Y-94145663D01*
X154883755Y-94537636D01*
X154791785Y-95000000D01*
X154883755Y-95462364D01*
X155145663Y-95854337D01*
X155363663Y-96000000D01*
X155145663Y-96145663D01*
X154883755Y-96537636D01*
X154791785Y-97000000D01*
X154883755Y-97462364D01*
X155145663Y-97854337D01*
X155363663Y-98000000D01*
X155145663Y-98145663D01*
X154883755Y-98537636D01*
X154791785Y-99000000D01*
X154883755Y-99462364D01*
X155145663Y-99854337D01*
X155313663Y-99966591D01*
X155045663Y-100145663D01*
X154783755Y-100537636D01*
X154691785Y-101000000D01*
X154783755Y-101462364D01*
X155045663Y-101854337D01*
X155324889Y-102040910D01*
X155072276Y-102251882D01*
X154856602Y-102663854D01*
X154856197Y-102690256D01*
X154981639Y-102873000D01*
X156573000Y-102873000D01*
X156573000Y-102853000D01*
X156827000Y-102853000D01*
X156827000Y-102873000D01*
X158418361Y-102873000D01*
X158543803Y-102690256D01*
X158543398Y-102663854D01*
X158327724Y-102251882D01*
X157986219Y-101966670D01*
X158154337Y-101854337D01*
X158416245Y-101462364D01*
X158508215Y-101000000D01*
X158416245Y-100537636D01*
X158154337Y-100145663D01*
X157986337Y-100033409D01*
X158254337Y-99854337D01*
X158516245Y-99462364D01*
X158608215Y-99000000D01*
X158516245Y-98537636D01*
X158254337Y-98145663D01*
X158036337Y-98000000D01*
X158254337Y-97854337D01*
X158516245Y-97462364D01*
X158608215Y-97000000D01*
X158516245Y-96537636D01*
X158254337Y-96145663D01*
X158036337Y-96000000D01*
X158254337Y-95854337D01*
X158516245Y-95462364D01*
X158608215Y-95000000D01*
X158516245Y-94537636D01*
X158254337Y-94145663D01*
X158036337Y-94000000D01*
X158254337Y-93854337D01*
X158516245Y-93462364D01*
X158608215Y-93000000D01*
X158516245Y-92537636D01*
X158254337Y-92145663D01*
X158036337Y-92000000D01*
X158254337Y-91854337D01*
X158516245Y-91462364D01*
X158608215Y-91000000D01*
X158516245Y-90537636D01*
X158254337Y-90145663D01*
X158036337Y-90000000D01*
X158254337Y-89854337D01*
X158516245Y-89462364D01*
X158608215Y-89000000D01*
X158516245Y-88537636D01*
X158254337Y-88145663D01*
X157862364Y-87883755D01*
X157843486Y-87880000D01*
X159653422Y-87880000D01*
X162310001Y-90536580D01*
X162310001Y-91158483D01*
X161925864Y-90774346D01*
X161325120Y-90525510D01*
X160674880Y-90525510D01*
X160074136Y-90774346D01*
X159614346Y-91234136D01*
X159365510Y-91834880D01*
X159365510Y-92485120D01*
X159614346Y-93085864D01*
X160074136Y-93545654D01*
X160157055Y-93580000D01*
X160074136Y-93614346D01*
X159614346Y-94074136D01*
X159365510Y-94674880D01*
X159365510Y-95325120D01*
X159614346Y-95925864D01*
X160074136Y-96385654D01*
X160674880Y-96634490D01*
X161325120Y-96634490D01*
X161925864Y-96385654D01*
X162385654Y-95925864D01*
X162634490Y-95325120D01*
X162634490Y-94674880D01*
X162385654Y-94074136D01*
X161925864Y-93614346D01*
X161842945Y-93580000D01*
X161925864Y-93545654D01*
X162310000Y-93161518D01*
X162310000Y-93257839D01*
X162292663Y-93345000D01*
X162310000Y-93432161D01*
X162310000Y-93432164D01*
X162361348Y-93690309D01*
X162556951Y-93983049D01*
X162630846Y-94032425D01*
X162802569Y-94204148D01*
X162952569Y-94566280D01*
X163243720Y-94857431D01*
X163624126Y-95015000D01*
X164035874Y-95015000D01*
X164416280Y-94857431D01*
X164707431Y-94566280D01*
X164865000Y-94185874D01*
X164865000Y-93774126D01*
X164707431Y-93393720D01*
X164416280Y-93102569D01*
X164080000Y-92963278D01*
X164080000Y-91540000D01*
X165319641Y-91540000D01*
X165435950Y-92124725D01*
X165767170Y-92620430D01*
X166050881Y-92810000D01*
X165767170Y-92999570D01*
X165435950Y-93495275D01*
X165319641Y-94080000D01*
X165435950Y-94664725D01*
X165767170Y-95160430D01*
X166050881Y-95350000D01*
X165767170Y-95539570D01*
X165435950Y-96035275D01*
X165319641Y-96620000D01*
X165435950Y-97204725D01*
X165767170Y-97700430D01*
X166262875Y-98031650D01*
X166700002Y-98118600D01*
X167299998Y-98118600D01*
X167737125Y-98031650D01*
X168232830Y-97700430D01*
X168564050Y-97204725D01*
X168680359Y-96620000D01*
X168564050Y-96035275D01*
X168232830Y-95539570D01*
X167949119Y-95350000D01*
X168232830Y-95160430D01*
X168564050Y-94664725D01*
X168680359Y-94080000D01*
X168564050Y-93495275D01*
X168232830Y-92999570D01*
X167949119Y-92810000D01*
X168232830Y-92620430D01*
X168564050Y-92124725D01*
X168680359Y-91540000D01*
X168564050Y-90955275D01*
X168237749Y-90466932D01*
X168263765Y-90461757D01*
X168473809Y-90321409D01*
X168614157Y-90111365D01*
X168663440Y-89863600D01*
X168663440Y-88136400D01*
X168614157Y-87888635D01*
X168473809Y-87678591D01*
X168263765Y-87538243D01*
X168016000Y-87488960D01*
X165984000Y-87488960D01*
X165736235Y-87538243D01*
X165526191Y-87678591D01*
X165385843Y-87888635D01*
X165336560Y-88136400D01*
X165336560Y-89863600D01*
X165385843Y-90111365D01*
X165526191Y-90321409D01*
X165736235Y-90461757D01*
X165762251Y-90466932D01*
X165435950Y-90955275D01*
X165319641Y-91540000D01*
X164080000Y-91540000D01*
X164080000Y-90257159D01*
X164097337Y-90169999D01*
X164080000Y-90082840D01*
X164080000Y-90082835D01*
X164028652Y-89824690D01*
X163833049Y-89531951D01*
X163759156Y-89482577D01*
X160707425Y-86430847D01*
X160658049Y-86356951D01*
X160365310Y-86161348D01*
X160107165Y-86110000D01*
X160107161Y-86110000D01*
X160020000Y-86092663D01*
X159932839Y-86110000D01*
X145983007Y-86110000D01*
X145620874Y-85960000D01*
X145209126Y-85960000D01*
X144828720Y-86117569D01*
X144537569Y-86408720D01*
X144380000Y-86789126D01*
X138751409Y-86789126D01*
X138794490Y-86685120D01*
X138794490Y-86034880D01*
X138545654Y-85434136D01*
X138085864Y-84974346D01*
X137485120Y-84725510D01*
X136834880Y-84725510D01*
X136234136Y-84974346D01*
X135774346Y-85434136D01*
X135525510Y-86034880D01*
X106622154Y-86034880D01*
X106579288Y-85819378D01*
X106273050Y-85361060D01*
X105814732Y-85054822D01*
X105720711Y-85036120D01*
X105882809Y-84927809D01*
X106023157Y-84717765D01*
X106072440Y-84470000D01*
X106072440Y-83170000D01*
X106068893Y-83152163D01*
X160027443Y-83152163D01*
X160126042Y-83418965D01*
X160735582Y-83645401D01*
X161385377Y-83621341D01*
X161873958Y-83418965D01*
X161972557Y-83152163D01*
X161000000Y-82179605D01*
X160027443Y-83152163D01*
X106068893Y-83152163D01*
X106023157Y-82922235D01*
X105882809Y-82712191D01*
X105672765Y-82571843D01*
X105425000Y-82522560D01*
X105262615Y-82522560D01*
X105438729Y-82449611D01*
X105494410Y-82219016D01*
X104775000Y-81499605D01*
X104055590Y-82219016D01*
X104111271Y-82449611D01*
X104320902Y-82522560D01*
X104125000Y-82522560D01*
X103877235Y-82571843D01*
X103667191Y-82712191D01*
X103526843Y-82922235D01*
X103477560Y-83170000D01*
X103477560Y-84470000D01*
X103526843Y-84717765D01*
X103667191Y-84927809D01*
X103829289Y-85036120D01*
X103735268Y-85054822D01*
X103276950Y-85361060D01*
X102970712Y-85819378D01*
X102863176Y-86360000D01*
X80806719Y-86360000D01*
X81090430Y-86170430D01*
X81421650Y-85674725D01*
X81537959Y-85090000D01*
X81421650Y-84505275D01*
X81090430Y-84009570D01*
X80806719Y-83820000D01*
X81090430Y-83630430D01*
X81421650Y-83134725D01*
X81537959Y-82550000D01*
X81421650Y-81965275D01*
X81090430Y-81469570D01*
X80806719Y-81280000D01*
X81017623Y-81139078D01*
X103477378Y-81139078D01*
X103506917Y-81649428D01*
X103645389Y-81983729D01*
X103875984Y-82039410D01*
X104595395Y-81320000D01*
X104954605Y-81320000D01*
X105674016Y-82039410D01*
X105904611Y-81983729D01*
X106072622Y-81500922D01*
X106043083Y-80990572D01*
X105904611Y-80656271D01*
X105674016Y-80600590D01*
X104954605Y-81320000D01*
X104595395Y-81320000D01*
X103875984Y-80600590D01*
X103645389Y-80656271D01*
X103477378Y-81139078D01*
X81017623Y-81139078D01*
X81090430Y-81090430D01*
X81421650Y-80594725D01*
X81456209Y-80420984D01*
X104055590Y-80420984D01*
X104775000Y-81140395D01*
X105494410Y-80420984D01*
X105438729Y-80190389D01*
X104955922Y-80022378D01*
X104445572Y-80051917D01*
X104111271Y-80190389D01*
X104055590Y-80420984D01*
X81456209Y-80420984D01*
X81537959Y-80010000D01*
X81421650Y-79425275D01*
X81090430Y-78929570D01*
X80594725Y-78598350D01*
X80157598Y-78511400D01*
X79862402Y-78511400D01*
X79425275Y-78598350D01*
X78936932Y-78924651D01*
X78931757Y-78898635D01*
X78791409Y-78688591D01*
X78581365Y-78548243D01*
X78333600Y-78498960D01*
X76606400Y-78498960D01*
X76358635Y-78548243D01*
X76148591Y-78688591D01*
X76008243Y-78898635D01*
X75958960Y-79146400D01*
X75958960Y-80873600D01*
X76008243Y-81121365D01*
X76148591Y-81331409D01*
X76358635Y-81471757D01*
X76384651Y-81476932D01*
X76058350Y-81965275D01*
X75942041Y-82550000D01*
X50710000Y-82550000D01*
X50710000Y-76664778D01*
X103645000Y-76664778D01*
X103645000Y-77315222D01*
X103893914Y-77916153D01*
X104353847Y-78376086D01*
X104954778Y-78625000D01*
X105605222Y-78625000D01*
X106206153Y-78376086D01*
X106666086Y-77916153D01*
X106915000Y-77315222D01*
X106915000Y-76664778D01*
X119145000Y-76664778D01*
X119145000Y-77315222D01*
X119393914Y-77916153D01*
X119853847Y-78376086D01*
X120454778Y-78625000D01*
X121105222Y-78625000D01*
X121706153Y-78376086D01*
X122166086Y-77916153D01*
X122415000Y-77315222D01*
X122415000Y-76664778D01*
X122166086Y-76063847D01*
X121706153Y-75603914D01*
X121105222Y-75355000D01*
X120454778Y-75355000D01*
X119853847Y-75603914D01*
X119393914Y-76063847D01*
X119145000Y-76664778D01*
X106915000Y-76664778D01*
X106666086Y-76063847D01*
X106206153Y-75603914D01*
X105605222Y-75355000D01*
X104954778Y-75355000D01*
X104353847Y-75603914D01*
X103893914Y-76063847D01*
X103645000Y-76664778D01*
X50710000Y-76664778D01*
X50710000Y-71545485D01*
X53215000Y-71545485D01*
X53215000Y-72454515D01*
X53562870Y-73294349D01*
X54205651Y-73937130D01*
X55045485Y-74285000D01*
X55954515Y-74285000D01*
X56794349Y-73937130D01*
X57437130Y-73294349D01*
X57785000Y-72454515D01*
X57785000Y-71545485D01*
X73215000Y-71545485D01*
X73215000Y-72454515D01*
X73562870Y-73294349D01*
X74205651Y-73937130D01*
X75045485Y-74285000D01*
X75954515Y-74285000D01*
X76794349Y-73937130D01*
X77437130Y-73294349D01*
X77785000Y-72454515D01*
X77785000Y-71545485D01*
X77672870Y-71274778D01*
X84075000Y-71274778D01*
X84075000Y-71925222D01*
X84323914Y-72526153D01*
X84783847Y-72986086D01*
X85384778Y-73235000D01*
X86035222Y-73235000D01*
X86636153Y-72986086D01*
X87096086Y-72526153D01*
X87345000Y-71925222D01*
X87345000Y-71274778D01*
X87375000Y-71274778D01*
X87375000Y-71925222D01*
X87623914Y-72526153D01*
X88083847Y-72986086D01*
X88684778Y-73235000D01*
X89335222Y-73235000D01*
X89936153Y-72986086D01*
X90396086Y-72526153D01*
X90645000Y-71925222D01*
X90645000Y-71274778D01*
X94775000Y-71274778D01*
X94775000Y-71925222D01*
X95023914Y-72526153D01*
X95483847Y-72986086D01*
X96084778Y-73235000D01*
X96735222Y-73235000D01*
X97336153Y-72986086D01*
X97569707Y-72752532D01*
X98737073Y-72752532D01*
X98835736Y-73019387D01*
X99445461Y-73245908D01*
X100095460Y-73221856D01*
X100584264Y-73019387D01*
X100682927Y-72752532D01*
X99710000Y-71779605D01*
X98737073Y-72752532D01*
X97569707Y-72752532D01*
X97796086Y-72526153D01*
X98045000Y-71925222D01*
X98045000Y-71335461D01*
X98064092Y-71335461D01*
X98088144Y-71985460D01*
X98290613Y-72474264D01*
X98557468Y-72572927D01*
X99530395Y-71600000D01*
X99889605Y-71600000D01*
X100862532Y-72572927D01*
X101129387Y-72474264D01*
X101355908Y-71864539D01*
X101331856Y-71214540D01*
X101129387Y-70725736D01*
X100862532Y-70627073D01*
X99889605Y-71600000D01*
X99530395Y-71600000D01*
X98557468Y-70627073D01*
X98290613Y-70725736D01*
X98064092Y-71335461D01*
X98045000Y-71335461D01*
X98045000Y-71274778D01*
X97796086Y-70673847D01*
X97569707Y-70447468D01*
X98737073Y-70447468D01*
X99710000Y-71420395D01*
X100682927Y-70447468D01*
X100584264Y-70180613D01*
X99974539Y-69954092D01*
X99324540Y-69978144D01*
X98835736Y-70180613D01*
X98737073Y-70447468D01*
X97569707Y-70447468D01*
X97336153Y-70213914D01*
X96735222Y-69965000D01*
X96084778Y-69965000D01*
X95483847Y-70213914D01*
X95023914Y-70673847D01*
X94775000Y-71274778D01*
X90645000Y-71274778D01*
X90396086Y-70673847D01*
X89936153Y-70213914D01*
X89335222Y-69965000D01*
X88684778Y-69965000D01*
X88083847Y-70213914D01*
X87623914Y-70673847D01*
X87375000Y-71274778D01*
X87345000Y-71274778D01*
X87096086Y-70673847D01*
X86636153Y-70213914D01*
X86035222Y-69965000D01*
X85384778Y-69965000D01*
X84783847Y-70213914D01*
X84323914Y-70673847D01*
X84075000Y-71274778D01*
X77672870Y-71274778D01*
X77437130Y-70705651D01*
X76794349Y-70062870D01*
X75954515Y-69715000D01*
X75045485Y-69715000D01*
X74205651Y-70062870D01*
X73562870Y-70705651D01*
X73215000Y-71545485D01*
X57785000Y-71545485D01*
X57437130Y-70705651D01*
X56794349Y-70062870D01*
X55954515Y-69715000D01*
X55045485Y-69715000D01*
X54205651Y-70062870D01*
X53562870Y-70705651D01*
X53215000Y-71545485D01*
X50710000Y-71545485D01*
X50710000Y-67739126D01*
X98660000Y-67739126D01*
X98660000Y-68150874D01*
X98817569Y-68531280D01*
X99108720Y-68822431D01*
X99489126Y-68980000D01*
X99900874Y-68980000D01*
X100263007Y-68830000D01*
X100598422Y-68830000D01*
X102817577Y-71049156D01*
X102866951Y-71123049D01*
X102940844Y-71172423D01*
X102940845Y-71172424D01*
X103003876Y-71214540D01*
X103159690Y-71318652D01*
X103417835Y-71370000D01*
X103417839Y-71370000D01*
X103504999Y-71387337D01*
X103592159Y-71370000D01*
X124093422Y-71370000D01*
X132465000Y-79741579D01*
X132465000Y-79877419D01*
X132424136Y-79894346D01*
X131964346Y-80354136D01*
X131715510Y-80954880D01*
X131715510Y-81605120D01*
X131964346Y-82205864D01*
X132424136Y-82665654D01*
X133024880Y-82914490D01*
X133675120Y-82914490D01*
X134275864Y-82665654D01*
X134735654Y-82205864D01*
X134984490Y-81605120D01*
X134984490Y-80954880D01*
X134735654Y-80354136D01*
X134275864Y-79894346D01*
X134235000Y-79877420D01*
X134235000Y-79834880D01*
X145365510Y-79834880D01*
X145365510Y-80485120D01*
X145614346Y-81085864D01*
X146074136Y-81545654D01*
X146674880Y-81794490D01*
X147325120Y-81794490D01*
X147925864Y-81545654D01*
X148385654Y-81085864D01*
X148634490Y-80485120D01*
X148634490Y-79834880D01*
X154365510Y-79834880D01*
X154365510Y-80485120D01*
X154614346Y-81085864D01*
X155074136Y-81545654D01*
X155674880Y-81794490D01*
X156325120Y-81794490D01*
X156467336Y-81735582D01*
X159354599Y-81735582D01*
X159378659Y-82385377D01*
X159581035Y-82873958D01*
X159847837Y-82972557D01*
X160820395Y-82000000D01*
X161179605Y-82000000D01*
X162152163Y-82972557D01*
X162418965Y-82873958D01*
X162645401Y-82264418D01*
X162621341Y-81614623D01*
X162418965Y-81126042D01*
X162152163Y-81027443D01*
X161179605Y-82000000D01*
X160820395Y-82000000D01*
X159847837Y-81027443D01*
X159581035Y-81126042D01*
X159354599Y-81735582D01*
X156467336Y-81735582D01*
X156925864Y-81545654D01*
X157385654Y-81085864D01*
X157484247Y-80847837D01*
X160027443Y-80847837D01*
X161000000Y-81820395D01*
X161972557Y-80847837D01*
X161873958Y-80581035D01*
X161264418Y-80354599D01*
X160614623Y-80378659D01*
X160126042Y-80581035D01*
X160027443Y-80847837D01*
X157484247Y-80847837D01*
X157634490Y-80485120D01*
X157634490Y-79834880D01*
X163365510Y-79834880D01*
X163365510Y-80485120D01*
X163614346Y-81085864D01*
X164074136Y-81545654D01*
X164674880Y-81794490D01*
X165325120Y-81794490D01*
X165925864Y-81545654D01*
X166385654Y-81085864D01*
X166634490Y-80485120D01*
X166634490Y-79834880D01*
X166385654Y-79234136D01*
X165925864Y-78774346D01*
X165325120Y-78525510D01*
X164674880Y-78525510D01*
X164074136Y-78774346D01*
X163614346Y-79234136D01*
X163365510Y-79834880D01*
X157634490Y-79834880D01*
X157385654Y-79234136D01*
X157236731Y-79085213D01*
X159854392Y-79085213D01*
X159923857Y-79327397D01*
X160447302Y-79514144D01*
X161002368Y-79486362D01*
X161386143Y-79327397D01*
X161455608Y-79085213D01*
X160655000Y-78284605D01*
X159854392Y-79085213D01*
X157236731Y-79085213D01*
X156925864Y-78774346D01*
X156325120Y-78525510D01*
X155674880Y-78525510D01*
X155074136Y-78774346D01*
X154614346Y-79234136D01*
X154365510Y-79834880D01*
X148634490Y-79834880D01*
X148385654Y-79234136D01*
X148236731Y-79085213D01*
X150329392Y-79085213D01*
X150398857Y-79327397D01*
X150922302Y-79514144D01*
X151477368Y-79486362D01*
X151861143Y-79327397D01*
X151930608Y-79085213D01*
X151130000Y-78284605D01*
X150329392Y-79085213D01*
X148236731Y-79085213D01*
X147925864Y-78774346D01*
X147325120Y-78525510D01*
X146674880Y-78525510D01*
X146074136Y-78774346D01*
X145614346Y-79234136D01*
X145365510Y-79834880D01*
X134235000Y-79834880D01*
X134235000Y-79462161D01*
X134252337Y-79375000D01*
X134235000Y-79287839D01*
X134235000Y-79287835D01*
X134194697Y-79085213D01*
X136359392Y-79085213D01*
X136428857Y-79327397D01*
X136952302Y-79514144D01*
X137507368Y-79486362D01*
X137891143Y-79327397D01*
X137960608Y-79085213D01*
X142074392Y-79085213D01*
X142143857Y-79327397D01*
X142667302Y-79514144D01*
X143222368Y-79486362D01*
X143606143Y-79327397D01*
X143675608Y-79085213D01*
X142875000Y-78284605D01*
X142074392Y-79085213D01*
X137960608Y-79085213D01*
X137160000Y-78284605D01*
X136359392Y-79085213D01*
X134194697Y-79085213D01*
X134183652Y-79029690D01*
X134100743Y-78905608D01*
X134037424Y-78810845D01*
X134037423Y-78810844D01*
X133988049Y-78736951D01*
X133914156Y-78687578D01*
X133123880Y-77897302D01*
X135750856Y-77897302D01*
X135778638Y-78452368D01*
X135937603Y-78836143D01*
X136179787Y-78905608D01*
X136980395Y-78105000D01*
X137339605Y-78105000D01*
X138140213Y-78905608D01*
X138382397Y-78836143D01*
X138569144Y-78312698D01*
X138548353Y-77897302D01*
X141465856Y-77897302D01*
X141493638Y-78452368D01*
X141652603Y-78836143D01*
X141894787Y-78905608D01*
X142695395Y-78105000D01*
X143054605Y-78105000D01*
X143855213Y-78905608D01*
X144097397Y-78836143D01*
X144284144Y-78312698D01*
X144263353Y-77897302D01*
X149720856Y-77897302D01*
X149748638Y-78452368D01*
X149907603Y-78836143D01*
X150149787Y-78905608D01*
X150950395Y-78105000D01*
X151309605Y-78105000D01*
X152110213Y-78905608D01*
X152352397Y-78836143D01*
X152539144Y-78312698D01*
X152518353Y-77897302D01*
X159245856Y-77897302D01*
X159273638Y-78452368D01*
X159432603Y-78836143D01*
X159674787Y-78905608D01*
X160475395Y-78105000D01*
X160834605Y-78105000D01*
X161635213Y-78905608D01*
X161877397Y-78836143D01*
X162064144Y-78312698D01*
X162036362Y-77757632D01*
X161877397Y-77373857D01*
X161635213Y-77304392D01*
X160834605Y-78105000D01*
X160475395Y-78105000D01*
X159674787Y-77304392D01*
X159432603Y-77373857D01*
X159245856Y-77897302D01*
X152518353Y-77897302D01*
X152511362Y-77757632D01*
X152352397Y-77373857D01*
X152110213Y-77304392D01*
X151309605Y-78105000D01*
X150950395Y-78105000D01*
X150149787Y-77304392D01*
X149907603Y-77373857D01*
X149720856Y-77897302D01*
X144263353Y-77897302D01*
X144256362Y-77757632D01*
X144097397Y-77373857D01*
X143855213Y-77304392D01*
X143054605Y-78105000D01*
X142695395Y-78105000D01*
X141894787Y-77304392D01*
X141652603Y-77373857D01*
X141465856Y-77897302D01*
X138548353Y-77897302D01*
X138541362Y-77757632D01*
X138382397Y-77373857D01*
X138140213Y-77304392D01*
X137339605Y-78105000D01*
X136980395Y-78105000D01*
X136179787Y-77304392D01*
X135937603Y-77373857D01*
X135750856Y-77897302D01*
X133123880Y-77897302D01*
X127973697Y-72747119D01*
X135763000Y-72747119D01*
X135763000Y-73302881D01*
X135975680Y-73816337D01*
X136368663Y-74209320D01*
X136575513Y-74295000D01*
X136368663Y-74380680D01*
X135975680Y-74773663D01*
X135763000Y-75287119D01*
X135763000Y-75842881D01*
X135975680Y-76356337D01*
X136368663Y-76749320D01*
X136559647Y-76828428D01*
X136428857Y-76882603D01*
X136359392Y-77124787D01*
X137160000Y-77925395D01*
X137960608Y-77124787D01*
X137891143Y-76882603D01*
X137750607Y-76832465D01*
X137951337Y-76749320D01*
X138344320Y-76356337D01*
X138557000Y-75842881D01*
X138557000Y-75287119D01*
X138344320Y-74773663D01*
X137951337Y-74380680D01*
X137744487Y-74295000D01*
X137951337Y-74209320D01*
X138344320Y-73816337D01*
X138557000Y-73302881D01*
X138557000Y-72747119D01*
X141478000Y-72747119D01*
X141478000Y-73302881D01*
X141690680Y-73816337D01*
X142083663Y-74209320D01*
X142290513Y-74295000D01*
X142083663Y-74380680D01*
X141690680Y-74773663D01*
X141478000Y-75287119D01*
X141478000Y-75842881D01*
X141690680Y-76356337D01*
X142083663Y-76749320D01*
X142274647Y-76828428D01*
X142143857Y-76882603D01*
X142074392Y-77124787D01*
X142875000Y-77925395D01*
X143675608Y-77124787D01*
X143606143Y-76882603D01*
X143465607Y-76832465D01*
X143666337Y-76749320D01*
X144059320Y-76356337D01*
X144272000Y-75842881D01*
X144272000Y-75287119D01*
X144059320Y-74773663D01*
X143666337Y-74380680D01*
X143459487Y-74295000D01*
X143666337Y-74209320D01*
X144059320Y-73816337D01*
X144272000Y-73302881D01*
X144272000Y-72747119D01*
X149733000Y-72747119D01*
X149733000Y-73302881D01*
X149945680Y-73816337D01*
X150338663Y-74209320D01*
X150545513Y-74295000D01*
X150338663Y-74380680D01*
X149945680Y-74773663D01*
X149733000Y-75287119D01*
X149733000Y-75842881D01*
X149945680Y-76356337D01*
X150338663Y-76749320D01*
X150529647Y-76828428D01*
X150398857Y-76882603D01*
X150329392Y-77124787D01*
X151130000Y-77925395D01*
X151930608Y-77124787D01*
X151861143Y-76882603D01*
X151720607Y-76832465D01*
X151921337Y-76749320D01*
X152314320Y-76356337D01*
X152527000Y-75842881D01*
X152527000Y-75287119D01*
X152314320Y-74773663D01*
X151921337Y-74380680D01*
X151714487Y-74295000D01*
X151921337Y-74209320D01*
X152314320Y-73816337D01*
X152527000Y-73302881D01*
X152527000Y-72747119D01*
X159258000Y-72747119D01*
X159258000Y-73302881D01*
X159470680Y-73816337D01*
X159863663Y-74209320D01*
X160070513Y-74295000D01*
X159863663Y-74380680D01*
X159470680Y-74773663D01*
X159258000Y-75287119D01*
X159258000Y-75842881D01*
X159470680Y-76356337D01*
X159863663Y-76749320D01*
X160054647Y-76828428D01*
X159923857Y-76882603D01*
X159854392Y-77124787D01*
X160655000Y-77925395D01*
X161455608Y-77124787D01*
X161386143Y-76882603D01*
X161245607Y-76832465D01*
X161446337Y-76749320D01*
X161839320Y-76356337D01*
X162052000Y-75842881D01*
X162052000Y-75287119D01*
X161839320Y-74773663D01*
X161446337Y-74380680D01*
X161239487Y-74295000D01*
X161446337Y-74209320D01*
X161839320Y-73816337D01*
X162052000Y-73302881D01*
X162052000Y-72747119D01*
X161839320Y-72233663D01*
X161446337Y-71840680D01*
X160932881Y-71628000D01*
X160377119Y-71628000D01*
X159863663Y-71840680D01*
X159470680Y-72233663D01*
X159258000Y-72747119D01*
X152527000Y-72747119D01*
X152314320Y-72233663D01*
X151921337Y-71840680D01*
X151407881Y-71628000D01*
X150852119Y-71628000D01*
X150338663Y-71840680D01*
X149945680Y-72233663D01*
X149733000Y-72747119D01*
X144272000Y-72747119D01*
X144059320Y-72233663D01*
X143666337Y-71840680D01*
X143152881Y-71628000D01*
X142597119Y-71628000D01*
X142083663Y-71840680D01*
X141690680Y-72233663D01*
X141478000Y-72747119D01*
X138557000Y-72747119D01*
X138344320Y-72233663D01*
X137951337Y-71840680D01*
X137437881Y-71628000D01*
X136882119Y-71628000D01*
X136368663Y-71840680D01*
X135975680Y-72233663D01*
X135763000Y-72747119D01*
X127973697Y-72747119D01*
X125147425Y-69920847D01*
X125098049Y-69846951D01*
X124805310Y-69651348D01*
X124547165Y-69600000D01*
X124547161Y-69600000D01*
X124460000Y-69582663D01*
X124372839Y-69600000D01*
X103871579Y-69600000D01*
X103214111Y-68942532D01*
X104307073Y-68942532D01*
X104405736Y-69209387D01*
X105015461Y-69435908D01*
X105665460Y-69411856D01*
X106154264Y-69209387D01*
X106252927Y-68942532D01*
X119807073Y-68942532D01*
X119905736Y-69209387D01*
X120515461Y-69435908D01*
X121165460Y-69411856D01*
X121654264Y-69209387D01*
X121752927Y-68942532D01*
X120780000Y-67969605D01*
X119807073Y-68942532D01*
X106252927Y-68942532D01*
X105280000Y-67969605D01*
X104307073Y-68942532D01*
X103214111Y-68942532D01*
X101797040Y-67525461D01*
X103634092Y-67525461D01*
X103658144Y-68175460D01*
X103860613Y-68664264D01*
X104127468Y-68762927D01*
X105100395Y-67790000D01*
X105459605Y-67790000D01*
X106432532Y-68762927D01*
X106699387Y-68664264D01*
X106925908Y-68054539D01*
X106906331Y-67525461D01*
X119134092Y-67525461D01*
X119158144Y-68175460D01*
X119360613Y-68664264D01*
X119627468Y-68762927D01*
X120600395Y-67790000D01*
X120959605Y-67790000D01*
X121932532Y-68762927D01*
X122199387Y-68664264D01*
X122351478Y-68254880D01*
X134255510Y-68254880D01*
X134255510Y-68905120D01*
X134504346Y-69505864D01*
X134964136Y-69965654D01*
X135564880Y-70214490D01*
X136215120Y-70214490D01*
X136815864Y-69965654D01*
X137275654Y-69505864D01*
X137524490Y-68905120D01*
X137524490Y-68674880D01*
X141365510Y-68674880D01*
X141365510Y-69325120D01*
X141614346Y-69925864D01*
X142074136Y-70385654D01*
X142674880Y-70634490D01*
X143325120Y-70634490D01*
X143925864Y-70385654D01*
X144385654Y-69925864D01*
X144489614Y-69674880D01*
X145365510Y-69674880D01*
X145365510Y-70325120D01*
X145614346Y-70925864D01*
X146074136Y-71385654D01*
X146674880Y-71634490D01*
X147325120Y-71634490D01*
X147925864Y-71385654D01*
X148385654Y-70925864D01*
X148634490Y-70325120D01*
X148634490Y-69674880D01*
X148385654Y-69074136D01*
X147986398Y-68674880D01*
X150365510Y-68674880D01*
X150365510Y-69325120D01*
X150614346Y-69925864D01*
X151074136Y-70385654D01*
X151674880Y-70634490D01*
X152325120Y-70634490D01*
X152925864Y-70385654D01*
X153385654Y-69925864D01*
X153489614Y-69674880D01*
X154365510Y-69674880D01*
X154365510Y-70325120D01*
X154614346Y-70925864D01*
X155074136Y-71385654D01*
X155674880Y-71634490D01*
X156325120Y-71634490D01*
X156925864Y-71385654D01*
X157385654Y-70925864D01*
X157634490Y-70325120D01*
X157634490Y-69674880D01*
X157385654Y-69074136D01*
X156986398Y-68674880D01*
X159020510Y-68674880D01*
X159020510Y-69325120D01*
X159269346Y-69925864D01*
X159729136Y-70385654D01*
X160329880Y-70634490D01*
X160980120Y-70634490D01*
X161580864Y-70385654D01*
X162040654Y-69925864D01*
X162144614Y-69674880D01*
X163365510Y-69674880D01*
X163365510Y-70325120D01*
X163614346Y-70925864D01*
X164074136Y-71385654D01*
X164674880Y-71634490D01*
X165325120Y-71634490D01*
X165925864Y-71385654D01*
X166385654Y-70925864D01*
X166634490Y-70325120D01*
X166634490Y-69674880D01*
X166385654Y-69074136D01*
X165925864Y-68614346D01*
X165325120Y-68365510D01*
X164674880Y-68365510D01*
X164074136Y-68614346D01*
X163614346Y-69074136D01*
X163365510Y-69674880D01*
X162144614Y-69674880D01*
X162289490Y-69325120D01*
X162289490Y-68674880D01*
X162040654Y-68074136D01*
X161580864Y-67614346D01*
X160980120Y-67365510D01*
X160329880Y-67365510D01*
X159729136Y-67614346D01*
X159269346Y-68074136D01*
X159020510Y-68674880D01*
X156986398Y-68674880D01*
X156925864Y-68614346D01*
X156325120Y-68365510D01*
X155674880Y-68365510D01*
X155074136Y-68614346D01*
X154614346Y-69074136D01*
X154365510Y-69674880D01*
X153489614Y-69674880D01*
X153634490Y-69325120D01*
X153634490Y-68674880D01*
X153385654Y-68074136D01*
X152925864Y-67614346D01*
X152325120Y-67365510D01*
X151674880Y-67365510D01*
X151074136Y-67614346D01*
X150614346Y-68074136D01*
X150365510Y-68674880D01*
X147986398Y-68674880D01*
X147925864Y-68614346D01*
X147325120Y-68365510D01*
X146674880Y-68365510D01*
X146074136Y-68614346D01*
X145614346Y-69074136D01*
X145365510Y-69674880D01*
X144489614Y-69674880D01*
X144634490Y-69325120D01*
X144634490Y-68674880D01*
X144385654Y-68074136D01*
X143925864Y-67614346D01*
X143325120Y-67365510D01*
X142674880Y-67365510D01*
X142074136Y-67614346D01*
X141614346Y-68074136D01*
X141365510Y-68674880D01*
X137524490Y-68674880D01*
X137524490Y-68254880D01*
X137275654Y-67654136D01*
X136815864Y-67194346D01*
X136215120Y-66945510D01*
X135564880Y-66945510D01*
X134964136Y-67194346D01*
X134504346Y-67654136D01*
X134255510Y-68254880D01*
X122351478Y-68254880D01*
X122425908Y-68054539D01*
X122401856Y-67404540D01*
X122199387Y-66915736D01*
X121932532Y-66817073D01*
X120959605Y-67790000D01*
X120600395Y-67790000D01*
X119627468Y-66817073D01*
X119360613Y-66915736D01*
X119134092Y-67525461D01*
X106906331Y-67525461D01*
X106901856Y-67404540D01*
X106699387Y-66915736D01*
X106432532Y-66817073D01*
X105459605Y-67790000D01*
X105100395Y-67790000D01*
X104127468Y-66817073D01*
X103860613Y-66915736D01*
X103634092Y-67525461D01*
X101797040Y-67525461D01*
X101652425Y-67380847D01*
X101603049Y-67306951D01*
X101310310Y-67111348D01*
X101052165Y-67060000D01*
X101052161Y-67060000D01*
X100965000Y-67042663D01*
X100877839Y-67060000D01*
X100263007Y-67060000D01*
X99900874Y-66910000D01*
X99489126Y-66910000D01*
X99108720Y-67067569D01*
X98817569Y-67358720D01*
X98660000Y-67739126D01*
X50710000Y-67739126D01*
X50710000Y-66637468D01*
X104307073Y-66637468D01*
X105280000Y-67610395D01*
X106252927Y-66637468D01*
X119807073Y-66637468D01*
X120780000Y-67610395D01*
X121752927Y-66637468D01*
X121654264Y-66370613D01*
X121044539Y-66144092D01*
X120394540Y-66168144D01*
X119905736Y-66370613D01*
X119807073Y-66637468D01*
X106252927Y-66637468D01*
X106154264Y-66370613D01*
X105544539Y-66144092D01*
X104894540Y-66168144D01*
X104405736Y-66370613D01*
X104307073Y-66637468D01*
X50710000Y-66637468D01*
X50710000Y-62600000D01*
X76292560Y-62600000D01*
X76292560Y-64400000D01*
X76341843Y-64647765D01*
X76482191Y-64857809D01*
X76692235Y-64998157D01*
X76940000Y-65047440D01*
X80540000Y-65047440D01*
X80787765Y-64998157D01*
X80997809Y-64857809D01*
X81138157Y-64647765D01*
X81187440Y-64400000D01*
X81187440Y-62600000D01*
X81138157Y-62352235D01*
X80997809Y-62142191D01*
X80787765Y-62001843D01*
X80540000Y-61952560D01*
X76940000Y-61952560D01*
X76692235Y-62001843D01*
X76482191Y-62142191D01*
X76341843Y-62352235D01*
X76292560Y-62600000D01*
X50710000Y-62600000D01*
X50710000Y-58420000D01*
X76274928Y-58420000D01*
X76394062Y-59018927D01*
X76733327Y-59526673D01*
X77241073Y-59865938D01*
X77688818Y-59955000D01*
X79791182Y-59955000D01*
X80238927Y-59865938D01*
X80746673Y-59526673D01*
X81085938Y-59018927D01*
X81148317Y-58705322D01*
X84015000Y-58705322D01*
X84015000Y-59554678D01*
X84340034Y-60339380D01*
X84940620Y-60939966D01*
X85725322Y-61265000D01*
X86574678Y-61265000D01*
X87359380Y-60939966D01*
X87959966Y-60339380D01*
X88285000Y-59554678D01*
X88285000Y-58705322D01*
X115715000Y-58705322D01*
X115715000Y-59554678D01*
X116040034Y-60339380D01*
X116640620Y-60939966D01*
X117425322Y-61265000D01*
X118274678Y-61265000D01*
X119059380Y-60939966D01*
X119659966Y-60339380D01*
X119985000Y-59554678D01*
X119985000Y-58705322D01*
X119732147Y-58094880D01*
X134255510Y-58094880D01*
X134255510Y-58745120D01*
X134504346Y-59345864D01*
X134964136Y-59805654D01*
X135564880Y-60054490D01*
X136215120Y-60054490D01*
X136815864Y-59805654D01*
X137275654Y-59345864D01*
X137524490Y-58745120D01*
X137524490Y-58514880D01*
X141365510Y-58514880D01*
X141365510Y-59165120D01*
X141614346Y-59765864D01*
X142074136Y-60225654D01*
X142674880Y-60474490D01*
X143325120Y-60474490D01*
X143925864Y-60225654D01*
X144385654Y-59765864D01*
X144634490Y-59165120D01*
X144634490Y-58514880D01*
X150365510Y-58514880D01*
X150365510Y-59165120D01*
X150614346Y-59765864D01*
X151074136Y-60225654D01*
X151674880Y-60474490D01*
X152325120Y-60474490D01*
X152925864Y-60225654D01*
X153385654Y-59765864D01*
X153634490Y-59165120D01*
X153634490Y-58514880D01*
X159020510Y-58514880D01*
X159020510Y-59165120D01*
X159269346Y-59765864D01*
X159729136Y-60225654D01*
X160329880Y-60474490D01*
X160980120Y-60474490D01*
X161580864Y-60225654D01*
X162040654Y-59765864D01*
X162289490Y-59165120D01*
X162289490Y-58514880D01*
X162040654Y-57914136D01*
X161580864Y-57454346D01*
X160980120Y-57205510D01*
X160329880Y-57205510D01*
X159729136Y-57454346D01*
X159269346Y-57914136D01*
X159020510Y-58514880D01*
X153634490Y-58514880D01*
X153385654Y-57914136D01*
X152925864Y-57454346D01*
X152325120Y-57205510D01*
X151674880Y-57205510D01*
X151074136Y-57454346D01*
X150614346Y-57914136D01*
X150365510Y-58514880D01*
X144634490Y-58514880D01*
X144385654Y-57914136D01*
X143925864Y-57454346D01*
X143325120Y-57205510D01*
X142674880Y-57205510D01*
X142074136Y-57454346D01*
X141614346Y-57914136D01*
X141365510Y-58514880D01*
X137524490Y-58514880D01*
X137524490Y-58094880D01*
X137275654Y-57494136D01*
X136815864Y-57034346D01*
X136215120Y-56785510D01*
X135564880Y-56785510D01*
X134964136Y-57034346D01*
X134504346Y-57494136D01*
X134255510Y-58094880D01*
X119732147Y-58094880D01*
X119659966Y-57920620D01*
X119059380Y-57320034D01*
X118274678Y-56995000D01*
X117425322Y-56995000D01*
X116640620Y-57320034D01*
X116040034Y-57920620D01*
X115715000Y-58705322D01*
X88285000Y-58705322D01*
X87959966Y-57920620D01*
X87359380Y-57320034D01*
X86574678Y-56995000D01*
X85725322Y-56995000D01*
X84940620Y-57320034D01*
X84340034Y-57920620D01*
X84015000Y-58705322D01*
X81148317Y-58705322D01*
X81205072Y-58420000D01*
X81085938Y-57821073D01*
X80746673Y-57313327D01*
X80238927Y-56974062D01*
X79791182Y-56885000D01*
X77688818Y-56885000D01*
X77241073Y-56974062D01*
X76733327Y-57313327D01*
X76394062Y-57821073D01*
X76274928Y-58420000D01*
X50710000Y-58420000D01*
X50710000Y-54143970D01*
X84815635Y-54143970D01*
X84975418Y-54462739D01*
X85766187Y-54772723D01*
X86615387Y-54756497D01*
X87324582Y-54462739D01*
X87484365Y-54143970D01*
X116515635Y-54143970D01*
X116675418Y-54462739D01*
X117466187Y-54772723D01*
X118315387Y-54756497D01*
X118669062Y-54610000D01*
X134206655Y-54610000D01*
X134334792Y-55254188D01*
X134699695Y-55800305D01*
X135245812Y-56165208D01*
X135727391Y-56261000D01*
X136052609Y-56261000D01*
X136534188Y-56165208D01*
X136863537Y-55945144D01*
X136956191Y-56083809D01*
X137166235Y-56224157D01*
X137414000Y-56273440D01*
X139446000Y-56273440D01*
X139693765Y-56224157D01*
X139903809Y-56083809D01*
X140044157Y-55873765D01*
X140093440Y-55626000D01*
X140093440Y-53984000D01*
X145488960Y-53984000D01*
X145488960Y-56016000D01*
X145538243Y-56263765D01*
X145678591Y-56473809D01*
X145888635Y-56614157D01*
X146136400Y-56663440D01*
X147863600Y-56663440D01*
X148111365Y-56614157D01*
X148321409Y-56473809D01*
X148461757Y-56263765D01*
X148466932Y-56237749D01*
X148955276Y-56564050D01*
X149540000Y-56680359D01*
X150124725Y-56564050D01*
X150620430Y-56232830D01*
X150810000Y-55949119D01*
X150999570Y-56232830D01*
X151495276Y-56564050D01*
X152080000Y-56680359D01*
X152664725Y-56564050D01*
X153160430Y-56232830D01*
X153350000Y-55949119D01*
X153539570Y-56232830D01*
X154035276Y-56564050D01*
X154620000Y-56680359D01*
X155204725Y-56564050D01*
X155700430Y-56232830D01*
X156031650Y-55737124D01*
X156118600Y-55299997D01*
X156118600Y-54700002D01*
X156031650Y-54262875D01*
X155700430Y-53767170D01*
X155204724Y-53435950D01*
X154620000Y-53319641D01*
X154035275Y-53435950D01*
X153539570Y-53767170D01*
X153350000Y-54050881D01*
X153160430Y-53767170D01*
X152664724Y-53435950D01*
X152080000Y-53319641D01*
X151495275Y-53435950D01*
X150999570Y-53767170D01*
X150810000Y-54050881D01*
X150620430Y-53767170D01*
X150124724Y-53435950D01*
X149540000Y-53319641D01*
X148955275Y-53435950D01*
X148466932Y-53762251D01*
X148461757Y-53736235D01*
X148321409Y-53526191D01*
X148111365Y-53385843D01*
X147863600Y-53336560D01*
X146136400Y-53336560D01*
X145888635Y-53385843D01*
X145678591Y-53526191D01*
X145538243Y-53736235D01*
X145488960Y-53984000D01*
X140093440Y-53984000D01*
X140093440Y-53594000D01*
X140044157Y-53346235D01*
X139903809Y-53136191D01*
X139693765Y-52995843D01*
X139446000Y-52946560D01*
X137414000Y-52946560D01*
X137166235Y-52995843D01*
X136956191Y-53136191D01*
X136863537Y-53274856D01*
X136534188Y-53054792D01*
X136052609Y-52959000D01*
X135727391Y-52959000D01*
X135245812Y-53054792D01*
X134699695Y-53419695D01*
X134334792Y-53965812D01*
X134206655Y-54610000D01*
X118669062Y-54610000D01*
X119024582Y-54462739D01*
X119184365Y-54143970D01*
X117850000Y-52809605D01*
X116515635Y-54143970D01*
X87484365Y-54143970D01*
X86150000Y-52809605D01*
X84815635Y-54143970D01*
X50710000Y-54143970D01*
X50710000Y-53235000D01*
X59927612Y-53235000D01*
X60000000Y-53249399D01*
X60072388Y-53235000D01*
X60286783Y-53192354D01*
X60529905Y-53029905D01*
X60692354Y-52786783D01*
X60749399Y-52500000D01*
X60735000Y-52427612D01*
X60735000Y-49545485D01*
X63215000Y-49545485D01*
X63215000Y-50454515D01*
X63562870Y-51294349D01*
X64205651Y-51937130D01*
X65045485Y-52285000D01*
X65954515Y-52285000D01*
X66048218Y-52246187D01*
X84007277Y-52246187D01*
X84023503Y-53095387D01*
X84317261Y-53804582D01*
X84636030Y-53964365D01*
X85970395Y-52630000D01*
X86329605Y-52630000D01*
X87663970Y-53964365D01*
X87982739Y-53804582D01*
X88292723Y-53013813D01*
X88278056Y-52246187D01*
X115707277Y-52246187D01*
X115723503Y-53095387D01*
X116017261Y-53804582D01*
X116336030Y-53964365D01*
X117670395Y-52630000D01*
X118029605Y-52630000D01*
X119363970Y-53964365D01*
X119682739Y-53804582D01*
X119992723Y-53013813D01*
X119976497Y-52164613D01*
X119682739Y-51455418D01*
X119363970Y-51295635D01*
X118029605Y-52630000D01*
X117670395Y-52630000D01*
X116336030Y-51295635D01*
X116017261Y-51455418D01*
X115707277Y-52246187D01*
X88278056Y-52246187D01*
X88276497Y-52164613D01*
X87982739Y-51455418D01*
X87663970Y-51295635D01*
X86329605Y-52630000D01*
X85970395Y-52630000D01*
X84636030Y-51295635D01*
X84317261Y-51455418D01*
X84007277Y-52246187D01*
X66048218Y-52246187D01*
X66794349Y-51937130D01*
X67437130Y-51294349D01*
X67510992Y-51116030D01*
X84815635Y-51116030D01*
X86150000Y-52450395D01*
X87484365Y-51116030D01*
X116515635Y-51116030D01*
X117850000Y-52450395D01*
X119184365Y-51116030D01*
X119024582Y-50797261D01*
X118233813Y-50487277D01*
X117384613Y-50503503D01*
X116675418Y-50797261D01*
X116515635Y-51116030D01*
X87484365Y-51116030D01*
X87324582Y-50797261D01*
X86533813Y-50487277D01*
X85684613Y-50503503D01*
X84975418Y-50797261D01*
X84815635Y-51116030D01*
X67510992Y-51116030D01*
X67785000Y-50454515D01*
X67785000Y-49545485D01*
X67437130Y-48705651D01*
X66794349Y-48062870D01*
X65954515Y-47715000D01*
X65045485Y-47715000D01*
X64205651Y-48062870D01*
X63562870Y-48705651D01*
X63215000Y-49545485D01*
X60735000Y-49545485D01*
X60735000Y-46946029D01*
X70715000Y-46946029D01*
X70715000Y-48053971D01*
X71138991Y-49077576D01*
X71922424Y-49861009D01*
X72946029Y-50285000D01*
X74053971Y-50285000D01*
X75077576Y-49861009D01*
X75861009Y-49077576D01*
X76285000Y-48053971D01*
X76285000Y-46946029D01*
X148715000Y-46946029D01*
X148715000Y-48053971D01*
X149138991Y-49077576D01*
X149922424Y-49861009D01*
X150946029Y-50285000D01*
X152053971Y-50285000D01*
X153077576Y-49861009D01*
X153861009Y-49077576D01*
X154285000Y-48053971D01*
X154285000Y-46946029D01*
X153861009Y-45922424D01*
X153077576Y-45138991D01*
X152053971Y-44715000D01*
X150946029Y-44715000D01*
X149922424Y-45138991D01*
X149138991Y-45922424D01*
X148715000Y-46946029D01*
X76285000Y-46946029D01*
X75861009Y-45922424D01*
X75077576Y-45138991D01*
X74053971Y-44715000D01*
X72946029Y-44715000D01*
X71922424Y-45138991D01*
X71138991Y-45922424D01*
X70715000Y-46946029D01*
X60735000Y-46946029D01*
X60735000Y-43210000D01*
X164265000Y-43210000D01*
X164265001Y-52427607D01*
X164265001Y-52427607D01*
G37*
X164265001Y-52427607D02*
X164250601Y-52500000D01*
X164307646Y-52786783D01*
X164470095Y-53029905D01*
X164713217Y-53192354D01*
X164927612Y-53235000D01*
X165000000Y-53249399D01*
X165072388Y-53235000D01*
X174290000Y-53235000D01*
X174290001Y-116765000D01*
X165072388Y-116765000D01*
X165000000Y-116750601D01*
X164927612Y-116765000D01*
X164713217Y-116807646D01*
X164470095Y-116970095D01*
X164307646Y-117213217D01*
X164250601Y-117500000D01*
X164265000Y-117572388D01*
X164265001Y-126790000D01*
X60735000Y-126790000D01*
X60735000Y-119545485D01*
X63215000Y-119545485D01*
X63215000Y-120454515D01*
X63562870Y-121294349D01*
X64205651Y-121937130D01*
X65045485Y-122285000D01*
X65954515Y-122285000D01*
X66772864Y-121946029D01*
X70715000Y-121946029D01*
X70715000Y-123053971D01*
X71138991Y-124077576D01*
X71922424Y-124861009D01*
X72946029Y-125285000D01*
X74053971Y-125285000D01*
X75077576Y-124861009D01*
X75861009Y-124077576D01*
X76285000Y-123053971D01*
X76285000Y-122279026D01*
X87292642Y-122279026D01*
X87295291Y-122294791D01*
X87549268Y-122822036D01*
X87985680Y-123211954D01*
X88538087Y-123405184D01*
X88773000Y-123260924D01*
X88773000Y-122047000D01*
X89027000Y-122047000D01*
X89027000Y-123260924D01*
X89261913Y-123405184D01*
X89814320Y-123211954D01*
X90250732Y-122822036D01*
X90504709Y-122294791D01*
X90507358Y-122279026D01*
X90386217Y-122047000D01*
X89027000Y-122047000D01*
X88773000Y-122047000D01*
X87413783Y-122047000D01*
X87292642Y-122279026D01*
X76285000Y-122279026D01*
X76285000Y-121946029D01*
X75861009Y-120922424D01*
X75077576Y-120138991D01*
X74053971Y-119715000D01*
X72946029Y-119715000D01*
X71922424Y-120138991D01*
X71138991Y-120922424D01*
X70715000Y-121946029D01*
X66772864Y-121946029D01*
X66794349Y-121937130D01*
X67437130Y-121294349D01*
X67785000Y-120454515D01*
X67785000Y-119545485D01*
X67437130Y-118705651D01*
X66794349Y-118062870D01*
X65954515Y-117715000D01*
X65045485Y-117715000D01*
X64205651Y-118062870D01*
X63562870Y-118705651D01*
X63215000Y-119545485D01*
X60735000Y-119545485D01*
X60735000Y-117572388D01*
X60749399Y-117500000D01*
X60692354Y-117213217D01*
X60529905Y-116970095D01*
X60286783Y-116807646D01*
X60072388Y-116765000D01*
X60000000Y-116750601D01*
X59927612Y-116765000D01*
X50710000Y-116765000D01*
X50710000Y-114300000D01*
X87219641Y-114300000D01*
X87335950Y-114884725D01*
X87667170Y-115380430D01*
X87950881Y-115570000D01*
X87667170Y-115759570D01*
X87335950Y-116255275D01*
X87219641Y-116840000D01*
X87335950Y-117424725D01*
X87667170Y-117920430D01*
X87950881Y-118110000D01*
X87667170Y-118299570D01*
X87335950Y-118795275D01*
X87219641Y-119380000D01*
X87335950Y-119964725D01*
X87667170Y-120460430D01*
X87956732Y-120653910D01*
X87549268Y-121017964D01*
X87295291Y-121545209D01*
X87292642Y-121560974D01*
X87413783Y-121793000D01*
X88773000Y-121793000D01*
X88773000Y-121773000D01*
X89027000Y-121773000D01*
X89027000Y-121793000D01*
X90386217Y-121793000D01*
X90507358Y-121560974D01*
X90504709Y-121545209D01*
X90250732Y-121017964D01*
X89843268Y-120653910D01*
X90132830Y-120460430D01*
X90464050Y-119964725D01*
X90580359Y-119380000D01*
X90464050Y-118795275D01*
X90132830Y-118299570D01*
X89849119Y-118110000D01*
X90132830Y-117920430D01*
X90464050Y-117424725D01*
X90580359Y-116840000D01*
X90464050Y-116255275D01*
X90132830Y-115759570D01*
X89849119Y-115570000D01*
X90132830Y-115380430D01*
X90464050Y-114884725D01*
X90580359Y-114300000D01*
X90464050Y-113715275D01*
X90137749Y-113226932D01*
X90163765Y-113221757D01*
X90373809Y-113081409D01*
X90514157Y-112871365D01*
X90563440Y-112623600D01*
X90563440Y-110896400D01*
X90514157Y-110648635D01*
X90373809Y-110438591D01*
X90163765Y-110298243D01*
X89916000Y-110248960D01*
X87884000Y-110248960D01*
X87636235Y-110298243D01*
X87426191Y-110438591D01*
X87285843Y-110648635D01*
X87236560Y-110896400D01*
X87236560Y-112623600D01*
X87285843Y-112871365D01*
X87426191Y-113081409D01*
X87636235Y-113221757D01*
X87662251Y-113226932D01*
X87335950Y-113715275D01*
X87219641Y-114300000D01*
X50710000Y-114300000D01*
X50710000Y-108894778D01*
X94615000Y-108894778D01*
X94615000Y-109545222D01*
X94863914Y-110146153D01*
X95207761Y-110490000D01*
X94863914Y-110833847D01*
X94615000Y-111434778D01*
X94615000Y-112085222D01*
X94863914Y-112686153D01*
X95207761Y-113030000D01*
X94863914Y-113373847D01*
X94615000Y-113974778D01*
X94615000Y-114625222D01*
X94863914Y-115226153D01*
X95207761Y-115570000D01*
X94863914Y-115913847D01*
X94615000Y-116514778D01*
X94615000Y-117165222D01*
X94863914Y-117766153D01*
X95207761Y-118110000D01*
X94863914Y-118453847D01*
X94615000Y-119054778D01*
X94615000Y-119705222D01*
X94863914Y-120306153D01*
X95207761Y-120650000D01*
X94863914Y-120993847D01*
X94615000Y-121594778D01*
X94615000Y-122245222D01*
X94863914Y-122846153D01*
X95323847Y-123306086D01*
X95924778Y-123555000D01*
X96575222Y-123555000D01*
X97176153Y-123306086D01*
X97636086Y-122846153D01*
X97885000Y-122245222D01*
X97885000Y-121946029D01*
X148715000Y-121946029D01*
X148715000Y-123053971D01*
X149138991Y-124077576D01*
X149922424Y-124861009D01*
X150946029Y-125285000D01*
X152053971Y-125285000D01*
X153077576Y-124861009D01*
X153861009Y-124077576D01*
X154285000Y-123053971D01*
X154285000Y-121946029D01*
X153861009Y-120922424D01*
X153077576Y-120138991D01*
X152053971Y-119715000D01*
X150946029Y-119715000D01*
X149922424Y-120138991D01*
X149138991Y-120922424D01*
X148715000Y-121946029D01*
X97885000Y-121946029D01*
X97885000Y-121594778D01*
X97636086Y-120993847D01*
X97292239Y-120650000D01*
X97636086Y-120306153D01*
X97885000Y-119705222D01*
X97885000Y-119054778D01*
X97636086Y-118453847D01*
X97292239Y-118110000D01*
X97636086Y-117766153D01*
X97885000Y-117165222D01*
X97885000Y-116514778D01*
X97636086Y-115913847D01*
X97292239Y-115570000D01*
X97636086Y-115226153D01*
X97885000Y-114625222D01*
X97885000Y-113974778D01*
X119995000Y-113974778D01*
X119995000Y-114625222D01*
X120243914Y-115226153D01*
X120587761Y-115570000D01*
X120243914Y-115913847D01*
X119995000Y-116514778D01*
X119995000Y-117165222D01*
X120243914Y-117766153D01*
X120587761Y-118110000D01*
X120243914Y-118453847D01*
X119995000Y-119054778D01*
X119995000Y-119705222D01*
X120243914Y-120306153D01*
X120703847Y-120766086D01*
X121304778Y-121015000D01*
X121955222Y-121015000D01*
X122556153Y-120766086D01*
X123016086Y-120306153D01*
X123265000Y-119705222D01*
X123265000Y-119054778D01*
X123016086Y-118453847D01*
X122672239Y-118110000D01*
X123016086Y-117766153D01*
X123265000Y-117165222D01*
X123265000Y-116514778D01*
X123016086Y-115913847D01*
X122672239Y-115570000D01*
X123016086Y-115226153D01*
X123265000Y-114625222D01*
X123265000Y-113974778D01*
X123016086Y-113373847D01*
X122589928Y-112947689D01*
X122602927Y-112912532D01*
X121630000Y-111939605D01*
X120657073Y-112912532D01*
X120670072Y-112947689D01*
X120243914Y-113373847D01*
X119995000Y-113974778D01*
X97885000Y-113974778D01*
X97636086Y-113373847D01*
X97292239Y-113030000D01*
X97636086Y-112686153D01*
X97885000Y-112085222D01*
X97885000Y-111495461D01*
X119984092Y-111495461D01*
X120008144Y-112145460D01*
X120210613Y-112634264D01*
X120477468Y-112732927D01*
X121450395Y-111760000D01*
X121809605Y-111760000D01*
X122782532Y-112732927D01*
X122858391Y-112704880D01*
X135525510Y-112704880D01*
X135525510Y-113355120D01*
X135774346Y-113955864D01*
X136234136Y-114415654D01*
X136834880Y-114664490D01*
X137485120Y-114664490D01*
X138085864Y-114415654D01*
X138545654Y-113955864D01*
X138714943Y-113547163D01*
X141902443Y-113547163D01*
X142001042Y-113813965D01*
X142610582Y-114040401D01*
X143260377Y-114016341D01*
X143748958Y-113813965D01*
X143847557Y-113547163D01*
X142875000Y-112574605D01*
X141902443Y-113547163D01*
X138714943Y-113547163D01*
X138794490Y-113355120D01*
X138794490Y-112704880D01*
X138556609Y-112130582D01*
X141229599Y-112130582D01*
X141253659Y-112780377D01*
X141456035Y-113268958D01*
X141722837Y-113367557D01*
X142695395Y-112395000D01*
X143054605Y-112395000D01*
X144027163Y-113367557D01*
X144293965Y-113268958D01*
X144520401Y-112659418D01*
X144498573Y-112069880D01*
X151400510Y-112069880D01*
X151400510Y-112720120D01*
X151649346Y-113320864D01*
X152109136Y-113780654D01*
X152709880Y-114029490D01*
X153360120Y-114029490D01*
X153960864Y-113780654D01*
X154420654Y-113320864D01*
X154669490Y-112720120D01*
X154669490Y-112069880D01*
X154420654Y-111469136D01*
X153960864Y-111009346D01*
X153360120Y-110760510D01*
X152709880Y-110760510D01*
X152109136Y-111009346D01*
X151649346Y-111469136D01*
X151400510Y-112069880D01*
X144498573Y-112069880D01*
X144496341Y-112009623D01*
X144293965Y-111521042D01*
X144027163Y-111422443D01*
X143054605Y-112395000D01*
X142695395Y-112395000D01*
X141722837Y-111422443D01*
X141456035Y-111521042D01*
X141229599Y-112130582D01*
X138556609Y-112130582D01*
X138545654Y-112104136D01*
X138085864Y-111644346D01*
X137485120Y-111395510D01*
X136834880Y-111395510D01*
X136234136Y-111644346D01*
X135774346Y-112104136D01*
X135525510Y-112704880D01*
X122858391Y-112704880D01*
X123049387Y-112634264D01*
X123275908Y-112024539D01*
X123251856Y-111374540D01*
X123197303Y-111242837D01*
X141902443Y-111242837D01*
X142875000Y-112215395D01*
X143847557Y-111242837D01*
X143748958Y-110976035D01*
X143139418Y-110749599D01*
X142489623Y-110773659D01*
X142001042Y-110976035D01*
X141902443Y-111242837D01*
X123197303Y-111242837D01*
X123049387Y-110885736D01*
X122782532Y-110787073D01*
X121809605Y-111760000D01*
X121450395Y-111760000D01*
X120477468Y-110787073D01*
X120210613Y-110885736D01*
X119984092Y-111495461D01*
X97885000Y-111495461D01*
X97885000Y-111434778D01*
X97636086Y-110833847D01*
X97409707Y-110607468D01*
X120657073Y-110607468D01*
X121630000Y-111580395D01*
X122602927Y-110607468D01*
X122504264Y-110340613D01*
X121894539Y-110114092D01*
X121244540Y-110138144D01*
X120755736Y-110340613D01*
X120657073Y-110607468D01*
X97409707Y-110607468D01*
X97292239Y-110490000D01*
X97636086Y-110146153D01*
X97885000Y-109545222D01*
X97885000Y-108894778D01*
X97636086Y-108293847D01*
X97176153Y-107833914D01*
X96671501Y-107624880D01*
X141240510Y-107624880D01*
X141240510Y-108275120D01*
X141489346Y-108875864D01*
X141949136Y-109335654D01*
X142549880Y-109584490D01*
X143200120Y-109584490D01*
X143800864Y-109335654D01*
X144260654Y-108875864D01*
X144509490Y-108275120D01*
X144509490Y-107624880D01*
X151400510Y-107624880D01*
X151400510Y-108275120D01*
X151649346Y-108875864D01*
X152109136Y-109335654D01*
X152709880Y-109584490D01*
X153360120Y-109584490D01*
X153960864Y-109335654D01*
X154420654Y-108875864D01*
X154669490Y-108275120D01*
X154669490Y-107624880D01*
X154420654Y-107024136D01*
X153960864Y-106564346D01*
X153360120Y-106315510D01*
X152709880Y-106315510D01*
X152109136Y-106564346D01*
X151649346Y-107024136D01*
X151400510Y-107624880D01*
X144509490Y-107624880D01*
X144260654Y-107024136D01*
X143800864Y-106564346D01*
X143200120Y-106315510D01*
X142549880Y-106315510D01*
X141949136Y-106564346D01*
X141489346Y-107024136D01*
X141240510Y-107624880D01*
X96671501Y-107624880D01*
X96575222Y-107585000D01*
X95924778Y-107585000D01*
X95323847Y-107833914D01*
X94863914Y-108293847D01*
X94615000Y-108894778D01*
X50710000Y-108894778D01*
X50710000Y-106562163D01*
X132377443Y-106562163D01*
X132476042Y-106828965D01*
X133085582Y-107055401D01*
X133735377Y-107031341D01*
X134223958Y-106828965D01*
X134322557Y-106562163D01*
X133350000Y-105589605D01*
X132377443Y-106562163D01*
X50710000Y-106562163D01*
X50710000Y-105145582D01*
X131704599Y-105145582D01*
X131728659Y-105795377D01*
X131931035Y-106283958D01*
X132197837Y-106382557D01*
X133170395Y-105410000D01*
X133529605Y-105410000D01*
X134502163Y-106382557D01*
X134768965Y-106283958D01*
X134995401Y-105674418D01*
X134971341Y-105024623D01*
X134892748Y-104834880D01*
X159365510Y-104834880D01*
X159365510Y-105485120D01*
X159614346Y-106085864D01*
X160074136Y-106545654D01*
X160674880Y-106794490D01*
X161325120Y-106794490D01*
X161925864Y-106545654D01*
X162385654Y-106085864D01*
X162634490Y-105485120D01*
X162634490Y-104834880D01*
X162385654Y-104234136D01*
X161925864Y-103774346D01*
X161325120Y-103525510D01*
X160674880Y-103525510D01*
X160074136Y-103774346D01*
X159614346Y-104234136D01*
X159365510Y-104834880D01*
X134892748Y-104834880D01*
X134768965Y-104536042D01*
X134502163Y-104437443D01*
X133529605Y-105410000D01*
X133170395Y-105410000D01*
X132197837Y-104437443D01*
X131931035Y-104536042D01*
X131704599Y-105145582D01*
X50710000Y-105145582D01*
X50710000Y-104257837D01*
X132377443Y-104257837D01*
X133350000Y-105230395D01*
X134322557Y-104257837D01*
X134223958Y-103991035D01*
X133614418Y-103764599D01*
X132964623Y-103788659D01*
X132476042Y-103991035D01*
X132377443Y-104257837D01*
X50710000Y-104257837D01*
X50710000Y-101727000D01*
X78475000Y-101727000D01*
X78475000Y-102627000D01*
X78640446Y-103204752D01*
X79014394Y-103675212D01*
X79539914Y-103966756D01*
X79645260Y-103991036D01*
X79883000Y-103870378D01*
X79883000Y-101727000D01*
X80137000Y-101727000D01*
X80137000Y-103870378D01*
X80374740Y-103991036D01*
X80480086Y-103966756D01*
X81005606Y-103675212D01*
X81379554Y-103204752D01*
X81545000Y-102627000D01*
X81545000Y-101727000D01*
X80137000Y-101727000D01*
X79883000Y-101727000D01*
X78475000Y-101727000D01*
X50710000Y-101727000D01*
X50710000Y-100573000D01*
X78475000Y-100573000D01*
X78475000Y-101473000D01*
X79883000Y-101473000D01*
X79883000Y-99329622D01*
X80137000Y-99329622D01*
X80137000Y-101473000D01*
X81545000Y-101473000D01*
X81545000Y-100573000D01*
X81379554Y-99995248D01*
X81224360Y-99800000D01*
X83542560Y-99800000D01*
X83542560Y-103400000D01*
X83591843Y-103647765D01*
X83732191Y-103857809D01*
X83942235Y-103998157D01*
X84190000Y-104047440D01*
X85990000Y-104047440D01*
X86237765Y-103998157D01*
X86447809Y-103857809D01*
X86588157Y-103647765D01*
X86637440Y-103400000D01*
X86637440Y-101274880D01*
X91075510Y-101274880D01*
X91075510Y-101925120D01*
X91324346Y-102525864D01*
X91784136Y-102985654D01*
X92384880Y-103234490D01*
X93035120Y-103234490D01*
X93635864Y-102985654D01*
X94095654Y-102525864D01*
X94344490Y-101925120D01*
X94344490Y-101274880D01*
X101235510Y-101274880D01*
X101235510Y-101925120D01*
X101484346Y-102525864D01*
X101944136Y-102985654D01*
X102544880Y-103234490D01*
X103195120Y-103234490D01*
X103795864Y-102985654D01*
X104255654Y-102525864D01*
X104504490Y-101925120D01*
X104504490Y-101274880D01*
X104255654Y-100674136D01*
X104165518Y-100584000D01*
X105016560Y-100584000D01*
X105016560Y-102616000D01*
X105065843Y-102863765D01*
X105206191Y-103073809D01*
X105416235Y-103214157D01*
X105664000Y-103263440D01*
X107696000Y-103263440D01*
X107943765Y-103214157D01*
X108153809Y-103073809D01*
X108246463Y-102935144D01*
X108575812Y-103155208D01*
X109057391Y-103251000D01*
X109382609Y-103251000D01*
X109864188Y-103155208D01*
X110410305Y-102790305D01*
X110574292Y-102544880D01*
X135525510Y-102544880D01*
X135525510Y-103195120D01*
X135774346Y-103795864D01*
X136234136Y-104255654D01*
X136834880Y-104504490D01*
X137485120Y-104504490D01*
X138085864Y-104255654D01*
X138545654Y-103795864D01*
X138794490Y-103195120D01*
X138794490Y-102544880D01*
X138545654Y-101944136D01*
X138085864Y-101484346D01*
X137485120Y-101235510D01*
X136834880Y-101235510D01*
X136234136Y-101484346D01*
X135774346Y-101944136D01*
X135525510Y-102544880D01*
X110574292Y-102544880D01*
X110775208Y-102244188D01*
X110903345Y-101600000D01*
X110775208Y-100955812D01*
X110410305Y-100409695D01*
X109864188Y-100044792D01*
X109382609Y-99949000D01*
X109057391Y-99949000D01*
X108575812Y-100044792D01*
X108246463Y-100264856D01*
X108153809Y-100126191D01*
X107943765Y-99985843D01*
X107696000Y-99936560D01*
X105664000Y-99936560D01*
X105416235Y-99985843D01*
X105206191Y-100126191D01*
X105065843Y-100336235D01*
X105016560Y-100584000D01*
X104165518Y-100584000D01*
X103795864Y-100214346D01*
X103195120Y-99965510D01*
X102544880Y-99965510D01*
X101944136Y-100214346D01*
X101484346Y-100674136D01*
X101235510Y-101274880D01*
X94344490Y-101274880D01*
X94095654Y-100674136D01*
X93635864Y-100214346D01*
X93035120Y-99965510D01*
X92384880Y-99965510D01*
X91784136Y-100214346D01*
X91324346Y-100674136D01*
X91075510Y-101274880D01*
X86637440Y-101274880D01*
X86637440Y-99800000D01*
X86588157Y-99552235D01*
X86447809Y-99342191D01*
X86237765Y-99201843D01*
X85990000Y-99152560D01*
X84190000Y-99152560D01*
X83942235Y-99201843D01*
X83732191Y-99342191D01*
X83591843Y-99552235D01*
X83542560Y-99800000D01*
X81224360Y-99800000D01*
X81005606Y-99524788D01*
X80480086Y-99233244D01*
X80374740Y-99208964D01*
X80137000Y-99329622D01*
X79883000Y-99329622D01*
X79645260Y-99208964D01*
X79539914Y-99233244D01*
X79014394Y-99524788D01*
X78640446Y-99995248D01*
X78475000Y-100573000D01*
X50710000Y-100573000D01*
X50710000Y-97545485D01*
X53215000Y-97545485D01*
X53215000Y-98454515D01*
X53562870Y-99294349D01*
X54205651Y-99937130D01*
X55045485Y-100285000D01*
X55954515Y-100285000D01*
X56794349Y-99937130D01*
X57437130Y-99294349D01*
X57785000Y-98454515D01*
X57785000Y-97545485D01*
X73215000Y-97545485D01*
X73215000Y-98454515D01*
X73562870Y-99294349D01*
X74205651Y-99937130D01*
X75045485Y-100285000D01*
X75954515Y-100285000D01*
X76794349Y-99937130D01*
X77437130Y-99294349D01*
X77785000Y-98454515D01*
X77785000Y-97545485D01*
X77716047Y-97379016D01*
X104055590Y-97379016D01*
X104111271Y-97609611D01*
X104594078Y-97777622D01*
X105104428Y-97748083D01*
X105438729Y-97609611D01*
X105494410Y-97379016D01*
X104775000Y-96659605D01*
X104055590Y-97379016D01*
X77716047Y-97379016D01*
X77437130Y-96705651D01*
X77030557Y-96299078D01*
X103477378Y-96299078D01*
X103506917Y-96809428D01*
X103645389Y-97143729D01*
X103875984Y-97199410D01*
X104595395Y-96480000D01*
X104954605Y-96480000D01*
X105674016Y-97199410D01*
X105904611Y-97143729D01*
X106072622Y-96660922D01*
X106043083Y-96150572D01*
X105904611Y-95816271D01*
X105674016Y-95760590D01*
X104954605Y-96480000D01*
X104595395Y-96480000D01*
X103875984Y-95760590D01*
X103645389Y-95816271D01*
X103477378Y-96299078D01*
X77030557Y-96299078D01*
X76794349Y-96062870D01*
X75954515Y-95715000D01*
X75045485Y-95715000D01*
X74205651Y-96062870D01*
X73562870Y-96705651D01*
X73215000Y-97545485D01*
X57785000Y-97545485D01*
X57437130Y-96705651D01*
X56794349Y-96062870D01*
X55954515Y-95715000D01*
X55045485Y-95715000D01*
X54205651Y-96062870D01*
X53562870Y-96705651D01*
X53215000Y-97545485D01*
X50710000Y-97545485D01*
X50710000Y-93874778D01*
X84075000Y-93874778D01*
X84075000Y-94525222D01*
X84323914Y-95126153D01*
X84783847Y-95586086D01*
X85384778Y-95835000D01*
X86035222Y-95835000D01*
X86636153Y-95586086D01*
X86869707Y-95352532D01*
X98737073Y-95352532D01*
X98835736Y-95619387D01*
X99445461Y-95845908D01*
X100095460Y-95821856D01*
X100584264Y-95619387D01*
X100682927Y-95352532D01*
X99710000Y-94379605D01*
X98737073Y-95352532D01*
X86869707Y-95352532D01*
X87096086Y-95126153D01*
X87345000Y-94525222D01*
X87345000Y-93935461D01*
X98064092Y-93935461D01*
X98088144Y-94585460D01*
X98290613Y-95074264D01*
X98557468Y-95172927D01*
X99530395Y-94200000D01*
X99889605Y-94200000D01*
X100862532Y-95172927D01*
X101129387Y-95074264D01*
X101355908Y-94464539D01*
X101331856Y-93814540D01*
X101129387Y-93325736D01*
X100862532Y-93227073D01*
X99889605Y-94200000D01*
X99530395Y-94200000D01*
X98557468Y-93227073D01*
X98290613Y-93325736D01*
X98064092Y-93935461D01*
X87345000Y-93935461D01*
X87345000Y-93874778D01*
X87096086Y-93273847D01*
X86869707Y-93047468D01*
X98737073Y-93047468D01*
X99710000Y-94020395D01*
X100682927Y-93047468D01*
X100584264Y-92780613D01*
X99974539Y-92554092D01*
X99324540Y-92578144D01*
X98835736Y-92780613D01*
X98737073Y-93047468D01*
X86869707Y-93047468D01*
X86636153Y-92813914D01*
X86035222Y-92565000D01*
X85384778Y-92565000D01*
X84783847Y-92813914D01*
X84323914Y-93273847D01*
X84075000Y-93874778D01*
X50710000Y-93874778D01*
X50710000Y-91440000D01*
X102863176Y-91440000D01*
X102970712Y-91980622D01*
X103276950Y-92438940D01*
X103735268Y-92745178D01*
X103829289Y-92763880D01*
X103667191Y-92872191D01*
X103526843Y-93082235D01*
X103477560Y-93330000D01*
X103477560Y-94630000D01*
X103526843Y-94877765D01*
X103667191Y-95087809D01*
X103877235Y-95228157D01*
X104125000Y-95277440D01*
X104287385Y-95277440D01*
X104111271Y-95350389D01*
X104055590Y-95580984D01*
X104775000Y-96300395D01*
X105494410Y-95580984D01*
X105438729Y-95350389D01*
X105229098Y-95277440D01*
X105425000Y-95277440D01*
X105672765Y-95228157D01*
X105882809Y-95087809D01*
X105991675Y-94924880D01*
X131715510Y-94924880D01*
X131715510Y-95575120D01*
X131964346Y-96175864D01*
X132424136Y-96635654D01*
X133024880Y-96884490D01*
X133675120Y-96884490D01*
X134275864Y-96635654D01*
X134716638Y-96194880D01*
X135525510Y-96194880D01*
X135525510Y-96845120D01*
X135774346Y-97445864D01*
X136234136Y-97905654D01*
X136834880Y-98154490D01*
X137485120Y-98154490D01*
X138085864Y-97905654D01*
X138545654Y-97445864D01*
X138794490Y-96845120D01*
X138794490Y-96194880D01*
X138545654Y-95594136D01*
X138085864Y-95134346D01*
X137485120Y-94885510D01*
X136834880Y-94885510D01*
X136234136Y-95134346D01*
X135774346Y-95594136D01*
X135525510Y-96194880D01*
X134716638Y-96194880D01*
X134735654Y-96175864D01*
X134984490Y-95575120D01*
X134984490Y-94924880D01*
X134735654Y-94324136D01*
X134275864Y-93864346D01*
X133675120Y-93615510D01*
X133024880Y-93615510D01*
X132424136Y-93864346D01*
X131964346Y-94324136D01*
X131715510Y-94924880D01*
X105991675Y-94924880D01*
X106023157Y-94877765D01*
X106072440Y-94630000D01*
X106072440Y-93330000D01*
X106023157Y-93082235D01*
X105882809Y-92872191D01*
X105720711Y-92763880D01*
X105814732Y-92745178D01*
X106273050Y-92438940D01*
X106579288Y-91980622D01*
X106686824Y-91440000D01*
X106579288Y-90899378D01*
X106273050Y-90441060D01*
X105844115Y-90154455D01*
X105921677Y-90131499D01*
X106343658Y-89789944D01*
X106602810Y-89312903D01*
X106616993Y-89241275D01*
X106494339Y-89027000D01*
X104902000Y-89027000D01*
X104902000Y-89047000D01*
X104648000Y-89047000D01*
X104648000Y-89027000D01*
X103055661Y-89027000D01*
X102933007Y-89241275D01*
X102947190Y-89312903D01*
X103206342Y-89789944D01*
X103628323Y-90131499D01*
X103705885Y-90154455D01*
X103276950Y-90441060D01*
X102970712Y-90899378D01*
X102863176Y-91440000D01*
X50710000Y-91440000D01*
X50710000Y-82550000D01*
X75942041Y-82550000D01*
X76058350Y-83134725D01*
X76389570Y-83630430D01*
X76673281Y-83820000D01*
X76389570Y-84009570D01*
X76058350Y-84505275D01*
X75942041Y-85090000D01*
X76058350Y-85674725D01*
X76389570Y-86170430D01*
X76673281Y-86360000D01*
X76389570Y-86549570D01*
X76058350Y-87045275D01*
X75942041Y-87630000D01*
X76058350Y-88214725D01*
X76389570Y-88710430D01*
X76885275Y-89041650D01*
X77322402Y-89128600D01*
X77617598Y-89128600D01*
X78054725Y-89041650D01*
X78550430Y-88710430D01*
X78740000Y-88426719D01*
X78929570Y-88710430D01*
X79425275Y-89041650D01*
X79862402Y-89128600D01*
X80157598Y-89128600D01*
X80594725Y-89041650D01*
X81090430Y-88710430D01*
X81421650Y-88214725D01*
X81537959Y-87630000D01*
X81421650Y-87045275D01*
X81090430Y-86549570D01*
X80806719Y-86360000D01*
X102863176Y-86360000D01*
X102970712Y-86900622D01*
X103276950Y-87358940D01*
X103705885Y-87645545D01*
X103628323Y-87668501D01*
X103206342Y-88010056D01*
X102947190Y-88487097D01*
X102933007Y-88558725D01*
X103055661Y-88773000D01*
X104648000Y-88773000D01*
X104648000Y-88753000D01*
X104902000Y-88753000D01*
X104902000Y-88773000D01*
X106494339Y-88773000D01*
X106616993Y-88558725D01*
X106602810Y-88487097D01*
X106553199Y-88395773D01*
X119004080Y-88395773D01*
X119004080Y-89404227D01*
X119389999Y-90335917D01*
X120103083Y-91049001D01*
X121034773Y-91434920D01*
X122043227Y-91434920D01*
X122815871Y-91114880D01*
X131715510Y-91114880D01*
X131715510Y-91765120D01*
X131964346Y-92365864D01*
X132424136Y-92825654D01*
X133024880Y-93074490D01*
X133675120Y-93074490D01*
X134275864Y-92825654D01*
X134735654Y-92365864D01*
X134984490Y-91765120D01*
X134984490Y-91114880D01*
X134936906Y-91000000D01*
X139391785Y-91000000D01*
X139483755Y-91462364D01*
X139745663Y-91854337D01*
X139963663Y-92000000D01*
X139745663Y-92145663D01*
X139483755Y-92537636D01*
X139391785Y-93000000D01*
X139483755Y-93462364D01*
X139745663Y-93854337D01*
X139963663Y-94000000D01*
X139745663Y-94145663D01*
X139483755Y-94537636D01*
X139391785Y-95000000D01*
X139483755Y-95462364D01*
X139745663Y-95854337D01*
X139963663Y-96000000D01*
X139745663Y-96145663D01*
X139483755Y-96537636D01*
X139391785Y-97000000D01*
X139483755Y-97462364D01*
X139745663Y-97854337D01*
X139963663Y-98000000D01*
X139745663Y-98145663D01*
X139483755Y-98537636D01*
X139391785Y-99000000D01*
X139483755Y-99462364D01*
X139745663Y-99854337D01*
X139963663Y-100000000D01*
X139745663Y-100145663D01*
X139483755Y-100537636D01*
X139391785Y-101000000D01*
X139483755Y-101462364D01*
X139745663Y-101854337D01*
X139963663Y-102000000D01*
X139745663Y-102145663D01*
X139483755Y-102537636D01*
X139391785Y-103000000D01*
X139483755Y-103462364D01*
X139745663Y-103854337D01*
X140137636Y-104116245D01*
X140483290Y-104185000D01*
X142116710Y-104185000D01*
X142462364Y-104116245D01*
X142854337Y-103854337D01*
X143116245Y-103462364D01*
X143146603Y-103309744D01*
X154856197Y-103309744D01*
X154856602Y-103336146D01*
X155072276Y-103748118D01*
X155429187Y-104046196D01*
X155873000Y-104185000D01*
X156573000Y-104185000D01*
X156573000Y-103127000D01*
X156827000Y-103127000D01*
X156827000Y-104185000D01*
X157527000Y-104185000D01*
X157970813Y-104046196D01*
X158327724Y-103748118D01*
X158543398Y-103336146D01*
X158543803Y-103309744D01*
X158418361Y-103127000D01*
X156827000Y-103127000D01*
X156573000Y-103127000D01*
X154981639Y-103127000D01*
X154856197Y-103309744D01*
X143146603Y-103309744D01*
X143208215Y-103000000D01*
X143116245Y-102537636D01*
X142854337Y-102145663D01*
X142636337Y-102000000D01*
X142854337Y-101854337D01*
X143116245Y-101462364D01*
X143208215Y-101000000D01*
X143116245Y-100537636D01*
X142854337Y-100145663D01*
X142636337Y-100000000D01*
X142854337Y-99854337D01*
X143116245Y-99462364D01*
X143208215Y-99000000D01*
X143116245Y-98537636D01*
X142854337Y-98145663D01*
X142636337Y-98000000D01*
X142854337Y-97854337D01*
X143116245Y-97462364D01*
X143208215Y-97000000D01*
X143116245Y-96537636D01*
X142854337Y-96145663D01*
X142636337Y-96000000D01*
X142854337Y-95854337D01*
X143116245Y-95462364D01*
X143208215Y-95000000D01*
X143116245Y-94537636D01*
X142854337Y-94145663D01*
X142636337Y-94000000D01*
X142854337Y-93854337D01*
X143116245Y-93462364D01*
X143208215Y-93000000D01*
X143116245Y-92537636D01*
X142854337Y-92145663D01*
X142636337Y-92000000D01*
X142854337Y-91854337D01*
X143116245Y-91462364D01*
X143208215Y-91000000D01*
X143116245Y-90537636D01*
X142854337Y-90145663D01*
X142827917Y-90128010D01*
X143007809Y-90007809D01*
X143148157Y-89797765D01*
X143197440Y-89550000D01*
X143197440Y-88450000D01*
X143148157Y-88202235D01*
X143007809Y-87992191D01*
X142797765Y-87851843D01*
X142550000Y-87802560D01*
X140050000Y-87802560D01*
X139802235Y-87851843D01*
X139592191Y-87992191D01*
X139451843Y-88202235D01*
X139402560Y-88450000D01*
X139402560Y-89550000D01*
X139451843Y-89797765D01*
X139592191Y-90007809D01*
X139772083Y-90128010D01*
X139745663Y-90145663D01*
X139483755Y-90537636D01*
X139391785Y-91000000D01*
X134936906Y-91000000D01*
X134735654Y-90514136D01*
X134275864Y-90054346D01*
X133675120Y-89805510D01*
X133024880Y-89805510D01*
X132424136Y-90054346D01*
X131964346Y-90514136D01*
X131715510Y-91114880D01*
X122815871Y-91114880D01*
X122974917Y-91049001D01*
X123688001Y-90335917D01*
X124073920Y-89404227D01*
X124073920Y-88395773D01*
X123688001Y-87464083D01*
X122974917Y-86750999D01*
X122043227Y-86365080D01*
X121034773Y-86365080D01*
X120103083Y-86750999D01*
X119389999Y-87464083D01*
X119004080Y-88395773D01*
X106553199Y-88395773D01*
X106343658Y-88010056D01*
X105921677Y-87668501D01*
X105844115Y-87645545D01*
X106273050Y-87358940D01*
X106579288Y-86900622D01*
X106686824Y-86360000D01*
X106622154Y-86034880D01*
X135525510Y-86034880D01*
X135525510Y-86685120D01*
X135774346Y-87285864D01*
X136234136Y-87745654D01*
X136834880Y-87994490D01*
X137485120Y-87994490D01*
X138085864Y-87745654D01*
X138545654Y-87285864D01*
X138751409Y-86789126D01*
X144380000Y-86789126D01*
X144380000Y-87200874D01*
X144537569Y-87581280D01*
X144828720Y-87872431D01*
X145209126Y-88030000D01*
X145620874Y-88030000D01*
X145983007Y-87880000D01*
X155556514Y-87880000D01*
X155537636Y-87883755D01*
X155145663Y-88145663D01*
X154883755Y-88537636D01*
X154791785Y-89000000D01*
X154883755Y-89462364D01*
X155145663Y-89854337D01*
X155363663Y-90000000D01*
X155145663Y-90145663D01*
X154883755Y-90537636D01*
X154791785Y-91000000D01*
X154883755Y-91462364D01*
X155145663Y-91854337D01*
X155363663Y-92000000D01*
X155145663Y-92145663D01*
X154883755Y-92537636D01*
X154791785Y-93000000D01*
X154883755Y-93462364D01*
X155145663Y-93854337D01*
X155363663Y-94000000D01*
X155145663Y-94145663D01*
X154883755Y-94537636D01*
X154791785Y-95000000D01*
X154883755Y-95462364D01*
X155145663Y-95854337D01*
X155363663Y-96000000D01*
X155145663Y-96145663D01*
X154883755Y-96537636D01*
X154791785Y-97000000D01*
X154883755Y-97462364D01*
X155145663Y-97854337D01*
X155363663Y-98000000D01*
X155145663Y-98145663D01*
X154883755Y-98537636D01*
X154791785Y-99000000D01*
X154883755Y-99462364D01*
X155145663Y-99854337D01*
X155313663Y-99966591D01*
X155045663Y-100145663D01*
X154783755Y-100537636D01*
X154691785Y-101000000D01*
X154783755Y-101462364D01*
X155045663Y-101854337D01*
X155324889Y-102040910D01*
X155072276Y-102251882D01*
X154856602Y-102663854D01*
X154856197Y-102690256D01*
X154981639Y-102873000D01*
X156573000Y-102873000D01*
X156573000Y-102853000D01*
X156827000Y-102853000D01*
X156827000Y-102873000D01*
X158418361Y-102873000D01*
X158543803Y-102690256D01*
X158543398Y-102663854D01*
X158327724Y-102251882D01*
X157986219Y-101966670D01*
X158154337Y-101854337D01*
X158416245Y-101462364D01*
X158508215Y-101000000D01*
X158416245Y-100537636D01*
X158154337Y-100145663D01*
X157986337Y-100033409D01*
X158254337Y-99854337D01*
X158516245Y-99462364D01*
X158608215Y-99000000D01*
X158516245Y-98537636D01*
X158254337Y-98145663D01*
X158036337Y-98000000D01*
X158254337Y-97854337D01*
X158516245Y-97462364D01*
X158608215Y-97000000D01*
X158516245Y-96537636D01*
X158254337Y-96145663D01*
X158036337Y-96000000D01*
X158254337Y-95854337D01*
X158516245Y-95462364D01*
X158608215Y-95000000D01*
X158516245Y-94537636D01*
X158254337Y-94145663D01*
X158036337Y-94000000D01*
X158254337Y-93854337D01*
X158516245Y-93462364D01*
X158608215Y-93000000D01*
X158516245Y-92537636D01*
X158254337Y-92145663D01*
X158036337Y-92000000D01*
X158254337Y-91854337D01*
X158516245Y-91462364D01*
X158608215Y-91000000D01*
X158516245Y-90537636D01*
X158254337Y-90145663D01*
X158036337Y-90000000D01*
X158254337Y-89854337D01*
X158516245Y-89462364D01*
X158608215Y-89000000D01*
X158516245Y-88537636D01*
X158254337Y-88145663D01*
X157862364Y-87883755D01*
X157843486Y-87880000D01*
X159653422Y-87880000D01*
X162310001Y-90536580D01*
X162310001Y-91158483D01*
X161925864Y-90774346D01*
X161325120Y-90525510D01*
X160674880Y-90525510D01*
X160074136Y-90774346D01*
X159614346Y-91234136D01*
X159365510Y-91834880D01*
X159365510Y-92485120D01*
X159614346Y-93085864D01*
X160074136Y-93545654D01*
X160157055Y-93580000D01*
X160074136Y-93614346D01*
X159614346Y-94074136D01*
X159365510Y-94674880D01*
X159365510Y-95325120D01*
X159614346Y-95925864D01*
X160074136Y-96385654D01*
X160674880Y-96634490D01*
X161325120Y-96634490D01*
X161925864Y-96385654D01*
X162385654Y-95925864D01*
X162634490Y-95325120D01*
X162634490Y-94674880D01*
X162385654Y-94074136D01*
X161925864Y-93614346D01*
X161842945Y-93580000D01*
X161925864Y-93545654D01*
X162310000Y-93161518D01*
X162310000Y-93257839D01*
X162292663Y-93345000D01*
X162310000Y-93432161D01*
X162310000Y-93432164D01*
X162361348Y-93690309D01*
X162556951Y-93983049D01*
X162630846Y-94032425D01*
X162802569Y-94204148D01*
X162952569Y-94566280D01*
X163243720Y-94857431D01*
X163624126Y-95015000D01*
X164035874Y-95015000D01*
X164416280Y-94857431D01*
X164707431Y-94566280D01*
X164865000Y-94185874D01*
X164865000Y-93774126D01*
X164707431Y-93393720D01*
X164416280Y-93102569D01*
X164080000Y-92963278D01*
X164080000Y-91540000D01*
X165319641Y-91540000D01*
X165435950Y-92124725D01*
X165767170Y-92620430D01*
X166050881Y-92810000D01*
X165767170Y-92999570D01*
X165435950Y-93495275D01*
X165319641Y-94080000D01*
X165435950Y-94664725D01*
X165767170Y-95160430D01*
X166050881Y-95350000D01*
X165767170Y-95539570D01*
X165435950Y-96035275D01*
X165319641Y-96620000D01*
X165435950Y-97204725D01*
X165767170Y-97700430D01*
X166262875Y-98031650D01*
X166700002Y-98118600D01*
X167299998Y-98118600D01*
X167737125Y-98031650D01*
X168232830Y-97700430D01*
X168564050Y-97204725D01*
X168680359Y-96620000D01*
X168564050Y-96035275D01*
X168232830Y-95539570D01*
X167949119Y-95350000D01*
X168232830Y-95160430D01*
X168564050Y-94664725D01*
X168680359Y-94080000D01*
X168564050Y-93495275D01*
X168232830Y-92999570D01*
X167949119Y-92810000D01*
X168232830Y-92620430D01*
X168564050Y-92124725D01*
X168680359Y-91540000D01*
X168564050Y-90955275D01*
X168237749Y-90466932D01*
X168263765Y-90461757D01*
X168473809Y-90321409D01*
X168614157Y-90111365D01*
X168663440Y-89863600D01*
X168663440Y-88136400D01*
X168614157Y-87888635D01*
X168473809Y-87678591D01*
X168263765Y-87538243D01*
X168016000Y-87488960D01*
X165984000Y-87488960D01*
X165736235Y-87538243D01*
X165526191Y-87678591D01*
X165385843Y-87888635D01*
X165336560Y-88136400D01*
X165336560Y-89863600D01*
X165385843Y-90111365D01*
X165526191Y-90321409D01*
X165736235Y-90461757D01*
X165762251Y-90466932D01*
X165435950Y-90955275D01*
X165319641Y-91540000D01*
X164080000Y-91540000D01*
X164080000Y-90257159D01*
X164097337Y-90169999D01*
X164080000Y-90082840D01*
X164080000Y-90082835D01*
X164028652Y-89824690D01*
X163833049Y-89531951D01*
X163759156Y-89482577D01*
X160707425Y-86430847D01*
X160658049Y-86356951D01*
X160365310Y-86161348D01*
X160107165Y-86110000D01*
X160107161Y-86110000D01*
X160020000Y-86092663D01*
X159932839Y-86110000D01*
X145983007Y-86110000D01*
X145620874Y-85960000D01*
X145209126Y-85960000D01*
X144828720Y-86117569D01*
X144537569Y-86408720D01*
X144380000Y-86789126D01*
X138751409Y-86789126D01*
X138794490Y-86685120D01*
X138794490Y-86034880D01*
X138545654Y-85434136D01*
X138085864Y-84974346D01*
X137485120Y-84725510D01*
X136834880Y-84725510D01*
X136234136Y-84974346D01*
X135774346Y-85434136D01*
X135525510Y-86034880D01*
X106622154Y-86034880D01*
X106579288Y-85819378D01*
X106273050Y-85361060D01*
X105814732Y-85054822D01*
X105720711Y-85036120D01*
X105882809Y-84927809D01*
X106023157Y-84717765D01*
X106072440Y-84470000D01*
X106072440Y-83170000D01*
X106068893Y-83152163D01*
X160027443Y-83152163D01*
X160126042Y-83418965D01*
X160735582Y-83645401D01*
X161385377Y-83621341D01*
X161873958Y-83418965D01*
X161972557Y-83152163D01*
X161000000Y-82179605D01*
X160027443Y-83152163D01*
X106068893Y-83152163D01*
X106023157Y-82922235D01*
X105882809Y-82712191D01*
X105672765Y-82571843D01*
X105425000Y-82522560D01*
X105262615Y-82522560D01*
X105438729Y-82449611D01*
X105494410Y-82219016D01*
X104775000Y-81499605D01*
X104055590Y-82219016D01*
X104111271Y-82449611D01*
X104320902Y-82522560D01*
X104125000Y-82522560D01*
X103877235Y-82571843D01*
X103667191Y-82712191D01*
X103526843Y-82922235D01*
X103477560Y-83170000D01*
X103477560Y-84470000D01*
X103526843Y-84717765D01*
X103667191Y-84927809D01*
X103829289Y-85036120D01*
X103735268Y-85054822D01*
X103276950Y-85361060D01*
X102970712Y-85819378D01*
X102863176Y-86360000D01*
X80806719Y-86360000D01*
X81090430Y-86170430D01*
X81421650Y-85674725D01*
X81537959Y-85090000D01*
X81421650Y-84505275D01*
X81090430Y-84009570D01*
X80806719Y-83820000D01*
X81090430Y-83630430D01*
X81421650Y-83134725D01*
X81537959Y-82550000D01*
X81421650Y-81965275D01*
X81090430Y-81469570D01*
X80806719Y-81280000D01*
X81017623Y-81139078D01*
X103477378Y-81139078D01*
X103506917Y-81649428D01*
X103645389Y-81983729D01*
X103875984Y-82039410D01*
X104595395Y-81320000D01*
X104954605Y-81320000D01*
X105674016Y-82039410D01*
X105904611Y-81983729D01*
X106072622Y-81500922D01*
X106043083Y-80990572D01*
X105904611Y-80656271D01*
X105674016Y-80600590D01*
X104954605Y-81320000D01*
X104595395Y-81320000D01*
X103875984Y-80600590D01*
X103645389Y-80656271D01*
X103477378Y-81139078D01*
X81017623Y-81139078D01*
X81090430Y-81090430D01*
X81421650Y-80594725D01*
X81456209Y-80420984D01*
X104055590Y-80420984D01*
X104775000Y-81140395D01*
X105494410Y-80420984D01*
X105438729Y-80190389D01*
X104955922Y-80022378D01*
X104445572Y-80051917D01*
X104111271Y-80190389D01*
X104055590Y-80420984D01*
X81456209Y-80420984D01*
X81537959Y-80010000D01*
X81421650Y-79425275D01*
X81090430Y-78929570D01*
X80594725Y-78598350D01*
X80157598Y-78511400D01*
X79862402Y-78511400D01*
X79425275Y-78598350D01*
X78936932Y-78924651D01*
X78931757Y-78898635D01*
X78791409Y-78688591D01*
X78581365Y-78548243D01*
X78333600Y-78498960D01*
X76606400Y-78498960D01*
X76358635Y-78548243D01*
X76148591Y-78688591D01*
X76008243Y-78898635D01*
X75958960Y-79146400D01*
X75958960Y-80873600D01*
X76008243Y-81121365D01*
X76148591Y-81331409D01*
X76358635Y-81471757D01*
X76384651Y-81476932D01*
X76058350Y-81965275D01*
X75942041Y-82550000D01*
X50710000Y-82550000D01*
X50710000Y-76664778D01*
X103645000Y-76664778D01*
X103645000Y-77315222D01*
X103893914Y-77916153D01*
X104353847Y-78376086D01*
X104954778Y-78625000D01*
X105605222Y-78625000D01*
X106206153Y-78376086D01*
X106666086Y-77916153D01*
X106915000Y-77315222D01*
X106915000Y-76664778D01*
X119145000Y-76664778D01*
X119145000Y-77315222D01*
X119393914Y-77916153D01*
X119853847Y-78376086D01*
X120454778Y-78625000D01*
X121105222Y-78625000D01*
X121706153Y-78376086D01*
X122166086Y-77916153D01*
X122415000Y-77315222D01*
X122415000Y-76664778D01*
X122166086Y-76063847D01*
X121706153Y-75603914D01*
X121105222Y-75355000D01*
X120454778Y-75355000D01*
X119853847Y-75603914D01*
X119393914Y-76063847D01*
X119145000Y-76664778D01*
X106915000Y-76664778D01*
X106666086Y-76063847D01*
X106206153Y-75603914D01*
X105605222Y-75355000D01*
X104954778Y-75355000D01*
X104353847Y-75603914D01*
X103893914Y-76063847D01*
X103645000Y-76664778D01*
X50710000Y-76664778D01*
X50710000Y-71545485D01*
X53215000Y-71545485D01*
X53215000Y-72454515D01*
X53562870Y-73294349D01*
X54205651Y-73937130D01*
X55045485Y-74285000D01*
X55954515Y-74285000D01*
X56794349Y-73937130D01*
X57437130Y-73294349D01*
X57785000Y-72454515D01*
X57785000Y-71545485D01*
X73215000Y-71545485D01*
X73215000Y-72454515D01*
X73562870Y-73294349D01*
X74205651Y-73937130D01*
X75045485Y-74285000D01*
X75954515Y-74285000D01*
X76794349Y-73937130D01*
X77437130Y-73294349D01*
X77785000Y-72454515D01*
X77785000Y-71545485D01*
X77672870Y-71274778D01*
X84075000Y-71274778D01*
X84075000Y-71925222D01*
X84323914Y-72526153D01*
X84783847Y-72986086D01*
X85384778Y-73235000D01*
X86035222Y-73235000D01*
X86636153Y-72986086D01*
X87096086Y-72526153D01*
X87345000Y-71925222D01*
X87345000Y-71274778D01*
X87375000Y-71274778D01*
X87375000Y-71925222D01*
X87623914Y-72526153D01*
X88083847Y-72986086D01*
X88684778Y-73235000D01*
X89335222Y-73235000D01*
X89936153Y-72986086D01*
X90396086Y-72526153D01*
X90645000Y-71925222D01*
X90645000Y-71274778D01*
X94775000Y-71274778D01*
X94775000Y-71925222D01*
X95023914Y-72526153D01*
X95483847Y-72986086D01*
X96084778Y-73235000D01*
X96735222Y-73235000D01*
X97336153Y-72986086D01*
X97569707Y-72752532D01*
X98737073Y-72752532D01*
X98835736Y-73019387D01*
X99445461Y-73245908D01*
X100095460Y-73221856D01*
X100584264Y-73019387D01*
X100682927Y-72752532D01*
X99710000Y-71779605D01*
X98737073Y-72752532D01*
X97569707Y-72752532D01*
X97796086Y-72526153D01*
X98045000Y-71925222D01*
X98045000Y-71335461D01*
X98064092Y-71335461D01*
X98088144Y-71985460D01*
X98290613Y-72474264D01*
X98557468Y-72572927D01*
X99530395Y-71600000D01*
X99889605Y-71600000D01*
X100862532Y-72572927D01*
X101129387Y-72474264D01*
X101355908Y-71864539D01*
X101331856Y-71214540D01*
X101129387Y-70725736D01*
X100862532Y-70627073D01*
X99889605Y-71600000D01*
X99530395Y-71600000D01*
X98557468Y-70627073D01*
X98290613Y-70725736D01*
X98064092Y-71335461D01*
X98045000Y-71335461D01*
X98045000Y-71274778D01*
X97796086Y-70673847D01*
X97569707Y-70447468D01*
X98737073Y-70447468D01*
X99710000Y-71420395D01*
X100682927Y-70447468D01*
X100584264Y-70180613D01*
X99974539Y-69954092D01*
X99324540Y-69978144D01*
X98835736Y-70180613D01*
X98737073Y-70447468D01*
X97569707Y-70447468D01*
X97336153Y-70213914D01*
X96735222Y-69965000D01*
X96084778Y-69965000D01*
X95483847Y-70213914D01*
X95023914Y-70673847D01*
X94775000Y-71274778D01*
X90645000Y-71274778D01*
X90396086Y-70673847D01*
X89936153Y-70213914D01*
X89335222Y-69965000D01*
X88684778Y-69965000D01*
X88083847Y-70213914D01*
X87623914Y-70673847D01*
X87375000Y-71274778D01*
X87345000Y-71274778D01*
X87096086Y-70673847D01*
X86636153Y-70213914D01*
X86035222Y-69965000D01*
X85384778Y-69965000D01*
X84783847Y-70213914D01*
X84323914Y-70673847D01*
X84075000Y-71274778D01*
X77672870Y-71274778D01*
X77437130Y-70705651D01*
X76794349Y-70062870D01*
X75954515Y-69715000D01*
X75045485Y-69715000D01*
X74205651Y-70062870D01*
X73562870Y-70705651D01*
X73215000Y-71545485D01*
X57785000Y-71545485D01*
X57437130Y-70705651D01*
X56794349Y-70062870D01*
X55954515Y-69715000D01*
X55045485Y-69715000D01*
X54205651Y-70062870D01*
X53562870Y-70705651D01*
X53215000Y-71545485D01*
X50710000Y-71545485D01*
X50710000Y-67739126D01*
X98660000Y-67739126D01*
X98660000Y-68150874D01*
X98817569Y-68531280D01*
X99108720Y-68822431D01*
X99489126Y-68980000D01*
X99900874Y-68980000D01*
X100263007Y-68830000D01*
X100598422Y-68830000D01*
X102817577Y-71049156D01*
X102866951Y-71123049D01*
X102940844Y-71172423D01*
X102940845Y-71172424D01*
X103003876Y-71214540D01*
X103159690Y-71318652D01*
X103417835Y-71370000D01*
X103417839Y-71370000D01*
X103504999Y-71387337D01*
X103592159Y-71370000D01*
X124093422Y-71370000D01*
X132465000Y-79741579D01*
X132465000Y-79877419D01*
X132424136Y-79894346D01*
X131964346Y-80354136D01*
X131715510Y-80954880D01*
X131715510Y-81605120D01*
X131964346Y-82205864D01*
X132424136Y-82665654D01*
X133024880Y-82914490D01*
X133675120Y-82914490D01*
X134275864Y-82665654D01*
X134735654Y-82205864D01*
X134984490Y-81605120D01*
X134984490Y-80954880D01*
X134735654Y-80354136D01*
X134275864Y-79894346D01*
X134235000Y-79877420D01*
X134235000Y-79834880D01*
X145365510Y-79834880D01*
X145365510Y-80485120D01*
X145614346Y-81085864D01*
X146074136Y-81545654D01*
X146674880Y-81794490D01*
X147325120Y-81794490D01*
X147925864Y-81545654D01*
X148385654Y-81085864D01*
X148634490Y-80485120D01*
X148634490Y-79834880D01*
X154365510Y-79834880D01*
X154365510Y-80485120D01*
X154614346Y-81085864D01*
X155074136Y-81545654D01*
X155674880Y-81794490D01*
X156325120Y-81794490D01*
X156467336Y-81735582D01*
X159354599Y-81735582D01*
X159378659Y-82385377D01*
X159581035Y-82873958D01*
X159847837Y-82972557D01*
X160820395Y-82000000D01*
X161179605Y-82000000D01*
X162152163Y-82972557D01*
X162418965Y-82873958D01*
X162645401Y-82264418D01*
X162621341Y-81614623D01*
X162418965Y-81126042D01*
X162152163Y-81027443D01*
X161179605Y-82000000D01*
X160820395Y-82000000D01*
X159847837Y-81027443D01*
X159581035Y-81126042D01*
X159354599Y-81735582D01*
X156467336Y-81735582D01*
X156925864Y-81545654D01*
X157385654Y-81085864D01*
X157484247Y-80847837D01*
X160027443Y-80847837D01*
X161000000Y-81820395D01*
X161972557Y-80847837D01*
X161873958Y-80581035D01*
X161264418Y-80354599D01*
X160614623Y-80378659D01*
X160126042Y-80581035D01*
X160027443Y-80847837D01*
X157484247Y-80847837D01*
X157634490Y-80485120D01*
X157634490Y-79834880D01*
X163365510Y-79834880D01*
X163365510Y-80485120D01*
X163614346Y-81085864D01*
X164074136Y-81545654D01*
X164674880Y-81794490D01*
X165325120Y-81794490D01*
X165925864Y-81545654D01*
X166385654Y-81085864D01*
X166634490Y-80485120D01*
X166634490Y-79834880D01*
X166385654Y-79234136D01*
X165925864Y-78774346D01*
X165325120Y-78525510D01*
X164674880Y-78525510D01*
X164074136Y-78774346D01*
X163614346Y-79234136D01*
X163365510Y-79834880D01*
X157634490Y-79834880D01*
X157385654Y-79234136D01*
X157236731Y-79085213D01*
X159854392Y-79085213D01*
X159923857Y-79327397D01*
X160447302Y-79514144D01*
X161002368Y-79486362D01*
X161386143Y-79327397D01*
X161455608Y-79085213D01*
X160655000Y-78284605D01*
X159854392Y-79085213D01*
X157236731Y-79085213D01*
X156925864Y-78774346D01*
X156325120Y-78525510D01*
X155674880Y-78525510D01*
X155074136Y-78774346D01*
X154614346Y-79234136D01*
X154365510Y-79834880D01*
X148634490Y-79834880D01*
X148385654Y-79234136D01*
X148236731Y-79085213D01*
X150329392Y-79085213D01*
X150398857Y-79327397D01*
X150922302Y-79514144D01*
X151477368Y-79486362D01*
X151861143Y-79327397D01*
X151930608Y-79085213D01*
X151130000Y-78284605D01*
X150329392Y-79085213D01*
X148236731Y-79085213D01*
X147925864Y-78774346D01*
X147325120Y-78525510D01*
X146674880Y-78525510D01*
X146074136Y-78774346D01*
X145614346Y-79234136D01*
X145365510Y-79834880D01*
X134235000Y-79834880D01*
X134235000Y-79462161D01*
X134252337Y-79375000D01*
X134235000Y-79287839D01*
X134235000Y-79287835D01*
X134194697Y-79085213D01*
X136359392Y-79085213D01*
X136428857Y-79327397D01*
X136952302Y-79514144D01*
X137507368Y-79486362D01*
X137891143Y-79327397D01*
X137960608Y-79085213D01*
X142074392Y-79085213D01*
X142143857Y-79327397D01*
X142667302Y-79514144D01*
X143222368Y-79486362D01*
X143606143Y-79327397D01*
X143675608Y-79085213D01*
X142875000Y-78284605D01*
X142074392Y-79085213D01*
X137960608Y-79085213D01*
X137160000Y-78284605D01*
X136359392Y-79085213D01*
X134194697Y-79085213D01*
X134183652Y-79029690D01*
X134100743Y-78905608D01*
X134037424Y-78810845D01*
X134037423Y-78810844D01*
X133988049Y-78736951D01*
X133914156Y-78687578D01*
X133123880Y-77897302D01*
X135750856Y-77897302D01*
X135778638Y-78452368D01*
X135937603Y-78836143D01*
X136179787Y-78905608D01*
X136980395Y-78105000D01*
X137339605Y-78105000D01*
X138140213Y-78905608D01*
X138382397Y-78836143D01*
X138569144Y-78312698D01*
X138548353Y-77897302D01*
X141465856Y-77897302D01*
X141493638Y-78452368D01*
X141652603Y-78836143D01*
X141894787Y-78905608D01*
X142695395Y-78105000D01*
X143054605Y-78105000D01*
X143855213Y-78905608D01*
X144097397Y-78836143D01*
X144284144Y-78312698D01*
X144263353Y-77897302D01*
X149720856Y-77897302D01*
X149748638Y-78452368D01*
X149907603Y-78836143D01*
X150149787Y-78905608D01*
X150950395Y-78105000D01*
X151309605Y-78105000D01*
X152110213Y-78905608D01*
X152352397Y-78836143D01*
X152539144Y-78312698D01*
X152518353Y-77897302D01*
X159245856Y-77897302D01*
X159273638Y-78452368D01*
X159432603Y-78836143D01*
X159674787Y-78905608D01*
X160475395Y-78105000D01*
X160834605Y-78105000D01*
X161635213Y-78905608D01*
X161877397Y-78836143D01*
X162064144Y-78312698D01*
X162036362Y-77757632D01*
X161877397Y-77373857D01*
X161635213Y-77304392D01*
X160834605Y-78105000D01*
X160475395Y-78105000D01*
X159674787Y-77304392D01*
X159432603Y-77373857D01*
X159245856Y-77897302D01*
X152518353Y-77897302D01*
X152511362Y-77757632D01*
X152352397Y-77373857D01*
X152110213Y-77304392D01*
X151309605Y-78105000D01*
X150950395Y-78105000D01*
X150149787Y-77304392D01*
X149907603Y-77373857D01*
X149720856Y-77897302D01*
X144263353Y-77897302D01*
X144256362Y-77757632D01*
X144097397Y-77373857D01*
X143855213Y-77304392D01*
X143054605Y-78105000D01*
X142695395Y-78105000D01*
X141894787Y-77304392D01*
X141652603Y-77373857D01*
X141465856Y-77897302D01*
X138548353Y-77897302D01*
X138541362Y-77757632D01*
X138382397Y-77373857D01*
X138140213Y-77304392D01*
X137339605Y-78105000D01*
X136980395Y-78105000D01*
X136179787Y-77304392D01*
X135937603Y-77373857D01*
X135750856Y-77897302D01*
X133123880Y-77897302D01*
X127973697Y-72747119D01*
X135763000Y-72747119D01*
X135763000Y-73302881D01*
X135975680Y-73816337D01*
X136368663Y-74209320D01*
X136575513Y-74295000D01*
X136368663Y-74380680D01*
X135975680Y-74773663D01*
X135763000Y-75287119D01*
X135763000Y-75842881D01*
X135975680Y-76356337D01*
X136368663Y-76749320D01*
X136559647Y-76828428D01*
X136428857Y-76882603D01*
X136359392Y-77124787D01*
X137160000Y-77925395D01*
X137960608Y-77124787D01*
X137891143Y-76882603D01*
X137750607Y-76832465D01*
X137951337Y-76749320D01*
X138344320Y-76356337D01*
X138557000Y-75842881D01*
X138557000Y-75287119D01*
X138344320Y-74773663D01*
X137951337Y-74380680D01*
X137744487Y-74295000D01*
X137951337Y-74209320D01*
X138344320Y-73816337D01*
X138557000Y-73302881D01*
X138557000Y-72747119D01*
X141478000Y-72747119D01*
X141478000Y-73302881D01*
X141690680Y-73816337D01*
X142083663Y-74209320D01*
X142290513Y-74295000D01*
X142083663Y-74380680D01*
X141690680Y-74773663D01*
X141478000Y-75287119D01*
X141478000Y-75842881D01*
X141690680Y-76356337D01*
X142083663Y-76749320D01*
X142274647Y-76828428D01*
X142143857Y-76882603D01*
X142074392Y-77124787D01*
X142875000Y-77925395D01*
X143675608Y-77124787D01*
X143606143Y-76882603D01*
X143465607Y-76832465D01*
X143666337Y-76749320D01*
X144059320Y-76356337D01*
X144272000Y-75842881D01*
X144272000Y-75287119D01*
X144059320Y-74773663D01*
X143666337Y-74380680D01*
X143459487Y-74295000D01*
X143666337Y-74209320D01*
X144059320Y-73816337D01*
X144272000Y-73302881D01*
X144272000Y-72747119D01*
X149733000Y-72747119D01*
X149733000Y-73302881D01*
X149945680Y-73816337D01*
X150338663Y-74209320D01*
X150545513Y-74295000D01*
X150338663Y-74380680D01*
X149945680Y-74773663D01*
X149733000Y-75287119D01*
X149733000Y-75842881D01*
X149945680Y-76356337D01*
X150338663Y-76749320D01*
X150529647Y-76828428D01*
X150398857Y-76882603D01*
X150329392Y-77124787D01*
X151130000Y-77925395D01*
X151930608Y-77124787D01*
X151861143Y-76882603D01*
X151720607Y-76832465D01*
X151921337Y-76749320D01*
X152314320Y-76356337D01*
X152527000Y-75842881D01*
X152527000Y-75287119D01*
X152314320Y-74773663D01*
X151921337Y-74380680D01*
X151714487Y-74295000D01*
X151921337Y-74209320D01*
X152314320Y-73816337D01*
X152527000Y-73302881D01*
X152527000Y-72747119D01*
X159258000Y-72747119D01*
X159258000Y-73302881D01*
X159470680Y-73816337D01*
X159863663Y-74209320D01*
X160070513Y-74295000D01*
X159863663Y-74380680D01*
X159470680Y-74773663D01*
X159258000Y-75287119D01*
X159258000Y-75842881D01*
X159470680Y-76356337D01*
X159863663Y-76749320D01*
X160054647Y-76828428D01*
X159923857Y-76882603D01*
X159854392Y-77124787D01*
X160655000Y-77925395D01*
X161455608Y-77124787D01*
X161386143Y-76882603D01*
X161245607Y-76832465D01*
X161446337Y-76749320D01*
X161839320Y-76356337D01*
X162052000Y-75842881D01*
X162052000Y-75287119D01*
X161839320Y-74773663D01*
X161446337Y-74380680D01*
X161239487Y-74295000D01*
X161446337Y-74209320D01*
X161839320Y-73816337D01*
X162052000Y-73302881D01*
X162052000Y-72747119D01*
X161839320Y-72233663D01*
X161446337Y-71840680D01*
X160932881Y-71628000D01*
X160377119Y-71628000D01*
X159863663Y-71840680D01*
X159470680Y-72233663D01*
X159258000Y-72747119D01*
X152527000Y-72747119D01*
X152314320Y-72233663D01*
X151921337Y-71840680D01*
X151407881Y-71628000D01*
X150852119Y-71628000D01*
X150338663Y-71840680D01*
X149945680Y-72233663D01*
X149733000Y-72747119D01*
X144272000Y-72747119D01*
X144059320Y-72233663D01*
X143666337Y-71840680D01*
X143152881Y-71628000D01*
X142597119Y-71628000D01*
X142083663Y-71840680D01*
X141690680Y-72233663D01*
X141478000Y-72747119D01*
X138557000Y-72747119D01*
X138344320Y-72233663D01*
X137951337Y-71840680D01*
X137437881Y-71628000D01*
X136882119Y-71628000D01*
X136368663Y-71840680D01*
X135975680Y-72233663D01*
X135763000Y-72747119D01*
X127973697Y-72747119D01*
X125147425Y-69920847D01*
X125098049Y-69846951D01*
X124805310Y-69651348D01*
X124547165Y-69600000D01*
X124547161Y-69600000D01*
X124460000Y-69582663D01*
X124372839Y-69600000D01*
X103871579Y-69600000D01*
X103214111Y-68942532D01*
X104307073Y-68942532D01*
X104405736Y-69209387D01*
X105015461Y-69435908D01*
X105665460Y-69411856D01*
X106154264Y-69209387D01*
X106252927Y-68942532D01*
X119807073Y-68942532D01*
X119905736Y-69209387D01*
X120515461Y-69435908D01*
X121165460Y-69411856D01*
X121654264Y-69209387D01*
X121752927Y-68942532D01*
X120780000Y-67969605D01*
X119807073Y-68942532D01*
X106252927Y-68942532D01*
X105280000Y-67969605D01*
X104307073Y-68942532D01*
X103214111Y-68942532D01*
X101797040Y-67525461D01*
X103634092Y-67525461D01*
X103658144Y-68175460D01*
X103860613Y-68664264D01*
X104127468Y-68762927D01*
X105100395Y-67790000D01*
X105459605Y-67790000D01*
X106432532Y-68762927D01*
X106699387Y-68664264D01*
X106925908Y-68054539D01*
X106906331Y-67525461D01*
X119134092Y-67525461D01*
X119158144Y-68175460D01*
X119360613Y-68664264D01*
X119627468Y-68762927D01*
X120600395Y-67790000D01*
X120959605Y-67790000D01*
X121932532Y-68762927D01*
X122199387Y-68664264D01*
X122351478Y-68254880D01*
X134255510Y-68254880D01*
X134255510Y-68905120D01*
X134504346Y-69505864D01*
X134964136Y-69965654D01*
X135564880Y-70214490D01*
X136215120Y-70214490D01*
X136815864Y-69965654D01*
X137275654Y-69505864D01*
X137524490Y-68905120D01*
X137524490Y-68674880D01*
X141365510Y-68674880D01*
X141365510Y-69325120D01*
X141614346Y-69925864D01*
X142074136Y-70385654D01*
X142674880Y-70634490D01*
X143325120Y-70634490D01*
X143925864Y-70385654D01*
X144385654Y-69925864D01*
X144489614Y-69674880D01*
X145365510Y-69674880D01*
X145365510Y-70325120D01*
X145614346Y-70925864D01*
X146074136Y-71385654D01*
X146674880Y-71634490D01*
X147325120Y-71634490D01*
X147925864Y-71385654D01*
X148385654Y-70925864D01*
X148634490Y-70325120D01*
X148634490Y-69674880D01*
X148385654Y-69074136D01*
X147986398Y-68674880D01*
X150365510Y-68674880D01*
X150365510Y-69325120D01*
X150614346Y-69925864D01*
X151074136Y-70385654D01*
X151674880Y-70634490D01*
X152325120Y-70634490D01*
X152925864Y-70385654D01*
X153385654Y-69925864D01*
X153489614Y-69674880D01*
X154365510Y-69674880D01*
X154365510Y-70325120D01*
X154614346Y-70925864D01*
X155074136Y-71385654D01*
X155674880Y-71634490D01*
X156325120Y-71634490D01*
X156925864Y-71385654D01*
X157385654Y-70925864D01*
X157634490Y-70325120D01*
X157634490Y-69674880D01*
X157385654Y-69074136D01*
X156986398Y-68674880D01*
X159020510Y-68674880D01*
X159020510Y-69325120D01*
X159269346Y-69925864D01*
X159729136Y-70385654D01*
X160329880Y-70634490D01*
X160980120Y-70634490D01*
X161580864Y-70385654D01*
X162040654Y-69925864D01*
X162144614Y-69674880D01*
X163365510Y-69674880D01*
X163365510Y-70325120D01*
X163614346Y-70925864D01*
X164074136Y-71385654D01*
X164674880Y-71634490D01*
X165325120Y-71634490D01*
X165925864Y-71385654D01*
X166385654Y-70925864D01*
X166634490Y-70325120D01*
X166634490Y-69674880D01*
X166385654Y-69074136D01*
X165925864Y-68614346D01*
X165325120Y-68365510D01*
X164674880Y-68365510D01*
X164074136Y-68614346D01*
X163614346Y-69074136D01*
X163365510Y-69674880D01*
X162144614Y-69674880D01*
X162289490Y-69325120D01*
X162289490Y-68674880D01*
X162040654Y-68074136D01*
X161580864Y-67614346D01*
X160980120Y-67365510D01*
X160329880Y-67365510D01*
X159729136Y-67614346D01*
X159269346Y-68074136D01*
X159020510Y-68674880D01*
X156986398Y-68674880D01*
X156925864Y-68614346D01*
X156325120Y-68365510D01*
X155674880Y-68365510D01*
X155074136Y-68614346D01*
X154614346Y-69074136D01*
X154365510Y-69674880D01*
X153489614Y-69674880D01*
X153634490Y-69325120D01*
X153634490Y-68674880D01*
X153385654Y-68074136D01*
X152925864Y-67614346D01*
X152325120Y-67365510D01*
X151674880Y-67365510D01*
X151074136Y-67614346D01*
X150614346Y-68074136D01*
X150365510Y-68674880D01*
X147986398Y-68674880D01*
X147925864Y-68614346D01*
X147325120Y-68365510D01*
X146674880Y-68365510D01*
X146074136Y-68614346D01*
X145614346Y-69074136D01*
X145365510Y-69674880D01*
X144489614Y-69674880D01*
X144634490Y-69325120D01*
X144634490Y-68674880D01*
X144385654Y-68074136D01*
X143925864Y-67614346D01*
X143325120Y-67365510D01*
X142674880Y-67365510D01*
X142074136Y-67614346D01*
X141614346Y-68074136D01*
X141365510Y-68674880D01*
X137524490Y-68674880D01*
X137524490Y-68254880D01*
X137275654Y-67654136D01*
X136815864Y-67194346D01*
X136215120Y-66945510D01*
X135564880Y-66945510D01*
X134964136Y-67194346D01*
X134504346Y-67654136D01*
X134255510Y-68254880D01*
X122351478Y-68254880D01*
X122425908Y-68054539D01*
X122401856Y-67404540D01*
X122199387Y-66915736D01*
X121932532Y-66817073D01*
X120959605Y-67790000D01*
X120600395Y-67790000D01*
X119627468Y-66817073D01*
X119360613Y-66915736D01*
X119134092Y-67525461D01*
X106906331Y-67525461D01*
X106901856Y-67404540D01*
X106699387Y-66915736D01*
X106432532Y-66817073D01*
X105459605Y-67790000D01*
X105100395Y-67790000D01*
X104127468Y-66817073D01*
X103860613Y-66915736D01*
X103634092Y-67525461D01*
X101797040Y-67525461D01*
X101652425Y-67380847D01*
X101603049Y-67306951D01*
X101310310Y-67111348D01*
X101052165Y-67060000D01*
X101052161Y-67060000D01*
X100965000Y-67042663D01*
X100877839Y-67060000D01*
X100263007Y-67060000D01*
X99900874Y-66910000D01*
X99489126Y-66910000D01*
X99108720Y-67067569D01*
X98817569Y-67358720D01*
X98660000Y-67739126D01*
X50710000Y-67739126D01*
X50710000Y-66637468D01*
X104307073Y-66637468D01*
X105280000Y-67610395D01*
X106252927Y-66637468D01*
X119807073Y-66637468D01*
X120780000Y-67610395D01*
X121752927Y-66637468D01*
X121654264Y-66370613D01*
X121044539Y-66144092D01*
X120394540Y-66168144D01*
X119905736Y-66370613D01*
X119807073Y-66637468D01*
X106252927Y-66637468D01*
X106154264Y-66370613D01*
X105544539Y-66144092D01*
X104894540Y-66168144D01*
X104405736Y-66370613D01*
X104307073Y-66637468D01*
X50710000Y-66637468D01*
X50710000Y-62600000D01*
X76292560Y-62600000D01*
X76292560Y-64400000D01*
X76341843Y-64647765D01*
X76482191Y-64857809D01*
X76692235Y-64998157D01*
X76940000Y-65047440D01*
X80540000Y-65047440D01*
X80787765Y-64998157D01*
X80997809Y-64857809D01*
X81138157Y-64647765D01*
X81187440Y-64400000D01*
X81187440Y-62600000D01*
X81138157Y-62352235D01*
X80997809Y-62142191D01*
X80787765Y-62001843D01*
X80540000Y-61952560D01*
X76940000Y-61952560D01*
X76692235Y-62001843D01*
X76482191Y-62142191D01*
X76341843Y-62352235D01*
X76292560Y-62600000D01*
X50710000Y-62600000D01*
X50710000Y-58420000D01*
X76274928Y-58420000D01*
X76394062Y-59018927D01*
X76733327Y-59526673D01*
X77241073Y-59865938D01*
X77688818Y-59955000D01*
X79791182Y-59955000D01*
X80238927Y-59865938D01*
X80746673Y-59526673D01*
X81085938Y-59018927D01*
X81148317Y-58705322D01*
X84015000Y-58705322D01*
X84015000Y-59554678D01*
X84340034Y-60339380D01*
X84940620Y-60939966D01*
X85725322Y-61265000D01*
X86574678Y-61265000D01*
X87359380Y-60939966D01*
X87959966Y-60339380D01*
X88285000Y-59554678D01*
X88285000Y-58705322D01*
X115715000Y-58705322D01*
X115715000Y-59554678D01*
X116040034Y-60339380D01*
X116640620Y-60939966D01*
X117425322Y-61265000D01*
X118274678Y-61265000D01*
X119059380Y-60939966D01*
X119659966Y-60339380D01*
X119985000Y-59554678D01*
X119985000Y-58705322D01*
X119732147Y-58094880D01*
X134255510Y-58094880D01*
X134255510Y-58745120D01*
X134504346Y-59345864D01*
X134964136Y-59805654D01*
X135564880Y-60054490D01*
X136215120Y-60054490D01*
X136815864Y-59805654D01*
X137275654Y-59345864D01*
X137524490Y-58745120D01*
X137524490Y-58514880D01*
X141365510Y-58514880D01*
X141365510Y-59165120D01*
X141614346Y-59765864D01*
X142074136Y-60225654D01*
X142674880Y-60474490D01*
X143325120Y-60474490D01*
X143925864Y-60225654D01*
X144385654Y-59765864D01*
X144634490Y-59165120D01*
X144634490Y-58514880D01*
X150365510Y-58514880D01*
X150365510Y-59165120D01*
X150614346Y-59765864D01*
X151074136Y-60225654D01*
X151674880Y-60474490D01*
X152325120Y-60474490D01*
X152925864Y-60225654D01*
X153385654Y-59765864D01*
X153634490Y-59165120D01*
X153634490Y-58514880D01*
X159020510Y-58514880D01*
X159020510Y-59165120D01*
X159269346Y-59765864D01*
X159729136Y-60225654D01*
X160329880Y-60474490D01*
X160980120Y-60474490D01*
X161580864Y-60225654D01*
X162040654Y-59765864D01*
X162289490Y-59165120D01*
X162289490Y-58514880D01*
X162040654Y-57914136D01*
X161580864Y-57454346D01*
X160980120Y-57205510D01*
X160329880Y-57205510D01*
X159729136Y-57454346D01*
X159269346Y-57914136D01*
X159020510Y-58514880D01*
X153634490Y-58514880D01*
X153385654Y-57914136D01*
X152925864Y-57454346D01*
X152325120Y-57205510D01*
X151674880Y-57205510D01*
X151074136Y-57454346D01*
X150614346Y-57914136D01*
X150365510Y-58514880D01*
X144634490Y-58514880D01*
X144385654Y-57914136D01*
X143925864Y-57454346D01*
X143325120Y-57205510D01*
X142674880Y-57205510D01*
X142074136Y-57454346D01*
X141614346Y-57914136D01*
X141365510Y-58514880D01*
X137524490Y-58514880D01*
X137524490Y-58094880D01*
X137275654Y-57494136D01*
X136815864Y-57034346D01*
X136215120Y-56785510D01*
X135564880Y-56785510D01*
X134964136Y-57034346D01*
X134504346Y-57494136D01*
X134255510Y-58094880D01*
X119732147Y-58094880D01*
X119659966Y-57920620D01*
X119059380Y-57320034D01*
X118274678Y-56995000D01*
X117425322Y-56995000D01*
X116640620Y-57320034D01*
X116040034Y-57920620D01*
X115715000Y-58705322D01*
X88285000Y-58705322D01*
X87959966Y-57920620D01*
X87359380Y-57320034D01*
X86574678Y-56995000D01*
X85725322Y-56995000D01*
X84940620Y-57320034D01*
X84340034Y-57920620D01*
X84015000Y-58705322D01*
X81148317Y-58705322D01*
X81205072Y-58420000D01*
X81085938Y-57821073D01*
X80746673Y-57313327D01*
X80238927Y-56974062D01*
X79791182Y-56885000D01*
X77688818Y-56885000D01*
X77241073Y-56974062D01*
X76733327Y-57313327D01*
X76394062Y-57821073D01*
X76274928Y-58420000D01*
X50710000Y-58420000D01*
X50710000Y-54143970D01*
X84815635Y-54143970D01*
X84975418Y-54462739D01*
X85766187Y-54772723D01*
X86615387Y-54756497D01*
X87324582Y-54462739D01*
X87484365Y-54143970D01*
X116515635Y-54143970D01*
X116675418Y-54462739D01*
X117466187Y-54772723D01*
X118315387Y-54756497D01*
X118669062Y-54610000D01*
X134206655Y-54610000D01*
X134334792Y-55254188D01*
X134699695Y-55800305D01*
X135245812Y-56165208D01*
X135727391Y-56261000D01*
X136052609Y-56261000D01*
X136534188Y-56165208D01*
X136863537Y-55945144D01*
X136956191Y-56083809D01*
X137166235Y-56224157D01*
X137414000Y-56273440D01*
X139446000Y-56273440D01*
X139693765Y-56224157D01*
X139903809Y-56083809D01*
X140044157Y-55873765D01*
X140093440Y-55626000D01*
X140093440Y-53984000D01*
X145488960Y-53984000D01*
X145488960Y-56016000D01*
X145538243Y-56263765D01*
X145678591Y-56473809D01*
X145888635Y-56614157D01*
X146136400Y-56663440D01*
X147863600Y-56663440D01*
X148111365Y-56614157D01*
X148321409Y-56473809D01*
X148461757Y-56263765D01*
X148466932Y-56237749D01*
X148955276Y-56564050D01*
X149540000Y-56680359D01*
X150124725Y-56564050D01*
X150620430Y-56232830D01*
X150810000Y-55949119D01*
X150999570Y-56232830D01*
X151495276Y-56564050D01*
X152080000Y-56680359D01*
X152664725Y-56564050D01*
X153160430Y-56232830D01*
X153350000Y-55949119D01*
X153539570Y-56232830D01*
X154035276Y-56564050D01*
X154620000Y-56680359D01*
X155204725Y-56564050D01*
X155700430Y-56232830D01*
X156031650Y-55737124D01*
X156118600Y-55299997D01*
X156118600Y-54700002D01*
X156031650Y-54262875D01*
X155700430Y-53767170D01*
X155204724Y-53435950D01*
X154620000Y-53319641D01*
X154035275Y-53435950D01*
X153539570Y-53767170D01*
X153350000Y-54050881D01*
X153160430Y-53767170D01*
X152664724Y-53435950D01*
X152080000Y-53319641D01*
X151495275Y-53435950D01*
X150999570Y-53767170D01*
X150810000Y-54050881D01*
X150620430Y-53767170D01*
X150124724Y-53435950D01*
X149540000Y-53319641D01*
X148955275Y-53435950D01*
X148466932Y-53762251D01*
X148461757Y-53736235D01*
X148321409Y-53526191D01*
X148111365Y-53385843D01*
X147863600Y-53336560D01*
X146136400Y-53336560D01*
X145888635Y-53385843D01*
X145678591Y-53526191D01*
X145538243Y-53736235D01*
X145488960Y-53984000D01*
X140093440Y-53984000D01*
X140093440Y-53594000D01*
X140044157Y-53346235D01*
X139903809Y-53136191D01*
X139693765Y-52995843D01*
X139446000Y-52946560D01*
X137414000Y-52946560D01*
X137166235Y-52995843D01*
X136956191Y-53136191D01*
X136863537Y-53274856D01*
X136534188Y-53054792D01*
X136052609Y-52959000D01*
X135727391Y-52959000D01*
X135245812Y-53054792D01*
X134699695Y-53419695D01*
X134334792Y-53965812D01*
X134206655Y-54610000D01*
X118669062Y-54610000D01*
X119024582Y-54462739D01*
X119184365Y-54143970D01*
X117850000Y-52809605D01*
X116515635Y-54143970D01*
X87484365Y-54143970D01*
X86150000Y-52809605D01*
X84815635Y-54143970D01*
X50710000Y-54143970D01*
X50710000Y-53235000D01*
X59927612Y-53235000D01*
X60000000Y-53249399D01*
X60072388Y-53235000D01*
X60286783Y-53192354D01*
X60529905Y-53029905D01*
X60692354Y-52786783D01*
X60749399Y-52500000D01*
X60735000Y-52427612D01*
X60735000Y-49545485D01*
X63215000Y-49545485D01*
X63215000Y-50454515D01*
X63562870Y-51294349D01*
X64205651Y-51937130D01*
X65045485Y-52285000D01*
X65954515Y-52285000D01*
X66048218Y-52246187D01*
X84007277Y-52246187D01*
X84023503Y-53095387D01*
X84317261Y-53804582D01*
X84636030Y-53964365D01*
X85970395Y-52630000D01*
X86329605Y-52630000D01*
X87663970Y-53964365D01*
X87982739Y-53804582D01*
X88292723Y-53013813D01*
X88278056Y-52246187D01*
X115707277Y-52246187D01*
X115723503Y-53095387D01*
X116017261Y-53804582D01*
X116336030Y-53964365D01*
X117670395Y-52630000D01*
X118029605Y-52630000D01*
X119363970Y-53964365D01*
X119682739Y-53804582D01*
X119992723Y-53013813D01*
X119976497Y-52164613D01*
X119682739Y-51455418D01*
X119363970Y-51295635D01*
X118029605Y-52630000D01*
X117670395Y-52630000D01*
X116336030Y-51295635D01*
X116017261Y-51455418D01*
X115707277Y-52246187D01*
X88278056Y-52246187D01*
X88276497Y-52164613D01*
X87982739Y-51455418D01*
X87663970Y-51295635D01*
X86329605Y-52630000D01*
X85970395Y-52630000D01*
X84636030Y-51295635D01*
X84317261Y-51455418D01*
X84007277Y-52246187D01*
X66048218Y-52246187D01*
X66794349Y-51937130D01*
X67437130Y-51294349D01*
X67510992Y-51116030D01*
X84815635Y-51116030D01*
X86150000Y-52450395D01*
X87484365Y-51116030D01*
X116515635Y-51116030D01*
X117850000Y-52450395D01*
X119184365Y-51116030D01*
X119024582Y-50797261D01*
X118233813Y-50487277D01*
X117384613Y-50503503D01*
X116675418Y-50797261D01*
X116515635Y-51116030D01*
X87484365Y-51116030D01*
X87324582Y-50797261D01*
X86533813Y-50487277D01*
X85684613Y-50503503D01*
X84975418Y-50797261D01*
X84815635Y-51116030D01*
X67510992Y-51116030D01*
X67785000Y-50454515D01*
X67785000Y-49545485D01*
X67437130Y-48705651D01*
X66794349Y-48062870D01*
X65954515Y-47715000D01*
X65045485Y-47715000D01*
X64205651Y-48062870D01*
X63562870Y-48705651D01*
X63215000Y-49545485D01*
X60735000Y-49545485D01*
X60735000Y-46946029D01*
X70715000Y-46946029D01*
X70715000Y-48053971D01*
X71138991Y-49077576D01*
X71922424Y-49861009D01*
X72946029Y-50285000D01*
X74053971Y-50285000D01*
X75077576Y-49861009D01*
X75861009Y-49077576D01*
X76285000Y-48053971D01*
X76285000Y-46946029D01*
X148715000Y-46946029D01*
X148715000Y-48053971D01*
X149138991Y-49077576D01*
X149922424Y-49861009D01*
X150946029Y-50285000D01*
X152053971Y-50285000D01*
X153077576Y-49861009D01*
X153861009Y-49077576D01*
X154285000Y-48053971D01*
X154285000Y-46946029D01*
X153861009Y-45922424D01*
X153077576Y-45138991D01*
X152053971Y-44715000D01*
X150946029Y-44715000D01*
X149922424Y-45138991D01*
X149138991Y-45922424D01*
X148715000Y-46946029D01*
X76285000Y-46946029D01*
X75861009Y-45922424D01*
X75077576Y-45138991D01*
X74053971Y-44715000D01*
X72946029Y-44715000D01*
X71922424Y-45138991D01*
X71138991Y-45922424D01*
X70715000Y-46946029D01*
X60735000Y-46946029D01*
X60735000Y-43210000D01*
X164265000Y-43210000D01*
X164265001Y-52427607D01*
G04 #@! TD*
M02*
