G04 #@! TF.GenerationSoftware,KiCad,Pcbnew,5.0.2-bee76a0~70~ubuntu18.04.1*
G04 #@! TF.CreationDate,2019-05-07T12:57:47+02:00*
G04 #@! TF.ProjectId,pcb_wifi,7063625f-7769-4666-992e-6b696361645f,rev?*
G04 #@! TF.SameCoordinates,Original*
G04 #@! TF.FileFunction,Copper,L1,Top*
G04 #@! TF.FilePolarity,Positive*
%FSLAX46Y46*%
G04 Gerber Fmt 4.6, Leading zero omitted, Abs format (unit mm)*
G04 Created by KiCad (PCBNEW 5.0.2-bee76a0~70~ubuntu18.04.1) date Di 07 Mai 2019 12:57:47 CEST*
%MOMM*%
%LPD*%
G01*
G04 APERTURE LIST*
G04 #@! TA.AperFunction,ComponentPad*
%ADD10O,2.499360X1.501140*%
G04 #@! TD*
G04 #@! TA.AperFunction,ComponentPad*
%ADD11R,1.300000X1.300000*%
G04 #@! TD*
G04 #@! TA.AperFunction,ComponentPad*
%ADD12C,1.300000*%
G04 #@! TD*
G04 #@! TA.AperFunction,ComponentPad*
%ADD13O,2.032000X2.032000*%
G04 #@! TD*
G04 #@! TA.AperFunction,ComponentPad*
%ADD14R,2.032000X2.032000*%
G04 #@! TD*
G04 #@! TA.AperFunction,ComponentPad*
%ADD15R,1.727200X1.727200*%
G04 #@! TD*
G04 #@! TA.AperFunction,ComponentPad*
%ADD16O,1.727200X1.727200*%
G04 #@! TD*
G04 #@! TA.AperFunction,ComponentPad*
%ADD17R,2.032000X1.727200*%
G04 #@! TD*
G04 #@! TA.AperFunction,ComponentPad*
%ADD18O,2.032000X1.727200*%
G04 #@! TD*
G04 #@! TA.AperFunction,ComponentPad*
%ADD19O,1.727200X2.032000*%
G04 #@! TD*
G04 #@! TA.AperFunction,ComponentPad*
%ADD20R,1.727200X2.032000*%
G04 #@! TD*
G04 #@! TA.AperFunction,ComponentPad*
%ADD21C,1.998980*%
G04 #@! TD*
G04 #@! TA.AperFunction,ComponentPad*
%ADD22C,2.000000*%
G04 #@! TD*
G04 #@! TA.AperFunction,ComponentPad*
%ADD23C,3.000000*%
G04 #@! TD*
G04 #@! TA.AperFunction,ComponentPad*
%ADD24R,2.500000X1.100000*%
G04 #@! TD*
G04 #@! TA.AperFunction,ComponentPad*
%ADD25O,2.500000X1.100000*%
G04 #@! TD*
G04 #@! TA.AperFunction,ComponentPad*
%ADD26O,3.600000X1.800000*%
G04 #@! TD*
G04 #@! TA.AperFunction,ComponentPad*
%ADD27R,3.600000X1.800000*%
G04 #@! TD*
G04 #@! TA.AperFunction,ComponentPad*
%ADD28R,1.800000X3.600000*%
G04 #@! TD*
G04 #@! TA.AperFunction,ComponentPad*
%ADD29O,1.800000X3.600000*%
G04 #@! TD*
G04 #@! TA.AperFunction,ComponentPad*
%ADD30C,1.524000*%
G04 #@! TD*
G04 #@! TA.AperFunction,ComponentPad*
%ADD31C,3.300000*%
G04 #@! TD*
G04 #@! TA.AperFunction,ViaPad*
%ADD32C,0.800000*%
G04 #@! TD*
G04 #@! TA.AperFunction,Conductor*
%ADD33C,2.000000*%
G04 #@! TD*
G04 #@! TA.AperFunction,Conductor*
%ADD34C,0.500000*%
G04 #@! TD*
G04 #@! TA.AperFunction,Conductor*
%ADD35C,0.254000*%
G04 #@! TD*
G04 APERTURE END LIST*
D10*
G04 #@! TO.P,U5,3*
G04 #@! TO.N,+5V*
X104775000Y-91440000D03*
G04 #@! TO.P,U5,1*
G04 #@! TO.N,Net-(C1-Pad1)*
X104775000Y-86360000D03*
G04 #@! TO.P,U5,2*
G04 #@! TO.N,GND*
X104775000Y-88900000D03*
G04 #@! TD*
D11*
G04 #@! TO.P,C1,1*
G04 #@! TO.N,Net-(C1-Pad1)*
X104775000Y-83820000D03*
D12*
G04 #@! TO.P,C1,2*
G04 #@! TO.N,GND*
X104775000Y-81320000D03*
G04 #@! TD*
G04 #@! TO.P,C2,2*
G04 #@! TO.N,GND*
X104775000Y-96480000D03*
D11*
G04 #@! TO.P,C2,1*
G04 #@! TO.N,+5V*
X104775000Y-93980000D03*
G04 #@! TD*
D13*
G04 #@! TO.P,P1,2*
G04 #@! TO.N,Net-(P1-Pad2)*
X135890000Y-54610000D03*
D14*
G04 #@! TO.P,P1,1*
G04 #@! TO.N,+3V3*
X138430000Y-54610000D03*
G04 #@! TD*
D15*
G04 #@! TO.P,P4,1*
G04 #@! TO.N,Net-(P4-Pad1)*
X77470000Y-80010000D03*
D16*
G04 #@! TO.P,P4,2*
X80010000Y-80010000D03*
G04 #@! TO.P,P4,3*
G04 #@! TO.N,Net-(P4-Pad3)*
X77470000Y-82550000D03*
G04 #@! TO.P,P4,4*
X80010000Y-82550000D03*
G04 #@! TO.P,P4,5*
G04 #@! TO.N,Net-(P4-Pad5)*
X77470000Y-85090000D03*
G04 #@! TO.P,P4,6*
X80010000Y-85090000D03*
G04 #@! TO.P,P4,7*
G04 #@! TO.N,Net-(P4-Pad7)*
X77470000Y-87630000D03*
G04 #@! TO.P,P4,8*
X80010000Y-87630000D03*
G04 #@! TD*
D17*
G04 #@! TO.P,P5,1*
G04 #@! TO.N,Net-(P5-Pad1)*
X88900000Y-111760000D03*
D18*
G04 #@! TO.P,P5,2*
G04 #@! TO.N,Net-(P5-Pad2)*
X88900000Y-114300000D03*
G04 #@! TO.P,P5,3*
G04 #@! TO.N,Net-(P5-Pad3)*
X88900000Y-116840000D03*
G04 #@! TO.P,P5,4*
G04 #@! TO.N,Net-(P5-Pad4)*
X88900000Y-119380000D03*
G04 #@! TO.P,P5,5*
G04 #@! TO.N,GND*
X88900000Y-121920000D03*
G04 #@! TD*
D17*
G04 #@! TO.P,P6,1*
G04 #@! TO.N,/RXD*
X167000000Y-89000000D03*
D18*
G04 #@! TO.P,P6,2*
G04 #@! TO.N,/TXD*
X167000000Y-91540000D03*
G04 #@! TO.P,P6,3*
G04 #@! TO.N,/RTS*
X167000000Y-94080000D03*
G04 #@! TO.P,P6,4*
G04 #@! TO.N,/DTR*
X167000000Y-96620000D03*
G04 #@! TD*
D14*
G04 #@! TO.P,P7,1*
G04 #@! TO.N,Net-(P7-Pad1)*
X106680000Y-101600000D03*
D13*
G04 #@! TO.P,P7,2*
G04 #@! TO.N,N/C*
X109220000Y-101600000D03*
G04 #@! TD*
D19*
G04 #@! TO.P,P8,4*
G04 #@! TO.N,Net-(P8-Pad4)*
X154620000Y-55000000D03*
G04 #@! TO.P,P8,3*
G04 #@! TO.N,Net-(P8-Pad3)*
X152080000Y-55000000D03*
G04 #@! TO.P,P8,2*
G04 #@! TO.N,Net-(P8-Pad2)*
X149540000Y-55000000D03*
D20*
G04 #@! TO.P,P8,1*
G04 #@! TO.N,+3V3*
X147000000Y-55000000D03*
G04 #@! TD*
D21*
G04 #@! TO.P,R1,2*
G04 #@! TO.N,Net-(P1-Pad2)*
X135890000Y-58420000D03*
G04 #@! TO.P,R1,1*
G04 #@! TO.N,Net-(Q1-Pad1)*
X135890000Y-68580000D03*
G04 #@! TD*
G04 #@! TO.P,R2,2*
G04 #@! TO.N,+BATT*
X133350000Y-81280000D03*
G04 #@! TO.P,R2,1*
G04 #@! TO.N,Net-(R2-Pad1)*
X133350000Y-91440000D03*
G04 #@! TD*
G04 #@! TO.P,R3,1*
G04 #@! TO.N,GND*
X133350000Y-105410000D03*
G04 #@! TO.P,R3,2*
G04 #@! TO.N,Net-(R2-Pad1)*
X133350000Y-95250000D03*
G04 #@! TD*
G04 #@! TO.P,R4,1*
G04 #@! TO.N,Net-(Q1-Pad2)*
X137160000Y-86360000D03*
G04 #@! TO.P,R4,2*
G04 #@! TO.N,Net-(R4-Pad2)*
X137160000Y-96520000D03*
G04 #@! TD*
G04 #@! TO.P,R5,1*
G04 #@! TO.N,Net-(R5-Pad1)*
X137160000Y-102870000D03*
G04 #@! TO.P,R5,2*
G04 #@! TO.N,+3V3*
X137160000Y-113030000D03*
G04 #@! TD*
G04 #@! TO.P,R6,2*
G04 #@! TO.N,Net-(R6-Pad2)*
X153035000Y-112395000D03*
G04 #@! TO.P,R6,1*
G04 #@! TO.N,GND*
X142875000Y-112395000D03*
G04 #@! TD*
G04 #@! TO.P,R7,2*
G04 #@! TO.N,/DT*
X161000000Y-105160000D03*
G04 #@! TO.P,R7,1*
G04 #@! TO.N,Net-(R7-Pad1)*
X161000000Y-95000000D03*
G04 #@! TD*
G04 #@! TO.P,R8,1*
G04 #@! TO.N,GND*
X161000000Y-82000000D03*
G04 #@! TO.P,R8,2*
G04 #@! TO.N,Net-(R7-Pad1)*
X161000000Y-92160000D03*
G04 #@! TD*
G04 #@! TO.P,R9,1*
G04 #@! TO.N,+3V3*
X142875000Y-107950000D03*
G04 #@! TO.P,R9,2*
G04 #@! TO.N,Net-(R9-Pad2)*
X153035000Y-107950000D03*
G04 #@! TD*
G04 #@! TO.P,R10,2*
G04 #@! TO.N,+5V*
X92710000Y-101600000D03*
G04 #@! TO.P,R10,1*
G04 #@! TO.N,Net-(P7-Pad1)*
X102870000Y-101600000D03*
G04 #@! TD*
G04 #@! TO.P,R11,2*
G04 #@! TO.N,/BLUE*
X165000000Y-80160000D03*
G04 #@! TO.P,R11,1*
G04 #@! TO.N,Net-(Q2-Pad2)*
X165000000Y-70000000D03*
G04 #@! TD*
G04 #@! TO.P,R12,1*
G04 #@! TO.N,Net-(Q3-Pad2)*
X156000000Y-70000000D03*
G04 #@! TO.P,R12,2*
G04 #@! TO.N,/GREEN*
X156000000Y-80160000D03*
G04 #@! TD*
G04 #@! TO.P,R13,1*
G04 #@! TO.N,Net-(Q4-Pad2)*
X147000000Y-70000000D03*
G04 #@! TO.P,R13,2*
G04 #@! TO.N,/RED*
X147000000Y-80160000D03*
G04 #@! TD*
G04 #@! TO.P,R14,1*
G04 #@! TO.N,Net-(Q2-Pad1)*
X160655000Y-69000000D03*
G04 #@! TO.P,R14,2*
G04 #@! TO.N,Net-(P8-Pad4)*
X160655000Y-58840000D03*
G04 #@! TD*
G04 #@! TO.P,R15,2*
G04 #@! TO.N,Net-(P8-Pad3)*
X152000000Y-58840000D03*
G04 #@! TO.P,R15,1*
G04 #@! TO.N,Net-(Q3-Pad1)*
X152000000Y-69000000D03*
G04 #@! TD*
G04 #@! TO.P,R16,2*
G04 #@! TO.N,Net-(P8-Pad2)*
X143000000Y-58840000D03*
G04 #@! TO.P,R16,1*
G04 #@! TO.N,Net-(Q4-Pad1)*
X143000000Y-69000000D03*
G04 #@! TD*
D22*
G04 #@! TO.P,U1,1*
G04 #@! TO.N,Net-(P3-Pad1)*
X85710000Y-94200000D03*
G04 #@! TO.P,U1,2*
G04 #@! TO.N,GND*
X99710000Y-94200000D03*
G04 #@! TO.P,U1,3*
X99710000Y-71600000D03*
G04 #@! TO.P,U1,4*
G04 #@! TO.N,Net-(BT1-Pad-)*
X96410000Y-71600000D03*
G04 #@! TO.P,U1,5*
G04 #@! TO.N,Net-(P2-Pad1)*
X89010000Y-71600000D03*
G04 #@! TO.P,U1,6*
G04 #@! TO.N,+BATT*
X85710000Y-71600000D03*
G04 #@! TD*
D23*
G04 #@! TO.P,U2,1*
G04 #@! TO.N,GND*
X86150000Y-52630000D03*
G04 #@! TO.P,U2,2*
G04 #@! TO.N,+BATT*
X86150000Y-59130000D03*
G04 #@! TO.P,U2,3*
G04 #@! TO.N,Net-(C1-Pad1)*
X117850000Y-59130000D03*
G04 #@! TO.P,U2,4*
G04 #@! TO.N,GND*
X117850000Y-52630000D03*
G04 #@! TD*
D24*
G04 #@! TO.P,U3,1*
G04 #@! TO.N,/RTS*
X141300000Y-89000000D03*
D25*
G04 #@! TO.P,U3,2*
G04 #@! TO.N,Net-(R2-Pad1)*
X141300000Y-91000000D03*
G04 #@! TO.P,U3,3*
G04 #@! TO.N,Net-(R5-Pad1)*
X141300000Y-93000000D03*
G04 #@! TO.P,U3,4*
G04 #@! TO.N,Net-(R4-Pad2)*
X141300000Y-95000000D03*
G04 #@! TO.P,U3,5*
G04 #@! TO.N,/RED*
X141300000Y-97000000D03*
G04 #@! TO.P,U3,6*
G04 #@! TO.N,/GREEN*
X141300000Y-99000000D03*
G04 #@! TO.P,U3,7*
G04 #@! TO.N,/BLUE*
X141300000Y-101000000D03*
G04 #@! TO.P,U3,8*
G04 #@! TO.N,+3V3*
X141300000Y-103000000D03*
G04 #@! TO.P,U3,9*
G04 #@! TO.N,GND*
X156700000Y-103000000D03*
G04 #@! TO.P,U3,10*
G04 #@! TO.N,Net-(R6-Pad2)*
X156600000Y-101000000D03*
G04 #@! TO.P,U3,11*
G04 #@! TO.N,Net-(R9-Pad2)*
X156700000Y-99000000D03*
G04 #@! TO.P,U3,12*
G04 #@! TO.N,/DTR*
X156700000Y-97000000D03*
G04 #@! TO.P,U3,13*
G04 #@! TO.N,/SCK*
X156700000Y-95000000D03*
G04 #@! TO.P,U3,14*
G04 #@! TO.N,Net-(R7-Pad1)*
X156700000Y-93000000D03*
G04 #@! TO.P,U3,15*
G04 #@! TO.N,/TXD*
X156700000Y-91000000D03*
G04 #@! TO.P,U3,16*
G04 #@! TO.N,/RXD*
X156700000Y-89000000D03*
G04 #@! TD*
D22*
G04 #@! TO.P,U4,3*
G04 #@! TO.N,+3V3*
X120780000Y-76990000D03*
G04 #@! TO.P,U4,4*
G04 #@! TO.N,GND*
X120780000Y-67790000D03*
G04 #@! TO.P,U4,2*
X105280000Y-67790000D03*
G04 #@! TO.P,U4,1*
G04 #@! TO.N,Net-(C1-Pad1)*
X105280000Y-76990000D03*
G04 #@! TD*
G04 #@! TO.P,U6,10*
G04 #@! TO.N,GND*
X121630000Y-111760000D03*
G04 #@! TO.P,U6,9*
G04 #@! TO.N,/DT*
X121630000Y-114300000D03*
G04 #@! TO.P,U6,8*
G04 #@! TO.N,/SCK*
X121630000Y-116840000D03*
G04 #@! TO.P,U6,7*
G04 #@! TO.N,+5V*
X121630000Y-119380000D03*
G04 #@! TO.P,U6,6*
G04 #@! TO.N,N/C*
X96250000Y-121920000D03*
G04 #@! TO.P,U6,5*
X96250000Y-119380000D03*
G04 #@! TO.P,U6,4*
G04 #@! TO.N,Net-(P5-Pad4)*
X96250000Y-116840000D03*
G04 #@! TO.P,U6,3*
G04 #@! TO.N,Net-(P5-Pad3)*
X96250000Y-114300000D03*
G04 #@! TO.P,U6,2*
G04 #@! TO.N,Net-(P5-Pad2)*
X96250000Y-111760000D03*
G04 #@! TO.P,U6,1*
G04 #@! TO.N,Net-(P5-Pad1)*
X96250000Y-109220000D03*
G04 #@! TD*
D26*
G04 #@! TO.P,P2,2*
G04 #@! TO.N,Net-(BT1-Pad+)*
X78740000Y-58420000D03*
D27*
G04 #@! TO.P,P2,1*
G04 #@! TO.N,Net-(P2-Pad1)*
X78740000Y-63500000D03*
G04 #@! TD*
D28*
G04 #@! TO.P,P3,1*
G04 #@! TO.N,Net-(P3-Pad1)*
X85090000Y-101600000D03*
D29*
G04 #@! TO.P,P3,2*
G04 #@! TO.N,GND*
X80010000Y-101600000D03*
G04 #@! TD*
D30*
G04 #@! TO.P,Q1,2*
G04 #@! TO.N,Net-(Q1-Pad2)*
X137160000Y-75565000D03*
G04 #@! TO.P,Q1,3*
G04 #@! TO.N,GND*
X137160000Y-78105000D03*
G04 #@! TO.P,Q1,1*
G04 #@! TO.N,Net-(Q1-Pad1)*
X137160000Y-73025000D03*
G04 #@! TD*
G04 #@! TO.P,Q2,1*
G04 #@! TO.N,Net-(Q2-Pad1)*
X160655000Y-73025000D03*
G04 #@! TO.P,Q2,3*
G04 #@! TO.N,GND*
X160655000Y-78105000D03*
G04 #@! TO.P,Q2,2*
G04 #@! TO.N,Net-(Q2-Pad2)*
X160655000Y-75565000D03*
G04 #@! TD*
G04 #@! TO.P,Q3,2*
G04 #@! TO.N,Net-(Q3-Pad2)*
X151130000Y-75565000D03*
G04 #@! TO.P,Q3,3*
G04 #@! TO.N,GND*
X151130000Y-78105000D03*
G04 #@! TO.P,Q3,1*
G04 #@! TO.N,Net-(Q3-Pad1)*
X151130000Y-73025000D03*
G04 #@! TD*
G04 #@! TO.P,Q4,1*
G04 #@! TO.N,Net-(Q4-Pad1)*
X142875000Y-73025000D03*
G04 #@! TO.P,Q4,3*
G04 #@! TO.N,GND*
X142875000Y-78105000D03*
G04 #@! TO.P,Q4,2*
G04 #@! TO.N,Net-(Q4-Pad2)*
X142875000Y-75565000D03*
G04 #@! TD*
D31*
G04 #@! TO.P,BT1,+*
G04 #@! TO.N,Net-(BT1-Pad+)*
X65500000Y-50000000D03*
G04 #@! TO.P,BT1,-*
G04 #@! TO.N,Net-(BT1-Pad-)*
X65500000Y-120000000D03*
G04 #@! TD*
D32*
G04 #@! TO.N,GND*
X109855000Y-84455000D03*
X109855000Y-85725000D03*
X109855000Y-86995000D03*
X109855000Y-88265000D03*
X109855000Y-89535000D03*
X109855000Y-90805000D03*
X109855000Y-92075000D03*
X109855000Y-93345000D03*
X111125000Y-93345000D03*
X111125000Y-92075000D03*
X111125000Y-90805000D03*
X111125000Y-89535000D03*
X111125000Y-88265000D03*
X111125000Y-86995000D03*
X111125000Y-85725000D03*
X111125000Y-84455000D03*
X112395000Y-84455000D03*
X112395000Y-85725000D03*
X112395000Y-86995000D03*
X112395000Y-88265000D03*
X112395000Y-89535000D03*
X112395000Y-90805000D03*
X112395000Y-92075000D03*
X112395000Y-93345000D03*
X113665000Y-93345000D03*
X113665000Y-92075000D03*
X113665000Y-90805000D03*
X113665000Y-89535000D03*
X113665000Y-88265000D03*
X113665000Y-86995000D03*
X113665000Y-85725000D03*
X113665000Y-84455000D03*
X114935000Y-84455000D03*
X114935000Y-85725000D03*
X114935000Y-86995000D03*
X114935000Y-88265000D03*
X114935000Y-89535000D03*
X114935000Y-90805000D03*
X114935000Y-92075000D03*
X114935000Y-93345000D03*
X116205000Y-93345000D03*
X116205000Y-92075000D03*
X116205000Y-90805000D03*
X116205000Y-86995000D03*
X116205000Y-85725000D03*
X116205000Y-84455000D03*
X117475000Y-84455000D03*
X117475000Y-85725000D03*
X117475000Y-86995000D03*
X117475000Y-90805000D03*
X117475000Y-92075000D03*
X117475000Y-93345000D03*
X116205000Y-88265000D03*
X117475000Y-88265000D03*
X117475000Y-89535000D03*
X116205000Y-89535000D03*
G04 #@! TO.N,/RTS*
X163830000Y-93980000D03*
X145415000Y-86995000D03*
G04 #@! TO.N,+BATT*
X99695000Y-67945000D03*
G04 #@! TD*
D33*
G04 #@! TO.N,Net-(BT1-Pad+)*
X65500000Y-52333452D02*
X65500000Y-50000000D01*
X65871548Y-52705000D02*
X65500000Y-52333452D01*
X66040000Y-52705000D02*
X65871548Y-52705000D01*
X71755000Y-58420000D02*
X66040000Y-52705000D01*
X78740000Y-58420000D02*
X71755000Y-58420000D01*
G04 #@! TO.N,Net-(BT1-Pad-)*
X65500000Y-97060000D02*
X65500000Y-120000000D01*
X69850000Y-92710000D02*
X65500000Y-97060000D01*
X81280000Y-92710000D02*
X69850000Y-92710000D01*
X96410000Y-71600000D02*
X96410000Y-77580000D01*
X96410000Y-77580000D02*
X81280000Y-92710000D01*
G04 #@! TO.N,Net-(C1-Pad1)*
X117850000Y-64420000D02*
X105280000Y-76990000D01*
X117850000Y-59130000D02*
X117850000Y-64420000D01*
X101525320Y-86360000D02*
X104775000Y-86360000D01*
X100965000Y-85799680D02*
X101525320Y-86360000D01*
X100965000Y-78740000D02*
X100965000Y-85799680D01*
X102715000Y-76990000D02*
X100965000Y-78740000D01*
X105280000Y-76990000D02*
X102715000Y-76990000D01*
X104775000Y-83820000D02*
X104775000Y-86360000D01*
G04 #@! TO.N,+5V*
X121630000Y-119380000D02*
X113030000Y-119380000D01*
X113030000Y-119380000D02*
X99060000Y-105410000D01*
X92710000Y-101600000D02*
X99060000Y-101600000D01*
X99060000Y-105410000D02*
X99060000Y-101600000D01*
X104140000Y-93980000D02*
X104775000Y-93980000D01*
X99060000Y-101600000D02*
X99060000Y-99060000D01*
X99060000Y-99060000D02*
X104140000Y-93980000D01*
X104775000Y-91440000D02*
X104775000Y-93980000D01*
D34*
G04 #@! TO.N,Net-(P1-Pad2)*
X135890000Y-58420000D02*
X135890000Y-54610000D01*
D33*
G04 #@! TO.N,Net-(P2-Pad1)*
X82540000Y-63500000D02*
X87620000Y-68580000D01*
X78740000Y-63500000D02*
X82540000Y-63500000D01*
X87620000Y-68580000D02*
X87630000Y-68580000D01*
X89010000Y-69960000D02*
X89010000Y-71600000D01*
X87630000Y-68580000D02*
X89010000Y-69960000D01*
G04 #@! TO.N,Net-(P3-Pad1)*
X85090000Y-94820000D02*
X85710000Y-94200000D01*
X85090000Y-101600000D02*
X85090000Y-94820000D01*
D34*
G04 #@! TO.N,Net-(P4-Pad1)*
X77470000Y-80010000D02*
X80010000Y-80010000D01*
G04 #@! TO.N,Net-(P4-Pad3)*
X80010000Y-82550000D02*
X77470000Y-82550000D01*
G04 #@! TO.N,Net-(P4-Pad5)*
X80010000Y-85090000D02*
X77470000Y-85090000D01*
G04 #@! TO.N,Net-(P4-Pad7)*
X80010000Y-87630000D02*
X77470000Y-87630000D01*
G04 #@! TO.N,Net-(P5-Pad1)*
X88900000Y-110396400D02*
X88900000Y-111760000D01*
X90076400Y-109220000D02*
X88900000Y-110396400D01*
X96250000Y-109220000D02*
X90076400Y-109220000D01*
G04 #@! TO.N,Net-(P5-Pad2)*
X96250000Y-111760000D02*
X92710000Y-111760000D01*
X92710000Y-111760000D02*
X90805000Y-113665000D01*
X90416000Y-114300000D02*
X88900000Y-114300000D01*
X90805000Y-113911000D02*
X90416000Y-114300000D01*
X90805000Y-113665000D02*
X90805000Y-113911000D01*
G04 #@! TO.N,Net-(P5-Pad3)*
X96250000Y-114300000D02*
X93980000Y-114300000D01*
X91440000Y-116840000D02*
X88900000Y-116840000D01*
X93980000Y-114300000D02*
X91440000Y-116840000D01*
G04 #@! TO.N,Net-(P5-Pad4)*
X90416000Y-119380000D02*
X88900000Y-119380000D01*
X92295787Y-119380000D02*
X90416000Y-119380000D01*
X94835787Y-116840000D02*
X92295787Y-119380000D01*
X96250000Y-116840000D02*
X94835787Y-116840000D01*
G04 #@! TO.N,/RXD*
X165318990Y-88834990D02*
X165484000Y-89000000D01*
X156165010Y-88834990D02*
X165318990Y-88834990D01*
X165484000Y-89000000D02*
X167000000Y-89000000D01*
X156000000Y-89000000D02*
X156165010Y-88834990D01*
G04 #@! TO.N,/TXD*
X156000000Y-91000000D02*
X158555000Y-91000000D01*
X158555000Y-91000000D02*
X159385000Y-90170000D01*
X159385000Y-90170000D02*
X161925000Y-90170000D01*
X163295000Y-91540000D02*
X167000000Y-91540000D01*
X161925000Y-90170000D02*
X163295000Y-91540000D01*
G04 #@! TO.N,/RTS*
X167000000Y-94080000D02*
X163930000Y-94080000D01*
X163930000Y-94080000D02*
X163830000Y-93980000D01*
X144005000Y-86995000D02*
X142000000Y-89000000D01*
X145415000Y-86995000D02*
X144005000Y-86995000D01*
G04 #@! TO.N,/DTR*
X165104000Y-97000000D02*
X156000000Y-97000000D01*
X165484000Y-96620000D02*
X165104000Y-97000000D01*
X167000000Y-96620000D02*
X165484000Y-96620000D01*
G04 #@! TO.N,Net-(P7-Pad1)*
X102870000Y-101600000D02*
X106680000Y-101600000D01*
G04 #@! TO.N,Net-(P8-Pad4)*
X157160000Y-55000000D02*
X154620000Y-55000000D01*
X161000000Y-58840000D02*
X157160000Y-55000000D01*
G04 #@! TO.N,Net-(P8-Pad3)*
X152080000Y-58760000D02*
X152000000Y-58840000D01*
X152080000Y-55000000D02*
X152080000Y-58760000D01*
G04 #@! TO.N,Net-(P8-Pad2)*
X143000000Y-58840000D02*
X147535000Y-58840000D01*
X149540000Y-56835000D02*
X149540000Y-55000000D01*
X147535000Y-58840000D02*
X149540000Y-56835000D01*
G04 #@! TO.N,Net-(Q1-Pad2)*
X137160000Y-86360000D02*
X137160000Y-83820000D01*
X137160000Y-83820000D02*
X139065000Y-81915000D01*
X139065000Y-77470000D02*
X137160000Y-75565000D01*
X139065000Y-81915000D02*
X139065000Y-77470000D01*
G04 #@! TO.N,Net-(Q1-Pad1)*
X136525000Y-68580000D02*
X135890000Y-68580000D01*
X137160000Y-69850000D02*
X135890000Y-68580000D01*
X137160000Y-73025000D02*
X137160000Y-69850000D01*
G04 #@! TO.N,Net-(Q2-Pad2)*
X165000000Y-71413492D02*
X165000000Y-70000000D01*
X165000000Y-73125000D02*
X165000000Y-71413492D01*
X162560000Y-75565000D02*
X165000000Y-73125000D01*
X160655000Y-75565000D02*
X162560000Y-75565000D01*
G04 #@! TO.N,Net-(Q2-Pad1)*
X160655000Y-73025000D02*
X160655000Y-69000000D01*
G04 #@! TO.N,Net-(Q3-Pad1)*
X151130000Y-69870000D02*
X152000000Y-69000000D01*
X151130000Y-73025000D02*
X151130000Y-69870000D01*
G04 #@! TO.N,Net-(Q3-Pad2)*
X151130000Y-75565000D02*
X153670000Y-75565000D01*
X156000000Y-73235000D02*
X156000000Y-70000000D01*
X153670000Y-75565000D02*
X156000000Y-73235000D01*
G04 #@! TO.N,Net-(Q4-Pad1)*
X142875000Y-69125000D02*
X143000000Y-69000000D01*
X142875000Y-73025000D02*
X142875000Y-69125000D01*
G04 #@! TO.N,Net-(Q4-Pad2)*
X147000000Y-71413492D02*
X147000000Y-70000000D01*
X147000000Y-73345000D02*
X147000000Y-71413492D01*
X144780000Y-75565000D02*
X147000000Y-73345000D01*
X142875000Y-75565000D02*
X144780000Y-75565000D01*
D33*
G04 #@! TO.N,+BATT*
X85710000Y-73014213D02*
X86355787Y-73660000D01*
X85710000Y-71600000D02*
X85710000Y-73014213D01*
X86355787Y-73660000D02*
X86360000Y-73660000D01*
X86360000Y-73660000D02*
X87630000Y-74930000D01*
X87630000Y-74930000D02*
X91440000Y-74930000D01*
X91440000Y-74930000D02*
X92710000Y-73660000D01*
D34*
X99695000Y-67945000D02*
X92710000Y-67945000D01*
D33*
X92710000Y-73660000D02*
X92710000Y-67945000D01*
X92710000Y-65690000D02*
X86150000Y-59130000D01*
X92710000Y-67945000D02*
X92710000Y-65690000D01*
D34*
G04 #@! TO.N,Net-(R2-Pad1)*
X142000000Y-91000000D02*
X137600000Y-91000000D01*
X137160000Y-91440000D02*
X133350000Y-91440000D01*
X137600000Y-91000000D02*
X137160000Y-91440000D01*
X133350000Y-95250000D02*
X133350000Y-91440000D01*
G04 #@! TO.N,Net-(R4-Pad2)*
X138680000Y-95000000D02*
X142000000Y-95000000D01*
X137160000Y-96520000D02*
X138680000Y-95000000D01*
G04 #@! TO.N,Net-(R5-Pad1)*
X135255000Y-95250000D02*
X137505000Y-93000000D01*
X137505000Y-93000000D02*
X142000000Y-93000000D01*
X135255000Y-97790000D02*
X135255000Y-95250000D01*
X137160000Y-102870000D02*
X137160000Y-99695000D01*
X137160000Y-99695000D02*
X135255000Y-97790000D01*
G04 #@! TO.N,Net-(R6-Pad2)*
X153035000Y-112395000D02*
X155575000Y-109855000D01*
X155575000Y-109855000D02*
X155575000Y-106045000D01*
X155575000Y-106045000D02*
X154305000Y-104775000D01*
X154305000Y-102695000D02*
X156000000Y-101000000D01*
X154305000Y-104775000D02*
X154305000Y-102695000D01*
G04 #@! TO.N,/DT*
X161000000Y-106573492D02*
X161000000Y-105160000D01*
X121630000Y-114300000D02*
X124460000Y-114300000D01*
X124460000Y-114300000D02*
X126365000Y-116205000D01*
X126365000Y-116205000D02*
X153670000Y-116205000D01*
X153670000Y-116205000D02*
X158115000Y-111760000D01*
X158115000Y-109458492D02*
X161000000Y-106573492D01*
X158115000Y-111760000D02*
X158115000Y-109458492D01*
G04 #@! TO.N,Net-(R7-Pad1)*
X160655000Y-93000000D02*
X161000000Y-93345000D01*
X156000000Y-93000000D02*
X160655000Y-93000000D01*
X161000000Y-95000000D02*
X161000000Y-93345000D01*
X161000000Y-93345000D02*
X161000000Y-92160000D01*
G04 #@! TO.N,Net-(R9-Pad2)*
X153035000Y-101965000D02*
X156000000Y-99000000D01*
X153035000Y-107950000D02*
X153035000Y-101965000D01*
G04 #@! TO.N,/BLUE*
X142000000Y-101000000D02*
X145380000Y-101000000D01*
X145380000Y-101000000D02*
X153035000Y-93345000D01*
X153035000Y-93345000D02*
X153035000Y-88265000D01*
X153035000Y-88265000D02*
X155575000Y-85725000D01*
X155575000Y-85725000D02*
X163830000Y-85725000D01*
X163830000Y-85725000D02*
X165100000Y-84455000D01*
X165000000Y-84355000D02*
X165000000Y-80160000D01*
X165100000Y-84455000D02*
X165000000Y-84355000D01*
G04 #@! TO.N,/GREEN*
X142000000Y-99000000D02*
X144205000Y-99000000D01*
X144205000Y-99000000D02*
X151130000Y-92075000D01*
X151130000Y-85030000D02*
X156000000Y-80160000D01*
X151130000Y-92075000D02*
X151130000Y-85030000D01*
G04 #@! TO.N,/RED*
X142000000Y-97000000D02*
X143030000Y-97000000D01*
X147000000Y-93030000D02*
X147000000Y-80160000D01*
X143030000Y-97000000D02*
X147000000Y-93030000D01*
G04 #@! TO.N,/SCK*
X120015000Y-116840000D02*
X121630000Y-116840000D01*
X118745000Y-109855000D02*
X118745000Y-115570000D01*
X120015000Y-108585000D02*
X118745000Y-109855000D01*
X131445000Y-114935000D02*
X125095000Y-108585000D01*
X118745000Y-115570000D02*
X120015000Y-116840000D01*
X146685000Y-114935000D02*
X131445000Y-114935000D01*
X155190000Y-95000000D02*
X153670000Y-96520000D01*
X156000000Y-95000000D02*
X155190000Y-95000000D01*
X149860000Y-102235000D02*
X149860000Y-111760000D01*
X125095000Y-108585000D02*
X120015000Y-108585000D01*
X153670000Y-96520000D02*
X153670000Y-98425000D01*
X153670000Y-98425000D02*
X149860000Y-102235000D01*
X149860000Y-111760000D02*
X146685000Y-114935000D01*
G04 #@! TD*
D35*
G04 #@! TO.N,+3V3*
G36*
X164265001Y-52427607D02*
X164250601Y-52500000D01*
X164307646Y-52786783D01*
X164470095Y-53029905D01*
X164713217Y-53192354D01*
X164927612Y-53235000D01*
X165000000Y-53249399D01*
X165072388Y-53235000D01*
X174290000Y-53235000D01*
X174290001Y-116765000D01*
X165072388Y-116765000D01*
X165000000Y-116750601D01*
X164927612Y-116765000D01*
X164713217Y-116807646D01*
X164470095Y-116970095D01*
X164307646Y-117213217D01*
X164250601Y-117500000D01*
X164265000Y-117572388D01*
X164265001Y-126790000D01*
X60735000Y-126790000D01*
X60735000Y-119545485D01*
X63215000Y-119545485D01*
X63215000Y-120454515D01*
X63562870Y-121294349D01*
X64205651Y-121937130D01*
X65045485Y-122285000D01*
X65954515Y-122285000D01*
X66772864Y-121946029D01*
X70715000Y-121946029D01*
X70715000Y-123053971D01*
X71138991Y-124077576D01*
X71922424Y-124861009D01*
X72946029Y-125285000D01*
X74053971Y-125285000D01*
X75077576Y-124861009D01*
X75861009Y-124077576D01*
X76285000Y-123053971D01*
X76285000Y-121946029D01*
X75861009Y-120922424D01*
X75077576Y-120138991D01*
X74053971Y-119715000D01*
X72946029Y-119715000D01*
X71922424Y-120138991D01*
X71138991Y-120922424D01*
X70715000Y-121946029D01*
X66772864Y-121946029D01*
X66794349Y-121937130D01*
X67437130Y-121294349D01*
X67785000Y-120454515D01*
X67785000Y-119545485D01*
X67437130Y-118705651D01*
X67135000Y-118403521D01*
X67135000Y-114300000D01*
X87219641Y-114300000D01*
X87335950Y-114884725D01*
X87667170Y-115380430D01*
X87950881Y-115570000D01*
X87667170Y-115759570D01*
X87335950Y-116255275D01*
X87219641Y-116840000D01*
X87335950Y-117424725D01*
X87667170Y-117920430D01*
X87950881Y-118110000D01*
X87667170Y-118299570D01*
X87335950Y-118795275D01*
X87219641Y-119380000D01*
X87335950Y-119964725D01*
X87667170Y-120460430D01*
X87950881Y-120650000D01*
X87667170Y-120839570D01*
X87335950Y-121335275D01*
X87219641Y-121920000D01*
X87335950Y-122504725D01*
X87667170Y-123000430D01*
X88162875Y-123331650D01*
X88600002Y-123418600D01*
X89199998Y-123418600D01*
X89637125Y-123331650D01*
X90132830Y-123000430D01*
X90464050Y-122504725D01*
X90580359Y-121920000D01*
X90464050Y-121335275D01*
X90132830Y-120839570D01*
X89849119Y-120650000D01*
X90132830Y-120460430D01*
X90263412Y-120265000D01*
X92208626Y-120265000D01*
X92295787Y-120282337D01*
X92382948Y-120265000D01*
X92382952Y-120265000D01*
X92641097Y-120213652D01*
X92933836Y-120018049D01*
X92983212Y-119944153D01*
X95012563Y-117914802D01*
X95207761Y-118110000D01*
X94863914Y-118453847D01*
X94615000Y-119054778D01*
X94615000Y-119705222D01*
X94863914Y-120306153D01*
X95207761Y-120650000D01*
X94863914Y-120993847D01*
X94615000Y-121594778D01*
X94615000Y-122245222D01*
X94863914Y-122846153D01*
X95323847Y-123306086D01*
X95924778Y-123555000D01*
X96575222Y-123555000D01*
X97176153Y-123306086D01*
X97636086Y-122846153D01*
X97885000Y-122245222D01*
X97885000Y-121946029D01*
X148715000Y-121946029D01*
X148715000Y-123053971D01*
X149138991Y-124077576D01*
X149922424Y-124861009D01*
X150946029Y-125285000D01*
X152053971Y-125285000D01*
X153077576Y-124861009D01*
X153861009Y-124077576D01*
X154285000Y-123053971D01*
X154285000Y-121946029D01*
X153861009Y-120922424D01*
X153077576Y-120138991D01*
X152053971Y-119715000D01*
X150946029Y-119715000D01*
X149922424Y-120138991D01*
X149138991Y-120922424D01*
X148715000Y-121946029D01*
X97885000Y-121946029D01*
X97885000Y-121594778D01*
X97636086Y-120993847D01*
X97292239Y-120650000D01*
X97636086Y-120306153D01*
X97885000Y-119705222D01*
X97885000Y-119054778D01*
X97636086Y-118453847D01*
X97292239Y-118110000D01*
X97636086Y-117766153D01*
X97885000Y-117165222D01*
X97885000Y-116514778D01*
X97636086Y-115913847D01*
X97292239Y-115570000D01*
X97636086Y-115226153D01*
X97885000Y-114625222D01*
X97885000Y-113974778D01*
X97636086Y-113373847D01*
X97292239Y-113030000D01*
X97636086Y-112686153D01*
X97885000Y-112085222D01*
X97885000Y-111434778D01*
X97636086Y-110833847D01*
X97292239Y-110490000D01*
X97636086Y-110146153D01*
X97885000Y-109545222D01*
X97885000Y-108894778D01*
X97636086Y-108293847D01*
X97176153Y-107833914D01*
X96575222Y-107585000D01*
X95924778Y-107585000D01*
X95323847Y-107833914D01*
X94863914Y-108293847D01*
X94846868Y-108335000D01*
X90163561Y-108335000D01*
X90076400Y-108317663D01*
X89989239Y-108335000D01*
X89989235Y-108335000D01*
X89731090Y-108386348D01*
X89512245Y-108532576D01*
X89512244Y-108532577D01*
X89438351Y-108581951D01*
X89388977Y-108655844D01*
X88335847Y-109708975D01*
X88261951Y-109758351D01*
X88066348Y-110051091D01*
X88026990Y-110248960D01*
X87884000Y-110248960D01*
X87636235Y-110298243D01*
X87426191Y-110438591D01*
X87285843Y-110648635D01*
X87236560Y-110896400D01*
X87236560Y-112623600D01*
X87285843Y-112871365D01*
X87426191Y-113081409D01*
X87636235Y-113221757D01*
X87662251Y-113226932D01*
X87335950Y-113715275D01*
X87219641Y-114300000D01*
X67135000Y-114300000D01*
X67135000Y-102651181D01*
X78475000Y-102651181D01*
X78564062Y-103098926D01*
X78903327Y-103606673D01*
X79411073Y-103945938D01*
X80010000Y-104065072D01*
X80608926Y-103945938D01*
X81116673Y-103606673D01*
X81455938Y-103098927D01*
X81545000Y-102651182D01*
X81545000Y-100548818D01*
X81455938Y-100101073D01*
X81116673Y-99593327D01*
X80608927Y-99254062D01*
X80010000Y-99134928D01*
X79411074Y-99254062D01*
X78903328Y-99593327D01*
X78564063Y-100101073D01*
X78475001Y-100548818D01*
X78475000Y-102651181D01*
X67135000Y-102651181D01*
X67135000Y-97737238D01*
X67326753Y-97545485D01*
X73215000Y-97545485D01*
X73215000Y-98454515D01*
X73562870Y-99294349D01*
X74205651Y-99937130D01*
X75045485Y-100285000D01*
X75954515Y-100285000D01*
X76794349Y-99937130D01*
X77437130Y-99294349D01*
X77785000Y-98454515D01*
X77785000Y-97545485D01*
X77437130Y-96705651D01*
X76794349Y-96062870D01*
X75954515Y-95715000D01*
X75045485Y-95715000D01*
X74205651Y-96062870D01*
X73562870Y-96705651D01*
X73215000Y-97545485D01*
X67326753Y-97545485D01*
X70052238Y-94820000D01*
X83422969Y-94820000D01*
X83455001Y-94981034D01*
X83455000Y-101761030D01*
X83542560Y-102201224D01*
X83542560Y-103400000D01*
X83591843Y-103647765D01*
X83732191Y-103857809D01*
X83942235Y-103998157D01*
X84190000Y-104047440D01*
X85990000Y-104047440D01*
X86237765Y-103998157D01*
X86447809Y-103857809D01*
X86588157Y-103647765D01*
X86637440Y-103400000D01*
X86637440Y-102201225D01*
X86725000Y-101761031D01*
X86725000Y-101600000D01*
X91042969Y-101600000D01*
X91075510Y-101763595D01*
X91075510Y-101925120D01*
X91137323Y-102074350D01*
X91169864Y-102237945D01*
X91262533Y-102376634D01*
X91324346Y-102525864D01*
X91438562Y-102640080D01*
X91531231Y-102778769D01*
X91669920Y-102871438D01*
X91784136Y-102985654D01*
X91933366Y-103047467D01*
X92072055Y-103140136D01*
X92235650Y-103172677D01*
X92384880Y-103234490D01*
X92546405Y-103234490D01*
X92548969Y-103235000D01*
X97425001Y-103235000D01*
X97425000Y-105248970D01*
X97392969Y-105410000D01*
X97425000Y-105571030D01*
X97519864Y-106047944D01*
X97881231Y-106588769D01*
X98017750Y-106679988D01*
X111760014Y-120422253D01*
X111851231Y-120558769D01*
X112392055Y-120920136D01*
X112868969Y-121015000D01*
X112868973Y-121015000D01*
X113029999Y-121047030D01*
X113191025Y-121015000D01*
X121955222Y-121015000D01*
X122106914Y-120952167D01*
X122267945Y-120920136D01*
X122404461Y-120828919D01*
X122556153Y-120766086D01*
X122672253Y-120649986D01*
X122808769Y-120558769D01*
X122899986Y-120422253D01*
X123016086Y-120306153D01*
X123078919Y-120154461D01*
X123170136Y-120017945D01*
X123202167Y-119856914D01*
X123265000Y-119705222D01*
X123265000Y-119541031D01*
X123297031Y-119380000D01*
X123265000Y-119218969D01*
X123265000Y-119054778D01*
X123202167Y-118903086D01*
X123170136Y-118742055D01*
X123078919Y-118605539D01*
X123016086Y-118453847D01*
X122899985Y-118337746D01*
X122808769Y-118201231D01*
X122672253Y-118110014D01*
X122672239Y-118110000D01*
X123016086Y-117766153D01*
X123265000Y-117165222D01*
X123265000Y-116514778D01*
X123016086Y-115913847D01*
X122672239Y-115570000D01*
X123016086Y-115226153D01*
X123033132Y-115185000D01*
X124093422Y-115185000D01*
X125677577Y-116769156D01*
X125726951Y-116843049D01*
X125800844Y-116892423D01*
X125800845Y-116892424D01*
X125917088Y-116970095D01*
X126019690Y-117038652D01*
X126277835Y-117090000D01*
X126277839Y-117090000D01*
X126365000Y-117107337D01*
X126452161Y-117090000D01*
X153582839Y-117090000D01*
X153670000Y-117107337D01*
X153757161Y-117090000D01*
X153757165Y-117090000D01*
X154015310Y-117038652D01*
X154308049Y-116843049D01*
X154357425Y-116769153D01*
X158679156Y-112447423D01*
X158753049Y-112398049D01*
X158948652Y-112105310D01*
X159000000Y-111847165D01*
X159000000Y-111847161D01*
X159017337Y-111760001D01*
X159000000Y-111672841D01*
X159000000Y-109825070D01*
X161564156Y-107260915D01*
X161638049Y-107211541D01*
X161833652Y-106918802D01*
X161885000Y-106660657D01*
X161885000Y-106660653D01*
X161902337Y-106573493D01*
X161899012Y-106556776D01*
X161925864Y-106545654D01*
X162385654Y-106085864D01*
X162634490Y-105485120D01*
X162634490Y-104834880D01*
X162385654Y-104234136D01*
X161925864Y-103774346D01*
X161325120Y-103525510D01*
X160674880Y-103525510D01*
X160074136Y-103774346D01*
X159614346Y-104234136D01*
X159365510Y-104834880D01*
X159365510Y-105485120D01*
X159614346Y-106085864D01*
X159925198Y-106396716D01*
X157550845Y-108771069D01*
X157476952Y-108820443D01*
X157427578Y-108894336D01*
X157427576Y-108894338D01*
X157281348Y-109113183D01*
X157212663Y-109458492D01*
X157230001Y-109545657D01*
X157230000Y-111393421D01*
X153303422Y-115320000D01*
X147551578Y-115320000D01*
X150424156Y-112447423D01*
X150498049Y-112398049D01*
X150693652Y-112105310D01*
X150745000Y-111847165D01*
X150745000Y-111847160D01*
X150762337Y-111760001D01*
X150745000Y-111672841D01*
X150745000Y-102601578D01*
X154234156Y-99112423D01*
X154308049Y-99063049D01*
X154417685Y-98898969D01*
X154503652Y-98770310D01*
X154512261Y-98727031D01*
X154555000Y-98512165D01*
X154555000Y-98512161D01*
X154572337Y-98425000D01*
X154555000Y-98337839D01*
X154555000Y-96886578D01*
X154878742Y-96562836D01*
X154791785Y-97000000D01*
X154883755Y-97462364D01*
X155145663Y-97854337D01*
X155363663Y-98000000D01*
X155145663Y-98145663D01*
X154883755Y-98537636D01*
X154802552Y-98945869D01*
X152470845Y-101277577D01*
X152396952Y-101326951D01*
X152347578Y-101400844D01*
X152347576Y-101400846D01*
X152201348Y-101619691D01*
X152132663Y-101965000D01*
X152150001Y-102052165D01*
X152150000Y-106547419D01*
X152109136Y-106564346D01*
X151649346Y-107024136D01*
X151400510Y-107624880D01*
X151400510Y-108275120D01*
X151649346Y-108875864D01*
X152109136Y-109335654D01*
X152709880Y-109584490D01*
X153360120Y-109584490D01*
X153960864Y-109335654D01*
X154420654Y-108875864D01*
X154669490Y-108275120D01*
X154669490Y-107624880D01*
X154420654Y-107024136D01*
X153960864Y-106564346D01*
X153920000Y-106547420D01*
X153920000Y-105641578D01*
X154690001Y-106411580D01*
X154690000Y-109488421D01*
X153400985Y-110777437D01*
X153360120Y-110760510D01*
X152709880Y-110760510D01*
X152109136Y-111009346D01*
X151649346Y-111469136D01*
X151400510Y-112069880D01*
X151400510Y-112720120D01*
X151649346Y-113320864D01*
X152109136Y-113780654D01*
X152709880Y-114029490D01*
X153360120Y-114029490D01*
X153960864Y-113780654D01*
X154420654Y-113320864D01*
X154669490Y-112720120D01*
X154669490Y-112069880D01*
X154652563Y-112029015D01*
X156139156Y-110542423D01*
X156213049Y-110493049D01*
X156408652Y-110200310D01*
X156460000Y-109942165D01*
X156460000Y-109942161D01*
X156477337Y-109855001D01*
X156460000Y-109767841D01*
X156460000Y-106132159D01*
X156477337Y-106044999D01*
X156460000Y-105957839D01*
X156460000Y-105957835D01*
X156408652Y-105699690D01*
X156213049Y-105406951D01*
X156139156Y-105357577D01*
X155190000Y-104408422D01*
X155190000Y-103883962D01*
X155537636Y-104116245D01*
X155883290Y-104185000D01*
X157516710Y-104185000D01*
X157862364Y-104116245D01*
X158254337Y-103854337D01*
X158516245Y-103462364D01*
X158608215Y-103000000D01*
X158516245Y-102537636D01*
X158254337Y-102145663D01*
X157986337Y-101966591D01*
X158154337Y-101854337D01*
X158416245Y-101462364D01*
X158508215Y-101000000D01*
X158416245Y-100537636D01*
X158154337Y-100145663D01*
X157986337Y-100033409D01*
X158254337Y-99854337D01*
X158516245Y-99462364D01*
X158608215Y-99000000D01*
X158516245Y-98537636D01*
X158254337Y-98145663D01*
X158036337Y-98000000D01*
X158208447Y-97885000D01*
X165016839Y-97885000D01*
X165104000Y-97902337D01*
X165191161Y-97885000D01*
X165191165Y-97885000D01*
X165449310Y-97833652D01*
X165730600Y-97645699D01*
X165767170Y-97700430D01*
X166262875Y-98031650D01*
X166700002Y-98118600D01*
X167299998Y-98118600D01*
X167737125Y-98031650D01*
X168232830Y-97700430D01*
X168564050Y-97204725D01*
X168680359Y-96620000D01*
X168564050Y-96035275D01*
X168232830Y-95539570D01*
X167949119Y-95350000D01*
X168232830Y-95160430D01*
X168564050Y-94664725D01*
X168680359Y-94080000D01*
X168564050Y-93495275D01*
X168232830Y-92999570D01*
X167949119Y-92810000D01*
X168232830Y-92620430D01*
X168564050Y-92124725D01*
X168680359Y-91540000D01*
X168564050Y-90955275D01*
X168237749Y-90466932D01*
X168263765Y-90461757D01*
X168473809Y-90321409D01*
X168614157Y-90111365D01*
X168663440Y-89863600D01*
X168663440Y-88136400D01*
X168614157Y-87888635D01*
X168473809Y-87678591D01*
X168263765Y-87538243D01*
X168016000Y-87488960D01*
X165984000Y-87488960D01*
X165736235Y-87538243D01*
X165526191Y-87678591D01*
X165385843Y-87888635D01*
X165374876Y-87943769D01*
X165318990Y-87932653D01*
X165231829Y-87949990D01*
X157961492Y-87949990D01*
X157862364Y-87883755D01*
X157516710Y-87815000D01*
X155883290Y-87815000D01*
X155537636Y-87883755D01*
X155145663Y-88145663D01*
X154883755Y-88537636D01*
X154791785Y-89000000D01*
X154883755Y-89462364D01*
X155145663Y-89854337D01*
X155363663Y-90000000D01*
X155145663Y-90145663D01*
X154883755Y-90537636D01*
X154791785Y-91000000D01*
X154883755Y-91462364D01*
X155145663Y-91854337D01*
X155363663Y-92000000D01*
X155145663Y-92145663D01*
X154883755Y-92537636D01*
X154791785Y-93000000D01*
X154883755Y-93462364D01*
X155145663Y-93854337D01*
X155363663Y-94000000D01*
X155211192Y-94101878D01*
X155190000Y-94097663D01*
X155102839Y-94115000D01*
X155102835Y-94115000D01*
X154844690Y-94166348D01*
X154625845Y-94312576D01*
X154625844Y-94312577D01*
X154551951Y-94361951D01*
X154502577Y-94435844D01*
X153105847Y-95832575D01*
X153031951Y-95881951D01*
X152836348Y-96174691D01*
X152785000Y-96432836D01*
X152785000Y-96432839D01*
X152767663Y-96520000D01*
X152785000Y-96607161D01*
X152785001Y-98058420D01*
X149295847Y-101547575D01*
X149221951Y-101596951D01*
X149026348Y-101889691D01*
X148975000Y-102147836D01*
X148975000Y-102147839D01*
X148957663Y-102235000D01*
X148975000Y-102322161D01*
X148975001Y-111393420D01*
X146318422Y-114050000D01*
X138359608Y-114050000D01*
X138312164Y-114002556D01*
X138578965Y-113903958D01*
X138805401Y-113294418D01*
X138781341Y-112644623D01*
X138578965Y-112156042D01*
X138345817Y-112069880D01*
X141240510Y-112069880D01*
X141240510Y-112720120D01*
X141489346Y-113320864D01*
X141949136Y-113780654D01*
X142549880Y-114029490D01*
X143200120Y-114029490D01*
X143800864Y-113780654D01*
X144260654Y-113320864D01*
X144509490Y-112720120D01*
X144509490Y-112069880D01*
X144260654Y-111469136D01*
X143800864Y-111009346D01*
X143200120Y-110760510D01*
X142549880Y-110760510D01*
X141949136Y-111009346D01*
X141489346Y-111469136D01*
X141240510Y-112069880D01*
X138345817Y-112069880D01*
X138312163Y-112057443D01*
X137339605Y-113030000D01*
X137353748Y-113044142D01*
X137174142Y-113223748D01*
X137160000Y-113209605D01*
X137145858Y-113223748D01*
X136966252Y-113044142D01*
X136980395Y-113030000D01*
X136007837Y-112057443D01*
X135741035Y-112156042D01*
X135514599Y-112765582D01*
X135538659Y-113415377D01*
X135741035Y-113903958D01*
X136007836Y-114002556D01*
X135960392Y-114050000D01*
X131811579Y-114050000D01*
X129639416Y-111877837D01*
X136187443Y-111877837D01*
X137160000Y-112850395D01*
X138132557Y-111877837D01*
X138033958Y-111611035D01*
X137424418Y-111384599D01*
X136774623Y-111408659D01*
X136286042Y-111611035D01*
X136187443Y-111877837D01*
X129639416Y-111877837D01*
X126863742Y-109102163D01*
X141902443Y-109102163D01*
X142001042Y-109368965D01*
X142610582Y-109595401D01*
X143260377Y-109571341D01*
X143748958Y-109368965D01*
X143847557Y-109102163D01*
X142875000Y-108129605D01*
X141902443Y-109102163D01*
X126863742Y-109102163D01*
X125782425Y-108020847D01*
X125733049Y-107946951D01*
X125440310Y-107751348D01*
X125182165Y-107700000D01*
X125182161Y-107700000D01*
X125109676Y-107685582D01*
X141229599Y-107685582D01*
X141253659Y-108335377D01*
X141456035Y-108823958D01*
X141722837Y-108922557D01*
X142695395Y-107950000D01*
X143054605Y-107950000D01*
X144027163Y-108922557D01*
X144293965Y-108823958D01*
X144520401Y-108214418D01*
X144496341Y-107564623D01*
X144293965Y-107076042D01*
X144027163Y-106977443D01*
X143054605Y-107950000D01*
X142695395Y-107950000D01*
X141722837Y-106977443D01*
X141456035Y-107076042D01*
X141229599Y-107685582D01*
X125109676Y-107685582D01*
X125095000Y-107682663D01*
X125007839Y-107700000D01*
X120102159Y-107700000D01*
X120014999Y-107682663D01*
X119927839Y-107700000D01*
X119927835Y-107700000D01*
X119669690Y-107751348D01*
X119561880Y-107823385D01*
X119450845Y-107897576D01*
X119450844Y-107897577D01*
X119376951Y-107946951D01*
X119327577Y-108020844D01*
X118180847Y-109167575D01*
X118106951Y-109216951D01*
X117911348Y-109509691D01*
X117860000Y-109767836D01*
X117860000Y-109767839D01*
X117842663Y-109855000D01*
X117860000Y-109942161D01*
X117860001Y-115482835D01*
X117842663Y-115570000D01*
X117911348Y-115915309D01*
X118057576Y-116134154D01*
X118057578Y-116134156D01*
X118106952Y-116208049D01*
X118180845Y-116257423D01*
X119327576Y-117404155D01*
X119376951Y-117478049D01*
X119450844Y-117527423D01*
X119450845Y-117527424D01*
X119514452Y-117569925D01*
X119669690Y-117673652D01*
X119927835Y-117725000D01*
X119927839Y-117725000D01*
X120014999Y-117742337D01*
X120102159Y-117725000D01*
X120226868Y-117725000D01*
X120235152Y-117745000D01*
X113707239Y-117745000D01*
X101047119Y-105084880D01*
X131715510Y-105084880D01*
X131715510Y-105735120D01*
X131964346Y-106335864D01*
X132424136Y-106795654D01*
X133024880Y-107044490D01*
X133675120Y-107044490D01*
X134270593Y-106797837D01*
X141902443Y-106797837D01*
X142875000Y-107770395D01*
X143847557Y-106797837D01*
X143748958Y-106531035D01*
X143139418Y-106304599D01*
X142489623Y-106328659D01*
X142001042Y-106531035D01*
X141902443Y-106797837D01*
X134270593Y-106797837D01*
X134275864Y-106795654D01*
X134735654Y-106335864D01*
X134984490Y-105735120D01*
X134984490Y-105084880D01*
X134735654Y-104484136D01*
X134275864Y-104024346D01*
X133675120Y-103775510D01*
X133024880Y-103775510D01*
X132424136Y-104024346D01*
X131964346Y-104484136D01*
X131715510Y-105084880D01*
X101047119Y-105084880D01*
X100695000Y-104732762D01*
X100695000Y-101761030D01*
X100727031Y-101600000D01*
X100695000Y-101438969D01*
X100695000Y-101274880D01*
X101235510Y-101274880D01*
X101235510Y-101925120D01*
X101484346Y-102525864D01*
X101944136Y-102985654D01*
X102544880Y-103234490D01*
X103195120Y-103234490D01*
X103795864Y-102985654D01*
X104255654Y-102525864D01*
X104272580Y-102485000D01*
X105016560Y-102485000D01*
X105016560Y-102616000D01*
X105065843Y-102863765D01*
X105206191Y-103073809D01*
X105416235Y-103214157D01*
X105664000Y-103263440D01*
X107696000Y-103263440D01*
X107943765Y-103214157D01*
X108153809Y-103073809D01*
X108246463Y-102935144D01*
X108575812Y-103155208D01*
X109057391Y-103251000D01*
X109382609Y-103251000D01*
X109864188Y-103155208D01*
X110410305Y-102790305D01*
X110775208Y-102244188D01*
X110903345Y-101600000D01*
X110775208Y-100955812D01*
X110410305Y-100409695D01*
X109864188Y-100044792D01*
X109382609Y-99949000D01*
X109057391Y-99949000D01*
X108575812Y-100044792D01*
X108246463Y-100264856D01*
X108153809Y-100126191D01*
X107943765Y-99985843D01*
X107696000Y-99936560D01*
X105664000Y-99936560D01*
X105416235Y-99985843D01*
X105206191Y-100126191D01*
X105065843Y-100336235D01*
X105016560Y-100584000D01*
X105016560Y-100715000D01*
X104272580Y-100715000D01*
X104255654Y-100674136D01*
X103795864Y-100214346D01*
X103195120Y-99965510D01*
X102544880Y-99965510D01*
X101944136Y-100214346D01*
X101484346Y-100674136D01*
X101235510Y-101274880D01*
X100695000Y-101274880D01*
X100695000Y-99737238D01*
X103550522Y-96881716D01*
X103685629Y-97207894D01*
X104047106Y-97569371D01*
X104519398Y-97765000D01*
X105030602Y-97765000D01*
X105502894Y-97569371D01*
X105864371Y-97207894D01*
X106060000Y-96735602D01*
X106060000Y-96224398D01*
X105864371Y-95752106D01*
X105544499Y-95432234D01*
X105953769Y-95158769D01*
X106315136Y-94617945D01*
X106442031Y-93980000D01*
X106410000Y-93818969D01*
X106410000Y-92233980D01*
X106579288Y-91980622D01*
X106680000Y-91474307D01*
X106680000Y-94615000D01*
X106728336Y-94858004D01*
X106865987Y-95064013D01*
X107071996Y-95201664D01*
X107315000Y-95250000D01*
X127000000Y-95250000D01*
X127243004Y-95201664D01*
X127449013Y-95064013D01*
X127586664Y-94858004D01*
X127635000Y-94615000D01*
X127635000Y-91114880D01*
X131715510Y-91114880D01*
X131715510Y-91765120D01*
X131964346Y-92365864D01*
X132424136Y-92825654D01*
X132465001Y-92842581D01*
X132465000Y-93847419D01*
X132424136Y-93864346D01*
X131964346Y-94324136D01*
X131715510Y-94924880D01*
X131715510Y-95575120D01*
X131964346Y-96175864D01*
X132424136Y-96635654D01*
X133024880Y-96884490D01*
X133675120Y-96884490D01*
X134275864Y-96635654D01*
X134370000Y-96541518D01*
X134370000Y-97702839D01*
X134352663Y-97790000D01*
X134370000Y-97877161D01*
X134370000Y-97877164D01*
X134421348Y-98135309D01*
X134616951Y-98428049D01*
X134690847Y-98477425D01*
X136275001Y-100061580D01*
X136275000Y-101467419D01*
X136234136Y-101484346D01*
X135774346Y-101944136D01*
X135525510Y-102544880D01*
X135525510Y-103195120D01*
X135774346Y-103795864D01*
X136234136Y-104255654D01*
X136834880Y-104504490D01*
X137485120Y-104504490D01*
X138085864Y-104255654D01*
X138545654Y-103795864D01*
X138747011Y-103309744D01*
X139456197Y-103309744D01*
X139456602Y-103336146D01*
X139672276Y-103748118D01*
X140029187Y-104046196D01*
X140473000Y-104185000D01*
X141173000Y-104185000D01*
X141173000Y-103127000D01*
X141427000Y-103127000D01*
X141427000Y-104185000D01*
X142127000Y-104185000D01*
X142570813Y-104046196D01*
X142927724Y-103748118D01*
X143143398Y-103336146D01*
X143143803Y-103309744D01*
X143018361Y-103127000D01*
X141427000Y-103127000D01*
X141173000Y-103127000D01*
X139581639Y-103127000D01*
X139456197Y-103309744D01*
X138747011Y-103309744D01*
X138794490Y-103195120D01*
X138794490Y-102544880D01*
X138545654Y-101944136D01*
X138085864Y-101484346D01*
X138045000Y-101467420D01*
X138045000Y-99782161D01*
X138062337Y-99695000D01*
X138045000Y-99607839D01*
X138045000Y-99607835D01*
X137993652Y-99349690D01*
X137894863Y-99201843D01*
X137847424Y-99130845D01*
X137847423Y-99130844D01*
X137798049Y-99056951D01*
X137724156Y-99007577D01*
X136871069Y-98154490D01*
X137485120Y-98154490D01*
X138085864Y-97905654D01*
X138545654Y-97445864D01*
X138794490Y-96845120D01*
X138794490Y-96194880D01*
X138777563Y-96154015D01*
X139046579Y-95885000D01*
X139791553Y-95885000D01*
X139963663Y-96000000D01*
X139745663Y-96145663D01*
X139483755Y-96537636D01*
X139391785Y-97000000D01*
X139483755Y-97462364D01*
X139745663Y-97854337D01*
X139963663Y-98000000D01*
X139745663Y-98145663D01*
X139483755Y-98537636D01*
X139391785Y-99000000D01*
X139483755Y-99462364D01*
X139745663Y-99854337D01*
X139963663Y-100000000D01*
X139745663Y-100145663D01*
X139483755Y-100537636D01*
X139391785Y-101000000D01*
X139483755Y-101462364D01*
X139745663Y-101854337D01*
X139969335Y-102003790D01*
X139672276Y-102251882D01*
X139456602Y-102663854D01*
X139456197Y-102690256D01*
X139581639Y-102873000D01*
X141173000Y-102873000D01*
X141173000Y-102853000D01*
X141427000Y-102853000D01*
X141427000Y-102873000D01*
X143018361Y-102873000D01*
X143143803Y-102690256D01*
X143143398Y-102663854D01*
X142927724Y-102251882D01*
X142630665Y-102003790D01*
X142808447Y-101885000D01*
X145292839Y-101885000D01*
X145380000Y-101902337D01*
X145467161Y-101885000D01*
X145467165Y-101885000D01*
X145725310Y-101833652D01*
X146018049Y-101638049D01*
X146067425Y-101564153D01*
X153599156Y-94032422D01*
X153673049Y-93983049D01*
X153736046Y-93888769D01*
X153868652Y-93690310D01*
X153879715Y-93634691D01*
X153920000Y-93432165D01*
X153920000Y-93432161D01*
X153937337Y-93345000D01*
X153920000Y-93257839D01*
X153920000Y-88631578D01*
X155941579Y-86610000D01*
X163742839Y-86610000D01*
X163830000Y-86627337D01*
X163917161Y-86610000D01*
X163917165Y-86610000D01*
X164175310Y-86558652D01*
X164468049Y-86363049D01*
X164517425Y-86289153D01*
X165664157Y-85142422D01*
X165738049Y-85093049D01*
X165787422Y-85019157D01*
X165787424Y-85019155D01*
X165933651Y-84800311D01*
X166002337Y-84455001D01*
X166001731Y-84451951D01*
X165933651Y-84109690D01*
X165885000Y-84036879D01*
X165885000Y-81562580D01*
X165925864Y-81545654D01*
X166385654Y-81085864D01*
X166634490Y-80485120D01*
X166634490Y-79834880D01*
X166385654Y-79234136D01*
X165925864Y-78774346D01*
X165325120Y-78525510D01*
X164674880Y-78525510D01*
X164074136Y-78774346D01*
X163614346Y-79234136D01*
X163365510Y-79834880D01*
X163365510Y-80485120D01*
X163614346Y-81085864D01*
X164074136Y-81545654D01*
X164115001Y-81562581D01*
X164115000Y-84188421D01*
X163463422Y-84840000D01*
X155662159Y-84840000D01*
X155574999Y-84822663D01*
X155487839Y-84840000D01*
X155487835Y-84840000D01*
X155229690Y-84891348D01*
X155229688Y-84891349D01*
X155229689Y-84891349D01*
X155010845Y-85037576D01*
X155010844Y-85037577D01*
X154936951Y-85086951D01*
X154887577Y-85160844D01*
X152470845Y-87577577D01*
X152396952Y-87626951D01*
X152347578Y-87700844D01*
X152347576Y-87700846D01*
X152201348Y-87919691D01*
X152132663Y-88265000D01*
X152150001Y-88352165D01*
X152150000Y-92978421D01*
X145013422Y-100115000D01*
X142808447Y-100115000D01*
X142636337Y-100000000D01*
X142808447Y-99885000D01*
X144117839Y-99885000D01*
X144205000Y-99902337D01*
X144292161Y-99885000D01*
X144292165Y-99885000D01*
X144550310Y-99833652D01*
X144843049Y-99638049D01*
X144892425Y-99564153D01*
X151694156Y-92762422D01*
X151768049Y-92713049D01*
X151829936Y-92620430D01*
X151963652Y-92420310D01*
X151979114Y-92342576D01*
X152015000Y-92162165D01*
X152015000Y-92162161D01*
X152032337Y-92075000D01*
X152015000Y-91987839D01*
X152015000Y-85396578D01*
X155634015Y-81777563D01*
X155674880Y-81794490D01*
X156325120Y-81794490D01*
X156613884Y-81674880D01*
X159365510Y-81674880D01*
X159365510Y-82325120D01*
X159614346Y-82925864D01*
X160074136Y-83385654D01*
X160674880Y-83634490D01*
X161325120Y-83634490D01*
X161925864Y-83385654D01*
X162385654Y-82925864D01*
X162634490Y-82325120D01*
X162634490Y-81674880D01*
X162385654Y-81074136D01*
X161925864Y-80614346D01*
X161325120Y-80365510D01*
X160674880Y-80365510D01*
X160074136Y-80614346D01*
X159614346Y-81074136D01*
X159365510Y-81674880D01*
X156613884Y-81674880D01*
X156925864Y-81545654D01*
X157385654Y-81085864D01*
X157634490Y-80485120D01*
X157634490Y-79834880D01*
X157385654Y-79234136D01*
X156925864Y-78774346D01*
X156325120Y-78525510D01*
X155674880Y-78525510D01*
X155074136Y-78774346D01*
X154614346Y-79234136D01*
X154365510Y-79834880D01*
X154365510Y-80485120D01*
X154382437Y-80525985D01*
X150565845Y-84342577D01*
X150491952Y-84391951D01*
X150442578Y-84465844D01*
X150442576Y-84465846D01*
X150296348Y-84684691D01*
X150227663Y-85030000D01*
X150245001Y-85117165D01*
X150245000Y-91708421D01*
X143838422Y-98115000D01*
X142808447Y-98115000D01*
X142636337Y-98000000D01*
X142808447Y-97885000D01*
X142942839Y-97885000D01*
X143030000Y-97902337D01*
X143117161Y-97885000D01*
X143117165Y-97885000D01*
X143375310Y-97833652D01*
X143668049Y-97638049D01*
X143717425Y-97564153D01*
X147564156Y-93717423D01*
X147638049Y-93668049D01*
X147708873Y-93562055D01*
X147833652Y-93375310D01*
X147839619Y-93345310D01*
X147885000Y-93117165D01*
X147885000Y-93117161D01*
X147902337Y-93030000D01*
X147885000Y-92942839D01*
X147885000Y-81562580D01*
X147925864Y-81545654D01*
X148385654Y-81085864D01*
X148634490Y-80485120D01*
X148634490Y-79834880D01*
X148385654Y-79234136D01*
X147925864Y-78774346D01*
X147325120Y-78525510D01*
X146674880Y-78525510D01*
X146074136Y-78774346D01*
X145614346Y-79234136D01*
X145365510Y-79834880D01*
X145365510Y-80485120D01*
X145614346Y-81085864D01*
X146074136Y-81545654D01*
X146115001Y-81562581D01*
X146115001Y-86231290D01*
X146001280Y-86117569D01*
X145620874Y-85960000D01*
X145209126Y-85960000D01*
X144846993Y-86110000D01*
X144092159Y-86110000D01*
X144004999Y-86092663D01*
X143917839Y-86110000D01*
X143917835Y-86110000D01*
X143659690Y-86161348D01*
X143659688Y-86161349D01*
X143659689Y-86161349D01*
X143440845Y-86307576D01*
X143440844Y-86307577D01*
X143366951Y-86356951D01*
X143317577Y-86430844D01*
X141945862Y-87802560D01*
X140050000Y-87802560D01*
X139802235Y-87851843D01*
X139592191Y-87992191D01*
X139451843Y-88202235D01*
X139402560Y-88450000D01*
X139402560Y-89550000D01*
X139451843Y-89797765D01*
X139592191Y-90007809D01*
X139752612Y-90115000D01*
X137687161Y-90115000D01*
X137600000Y-90097663D01*
X137512839Y-90115000D01*
X137512835Y-90115000D01*
X137254690Y-90166348D01*
X136961951Y-90361951D01*
X136912576Y-90435846D01*
X136793422Y-90555000D01*
X134752580Y-90555000D01*
X134735654Y-90514136D01*
X134275864Y-90054346D01*
X133675120Y-89805510D01*
X133024880Y-89805510D01*
X132424136Y-90054346D01*
X131964346Y-90514136D01*
X131715510Y-91114880D01*
X127635000Y-91114880D01*
X127635000Y-83185000D01*
X127586664Y-82941996D01*
X127449013Y-82735987D01*
X127243004Y-82598336D01*
X127000000Y-82550000D01*
X107315000Y-82550000D01*
X107071996Y-82598336D01*
X106865987Y-82735987D01*
X106728336Y-82941996D01*
X106680000Y-83185000D01*
X106680000Y-86325693D01*
X106579288Y-85819378D01*
X106410000Y-85566020D01*
X106410000Y-83658969D01*
X106315136Y-83182055D01*
X105953769Y-82641231D01*
X105544499Y-82367766D01*
X105864371Y-82047894D01*
X106060000Y-81575602D01*
X106060000Y-81064398D01*
X106014637Y-80954880D01*
X131715510Y-80954880D01*
X131715510Y-81605120D01*
X131964346Y-82205864D01*
X132424136Y-82665654D01*
X133024880Y-82914490D01*
X133675120Y-82914490D01*
X134275864Y-82665654D01*
X134735654Y-82205864D01*
X134984490Y-81605120D01*
X134984490Y-80954880D01*
X134735654Y-80354136D01*
X134275864Y-79894346D01*
X133675120Y-79645510D01*
X133024880Y-79645510D01*
X132424136Y-79894346D01*
X131964346Y-80354136D01*
X131715510Y-80954880D01*
X106014637Y-80954880D01*
X105864371Y-80592106D01*
X105502894Y-80230629D01*
X105030602Y-80035000D01*
X104519398Y-80035000D01*
X104047106Y-80230629D01*
X103685629Y-80592106D01*
X103490000Y-81064398D01*
X103490000Y-81575602D01*
X103685629Y-82047894D01*
X104005501Y-82367766D01*
X103596231Y-82641231D01*
X103234864Y-83182056D01*
X103140000Y-83658970D01*
X103140000Y-84725000D01*
X102600000Y-84725000D01*
X102600000Y-79417238D01*
X103392239Y-78625000D01*
X105118970Y-78625000D01*
X105280000Y-78657031D01*
X105441030Y-78625000D01*
X105605222Y-78625000D01*
X105756914Y-78562167D01*
X105917945Y-78530136D01*
X106054461Y-78438919D01*
X106206153Y-78376086D01*
X106322253Y-78259986D01*
X106458769Y-78168769D01*
X106476299Y-78142532D01*
X119807073Y-78142532D01*
X119905736Y-78409387D01*
X120515461Y-78635908D01*
X121165460Y-78611856D01*
X121654264Y-78409387D01*
X121752927Y-78142532D01*
X120780000Y-77169605D01*
X119807073Y-78142532D01*
X106476299Y-78142532D01*
X106549986Y-78032253D01*
X106666086Y-77916153D01*
X106666087Y-77916151D01*
X107856777Y-76725461D01*
X119134092Y-76725461D01*
X119158144Y-77375460D01*
X119360613Y-77864264D01*
X119627468Y-77962927D01*
X120600395Y-76990000D01*
X120959605Y-76990000D01*
X121932532Y-77962927D01*
X122199387Y-77864264D01*
X122425908Y-77254539D01*
X122401856Y-76604540D01*
X122199387Y-76115736D01*
X121932532Y-76017073D01*
X120959605Y-76990000D01*
X120600395Y-76990000D01*
X119627468Y-76017073D01*
X119360613Y-76115736D01*
X119134092Y-76725461D01*
X107856777Y-76725461D01*
X108744770Y-75837468D01*
X119807073Y-75837468D01*
X120780000Y-76810395D01*
X121752927Y-75837468D01*
X121654264Y-75570613D01*
X121044539Y-75344092D01*
X120394540Y-75368144D01*
X119905736Y-75570613D01*
X119807073Y-75837468D01*
X108744770Y-75837468D01*
X117117460Y-67464778D01*
X119145000Y-67464778D01*
X119145000Y-68115222D01*
X119393914Y-68716153D01*
X119853847Y-69176086D01*
X120454778Y-69425000D01*
X121105222Y-69425000D01*
X121706153Y-69176086D01*
X122166086Y-68716153D01*
X122357151Y-68254880D01*
X134255510Y-68254880D01*
X134255510Y-68905120D01*
X134504346Y-69505864D01*
X134964136Y-69965654D01*
X135564880Y-70214490D01*
X136215120Y-70214490D01*
X136255985Y-70197563D01*
X136275001Y-70216580D01*
X136275000Y-71934343D01*
X135975680Y-72233663D01*
X135763000Y-72747119D01*
X135763000Y-73302881D01*
X135975680Y-73816337D01*
X136368663Y-74209320D01*
X136575513Y-74295000D01*
X136368663Y-74380680D01*
X135975680Y-74773663D01*
X135763000Y-75287119D01*
X135763000Y-75842881D01*
X135975680Y-76356337D01*
X136368663Y-76749320D01*
X136575513Y-76835000D01*
X136368663Y-76920680D01*
X135975680Y-77313663D01*
X135763000Y-77827119D01*
X135763000Y-78382881D01*
X135975680Y-78896337D01*
X136368663Y-79289320D01*
X136882119Y-79502000D01*
X137437881Y-79502000D01*
X137951337Y-79289320D01*
X138180001Y-79060656D01*
X138180000Y-81548421D01*
X136595845Y-83132577D01*
X136521952Y-83181951D01*
X136472578Y-83255844D01*
X136472576Y-83255846D01*
X136326348Y-83474691D01*
X136257663Y-83820000D01*
X136275001Y-83907165D01*
X136275001Y-84957419D01*
X136234136Y-84974346D01*
X135774346Y-85434136D01*
X135525510Y-86034880D01*
X135525510Y-86685120D01*
X135774346Y-87285864D01*
X136234136Y-87745654D01*
X136834880Y-87994490D01*
X137485120Y-87994490D01*
X138085864Y-87745654D01*
X138545654Y-87285864D01*
X138794490Y-86685120D01*
X138794490Y-86034880D01*
X138545654Y-85434136D01*
X138085864Y-84974346D01*
X138045000Y-84957420D01*
X138045000Y-84186578D01*
X139629156Y-82602423D01*
X139703049Y-82553049D01*
X139898652Y-82260310D01*
X139950000Y-82002165D01*
X139950000Y-82002161D01*
X139967337Y-81915000D01*
X139950000Y-81827839D01*
X139950000Y-77557161D01*
X139967337Y-77470000D01*
X139950000Y-77382839D01*
X139950000Y-77382835D01*
X139898652Y-77124690D01*
X139808655Y-76990000D01*
X139752424Y-76905845D01*
X139752423Y-76905844D01*
X139703049Y-76831951D01*
X139629156Y-76782577D01*
X138557000Y-75710422D01*
X138557000Y-75287119D01*
X138344320Y-74773663D01*
X137951337Y-74380680D01*
X137744487Y-74295000D01*
X137951337Y-74209320D01*
X138344320Y-73816337D01*
X138557000Y-73302881D01*
X138557000Y-72747119D01*
X138344320Y-72233663D01*
X138045000Y-71934343D01*
X138045000Y-69937159D01*
X138062337Y-69849999D01*
X138045000Y-69762839D01*
X138045000Y-69762835D01*
X137993652Y-69504690D01*
X137887157Y-69345310D01*
X137847424Y-69285845D01*
X137847423Y-69285844D01*
X137798049Y-69211951D01*
X137724156Y-69162577D01*
X137507563Y-68945985D01*
X137524490Y-68905120D01*
X137524490Y-68674880D01*
X141365510Y-68674880D01*
X141365510Y-69325120D01*
X141614346Y-69925864D01*
X141990001Y-70301519D01*
X141990000Y-71934343D01*
X141690680Y-72233663D01*
X141478000Y-72747119D01*
X141478000Y-73302881D01*
X141690680Y-73816337D01*
X142083663Y-74209320D01*
X142290513Y-74295000D01*
X142083663Y-74380680D01*
X141690680Y-74773663D01*
X141478000Y-75287119D01*
X141478000Y-75842881D01*
X141690680Y-76356337D01*
X142083663Y-76749320D01*
X142290513Y-76835000D01*
X142083663Y-76920680D01*
X141690680Y-77313663D01*
X141478000Y-77827119D01*
X141478000Y-78382881D01*
X141690680Y-78896337D01*
X142083663Y-79289320D01*
X142597119Y-79502000D01*
X143152881Y-79502000D01*
X143666337Y-79289320D01*
X144059320Y-78896337D01*
X144272000Y-78382881D01*
X144272000Y-77827119D01*
X144059320Y-77313663D01*
X143666337Y-76920680D01*
X143459487Y-76835000D01*
X143666337Y-76749320D01*
X143965657Y-76450000D01*
X144692839Y-76450000D01*
X144780000Y-76467337D01*
X144867161Y-76450000D01*
X144867165Y-76450000D01*
X145125310Y-76398652D01*
X145418049Y-76203049D01*
X145467425Y-76129153D01*
X147564156Y-74032423D01*
X147638049Y-73983049D01*
X147833652Y-73690310D01*
X147885000Y-73432165D01*
X147885000Y-73432161D01*
X147902337Y-73345001D01*
X147885000Y-73257841D01*
X147885000Y-72747119D01*
X149733000Y-72747119D01*
X149733000Y-73302881D01*
X149945680Y-73816337D01*
X150338663Y-74209320D01*
X150545513Y-74295000D01*
X150338663Y-74380680D01*
X149945680Y-74773663D01*
X149733000Y-75287119D01*
X149733000Y-75842881D01*
X149945680Y-76356337D01*
X150338663Y-76749320D01*
X150545513Y-76835000D01*
X150338663Y-76920680D01*
X149945680Y-77313663D01*
X149733000Y-77827119D01*
X149733000Y-78382881D01*
X149945680Y-78896337D01*
X150338663Y-79289320D01*
X150852119Y-79502000D01*
X151407881Y-79502000D01*
X151921337Y-79289320D01*
X152314320Y-78896337D01*
X152527000Y-78382881D01*
X152527000Y-77827119D01*
X152314320Y-77313663D01*
X151921337Y-76920680D01*
X151714487Y-76835000D01*
X151921337Y-76749320D01*
X152220657Y-76450000D01*
X153582839Y-76450000D01*
X153670000Y-76467337D01*
X153757161Y-76450000D01*
X153757165Y-76450000D01*
X154015310Y-76398652D01*
X154308049Y-76203049D01*
X154357425Y-76129153D01*
X156564156Y-73922423D01*
X156638049Y-73873049D01*
X156785645Y-73652158D01*
X156833652Y-73580310D01*
X156855532Y-73470309D01*
X156885000Y-73322165D01*
X156885000Y-73322161D01*
X156902337Y-73235000D01*
X156885000Y-73147839D01*
X156885000Y-71402580D01*
X156925864Y-71385654D01*
X157385654Y-70925864D01*
X157634490Y-70325120D01*
X157634490Y-69674880D01*
X157385654Y-69074136D01*
X156986398Y-68674880D01*
X159020510Y-68674880D01*
X159020510Y-69325120D01*
X159269346Y-69925864D01*
X159729136Y-70385654D01*
X159770001Y-70402581D01*
X159770000Y-71934343D01*
X159470680Y-72233663D01*
X159258000Y-72747119D01*
X159258000Y-73302881D01*
X159470680Y-73816337D01*
X159863663Y-74209320D01*
X160070513Y-74295000D01*
X159863663Y-74380680D01*
X159470680Y-74773663D01*
X159258000Y-75287119D01*
X159258000Y-75842881D01*
X159470680Y-76356337D01*
X159863663Y-76749320D01*
X160070513Y-76835000D01*
X159863663Y-76920680D01*
X159470680Y-77313663D01*
X159258000Y-77827119D01*
X159258000Y-78382881D01*
X159470680Y-78896337D01*
X159863663Y-79289320D01*
X160377119Y-79502000D01*
X160932881Y-79502000D01*
X161446337Y-79289320D01*
X161839320Y-78896337D01*
X162052000Y-78382881D01*
X162052000Y-77827119D01*
X161839320Y-77313663D01*
X161446337Y-76920680D01*
X161239487Y-76835000D01*
X161446337Y-76749320D01*
X161745657Y-76450000D01*
X162472839Y-76450000D01*
X162560000Y-76467337D01*
X162647161Y-76450000D01*
X162647165Y-76450000D01*
X162905310Y-76398652D01*
X163198049Y-76203049D01*
X163247425Y-76129153D01*
X165564156Y-73812423D01*
X165638049Y-73763049D01*
X165712145Y-73652158D01*
X165833651Y-73470311D01*
X165833652Y-73470310D01*
X165885000Y-73212165D01*
X165885000Y-73212161D01*
X165902337Y-73125001D01*
X165885000Y-73037841D01*
X165885000Y-71402580D01*
X165925864Y-71385654D01*
X166385654Y-70925864D01*
X166634490Y-70325120D01*
X166634490Y-69674880D01*
X166385654Y-69074136D01*
X165925864Y-68614346D01*
X165325120Y-68365510D01*
X164674880Y-68365510D01*
X164074136Y-68614346D01*
X163614346Y-69074136D01*
X163365510Y-69674880D01*
X163365510Y-70325120D01*
X163614346Y-70925864D01*
X164074136Y-71385654D01*
X164115000Y-71402580D01*
X164115000Y-71500656D01*
X164115001Y-71500661D01*
X164115000Y-72758421D01*
X162193422Y-74680000D01*
X161745657Y-74680000D01*
X161446337Y-74380680D01*
X161239487Y-74295000D01*
X161446337Y-74209320D01*
X161839320Y-73816337D01*
X162052000Y-73302881D01*
X162052000Y-72747119D01*
X161839320Y-72233663D01*
X161540000Y-71934343D01*
X161540000Y-70402580D01*
X161580864Y-70385654D01*
X162040654Y-69925864D01*
X162289490Y-69325120D01*
X162289490Y-68674880D01*
X162040654Y-68074136D01*
X161580864Y-67614346D01*
X160980120Y-67365510D01*
X160329880Y-67365510D01*
X159729136Y-67614346D01*
X159269346Y-68074136D01*
X159020510Y-68674880D01*
X156986398Y-68674880D01*
X156925864Y-68614346D01*
X156325120Y-68365510D01*
X155674880Y-68365510D01*
X155074136Y-68614346D01*
X154614346Y-69074136D01*
X154365510Y-69674880D01*
X154365510Y-70325120D01*
X154614346Y-70925864D01*
X155074136Y-71385654D01*
X155115001Y-71402581D01*
X155115000Y-72868421D01*
X153303422Y-74680000D01*
X152220657Y-74680000D01*
X151921337Y-74380680D01*
X151714487Y-74295000D01*
X151921337Y-74209320D01*
X152314320Y-73816337D01*
X152527000Y-73302881D01*
X152527000Y-72747119D01*
X152314320Y-72233663D01*
X152015000Y-71934343D01*
X152015000Y-70634490D01*
X152325120Y-70634490D01*
X152925864Y-70385654D01*
X153385654Y-69925864D01*
X153634490Y-69325120D01*
X153634490Y-68674880D01*
X153385654Y-68074136D01*
X152925864Y-67614346D01*
X152325120Y-67365510D01*
X151674880Y-67365510D01*
X151074136Y-67614346D01*
X150614346Y-68074136D01*
X150365510Y-68674880D01*
X150365510Y-69325120D01*
X150390073Y-69384421D01*
X150296348Y-69524691D01*
X150227663Y-69870000D01*
X150245001Y-69957165D01*
X150245000Y-71934343D01*
X149945680Y-72233663D01*
X149733000Y-72747119D01*
X147885000Y-72747119D01*
X147885000Y-71402580D01*
X147925864Y-71385654D01*
X148385654Y-70925864D01*
X148634490Y-70325120D01*
X148634490Y-69674880D01*
X148385654Y-69074136D01*
X147925864Y-68614346D01*
X147325120Y-68365510D01*
X146674880Y-68365510D01*
X146074136Y-68614346D01*
X145614346Y-69074136D01*
X145365510Y-69674880D01*
X145365510Y-70325120D01*
X145614346Y-70925864D01*
X146074136Y-71385654D01*
X146115000Y-71402580D01*
X146115000Y-71500656D01*
X146115001Y-71500661D01*
X146115000Y-72978421D01*
X144413422Y-74680000D01*
X143965657Y-74680000D01*
X143666337Y-74380680D01*
X143459487Y-74295000D01*
X143666337Y-74209320D01*
X144059320Y-73816337D01*
X144272000Y-73302881D01*
X144272000Y-72747119D01*
X144059320Y-72233663D01*
X143760000Y-71934343D01*
X143760000Y-70454357D01*
X143925864Y-70385654D01*
X144385654Y-69925864D01*
X144634490Y-69325120D01*
X144634490Y-68674880D01*
X144385654Y-68074136D01*
X143925864Y-67614346D01*
X143325120Y-67365510D01*
X142674880Y-67365510D01*
X142074136Y-67614346D01*
X141614346Y-68074136D01*
X141365510Y-68674880D01*
X137524490Y-68674880D01*
X137524490Y-68254880D01*
X137275654Y-67654136D01*
X136815864Y-67194346D01*
X136215120Y-66945510D01*
X135564880Y-66945510D01*
X134964136Y-67194346D01*
X134504346Y-67654136D01*
X134255510Y-68254880D01*
X122357151Y-68254880D01*
X122415000Y-68115222D01*
X122415000Y-67464778D01*
X122166086Y-66863847D01*
X121706153Y-66403914D01*
X121105222Y-66155000D01*
X120454778Y-66155000D01*
X119853847Y-66403914D01*
X119393914Y-66863847D01*
X119145000Y-67464778D01*
X117117460Y-67464778D01*
X118892253Y-65689986D01*
X119028769Y-65598769D01*
X119390136Y-65057945D01*
X119485000Y-64581031D01*
X119485000Y-64581027D01*
X119517030Y-64420001D01*
X119485000Y-64258975D01*
X119485000Y-60514346D01*
X119659966Y-60339380D01*
X119985000Y-59554678D01*
X119985000Y-58705322D01*
X119659966Y-57920620D01*
X119059380Y-57320034D01*
X118274678Y-56995000D01*
X117425322Y-56995000D01*
X116640620Y-57320034D01*
X116040034Y-57920620D01*
X115715000Y-58705322D01*
X115715000Y-59554678D01*
X116040034Y-60339380D01*
X116215000Y-60514346D01*
X116215001Y-63742760D01*
X104602762Y-75355000D01*
X102876031Y-75355000D01*
X102715000Y-75322969D01*
X102077054Y-75449864D01*
X101900334Y-75567945D01*
X101536231Y-75811231D01*
X101445014Y-75947747D01*
X99922750Y-77470012D01*
X99786231Y-77561231D01*
X99424864Y-78102056D01*
X99340634Y-78525510D01*
X99297969Y-78740000D01*
X99330000Y-78901030D01*
X99330001Y-85638646D01*
X99297969Y-85799680D01*
X99399733Y-86311280D01*
X99424865Y-86437625D01*
X99786232Y-86978449D01*
X99922748Y-87069666D01*
X100255332Y-87402250D01*
X100346551Y-87538769D01*
X100887375Y-87900136D01*
X101364289Y-87995000D01*
X101364290Y-87995000D01*
X101525319Y-88027031D01*
X101686349Y-87995000D01*
X103214181Y-87995000D01*
X102970712Y-88359378D01*
X102863176Y-88900000D01*
X102970712Y-89440622D01*
X103276950Y-89898940D01*
X103682620Y-90170000D01*
X103276950Y-90441060D01*
X102970712Y-90899378D01*
X102863176Y-91440000D01*
X102970712Y-91980622D01*
X103140000Y-92233980D01*
X103140000Y-92681781D01*
X102961231Y-92801231D01*
X102870014Y-92937747D01*
X101345000Y-94462761D01*
X101345000Y-93874778D01*
X101096086Y-93273847D01*
X100636153Y-92813914D01*
X100035222Y-92565000D01*
X99384778Y-92565000D01*
X98783847Y-92813914D01*
X98323914Y-93273847D01*
X98075000Y-93874778D01*
X98075000Y-94525222D01*
X98323914Y-95126153D01*
X98783847Y-95586086D01*
X99384778Y-95835000D01*
X99972762Y-95835000D01*
X98017748Y-97790014D01*
X97881232Y-97881231D01*
X97790015Y-98017747D01*
X97519865Y-98422055D01*
X97392969Y-99060000D01*
X97425001Y-99221034D01*
X97425001Y-99965000D01*
X92548969Y-99965000D01*
X92546405Y-99965510D01*
X92384880Y-99965510D01*
X92235650Y-100027323D01*
X92072055Y-100059864D01*
X91933366Y-100152533D01*
X91784136Y-100214346D01*
X91669920Y-100328562D01*
X91531231Y-100421231D01*
X91438562Y-100559920D01*
X91324346Y-100674136D01*
X91262533Y-100823366D01*
X91169864Y-100962055D01*
X91137323Y-101125650D01*
X91075510Y-101274880D01*
X91075510Y-101436405D01*
X91042969Y-101600000D01*
X86725000Y-101600000D01*
X86725000Y-95497239D01*
X87096086Y-95126153D01*
X87158921Y-94974457D01*
X87250135Y-94837945D01*
X87282165Y-94676919D01*
X87345000Y-94525222D01*
X87345000Y-94361027D01*
X87377030Y-94200001D01*
X87345000Y-94038975D01*
X87345000Y-93874778D01*
X87282165Y-93723081D01*
X87250135Y-93562055D01*
X87158921Y-93425544D01*
X87096086Y-93273847D01*
X86979982Y-93157743D01*
X86888768Y-93021232D01*
X86752257Y-92930018D01*
X86636153Y-92813914D01*
X86484456Y-92751079D01*
X86347945Y-92659865D01*
X86186919Y-92627835D01*
X86035222Y-92565000D01*
X85871025Y-92565000D01*
X85709999Y-92532970D01*
X85548973Y-92565000D01*
X85384778Y-92565000D01*
X85233081Y-92627835D01*
X85072055Y-92659865D01*
X84935543Y-92751079D01*
X84783847Y-92813914D01*
X84323914Y-93273847D01*
X84323913Y-93273849D01*
X84047748Y-93550014D01*
X83911232Y-93641231D01*
X83716721Y-93932338D01*
X83549865Y-94182055D01*
X83422969Y-94820000D01*
X70052238Y-94820000D01*
X70527239Y-94345000D01*
X81118970Y-94345000D01*
X81280000Y-94377031D01*
X81441030Y-94345000D01*
X81441031Y-94345000D01*
X81917945Y-94250136D01*
X82458769Y-93888769D01*
X82549988Y-93752250D01*
X97452253Y-78849986D01*
X97588769Y-78758769D01*
X97950136Y-78217945D01*
X98045000Y-77741031D01*
X98045000Y-77741027D01*
X98077030Y-77580001D01*
X98045000Y-77418975D01*
X98045000Y-71274778D01*
X98075000Y-71274778D01*
X98075000Y-71925222D01*
X98323914Y-72526153D01*
X98783847Y-72986086D01*
X99384778Y-73235000D01*
X100035222Y-73235000D01*
X100636153Y-72986086D01*
X101096086Y-72526153D01*
X101345000Y-71925222D01*
X101345000Y-71274778D01*
X101096086Y-70673847D01*
X100636153Y-70213914D01*
X100035222Y-69965000D01*
X99384778Y-69965000D01*
X98783847Y-70213914D01*
X98323914Y-70673847D01*
X98075000Y-71274778D01*
X98045000Y-71274778D01*
X97982167Y-71123086D01*
X97950136Y-70962055D01*
X97858919Y-70825539D01*
X97796086Y-70673847D01*
X97679986Y-70557747D01*
X97588769Y-70421231D01*
X97452253Y-70330014D01*
X97336153Y-70213914D01*
X97184459Y-70151080D01*
X97047944Y-70059864D01*
X96886915Y-70027833D01*
X96735222Y-69965000D01*
X96571031Y-69965000D01*
X96410000Y-69932969D01*
X96248969Y-69965000D01*
X96084778Y-69965000D01*
X95933086Y-70027833D01*
X95772055Y-70059864D01*
X95635539Y-70151081D01*
X95483847Y-70213914D01*
X95367747Y-70330014D01*
X95231231Y-70421231D01*
X95140014Y-70557747D01*
X95023914Y-70673847D01*
X94961080Y-70825541D01*
X94869864Y-70962056D01*
X94837833Y-71123085D01*
X94775000Y-71274778D01*
X94775000Y-71438970D01*
X94775001Y-76902760D01*
X80602762Y-91075000D01*
X70011030Y-91075000D01*
X69850000Y-91042969D01*
X69688970Y-91075000D01*
X69688969Y-91075000D01*
X69212055Y-91169864D01*
X68671231Y-91531231D01*
X68580014Y-91667747D01*
X64457750Y-95790012D01*
X64321231Y-95881231D01*
X63959864Y-96422056D01*
X63871696Y-96865309D01*
X63832969Y-97060000D01*
X63865000Y-97221030D01*
X63865001Y-118403520D01*
X63562870Y-118705651D01*
X63215000Y-119545485D01*
X60735000Y-119545485D01*
X60735000Y-117572388D01*
X60749399Y-117500000D01*
X60692354Y-117213217D01*
X60529905Y-116970095D01*
X60286783Y-116807646D01*
X60072388Y-116765000D01*
X60000000Y-116750601D01*
X59927612Y-116765000D01*
X50710000Y-116765000D01*
X50710000Y-97545485D01*
X53215000Y-97545485D01*
X53215000Y-98454515D01*
X53562870Y-99294349D01*
X54205651Y-99937130D01*
X55045485Y-100285000D01*
X55954515Y-100285000D01*
X56794349Y-99937130D01*
X57437130Y-99294349D01*
X57785000Y-98454515D01*
X57785000Y-97545485D01*
X57437130Y-96705651D01*
X56794349Y-96062870D01*
X55954515Y-95715000D01*
X55045485Y-95715000D01*
X54205651Y-96062870D01*
X53562870Y-96705651D01*
X53215000Y-97545485D01*
X50710000Y-97545485D01*
X50710000Y-82550000D01*
X75942041Y-82550000D01*
X76058350Y-83134725D01*
X76389570Y-83630430D01*
X76673281Y-83820000D01*
X76389570Y-84009570D01*
X76058350Y-84505275D01*
X75942041Y-85090000D01*
X76058350Y-85674725D01*
X76389570Y-86170430D01*
X76673281Y-86360000D01*
X76389570Y-86549570D01*
X76058350Y-87045275D01*
X75942041Y-87630000D01*
X76058350Y-88214725D01*
X76389570Y-88710430D01*
X76885275Y-89041650D01*
X77322402Y-89128600D01*
X77617598Y-89128600D01*
X78054725Y-89041650D01*
X78550430Y-88710430D01*
X78681012Y-88515000D01*
X78798988Y-88515000D01*
X78929570Y-88710430D01*
X79425275Y-89041650D01*
X79862402Y-89128600D01*
X80157598Y-89128600D01*
X80594725Y-89041650D01*
X81090430Y-88710430D01*
X81421650Y-88214725D01*
X81537959Y-87630000D01*
X81421650Y-87045275D01*
X81090430Y-86549570D01*
X80806719Y-86360000D01*
X81090430Y-86170430D01*
X81421650Y-85674725D01*
X81537959Y-85090000D01*
X81421650Y-84505275D01*
X81090430Y-84009570D01*
X80806719Y-83820000D01*
X81090430Y-83630430D01*
X81421650Y-83134725D01*
X81537959Y-82550000D01*
X81421650Y-81965275D01*
X81090430Y-81469570D01*
X80806719Y-81280000D01*
X81090430Y-81090430D01*
X81421650Y-80594725D01*
X81537959Y-80010000D01*
X81421650Y-79425275D01*
X81090430Y-78929570D01*
X80594725Y-78598350D01*
X80157598Y-78511400D01*
X79862402Y-78511400D01*
X79425275Y-78598350D01*
X78936932Y-78924651D01*
X78931757Y-78898635D01*
X78791409Y-78688591D01*
X78581365Y-78548243D01*
X78333600Y-78498960D01*
X76606400Y-78498960D01*
X76358635Y-78548243D01*
X76148591Y-78688591D01*
X76008243Y-78898635D01*
X75958960Y-79146400D01*
X75958960Y-80873600D01*
X76008243Y-81121365D01*
X76148591Y-81331409D01*
X76358635Y-81471757D01*
X76384651Y-81476932D01*
X76058350Y-81965275D01*
X75942041Y-82550000D01*
X50710000Y-82550000D01*
X50710000Y-71545485D01*
X53215000Y-71545485D01*
X53215000Y-72454515D01*
X53562870Y-73294349D01*
X54205651Y-73937130D01*
X55045485Y-74285000D01*
X55954515Y-74285000D01*
X56794349Y-73937130D01*
X57437130Y-73294349D01*
X57785000Y-72454515D01*
X57785000Y-71545485D01*
X73215000Y-71545485D01*
X73215000Y-72454515D01*
X73562870Y-73294349D01*
X74205651Y-73937130D01*
X75045485Y-74285000D01*
X75954515Y-74285000D01*
X76794349Y-73937130D01*
X77437130Y-73294349D01*
X77785000Y-72454515D01*
X77785000Y-71545485D01*
X77437130Y-70705651D01*
X76794349Y-70062870D01*
X75954515Y-69715000D01*
X75045485Y-69715000D01*
X74205651Y-70062870D01*
X73562870Y-70705651D01*
X73215000Y-71545485D01*
X57785000Y-71545485D01*
X57437130Y-70705651D01*
X56794349Y-70062870D01*
X55954515Y-69715000D01*
X55045485Y-69715000D01*
X54205651Y-70062870D01*
X53562870Y-70705651D01*
X53215000Y-71545485D01*
X50710000Y-71545485D01*
X50710000Y-62600000D01*
X76292560Y-62600000D01*
X76292560Y-64400000D01*
X76341843Y-64647765D01*
X76482191Y-64857809D01*
X76692235Y-64998157D01*
X76940000Y-65047440D01*
X78138775Y-65047440D01*
X78578969Y-65135000D01*
X81862762Y-65135000D01*
X86350014Y-69622253D01*
X86441231Y-69758769D01*
X86607886Y-69870125D01*
X87375000Y-70637239D01*
X87375000Y-71925222D01*
X87437834Y-72076917D01*
X87469865Y-72237945D01*
X87561079Y-72374457D01*
X87623914Y-72526153D01*
X87740017Y-72642256D01*
X87831232Y-72778769D01*
X87967745Y-72869984D01*
X88083847Y-72986086D01*
X88235542Y-73048920D01*
X88372056Y-73140136D01*
X88533085Y-73172167D01*
X88684778Y-73235000D01*
X88848969Y-73235000D01*
X89010000Y-73267031D01*
X89171031Y-73235000D01*
X89335222Y-73235000D01*
X89486914Y-73172167D01*
X89647945Y-73140136D01*
X89784461Y-73048919D01*
X89936153Y-72986086D01*
X90052253Y-72869986D01*
X90188769Y-72778769D01*
X90279986Y-72642253D01*
X90396086Y-72526153D01*
X90458919Y-72374461D01*
X90550136Y-72237945D01*
X90582167Y-72076914D01*
X90645000Y-71925222D01*
X90645000Y-70121031D01*
X90677031Y-69960000D01*
X90550136Y-69322054D01*
X90313338Y-68967662D01*
X90188769Y-68781231D01*
X90052253Y-68690014D01*
X88899988Y-67537750D01*
X88808769Y-67401231D01*
X88642116Y-67289877D01*
X83809988Y-62457750D01*
X83718769Y-62321231D01*
X83177945Y-61959864D01*
X82701031Y-61865000D01*
X82701030Y-61865000D01*
X82540000Y-61832969D01*
X82378970Y-61865000D01*
X78578969Y-61865000D01*
X78138775Y-61952560D01*
X76940000Y-61952560D01*
X76692235Y-62001843D01*
X76482191Y-62142191D01*
X76341843Y-62352235D01*
X76292560Y-62600000D01*
X50710000Y-62600000D01*
X50710000Y-53235000D01*
X59927612Y-53235000D01*
X60000000Y-53249399D01*
X60072388Y-53235000D01*
X60286783Y-53192354D01*
X60529905Y-53029905D01*
X60692354Y-52786783D01*
X60749399Y-52500000D01*
X60735000Y-52427612D01*
X60735000Y-49545485D01*
X63215000Y-49545485D01*
X63215000Y-50454515D01*
X63562870Y-51294349D01*
X63865000Y-51596479D01*
X63865000Y-52172422D01*
X63832969Y-52333452D01*
X63865000Y-52494482D01*
X63959864Y-52971396D01*
X64321231Y-53512221D01*
X64457750Y-53603440D01*
X64601560Y-53747250D01*
X64692779Y-53883769D01*
X65233603Y-54245136D01*
X65276413Y-54253651D01*
X70485016Y-59462256D01*
X70576231Y-59598769D01*
X70712744Y-59689984D01*
X70712746Y-59689986D01*
X71117054Y-59960136D01*
X71755000Y-60087031D01*
X71916031Y-60055000D01*
X78901031Y-60055000D01*
X79377945Y-59960136D01*
X79385632Y-59955000D01*
X79791182Y-59955000D01*
X80238927Y-59865938D01*
X80746673Y-59526673D01*
X81085938Y-59018927D01*
X81148317Y-58705322D01*
X84015000Y-58705322D01*
X84015000Y-59554678D01*
X84340034Y-60339380D01*
X84940620Y-60939966D01*
X85725322Y-61265000D01*
X85972762Y-61265000D01*
X91075001Y-66367240D01*
X91075000Y-68106030D01*
X91075001Y-68106035D01*
X91075000Y-72982761D01*
X90762762Y-73295000D01*
X88307239Y-73295000D01*
X87629988Y-72617750D01*
X87538769Y-72481231D01*
X87389553Y-72381528D01*
X87345000Y-72336975D01*
X87345000Y-71274778D01*
X87282167Y-71123086D01*
X87250136Y-70962055D01*
X87158919Y-70825539D01*
X87096086Y-70673847D01*
X86979986Y-70557747D01*
X86888769Y-70421231D01*
X86752253Y-70330014D01*
X86636153Y-70213914D01*
X86484459Y-70151080D01*
X86347944Y-70059864D01*
X86186915Y-70027833D01*
X86035222Y-69965000D01*
X85871031Y-69965000D01*
X85710000Y-69932969D01*
X85548969Y-69965000D01*
X85384778Y-69965000D01*
X85233086Y-70027833D01*
X85072055Y-70059864D01*
X84935539Y-70151081D01*
X84783847Y-70213914D01*
X84667747Y-70330014D01*
X84531231Y-70421231D01*
X84440014Y-70557747D01*
X84323914Y-70673847D01*
X84261080Y-70825541D01*
X84169864Y-70962056D01*
X84137833Y-71123085D01*
X84075000Y-71274778D01*
X84075000Y-72853183D01*
X84042969Y-73014213D01*
X84075000Y-73175243D01*
X84075000Y-73175244D01*
X84169865Y-73652158D01*
X84531232Y-74192982D01*
X84667748Y-74284199D01*
X85085799Y-74702250D01*
X85177018Y-74838769D01*
X85326233Y-74938471D01*
X86360014Y-75972252D01*
X86451231Y-76108769D01*
X86992055Y-76470136D01*
X87468969Y-76565000D01*
X87468973Y-76565000D01*
X87629999Y-76597030D01*
X87791025Y-76565000D01*
X91278970Y-76565000D01*
X91440000Y-76597031D01*
X91601030Y-76565000D01*
X91601031Y-76565000D01*
X92077945Y-76470136D01*
X92618769Y-76108769D01*
X92709988Y-75972250D01*
X93752254Y-74929985D01*
X93888769Y-74838769D01*
X94250136Y-74297945D01*
X94345000Y-73821031D01*
X94345000Y-73821027D01*
X94377030Y-73660001D01*
X94345000Y-73498975D01*
X94345000Y-68830000D01*
X99126993Y-68830000D01*
X99489126Y-68980000D01*
X99900874Y-68980000D01*
X100281280Y-68822431D01*
X100572431Y-68531280D01*
X100730000Y-68150874D01*
X100730000Y-67739126D01*
X100616362Y-67464778D01*
X103645000Y-67464778D01*
X103645000Y-68115222D01*
X103893914Y-68716153D01*
X104353847Y-69176086D01*
X104954778Y-69425000D01*
X105605222Y-69425000D01*
X106206153Y-69176086D01*
X106666086Y-68716153D01*
X106915000Y-68115222D01*
X106915000Y-67464778D01*
X106666086Y-66863847D01*
X106206153Y-66403914D01*
X105605222Y-66155000D01*
X104954778Y-66155000D01*
X104353847Y-66403914D01*
X103893914Y-66863847D01*
X103645000Y-67464778D01*
X100616362Y-67464778D01*
X100572431Y-67358720D01*
X100281280Y-67067569D01*
X99900874Y-66910000D01*
X99489126Y-66910000D01*
X99126993Y-67060000D01*
X94345000Y-67060000D01*
X94345000Y-65851030D01*
X94377031Y-65690000D01*
X94345000Y-65528969D01*
X94250136Y-65052055D01*
X93888769Y-64511231D01*
X93752253Y-64420014D01*
X88285000Y-58952762D01*
X88285000Y-58705322D01*
X87959966Y-57920620D01*
X87359380Y-57320034D01*
X86574678Y-56995000D01*
X85725322Y-56995000D01*
X84940620Y-57320034D01*
X84340034Y-57920620D01*
X84015000Y-58705322D01*
X81148317Y-58705322D01*
X81205072Y-58420000D01*
X81085938Y-57821073D01*
X80746673Y-57313327D01*
X80238927Y-56974062D01*
X79791182Y-56885000D01*
X79385632Y-56885000D01*
X79377945Y-56879864D01*
X78901031Y-56785000D01*
X72432240Y-56785000D01*
X67852561Y-52205322D01*
X84015000Y-52205322D01*
X84015000Y-53054678D01*
X84340034Y-53839380D01*
X84940620Y-54439966D01*
X85725322Y-54765000D01*
X86574678Y-54765000D01*
X87359380Y-54439966D01*
X87959966Y-53839380D01*
X88285000Y-53054678D01*
X88285000Y-52205322D01*
X115715000Y-52205322D01*
X115715000Y-53054678D01*
X116040034Y-53839380D01*
X116640620Y-54439966D01*
X117425322Y-54765000D01*
X118274678Y-54765000D01*
X118648881Y-54610000D01*
X134206655Y-54610000D01*
X134334792Y-55254188D01*
X134699695Y-55800305D01*
X135005001Y-56004303D01*
X135005000Y-57017419D01*
X134964136Y-57034346D01*
X134504346Y-57494136D01*
X134255510Y-58094880D01*
X134255510Y-58745120D01*
X134504346Y-59345864D01*
X134964136Y-59805654D01*
X135564880Y-60054490D01*
X136215120Y-60054490D01*
X136815864Y-59805654D01*
X137275654Y-59345864D01*
X137524490Y-58745120D01*
X137524490Y-58514880D01*
X141365510Y-58514880D01*
X141365510Y-59165120D01*
X141614346Y-59765864D01*
X142074136Y-60225654D01*
X142674880Y-60474490D01*
X143325120Y-60474490D01*
X143925864Y-60225654D01*
X144385654Y-59765864D01*
X144402580Y-59725000D01*
X147447839Y-59725000D01*
X147535000Y-59742337D01*
X147622161Y-59725000D01*
X147622165Y-59725000D01*
X147880310Y-59673652D01*
X148173049Y-59478049D01*
X148222425Y-59404153D01*
X150104156Y-57522423D01*
X150178049Y-57473049D01*
X150373652Y-57180310D01*
X150425000Y-56922165D01*
X150425000Y-56922161D01*
X150442337Y-56835001D01*
X150425000Y-56747841D01*
X150425000Y-56363412D01*
X150620430Y-56232830D01*
X150810000Y-55949119D01*
X150999570Y-56232830D01*
X151195000Y-56363412D01*
X151195001Y-57404282D01*
X151074136Y-57454346D01*
X150614346Y-57914136D01*
X150365510Y-58514880D01*
X150365510Y-59165120D01*
X150614346Y-59765864D01*
X151074136Y-60225654D01*
X151674880Y-60474490D01*
X152325120Y-60474490D01*
X152925864Y-60225654D01*
X153385654Y-59765864D01*
X153634490Y-59165120D01*
X153634490Y-58514880D01*
X153385654Y-57914136D01*
X152965000Y-57493482D01*
X152965000Y-56363412D01*
X153160430Y-56232830D01*
X153350000Y-55949119D01*
X153539570Y-56232830D01*
X154035276Y-56564050D01*
X154620000Y-56680359D01*
X155204725Y-56564050D01*
X155700430Y-56232830D01*
X155932842Y-55885000D01*
X156793422Y-55885000D01*
X159138485Y-58230063D01*
X159020510Y-58514880D01*
X159020510Y-59165120D01*
X159269346Y-59765864D01*
X159729136Y-60225654D01*
X160329880Y-60474490D01*
X160980120Y-60474490D01*
X161580864Y-60225654D01*
X162040654Y-59765864D01*
X162289490Y-59165120D01*
X162289490Y-58514880D01*
X162040654Y-57914136D01*
X161580864Y-57454346D01*
X160980120Y-57205510D01*
X160617089Y-57205510D01*
X157847425Y-54435847D01*
X157798049Y-54361951D01*
X157505310Y-54166348D01*
X157247165Y-54115000D01*
X157247161Y-54115000D01*
X157160000Y-54097663D01*
X157072839Y-54115000D01*
X155932843Y-54115000D01*
X155700430Y-53767170D01*
X155204724Y-53435950D01*
X154620000Y-53319641D01*
X154035275Y-53435950D01*
X153539570Y-53767170D01*
X153350000Y-54050881D01*
X153160430Y-53767170D01*
X152664724Y-53435950D01*
X152080000Y-53319641D01*
X151495275Y-53435950D01*
X150999570Y-53767170D01*
X150810000Y-54050881D01*
X150620430Y-53767170D01*
X150124724Y-53435950D01*
X149540000Y-53319641D01*
X148955275Y-53435950D01*
X148460772Y-53766367D01*
X148401927Y-53624302D01*
X148223299Y-53445673D01*
X147989910Y-53349000D01*
X147285750Y-53349000D01*
X147127000Y-53507750D01*
X147127000Y-54873000D01*
X147147000Y-54873000D01*
X147147000Y-55127000D01*
X147127000Y-55127000D01*
X147127000Y-56492250D01*
X147285750Y-56651000D01*
X147989910Y-56651000D01*
X148223299Y-56554327D01*
X148401927Y-56375698D01*
X148460772Y-56233633D01*
X148655000Y-56363412D01*
X148655000Y-56468421D01*
X147168422Y-57955000D01*
X144402580Y-57955000D01*
X144385654Y-57914136D01*
X143925864Y-57454346D01*
X143325120Y-57205510D01*
X142674880Y-57205510D01*
X142074136Y-57454346D01*
X141614346Y-57914136D01*
X141365510Y-58514880D01*
X137524490Y-58514880D01*
X137524490Y-58094880D01*
X137275654Y-57494136D01*
X136815864Y-57034346D01*
X136775000Y-57017420D01*
X136775000Y-56004303D01*
X136859886Y-55947584D01*
X136875673Y-55985698D01*
X137054301Y-56164327D01*
X137287690Y-56261000D01*
X138144250Y-56261000D01*
X138303000Y-56102250D01*
X138303000Y-54737000D01*
X138557000Y-54737000D01*
X138557000Y-56102250D01*
X138715750Y-56261000D01*
X139572310Y-56261000D01*
X139805699Y-56164327D01*
X139984327Y-55985698D01*
X140081000Y-55752309D01*
X140081000Y-55285750D01*
X145501400Y-55285750D01*
X145501400Y-56142309D01*
X145598073Y-56375698D01*
X145776701Y-56554327D01*
X146010090Y-56651000D01*
X146714250Y-56651000D01*
X146873000Y-56492250D01*
X146873000Y-55127000D01*
X145660150Y-55127000D01*
X145501400Y-55285750D01*
X140081000Y-55285750D01*
X140081000Y-54895750D01*
X139922250Y-54737000D01*
X138557000Y-54737000D01*
X138303000Y-54737000D01*
X138283000Y-54737000D01*
X138283000Y-54483000D01*
X138303000Y-54483000D01*
X138303000Y-53117750D01*
X138557000Y-53117750D01*
X138557000Y-54483000D01*
X139922250Y-54483000D01*
X140081000Y-54324250D01*
X140081000Y-53857691D01*
X145501400Y-53857691D01*
X145501400Y-54714250D01*
X145660150Y-54873000D01*
X146873000Y-54873000D01*
X146873000Y-53507750D01*
X146714250Y-53349000D01*
X146010090Y-53349000D01*
X145776701Y-53445673D01*
X145598073Y-53624302D01*
X145501400Y-53857691D01*
X140081000Y-53857691D01*
X140081000Y-53467691D01*
X139984327Y-53234302D01*
X139805699Y-53055673D01*
X139572310Y-52959000D01*
X138715750Y-52959000D01*
X138557000Y-53117750D01*
X138303000Y-53117750D01*
X138144250Y-52959000D01*
X137287690Y-52959000D01*
X137054301Y-53055673D01*
X136875673Y-53234302D01*
X136859886Y-53272416D01*
X136534188Y-53054792D01*
X136052609Y-52959000D01*
X135727391Y-52959000D01*
X135245812Y-53054792D01*
X134699695Y-53419695D01*
X134334792Y-53965812D01*
X134206655Y-54610000D01*
X118648881Y-54610000D01*
X119059380Y-54439966D01*
X119659966Y-53839380D01*
X119985000Y-53054678D01*
X119985000Y-52205322D01*
X119659966Y-51420620D01*
X119059380Y-50820034D01*
X118274678Y-50495000D01*
X117425322Y-50495000D01*
X116640620Y-50820034D01*
X116040034Y-51420620D01*
X115715000Y-52205322D01*
X88285000Y-52205322D01*
X87959966Y-51420620D01*
X87359380Y-50820034D01*
X86574678Y-50495000D01*
X85725322Y-50495000D01*
X84940620Y-50820034D01*
X84340034Y-51420620D01*
X84015000Y-52205322D01*
X67852561Y-52205322D01*
X67309988Y-51662750D01*
X67218769Y-51526231D01*
X67210664Y-51520815D01*
X67437130Y-51294349D01*
X67785000Y-50454515D01*
X67785000Y-49545485D01*
X67437130Y-48705651D01*
X66794349Y-48062870D01*
X65954515Y-47715000D01*
X65045485Y-47715000D01*
X64205651Y-48062870D01*
X63562870Y-48705651D01*
X63215000Y-49545485D01*
X60735000Y-49545485D01*
X60735000Y-46946029D01*
X70715000Y-46946029D01*
X70715000Y-48053971D01*
X71138991Y-49077576D01*
X71922424Y-49861009D01*
X72946029Y-50285000D01*
X74053971Y-50285000D01*
X75077576Y-49861009D01*
X75861009Y-49077576D01*
X76285000Y-48053971D01*
X76285000Y-46946029D01*
X148715000Y-46946029D01*
X148715000Y-48053971D01*
X149138991Y-49077576D01*
X149922424Y-49861009D01*
X150946029Y-50285000D01*
X152053971Y-50285000D01*
X153077576Y-49861009D01*
X153861009Y-49077576D01*
X154285000Y-48053971D01*
X154285000Y-46946029D01*
X153861009Y-45922424D01*
X153077576Y-45138991D01*
X152053971Y-44715000D01*
X150946029Y-44715000D01*
X149922424Y-45138991D01*
X149138991Y-45922424D01*
X148715000Y-46946029D01*
X76285000Y-46946029D01*
X75861009Y-45922424D01*
X75077576Y-45138991D01*
X74053971Y-44715000D01*
X72946029Y-44715000D01*
X71922424Y-45138991D01*
X71138991Y-45922424D01*
X70715000Y-46946029D01*
X60735000Y-46946029D01*
X60735000Y-43210000D01*
X164265000Y-43210000D01*
X164265001Y-52427607D01*
X164265001Y-52427607D01*
G37*
X164265001Y-52427607D02*
X164250601Y-52500000D01*
X164307646Y-52786783D01*
X164470095Y-53029905D01*
X164713217Y-53192354D01*
X164927612Y-53235000D01*
X165000000Y-53249399D01*
X165072388Y-53235000D01*
X174290000Y-53235000D01*
X174290001Y-116765000D01*
X165072388Y-116765000D01*
X165000000Y-116750601D01*
X164927612Y-116765000D01*
X164713217Y-116807646D01*
X164470095Y-116970095D01*
X164307646Y-117213217D01*
X164250601Y-117500000D01*
X164265000Y-117572388D01*
X164265001Y-126790000D01*
X60735000Y-126790000D01*
X60735000Y-119545485D01*
X63215000Y-119545485D01*
X63215000Y-120454515D01*
X63562870Y-121294349D01*
X64205651Y-121937130D01*
X65045485Y-122285000D01*
X65954515Y-122285000D01*
X66772864Y-121946029D01*
X70715000Y-121946029D01*
X70715000Y-123053971D01*
X71138991Y-124077576D01*
X71922424Y-124861009D01*
X72946029Y-125285000D01*
X74053971Y-125285000D01*
X75077576Y-124861009D01*
X75861009Y-124077576D01*
X76285000Y-123053971D01*
X76285000Y-121946029D01*
X75861009Y-120922424D01*
X75077576Y-120138991D01*
X74053971Y-119715000D01*
X72946029Y-119715000D01*
X71922424Y-120138991D01*
X71138991Y-120922424D01*
X70715000Y-121946029D01*
X66772864Y-121946029D01*
X66794349Y-121937130D01*
X67437130Y-121294349D01*
X67785000Y-120454515D01*
X67785000Y-119545485D01*
X67437130Y-118705651D01*
X67135000Y-118403521D01*
X67135000Y-114300000D01*
X87219641Y-114300000D01*
X87335950Y-114884725D01*
X87667170Y-115380430D01*
X87950881Y-115570000D01*
X87667170Y-115759570D01*
X87335950Y-116255275D01*
X87219641Y-116840000D01*
X87335950Y-117424725D01*
X87667170Y-117920430D01*
X87950881Y-118110000D01*
X87667170Y-118299570D01*
X87335950Y-118795275D01*
X87219641Y-119380000D01*
X87335950Y-119964725D01*
X87667170Y-120460430D01*
X87950881Y-120650000D01*
X87667170Y-120839570D01*
X87335950Y-121335275D01*
X87219641Y-121920000D01*
X87335950Y-122504725D01*
X87667170Y-123000430D01*
X88162875Y-123331650D01*
X88600002Y-123418600D01*
X89199998Y-123418600D01*
X89637125Y-123331650D01*
X90132830Y-123000430D01*
X90464050Y-122504725D01*
X90580359Y-121920000D01*
X90464050Y-121335275D01*
X90132830Y-120839570D01*
X89849119Y-120650000D01*
X90132830Y-120460430D01*
X90263412Y-120265000D01*
X92208626Y-120265000D01*
X92295787Y-120282337D01*
X92382948Y-120265000D01*
X92382952Y-120265000D01*
X92641097Y-120213652D01*
X92933836Y-120018049D01*
X92983212Y-119944153D01*
X95012563Y-117914802D01*
X95207761Y-118110000D01*
X94863914Y-118453847D01*
X94615000Y-119054778D01*
X94615000Y-119705222D01*
X94863914Y-120306153D01*
X95207761Y-120650000D01*
X94863914Y-120993847D01*
X94615000Y-121594778D01*
X94615000Y-122245222D01*
X94863914Y-122846153D01*
X95323847Y-123306086D01*
X95924778Y-123555000D01*
X96575222Y-123555000D01*
X97176153Y-123306086D01*
X97636086Y-122846153D01*
X97885000Y-122245222D01*
X97885000Y-121946029D01*
X148715000Y-121946029D01*
X148715000Y-123053971D01*
X149138991Y-124077576D01*
X149922424Y-124861009D01*
X150946029Y-125285000D01*
X152053971Y-125285000D01*
X153077576Y-124861009D01*
X153861009Y-124077576D01*
X154285000Y-123053971D01*
X154285000Y-121946029D01*
X153861009Y-120922424D01*
X153077576Y-120138991D01*
X152053971Y-119715000D01*
X150946029Y-119715000D01*
X149922424Y-120138991D01*
X149138991Y-120922424D01*
X148715000Y-121946029D01*
X97885000Y-121946029D01*
X97885000Y-121594778D01*
X97636086Y-120993847D01*
X97292239Y-120650000D01*
X97636086Y-120306153D01*
X97885000Y-119705222D01*
X97885000Y-119054778D01*
X97636086Y-118453847D01*
X97292239Y-118110000D01*
X97636086Y-117766153D01*
X97885000Y-117165222D01*
X97885000Y-116514778D01*
X97636086Y-115913847D01*
X97292239Y-115570000D01*
X97636086Y-115226153D01*
X97885000Y-114625222D01*
X97885000Y-113974778D01*
X97636086Y-113373847D01*
X97292239Y-113030000D01*
X97636086Y-112686153D01*
X97885000Y-112085222D01*
X97885000Y-111434778D01*
X97636086Y-110833847D01*
X97292239Y-110490000D01*
X97636086Y-110146153D01*
X97885000Y-109545222D01*
X97885000Y-108894778D01*
X97636086Y-108293847D01*
X97176153Y-107833914D01*
X96575222Y-107585000D01*
X95924778Y-107585000D01*
X95323847Y-107833914D01*
X94863914Y-108293847D01*
X94846868Y-108335000D01*
X90163561Y-108335000D01*
X90076400Y-108317663D01*
X89989239Y-108335000D01*
X89989235Y-108335000D01*
X89731090Y-108386348D01*
X89512245Y-108532576D01*
X89512244Y-108532577D01*
X89438351Y-108581951D01*
X89388977Y-108655844D01*
X88335847Y-109708975D01*
X88261951Y-109758351D01*
X88066348Y-110051091D01*
X88026990Y-110248960D01*
X87884000Y-110248960D01*
X87636235Y-110298243D01*
X87426191Y-110438591D01*
X87285843Y-110648635D01*
X87236560Y-110896400D01*
X87236560Y-112623600D01*
X87285843Y-112871365D01*
X87426191Y-113081409D01*
X87636235Y-113221757D01*
X87662251Y-113226932D01*
X87335950Y-113715275D01*
X87219641Y-114300000D01*
X67135000Y-114300000D01*
X67135000Y-102651181D01*
X78475000Y-102651181D01*
X78564062Y-103098926D01*
X78903327Y-103606673D01*
X79411073Y-103945938D01*
X80010000Y-104065072D01*
X80608926Y-103945938D01*
X81116673Y-103606673D01*
X81455938Y-103098927D01*
X81545000Y-102651182D01*
X81545000Y-100548818D01*
X81455938Y-100101073D01*
X81116673Y-99593327D01*
X80608927Y-99254062D01*
X80010000Y-99134928D01*
X79411074Y-99254062D01*
X78903328Y-99593327D01*
X78564063Y-100101073D01*
X78475001Y-100548818D01*
X78475000Y-102651181D01*
X67135000Y-102651181D01*
X67135000Y-97737238D01*
X67326753Y-97545485D01*
X73215000Y-97545485D01*
X73215000Y-98454515D01*
X73562870Y-99294349D01*
X74205651Y-99937130D01*
X75045485Y-100285000D01*
X75954515Y-100285000D01*
X76794349Y-99937130D01*
X77437130Y-99294349D01*
X77785000Y-98454515D01*
X77785000Y-97545485D01*
X77437130Y-96705651D01*
X76794349Y-96062870D01*
X75954515Y-95715000D01*
X75045485Y-95715000D01*
X74205651Y-96062870D01*
X73562870Y-96705651D01*
X73215000Y-97545485D01*
X67326753Y-97545485D01*
X70052238Y-94820000D01*
X83422969Y-94820000D01*
X83455001Y-94981034D01*
X83455000Y-101761030D01*
X83542560Y-102201224D01*
X83542560Y-103400000D01*
X83591843Y-103647765D01*
X83732191Y-103857809D01*
X83942235Y-103998157D01*
X84190000Y-104047440D01*
X85990000Y-104047440D01*
X86237765Y-103998157D01*
X86447809Y-103857809D01*
X86588157Y-103647765D01*
X86637440Y-103400000D01*
X86637440Y-102201225D01*
X86725000Y-101761031D01*
X86725000Y-101600000D01*
X91042969Y-101600000D01*
X91075510Y-101763595D01*
X91075510Y-101925120D01*
X91137323Y-102074350D01*
X91169864Y-102237945D01*
X91262533Y-102376634D01*
X91324346Y-102525864D01*
X91438562Y-102640080D01*
X91531231Y-102778769D01*
X91669920Y-102871438D01*
X91784136Y-102985654D01*
X91933366Y-103047467D01*
X92072055Y-103140136D01*
X92235650Y-103172677D01*
X92384880Y-103234490D01*
X92546405Y-103234490D01*
X92548969Y-103235000D01*
X97425001Y-103235000D01*
X97425000Y-105248970D01*
X97392969Y-105410000D01*
X97425000Y-105571030D01*
X97519864Y-106047944D01*
X97881231Y-106588769D01*
X98017750Y-106679988D01*
X111760014Y-120422253D01*
X111851231Y-120558769D01*
X112392055Y-120920136D01*
X112868969Y-121015000D01*
X112868973Y-121015000D01*
X113029999Y-121047030D01*
X113191025Y-121015000D01*
X121955222Y-121015000D01*
X122106914Y-120952167D01*
X122267945Y-120920136D01*
X122404461Y-120828919D01*
X122556153Y-120766086D01*
X122672253Y-120649986D01*
X122808769Y-120558769D01*
X122899986Y-120422253D01*
X123016086Y-120306153D01*
X123078919Y-120154461D01*
X123170136Y-120017945D01*
X123202167Y-119856914D01*
X123265000Y-119705222D01*
X123265000Y-119541031D01*
X123297031Y-119380000D01*
X123265000Y-119218969D01*
X123265000Y-119054778D01*
X123202167Y-118903086D01*
X123170136Y-118742055D01*
X123078919Y-118605539D01*
X123016086Y-118453847D01*
X122899985Y-118337746D01*
X122808769Y-118201231D01*
X122672253Y-118110014D01*
X122672239Y-118110000D01*
X123016086Y-117766153D01*
X123265000Y-117165222D01*
X123265000Y-116514778D01*
X123016086Y-115913847D01*
X122672239Y-115570000D01*
X123016086Y-115226153D01*
X123033132Y-115185000D01*
X124093422Y-115185000D01*
X125677577Y-116769156D01*
X125726951Y-116843049D01*
X125800844Y-116892423D01*
X125800845Y-116892424D01*
X125917088Y-116970095D01*
X126019690Y-117038652D01*
X126277835Y-117090000D01*
X126277839Y-117090000D01*
X126365000Y-117107337D01*
X126452161Y-117090000D01*
X153582839Y-117090000D01*
X153670000Y-117107337D01*
X153757161Y-117090000D01*
X153757165Y-117090000D01*
X154015310Y-117038652D01*
X154308049Y-116843049D01*
X154357425Y-116769153D01*
X158679156Y-112447423D01*
X158753049Y-112398049D01*
X158948652Y-112105310D01*
X159000000Y-111847165D01*
X159000000Y-111847161D01*
X159017337Y-111760001D01*
X159000000Y-111672841D01*
X159000000Y-109825070D01*
X161564156Y-107260915D01*
X161638049Y-107211541D01*
X161833652Y-106918802D01*
X161885000Y-106660657D01*
X161885000Y-106660653D01*
X161902337Y-106573493D01*
X161899012Y-106556776D01*
X161925864Y-106545654D01*
X162385654Y-106085864D01*
X162634490Y-105485120D01*
X162634490Y-104834880D01*
X162385654Y-104234136D01*
X161925864Y-103774346D01*
X161325120Y-103525510D01*
X160674880Y-103525510D01*
X160074136Y-103774346D01*
X159614346Y-104234136D01*
X159365510Y-104834880D01*
X159365510Y-105485120D01*
X159614346Y-106085864D01*
X159925198Y-106396716D01*
X157550845Y-108771069D01*
X157476952Y-108820443D01*
X157427578Y-108894336D01*
X157427576Y-108894338D01*
X157281348Y-109113183D01*
X157212663Y-109458492D01*
X157230001Y-109545657D01*
X157230000Y-111393421D01*
X153303422Y-115320000D01*
X147551578Y-115320000D01*
X150424156Y-112447423D01*
X150498049Y-112398049D01*
X150693652Y-112105310D01*
X150745000Y-111847165D01*
X150745000Y-111847160D01*
X150762337Y-111760001D01*
X150745000Y-111672841D01*
X150745000Y-102601578D01*
X154234156Y-99112423D01*
X154308049Y-99063049D01*
X154417685Y-98898969D01*
X154503652Y-98770310D01*
X154512261Y-98727031D01*
X154555000Y-98512165D01*
X154555000Y-98512161D01*
X154572337Y-98425000D01*
X154555000Y-98337839D01*
X154555000Y-96886578D01*
X154878742Y-96562836D01*
X154791785Y-97000000D01*
X154883755Y-97462364D01*
X155145663Y-97854337D01*
X155363663Y-98000000D01*
X155145663Y-98145663D01*
X154883755Y-98537636D01*
X154802552Y-98945869D01*
X152470845Y-101277577D01*
X152396952Y-101326951D01*
X152347578Y-101400844D01*
X152347576Y-101400846D01*
X152201348Y-101619691D01*
X152132663Y-101965000D01*
X152150001Y-102052165D01*
X152150000Y-106547419D01*
X152109136Y-106564346D01*
X151649346Y-107024136D01*
X151400510Y-107624880D01*
X151400510Y-108275120D01*
X151649346Y-108875864D01*
X152109136Y-109335654D01*
X152709880Y-109584490D01*
X153360120Y-109584490D01*
X153960864Y-109335654D01*
X154420654Y-108875864D01*
X154669490Y-108275120D01*
X154669490Y-107624880D01*
X154420654Y-107024136D01*
X153960864Y-106564346D01*
X153920000Y-106547420D01*
X153920000Y-105641578D01*
X154690001Y-106411580D01*
X154690000Y-109488421D01*
X153400985Y-110777437D01*
X153360120Y-110760510D01*
X152709880Y-110760510D01*
X152109136Y-111009346D01*
X151649346Y-111469136D01*
X151400510Y-112069880D01*
X151400510Y-112720120D01*
X151649346Y-113320864D01*
X152109136Y-113780654D01*
X152709880Y-114029490D01*
X153360120Y-114029490D01*
X153960864Y-113780654D01*
X154420654Y-113320864D01*
X154669490Y-112720120D01*
X154669490Y-112069880D01*
X154652563Y-112029015D01*
X156139156Y-110542423D01*
X156213049Y-110493049D01*
X156408652Y-110200310D01*
X156460000Y-109942165D01*
X156460000Y-109942161D01*
X156477337Y-109855001D01*
X156460000Y-109767841D01*
X156460000Y-106132159D01*
X156477337Y-106044999D01*
X156460000Y-105957839D01*
X156460000Y-105957835D01*
X156408652Y-105699690D01*
X156213049Y-105406951D01*
X156139156Y-105357577D01*
X155190000Y-104408422D01*
X155190000Y-103883962D01*
X155537636Y-104116245D01*
X155883290Y-104185000D01*
X157516710Y-104185000D01*
X157862364Y-104116245D01*
X158254337Y-103854337D01*
X158516245Y-103462364D01*
X158608215Y-103000000D01*
X158516245Y-102537636D01*
X158254337Y-102145663D01*
X157986337Y-101966591D01*
X158154337Y-101854337D01*
X158416245Y-101462364D01*
X158508215Y-101000000D01*
X158416245Y-100537636D01*
X158154337Y-100145663D01*
X157986337Y-100033409D01*
X158254337Y-99854337D01*
X158516245Y-99462364D01*
X158608215Y-99000000D01*
X158516245Y-98537636D01*
X158254337Y-98145663D01*
X158036337Y-98000000D01*
X158208447Y-97885000D01*
X165016839Y-97885000D01*
X165104000Y-97902337D01*
X165191161Y-97885000D01*
X165191165Y-97885000D01*
X165449310Y-97833652D01*
X165730600Y-97645699D01*
X165767170Y-97700430D01*
X166262875Y-98031650D01*
X166700002Y-98118600D01*
X167299998Y-98118600D01*
X167737125Y-98031650D01*
X168232830Y-97700430D01*
X168564050Y-97204725D01*
X168680359Y-96620000D01*
X168564050Y-96035275D01*
X168232830Y-95539570D01*
X167949119Y-95350000D01*
X168232830Y-95160430D01*
X168564050Y-94664725D01*
X168680359Y-94080000D01*
X168564050Y-93495275D01*
X168232830Y-92999570D01*
X167949119Y-92810000D01*
X168232830Y-92620430D01*
X168564050Y-92124725D01*
X168680359Y-91540000D01*
X168564050Y-90955275D01*
X168237749Y-90466932D01*
X168263765Y-90461757D01*
X168473809Y-90321409D01*
X168614157Y-90111365D01*
X168663440Y-89863600D01*
X168663440Y-88136400D01*
X168614157Y-87888635D01*
X168473809Y-87678591D01*
X168263765Y-87538243D01*
X168016000Y-87488960D01*
X165984000Y-87488960D01*
X165736235Y-87538243D01*
X165526191Y-87678591D01*
X165385843Y-87888635D01*
X165374876Y-87943769D01*
X165318990Y-87932653D01*
X165231829Y-87949990D01*
X157961492Y-87949990D01*
X157862364Y-87883755D01*
X157516710Y-87815000D01*
X155883290Y-87815000D01*
X155537636Y-87883755D01*
X155145663Y-88145663D01*
X154883755Y-88537636D01*
X154791785Y-89000000D01*
X154883755Y-89462364D01*
X155145663Y-89854337D01*
X155363663Y-90000000D01*
X155145663Y-90145663D01*
X154883755Y-90537636D01*
X154791785Y-91000000D01*
X154883755Y-91462364D01*
X155145663Y-91854337D01*
X155363663Y-92000000D01*
X155145663Y-92145663D01*
X154883755Y-92537636D01*
X154791785Y-93000000D01*
X154883755Y-93462364D01*
X155145663Y-93854337D01*
X155363663Y-94000000D01*
X155211192Y-94101878D01*
X155190000Y-94097663D01*
X155102839Y-94115000D01*
X155102835Y-94115000D01*
X154844690Y-94166348D01*
X154625845Y-94312576D01*
X154625844Y-94312577D01*
X154551951Y-94361951D01*
X154502577Y-94435844D01*
X153105847Y-95832575D01*
X153031951Y-95881951D01*
X152836348Y-96174691D01*
X152785000Y-96432836D01*
X152785000Y-96432839D01*
X152767663Y-96520000D01*
X152785000Y-96607161D01*
X152785001Y-98058420D01*
X149295847Y-101547575D01*
X149221951Y-101596951D01*
X149026348Y-101889691D01*
X148975000Y-102147836D01*
X148975000Y-102147839D01*
X148957663Y-102235000D01*
X148975000Y-102322161D01*
X148975001Y-111393420D01*
X146318422Y-114050000D01*
X138359608Y-114050000D01*
X138312164Y-114002556D01*
X138578965Y-113903958D01*
X138805401Y-113294418D01*
X138781341Y-112644623D01*
X138578965Y-112156042D01*
X138345817Y-112069880D01*
X141240510Y-112069880D01*
X141240510Y-112720120D01*
X141489346Y-113320864D01*
X141949136Y-113780654D01*
X142549880Y-114029490D01*
X143200120Y-114029490D01*
X143800864Y-113780654D01*
X144260654Y-113320864D01*
X144509490Y-112720120D01*
X144509490Y-112069880D01*
X144260654Y-111469136D01*
X143800864Y-111009346D01*
X143200120Y-110760510D01*
X142549880Y-110760510D01*
X141949136Y-111009346D01*
X141489346Y-111469136D01*
X141240510Y-112069880D01*
X138345817Y-112069880D01*
X138312163Y-112057443D01*
X137339605Y-113030000D01*
X137353748Y-113044142D01*
X137174142Y-113223748D01*
X137160000Y-113209605D01*
X137145858Y-113223748D01*
X136966252Y-113044142D01*
X136980395Y-113030000D01*
X136007837Y-112057443D01*
X135741035Y-112156042D01*
X135514599Y-112765582D01*
X135538659Y-113415377D01*
X135741035Y-113903958D01*
X136007836Y-114002556D01*
X135960392Y-114050000D01*
X131811579Y-114050000D01*
X129639416Y-111877837D01*
X136187443Y-111877837D01*
X137160000Y-112850395D01*
X138132557Y-111877837D01*
X138033958Y-111611035D01*
X137424418Y-111384599D01*
X136774623Y-111408659D01*
X136286042Y-111611035D01*
X136187443Y-111877837D01*
X129639416Y-111877837D01*
X126863742Y-109102163D01*
X141902443Y-109102163D01*
X142001042Y-109368965D01*
X142610582Y-109595401D01*
X143260377Y-109571341D01*
X143748958Y-109368965D01*
X143847557Y-109102163D01*
X142875000Y-108129605D01*
X141902443Y-109102163D01*
X126863742Y-109102163D01*
X125782425Y-108020847D01*
X125733049Y-107946951D01*
X125440310Y-107751348D01*
X125182165Y-107700000D01*
X125182161Y-107700000D01*
X125109676Y-107685582D01*
X141229599Y-107685582D01*
X141253659Y-108335377D01*
X141456035Y-108823958D01*
X141722837Y-108922557D01*
X142695395Y-107950000D01*
X143054605Y-107950000D01*
X144027163Y-108922557D01*
X144293965Y-108823958D01*
X144520401Y-108214418D01*
X144496341Y-107564623D01*
X144293965Y-107076042D01*
X144027163Y-106977443D01*
X143054605Y-107950000D01*
X142695395Y-107950000D01*
X141722837Y-106977443D01*
X141456035Y-107076042D01*
X141229599Y-107685582D01*
X125109676Y-107685582D01*
X125095000Y-107682663D01*
X125007839Y-107700000D01*
X120102159Y-107700000D01*
X120014999Y-107682663D01*
X119927839Y-107700000D01*
X119927835Y-107700000D01*
X119669690Y-107751348D01*
X119561880Y-107823385D01*
X119450845Y-107897576D01*
X119450844Y-107897577D01*
X119376951Y-107946951D01*
X119327577Y-108020844D01*
X118180847Y-109167575D01*
X118106951Y-109216951D01*
X117911348Y-109509691D01*
X117860000Y-109767836D01*
X117860000Y-109767839D01*
X117842663Y-109855000D01*
X117860000Y-109942161D01*
X117860001Y-115482835D01*
X117842663Y-115570000D01*
X117911348Y-115915309D01*
X118057576Y-116134154D01*
X118057578Y-116134156D01*
X118106952Y-116208049D01*
X118180845Y-116257423D01*
X119327576Y-117404155D01*
X119376951Y-117478049D01*
X119450844Y-117527423D01*
X119450845Y-117527424D01*
X119514452Y-117569925D01*
X119669690Y-117673652D01*
X119927835Y-117725000D01*
X119927839Y-117725000D01*
X120014999Y-117742337D01*
X120102159Y-117725000D01*
X120226868Y-117725000D01*
X120235152Y-117745000D01*
X113707239Y-117745000D01*
X101047119Y-105084880D01*
X131715510Y-105084880D01*
X131715510Y-105735120D01*
X131964346Y-106335864D01*
X132424136Y-106795654D01*
X133024880Y-107044490D01*
X133675120Y-107044490D01*
X134270593Y-106797837D01*
X141902443Y-106797837D01*
X142875000Y-107770395D01*
X143847557Y-106797837D01*
X143748958Y-106531035D01*
X143139418Y-106304599D01*
X142489623Y-106328659D01*
X142001042Y-106531035D01*
X141902443Y-106797837D01*
X134270593Y-106797837D01*
X134275864Y-106795654D01*
X134735654Y-106335864D01*
X134984490Y-105735120D01*
X134984490Y-105084880D01*
X134735654Y-104484136D01*
X134275864Y-104024346D01*
X133675120Y-103775510D01*
X133024880Y-103775510D01*
X132424136Y-104024346D01*
X131964346Y-104484136D01*
X131715510Y-105084880D01*
X101047119Y-105084880D01*
X100695000Y-104732762D01*
X100695000Y-101761030D01*
X100727031Y-101600000D01*
X100695000Y-101438969D01*
X100695000Y-101274880D01*
X101235510Y-101274880D01*
X101235510Y-101925120D01*
X101484346Y-102525864D01*
X101944136Y-102985654D01*
X102544880Y-103234490D01*
X103195120Y-103234490D01*
X103795864Y-102985654D01*
X104255654Y-102525864D01*
X104272580Y-102485000D01*
X105016560Y-102485000D01*
X105016560Y-102616000D01*
X105065843Y-102863765D01*
X105206191Y-103073809D01*
X105416235Y-103214157D01*
X105664000Y-103263440D01*
X107696000Y-103263440D01*
X107943765Y-103214157D01*
X108153809Y-103073809D01*
X108246463Y-102935144D01*
X108575812Y-103155208D01*
X109057391Y-103251000D01*
X109382609Y-103251000D01*
X109864188Y-103155208D01*
X110410305Y-102790305D01*
X110775208Y-102244188D01*
X110903345Y-101600000D01*
X110775208Y-100955812D01*
X110410305Y-100409695D01*
X109864188Y-100044792D01*
X109382609Y-99949000D01*
X109057391Y-99949000D01*
X108575812Y-100044792D01*
X108246463Y-100264856D01*
X108153809Y-100126191D01*
X107943765Y-99985843D01*
X107696000Y-99936560D01*
X105664000Y-99936560D01*
X105416235Y-99985843D01*
X105206191Y-100126191D01*
X105065843Y-100336235D01*
X105016560Y-100584000D01*
X105016560Y-100715000D01*
X104272580Y-100715000D01*
X104255654Y-100674136D01*
X103795864Y-100214346D01*
X103195120Y-99965510D01*
X102544880Y-99965510D01*
X101944136Y-100214346D01*
X101484346Y-100674136D01*
X101235510Y-101274880D01*
X100695000Y-101274880D01*
X100695000Y-99737238D01*
X103550522Y-96881716D01*
X103685629Y-97207894D01*
X104047106Y-97569371D01*
X104519398Y-97765000D01*
X105030602Y-97765000D01*
X105502894Y-97569371D01*
X105864371Y-97207894D01*
X106060000Y-96735602D01*
X106060000Y-96224398D01*
X105864371Y-95752106D01*
X105544499Y-95432234D01*
X105953769Y-95158769D01*
X106315136Y-94617945D01*
X106442031Y-93980000D01*
X106410000Y-93818969D01*
X106410000Y-92233980D01*
X106579288Y-91980622D01*
X106680000Y-91474307D01*
X106680000Y-94615000D01*
X106728336Y-94858004D01*
X106865987Y-95064013D01*
X107071996Y-95201664D01*
X107315000Y-95250000D01*
X127000000Y-95250000D01*
X127243004Y-95201664D01*
X127449013Y-95064013D01*
X127586664Y-94858004D01*
X127635000Y-94615000D01*
X127635000Y-91114880D01*
X131715510Y-91114880D01*
X131715510Y-91765120D01*
X131964346Y-92365864D01*
X132424136Y-92825654D01*
X132465001Y-92842581D01*
X132465000Y-93847419D01*
X132424136Y-93864346D01*
X131964346Y-94324136D01*
X131715510Y-94924880D01*
X131715510Y-95575120D01*
X131964346Y-96175864D01*
X132424136Y-96635654D01*
X133024880Y-96884490D01*
X133675120Y-96884490D01*
X134275864Y-96635654D01*
X134370000Y-96541518D01*
X134370000Y-97702839D01*
X134352663Y-97790000D01*
X134370000Y-97877161D01*
X134370000Y-97877164D01*
X134421348Y-98135309D01*
X134616951Y-98428049D01*
X134690847Y-98477425D01*
X136275001Y-100061580D01*
X136275000Y-101467419D01*
X136234136Y-101484346D01*
X135774346Y-101944136D01*
X135525510Y-102544880D01*
X135525510Y-103195120D01*
X135774346Y-103795864D01*
X136234136Y-104255654D01*
X136834880Y-104504490D01*
X137485120Y-104504490D01*
X138085864Y-104255654D01*
X138545654Y-103795864D01*
X138747011Y-103309744D01*
X139456197Y-103309744D01*
X139456602Y-103336146D01*
X139672276Y-103748118D01*
X140029187Y-104046196D01*
X140473000Y-104185000D01*
X141173000Y-104185000D01*
X141173000Y-103127000D01*
X141427000Y-103127000D01*
X141427000Y-104185000D01*
X142127000Y-104185000D01*
X142570813Y-104046196D01*
X142927724Y-103748118D01*
X143143398Y-103336146D01*
X143143803Y-103309744D01*
X143018361Y-103127000D01*
X141427000Y-103127000D01*
X141173000Y-103127000D01*
X139581639Y-103127000D01*
X139456197Y-103309744D01*
X138747011Y-103309744D01*
X138794490Y-103195120D01*
X138794490Y-102544880D01*
X138545654Y-101944136D01*
X138085864Y-101484346D01*
X138045000Y-101467420D01*
X138045000Y-99782161D01*
X138062337Y-99695000D01*
X138045000Y-99607839D01*
X138045000Y-99607835D01*
X137993652Y-99349690D01*
X137894863Y-99201843D01*
X137847424Y-99130845D01*
X137847423Y-99130844D01*
X137798049Y-99056951D01*
X137724156Y-99007577D01*
X136871069Y-98154490D01*
X137485120Y-98154490D01*
X138085864Y-97905654D01*
X138545654Y-97445864D01*
X138794490Y-96845120D01*
X138794490Y-96194880D01*
X138777563Y-96154015D01*
X139046579Y-95885000D01*
X139791553Y-95885000D01*
X139963663Y-96000000D01*
X139745663Y-96145663D01*
X139483755Y-96537636D01*
X139391785Y-97000000D01*
X139483755Y-97462364D01*
X139745663Y-97854337D01*
X139963663Y-98000000D01*
X139745663Y-98145663D01*
X139483755Y-98537636D01*
X139391785Y-99000000D01*
X139483755Y-99462364D01*
X139745663Y-99854337D01*
X139963663Y-100000000D01*
X139745663Y-100145663D01*
X139483755Y-100537636D01*
X139391785Y-101000000D01*
X139483755Y-101462364D01*
X139745663Y-101854337D01*
X139969335Y-102003790D01*
X139672276Y-102251882D01*
X139456602Y-102663854D01*
X139456197Y-102690256D01*
X139581639Y-102873000D01*
X141173000Y-102873000D01*
X141173000Y-102853000D01*
X141427000Y-102853000D01*
X141427000Y-102873000D01*
X143018361Y-102873000D01*
X143143803Y-102690256D01*
X143143398Y-102663854D01*
X142927724Y-102251882D01*
X142630665Y-102003790D01*
X142808447Y-101885000D01*
X145292839Y-101885000D01*
X145380000Y-101902337D01*
X145467161Y-101885000D01*
X145467165Y-101885000D01*
X145725310Y-101833652D01*
X146018049Y-101638049D01*
X146067425Y-101564153D01*
X153599156Y-94032422D01*
X153673049Y-93983049D01*
X153736046Y-93888769D01*
X153868652Y-93690310D01*
X153879715Y-93634691D01*
X153920000Y-93432165D01*
X153920000Y-93432161D01*
X153937337Y-93345000D01*
X153920000Y-93257839D01*
X153920000Y-88631578D01*
X155941579Y-86610000D01*
X163742839Y-86610000D01*
X163830000Y-86627337D01*
X163917161Y-86610000D01*
X163917165Y-86610000D01*
X164175310Y-86558652D01*
X164468049Y-86363049D01*
X164517425Y-86289153D01*
X165664157Y-85142422D01*
X165738049Y-85093049D01*
X165787422Y-85019157D01*
X165787424Y-85019155D01*
X165933651Y-84800311D01*
X166002337Y-84455001D01*
X166001731Y-84451951D01*
X165933651Y-84109690D01*
X165885000Y-84036879D01*
X165885000Y-81562580D01*
X165925864Y-81545654D01*
X166385654Y-81085864D01*
X166634490Y-80485120D01*
X166634490Y-79834880D01*
X166385654Y-79234136D01*
X165925864Y-78774346D01*
X165325120Y-78525510D01*
X164674880Y-78525510D01*
X164074136Y-78774346D01*
X163614346Y-79234136D01*
X163365510Y-79834880D01*
X163365510Y-80485120D01*
X163614346Y-81085864D01*
X164074136Y-81545654D01*
X164115001Y-81562581D01*
X164115000Y-84188421D01*
X163463422Y-84840000D01*
X155662159Y-84840000D01*
X155574999Y-84822663D01*
X155487839Y-84840000D01*
X155487835Y-84840000D01*
X155229690Y-84891348D01*
X155229688Y-84891349D01*
X155229689Y-84891349D01*
X155010845Y-85037576D01*
X155010844Y-85037577D01*
X154936951Y-85086951D01*
X154887577Y-85160844D01*
X152470845Y-87577577D01*
X152396952Y-87626951D01*
X152347578Y-87700844D01*
X152347576Y-87700846D01*
X152201348Y-87919691D01*
X152132663Y-88265000D01*
X152150001Y-88352165D01*
X152150000Y-92978421D01*
X145013422Y-100115000D01*
X142808447Y-100115000D01*
X142636337Y-100000000D01*
X142808447Y-99885000D01*
X144117839Y-99885000D01*
X144205000Y-99902337D01*
X144292161Y-99885000D01*
X144292165Y-99885000D01*
X144550310Y-99833652D01*
X144843049Y-99638049D01*
X144892425Y-99564153D01*
X151694156Y-92762422D01*
X151768049Y-92713049D01*
X151829936Y-92620430D01*
X151963652Y-92420310D01*
X151979114Y-92342576D01*
X152015000Y-92162165D01*
X152015000Y-92162161D01*
X152032337Y-92075000D01*
X152015000Y-91987839D01*
X152015000Y-85396578D01*
X155634015Y-81777563D01*
X155674880Y-81794490D01*
X156325120Y-81794490D01*
X156613884Y-81674880D01*
X159365510Y-81674880D01*
X159365510Y-82325120D01*
X159614346Y-82925864D01*
X160074136Y-83385654D01*
X160674880Y-83634490D01*
X161325120Y-83634490D01*
X161925864Y-83385654D01*
X162385654Y-82925864D01*
X162634490Y-82325120D01*
X162634490Y-81674880D01*
X162385654Y-81074136D01*
X161925864Y-80614346D01*
X161325120Y-80365510D01*
X160674880Y-80365510D01*
X160074136Y-80614346D01*
X159614346Y-81074136D01*
X159365510Y-81674880D01*
X156613884Y-81674880D01*
X156925864Y-81545654D01*
X157385654Y-81085864D01*
X157634490Y-80485120D01*
X157634490Y-79834880D01*
X157385654Y-79234136D01*
X156925864Y-78774346D01*
X156325120Y-78525510D01*
X155674880Y-78525510D01*
X155074136Y-78774346D01*
X154614346Y-79234136D01*
X154365510Y-79834880D01*
X154365510Y-80485120D01*
X154382437Y-80525985D01*
X150565845Y-84342577D01*
X150491952Y-84391951D01*
X150442578Y-84465844D01*
X150442576Y-84465846D01*
X150296348Y-84684691D01*
X150227663Y-85030000D01*
X150245001Y-85117165D01*
X150245000Y-91708421D01*
X143838422Y-98115000D01*
X142808447Y-98115000D01*
X142636337Y-98000000D01*
X142808447Y-97885000D01*
X142942839Y-97885000D01*
X143030000Y-97902337D01*
X143117161Y-97885000D01*
X143117165Y-97885000D01*
X143375310Y-97833652D01*
X143668049Y-97638049D01*
X143717425Y-97564153D01*
X147564156Y-93717423D01*
X147638049Y-93668049D01*
X147708873Y-93562055D01*
X147833652Y-93375310D01*
X147839619Y-93345310D01*
X147885000Y-93117165D01*
X147885000Y-93117161D01*
X147902337Y-93030000D01*
X147885000Y-92942839D01*
X147885000Y-81562580D01*
X147925864Y-81545654D01*
X148385654Y-81085864D01*
X148634490Y-80485120D01*
X148634490Y-79834880D01*
X148385654Y-79234136D01*
X147925864Y-78774346D01*
X147325120Y-78525510D01*
X146674880Y-78525510D01*
X146074136Y-78774346D01*
X145614346Y-79234136D01*
X145365510Y-79834880D01*
X145365510Y-80485120D01*
X145614346Y-81085864D01*
X146074136Y-81545654D01*
X146115001Y-81562581D01*
X146115001Y-86231290D01*
X146001280Y-86117569D01*
X145620874Y-85960000D01*
X145209126Y-85960000D01*
X144846993Y-86110000D01*
X144092159Y-86110000D01*
X144004999Y-86092663D01*
X143917839Y-86110000D01*
X143917835Y-86110000D01*
X143659690Y-86161348D01*
X143659688Y-86161349D01*
X143659689Y-86161349D01*
X143440845Y-86307576D01*
X143440844Y-86307577D01*
X143366951Y-86356951D01*
X143317577Y-86430844D01*
X141945862Y-87802560D01*
X140050000Y-87802560D01*
X139802235Y-87851843D01*
X139592191Y-87992191D01*
X139451843Y-88202235D01*
X139402560Y-88450000D01*
X139402560Y-89550000D01*
X139451843Y-89797765D01*
X139592191Y-90007809D01*
X139752612Y-90115000D01*
X137687161Y-90115000D01*
X137600000Y-90097663D01*
X137512839Y-90115000D01*
X137512835Y-90115000D01*
X137254690Y-90166348D01*
X136961951Y-90361951D01*
X136912576Y-90435846D01*
X136793422Y-90555000D01*
X134752580Y-90555000D01*
X134735654Y-90514136D01*
X134275864Y-90054346D01*
X133675120Y-89805510D01*
X133024880Y-89805510D01*
X132424136Y-90054346D01*
X131964346Y-90514136D01*
X131715510Y-91114880D01*
X127635000Y-91114880D01*
X127635000Y-83185000D01*
X127586664Y-82941996D01*
X127449013Y-82735987D01*
X127243004Y-82598336D01*
X127000000Y-82550000D01*
X107315000Y-82550000D01*
X107071996Y-82598336D01*
X106865987Y-82735987D01*
X106728336Y-82941996D01*
X106680000Y-83185000D01*
X106680000Y-86325693D01*
X106579288Y-85819378D01*
X106410000Y-85566020D01*
X106410000Y-83658969D01*
X106315136Y-83182055D01*
X105953769Y-82641231D01*
X105544499Y-82367766D01*
X105864371Y-82047894D01*
X106060000Y-81575602D01*
X106060000Y-81064398D01*
X106014637Y-80954880D01*
X131715510Y-80954880D01*
X131715510Y-81605120D01*
X131964346Y-82205864D01*
X132424136Y-82665654D01*
X133024880Y-82914490D01*
X133675120Y-82914490D01*
X134275864Y-82665654D01*
X134735654Y-82205864D01*
X134984490Y-81605120D01*
X134984490Y-80954880D01*
X134735654Y-80354136D01*
X134275864Y-79894346D01*
X133675120Y-79645510D01*
X133024880Y-79645510D01*
X132424136Y-79894346D01*
X131964346Y-80354136D01*
X131715510Y-80954880D01*
X106014637Y-80954880D01*
X105864371Y-80592106D01*
X105502894Y-80230629D01*
X105030602Y-80035000D01*
X104519398Y-80035000D01*
X104047106Y-80230629D01*
X103685629Y-80592106D01*
X103490000Y-81064398D01*
X103490000Y-81575602D01*
X103685629Y-82047894D01*
X104005501Y-82367766D01*
X103596231Y-82641231D01*
X103234864Y-83182056D01*
X103140000Y-83658970D01*
X103140000Y-84725000D01*
X102600000Y-84725000D01*
X102600000Y-79417238D01*
X103392239Y-78625000D01*
X105118970Y-78625000D01*
X105280000Y-78657031D01*
X105441030Y-78625000D01*
X105605222Y-78625000D01*
X105756914Y-78562167D01*
X105917945Y-78530136D01*
X106054461Y-78438919D01*
X106206153Y-78376086D01*
X106322253Y-78259986D01*
X106458769Y-78168769D01*
X106476299Y-78142532D01*
X119807073Y-78142532D01*
X119905736Y-78409387D01*
X120515461Y-78635908D01*
X121165460Y-78611856D01*
X121654264Y-78409387D01*
X121752927Y-78142532D01*
X120780000Y-77169605D01*
X119807073Y-78142532D01*
X106476299Y-78142532D01*
X106549986Y-78032253D01*
X106666086Y-77916153D01*
X106666087Y-77916151D01*
X107856777Y-76725461D01*
X119134092Y-76725461D01*
X119158144Y-77375460D01*
X119360613Y-77864264D01*
X119627468Y-77962927D01*
X120600395Y-76990000D01*
X120959605Y-76990000D01*
X121932532Y-77962927D01*
X122199387Y-77864264D01*
X122425908Y-77254539D01*
X122401856Y-76604540D01*
X122199387Y-76115736D01*
X121932532Y-76017073D01*
X120959605Y-76990000D01*
X120600395Y-76990000D01*
X119627468Y-76017073D01*
X119360613Y-76115736D01*
X119134092Y-76725461D01*
X107856777Y-76725461D01*
X108744770Y-75837468D01*
X119807073Y-75837468D01*
X120780000Y-76810395D01*
X121752927Y-75837468D01*
X121654264Y-75570613D01*
X121044539Y-75344092D01*
X120394540Y-75368144D01*
X119905736Y-75570613D01*
X119807073Y-75837468D01*
X108744770Y-75837468D01*
X117117460Y-67464778D01*
X119145000Y-67464778D01*
X119145000Y-68115222D01*
X119393914Y-68716153D01*
X119853847Y-69176086D01*
X120454778Y-69425000D01*
X121105222Y-69425000D01*
X121706153Y-69176086D01*
X122166086Y-68716153D01*
X122357151Y-68254880D01*
X134255510Y-68254880D01*
X134255510Y-68905120D01*
X134504346Y-69505864D01*
X134964136Y-69965654D01*
X135564880Y-70214490D01*
X136215120Y-70214490D01*
X136255985Y-70197563D01*
X136275001Y-70216580D01*
X136275000Y-71934343D01*
X135975680Y-72233663D01*
X135763000Y-72747119D01*
X135763000Y-73302881D01*
X135975680Y-73816337D01*
X136368663Y-74209320D01*
X136575513Y-74295000D01*
X136368663Y-74380680D01*
X135975680Y-74773663D01*
X135763000Y-75287119D01*
X135763000Y-75842881D01*
X135975680Y-76356337D01*
X136368663Y-76749320D01*
X136575513Y-76835000D01*
X136368663Y-76920680D01*
X135975680Y-77313663D01*
X135763000Y-77827119D01*
X135763000Y-78382881D01*
X135975680Y-78896337D01*
X136368663Y-79289320D01*
X136882119Y-79502000D01*
X137437881Y-79502000D01*
X137951337Y-79289320D01*
X138180001Y-79060656D01*
X138180000Y-81548421D01*
X136595845Y-83132577D01*
X136521952Y-83181951D01*
X136472578Y-83255844D01*
X136472576Y-83255846D01*
X136326348Y-83474691D01*
X136257663Y-83820000D01*
X136275001Y-83907165D01*
X136275001Y-84957419D01*
X136234136Y-84974346D01*
X135774346Y-85434136D01*
X135525510Y-86034880D01*
X135525510Y-86685120D01*
X135774346Y-87285864D01*
X136234136Y-87745654D01*
X136834880Y-87994490D01*
X137485120Y-87994490D01*
X138085864Y-87745654D01*
X138545654Y-87285864D01*
X138794490Y-86685120D01*
X138794490Y-86034880D01*
X138545654Y-85434136D01*
X138085864Y-84974346D01*
X138045000Y-84957420D01*
X138045000Y-84186578D01*
X139629156Y-82602423D01*
X139703049Y-82553049D01*
X139898652Y-82260310D01*
X139950000Y-82002165D01*
X139950000Y-82002161D01*
X139967337Y-81915000D01*
X139950000Y-81827839D01*
X139950000Y-77557161D01*
X139967337Y-77470000D01*
X139950000Y-77382839D01*
X139950000Y-77382835D01*
X139898652Y-77124690D01*
X139808655Y-76990000D01*
X139752424Y-76905845D01*
X139752423Y-76905844D01*
X139703049Y-76831951D01*
X139629156Y-76782577D01*
X138557000Y-75710422D01*
X138557000Y-75287119D01*
X138344320Y-74773663D01*
X137951337Y-74380680D01*
X137744487Y-74295000D01*
X137951337Y-74209320D01*
X138344320Y-73816337D01*
X138557000Y-73302881D01*
X138557000Y-72747119D01*
X138344320Y-72233663D01*
X138045000Y-71934343D01*
X138045000Y-69937159D01*
X138062337Y-69849999D01*
X138045000Y-69762839D01*
X138045000Y-69762835D01*
X137993652Y-69504690D01*
X137887157Y-69345310D01*
X137847424Y-69285845D01*
X137847423Y-69285844D01*
X137798049Y-69211951D01*
X137724156Y-69162577D01*
X137507563Y-68945985D01*
X137524490Y-68905120D01*
X137524490Y-68674880D01*
X141365510Y-68674880D01*
X141365510Y-69325120D01*
X141614346Y-69925864D01*
X141990001Y-70301519D01*
X141990000Y-71934343D01*
X141690680Y-72233663D01*
X141478000Y-72747119D01*
X141478000Y-73302881D01*
X141690680Y-73816337D01*
X142083663Y-74209320D01*
X142290513Y-74295000D01*
X142083663Y-74380680D01*
X141690680Y-74773663D01*
X141478000Y-75287119D01*
X141478000Y-75842881D01*
X141690680Y-76356337D01*
X142083663Y-76749320D01*
X142290513Y-76835000D01*
X142083663Y-76920680D01*
X141690680Y-77313663D01*
X141478000Y-77827119D01*
X141478000Y-78382881D01*
X141690680Y-78896337D01*
X142083663Y-79289320D01*
X142597119Y-79502000D01*
X143152881Y-79502000D01*
X143666337Y-79289320D01*
X144059320Y-78896337D01*
X144272000Y-78382881D01*
X144272000Y-77827119D01*
X144059320Y-77313663D01*
X143666337Y-76920680D01*
X143459487Y-76835000D01*
X143666337Y-76749320D01*
X143965657Y-76450000D01*
X144692839Y-76450000D01*
X144780000Y-76467337D01*
X144867161Y-76450000D01*
X144867165Y-76450000D01*
X145125310Y-76398652D01*
X145418049Y-76203049D01*
X145467425Y-76129153D01*
X147564156Y-74032423D01*
X147638049Y-73983049D01*
X147833652Y-73690310D01*
X147885000Y-73432165D01*
X147885000Y-73432161D01*
X147902337Y-73345001D01*
X147885000Y-73257841D01*
X147885000Y-72747119D01*
X149733000Y-72747119D01*
X149733000Y-73302881D01*
X149945680Y-73816337D01*
X150338663Y-74209320D01*
X150545513Y-74295000D01*
X150338663Y-74380680D01*
X149945680Y-74773663D01*
X149733000Y-75287119D01*
X149733000Y-75842881D01*
X149945680Y-76356337D01*
X150338663Y-76749320D01*
X150545513Y-76835000D01*
X150338663Y-76920680D01*
X149945680Y-77313663D01*
X149733000Y-77827119D01*
X149733000Y-78382881D01*
X149945680Y-78896337D01*
X150338663Y-79289320D01*
X150852119Y-79502000D01*
X151407881Y-79502000D01*
X151921337Y-79289320D01*
X152314320Y-78896337D01*
X152527000Y-78382881D01*
X152527000Y-77827119D01*
X152314320Y-77313663D01*
X151921337Y-76920680D01*
X151714487Y-76835000D01*
X151921337Y-76749320D01*
X152220657Y-76450000D01*
X153582839Y-76450000D01*
X153670000Y-76467337D01*
X153757161Y-76450000D01*
X153757165Y-76450000D01*
X154015310Y-76398652D01*
X154308049Y-76203049D01*
X154357425Y-76129153D01*
X156564156Y-73922423D01*
X156638049Y-73873049D01*
X156785645Y-73652158D01*
X156833652Y-73580310D01*
X156855532Y-73470309D01*
X156885000Y-73322165D01*
X156885000Y-73322161D01*
X156902337Y-73235000D01*
X156885000Y-73147839D01*
X156885000Y-71402580D01*
X156925864Y-71385654D01*
X157385654Y-70925864D01*
X157634490Y-70325120D01*
X157634490Y-69674880D01*
X157385654Y-69074136D01*
X156986398Y-68674880D01*
X159020510Y-68674880D01*
X159020510Y-69325120D01*
X159269346Y-69925864D01*
X159729136Y-70385654D01*
X159770001Y-70402581D01*
X159770000Y-71934343D01*
X159470680Y-72233663D01*
X159258000Y-72747119D01*
X159258000Y-73302881D01*
X159470680Y-73816337D01*
X159863663Y-74209320D01*
X160070513Y-74295000D01*
X159863663Y-74380680D01*
X159470680Y-74773663D01*
X159258000Y-75287119D01*
X159258000Y-75842881D01*
X159470680Y-76356337D01*
X159863663Y-76749320D01*
X160070513Y-76835000D01*
X159863663Y-76920680D01*
X159470680Y-77313663D01*
X159258000Y-77827119D01*
X159258000Y-78382881D01*
X159470680Y-78896337D01*
X159863663Y-79289320D01*
X160377119Y-79502000D01*
X160932881Y-79502000D01*
X161446337Y-79289320D01*
X161839320Y-78896337D01*
X162052000Y-78382881D01*
X162052000Y-77827119D01*
X161839320Y-77313663D01*
X161446337Y-76920680D01*
X161239487Y-76835000D01*
X161446337Y-76749320D01*
X161745657Y-76450000D01*
X162472839Y-76450000D01*
X162560000Y-76467337D01*
X162647161Y-76450000D01*
X162647165Y-76450000D01*
X162905310Y-76398652D01*
X163198049Y-76203049D01*
X163247425Y-76129153D01*
X165564156Y-73812423D01*
X165638049Y-73763049D01*
X165712145Y-73652158D01*
X165833651Y-73470311D01*
X165833652Y-73470310D01*
X165885000Y-73212165D01*
X165885000Y-73212161D01*
X165902337Y-73125001D01*
X165885000Y-73037841D01*
X165885000Y-71402580D01*
X165925864Y-71385654D01*
X166385654Y-70925864D01*
X166634490Y-70325120D01*
X166634490Y-69674880D01*
X166385654Y-69074136D01*
X165925864Y-68614346D01*
X165325120Y-68365510D01*
X164674880Y-68365510D01*
X164074136Y-68614346D01*
X163614346Y-69074136D01*
X163365510Y-69674880D01*
X163365510Y-70325120D01*
X163614346Y-70925864D01*
X164074136Y-71385654D01*
X164115000Y-71402580D01*
X164115000Y-71500656D01*
X164115001Y-71500661D01*
X164115000Y-72758421D01*
X162193422Y-74680000D01*
X161745657Y-74680000D01*
X161446337Y-74380680D01*
X161239487Y-74295000D01*
X161446337Y-74209320D01*
X161839320Y-73816337D01*
X162052000Y-73302881D01*
X162052000Y-72747119D01*
X161839320Y-72233663D01*
X161540000Y-71934343D01*
X161540000Y-70402580D01*
X161580864Y-70385654D01*
X162040654Y-69925864D01*
X162289490Y-69325120D01*
X162289490Y-68674880D01*
X162040654Y-68074136D01*
X161580864Y-67614346D01*
X160980120Y-67365510D01*
X160329880Y-67365510D01*
X159729136Y-67614346D01*
X159269346Y-68074136D01*
X159020510Y-68674880D01*
X156986398Y-68674880D01*
X156925864Y-68614346D01*
X156325120Y-68365510D01*
X155674880Y-68365510D01*
X155074136Y-68614346D01*
X154614346Y-69074136D01*
X154365510Y-69674880D01*
X154365510Y-70325120D01*
X154614346Y-70925864D01*
X155074136Y-71385654D01*
X155115001Y-71402581D01*
X155115000Y-72868421D01*
X153303422Y-74680000D01*
X152220657Y-74680000D01*
X151921337Y-74380680D01*
X151714487Y-74295000D01*
X151921337Y-74209320D01*
X152314320Y-73816337D01*
X152527000Y-73302881D01*
X152527000Y-72747119D01*
X152314320Y-72233663D01*
X152015000Y-71934343D01*
X152015000Y-70634490D01*
X152325120Y-70634490D01*
X152925864Y-70385654D01*
X153385654Y-69925864D01*
X153634490Y-69325120D01*
X153634490Y-68674880D01*
X153385654Y-68074136D01*
X152925864Y-67614346D01*
X152325120Y-67365510D01*
X151674880Y-67365510D01*
X151074136Y-67614346D01*
X150614346Y-68074136D01*
X150365510Y-68674880D01*
X150365510Y-69325120D01*
X150390073Y-69384421D01*
X150296348Y-69524691D01*
X150227663Y-69870000D01*
X150245001Y-69957165D01*
X150245000Y-71934343D01*
X149945680Y-72233663D01*
X149733000Y-72747119D01*
X147885000Y-72747119D01*
X147885000Y-71402580D01*
X147925864Y-71385654D01*
X148385654Y-70925864D01*
X148634490Y-70325120D01*
X148634490Y-69674880D01*
X148385654Y-69074136D01*
X147925864Y-68614346D01*
X147325120Y-68365510D01*
X146674880Y-68365510D01*
X146074136Y-68614346D01*
X145614346Y-69074136D01*
X145365510Y-69674880D01*
X145365510Y-70325120D01*
X145614346Y-70925864D01*
X146074136Y-71385654D01*
X146115000Y-71402580D01*
X146115000Y-71500656D01*
X146115001Y-71500661D01*
X146115000Y-72978421D01*
X144413422Y-74680000D01*
X143965657Y-74680000D01*
X143666337Y-74380680D01*
X143459487Y-74295000D01*
X143666337Y-74209320D01*
X144059320Y-73816337D01*
X144272000Y-73302881D01*
X144272000Y-72747119D01*
X144059320Y-72233663D01*
X143760000Y-71934343D01*
X143760000Y-70454357D01*
X143925864Y-70385654D01*
X144385654Y-69925864D01*
X144634490Y-69325120D01*
X144634490Y-68674880D01*
X144385654Y-68074136D01*
X143925864Y-67614346D01*
X143325120Y-67365510D01*
X142674880Y-67365510D01*
X142074136Y-67614346D01*
X141614346Y-68074136D01*
X141365510Y-68674880D01*
X137524490Y-68674880D01*
X137524490Y-68254880D01*
X137275654Y-67654136D01*
X136815864Y-67194346D01*
X136215120Y-66945510D01*
X135564880Y-66945510D01*
X134964136Y-67194346D01*
X134504346Y-67654136D01*
X134255510Y-68254880D01*
X122357151Y-68254880D01*
X122415000Y-68115222D01*
X122415000Y-67464778D01*
X122166086Y-66863847D01*
X121706153Y-66403914D01*
X121105222Y-66155000D01*
X120454778Y-66155000D01*
X119853847Y-66403914D01*
X119393914Y-66863847D01*
X119145000Y-67464778D01*
X117117460Y-67464778D01*
X118892253Y-65689986D01*
X119028769Y-65598769D01*
X119390136Y-65057945D01*
X119485000Y-64581031D01*
X119485000Y-64581027D01*
X119517030Y-64420001D01*
X119485000Y-64258975D01*
X119485000Y-60514346D01*
X119659966Y-60339380D01*
X119985000Y-59554678D01*
X119985000Y-58705322D01*
X119659966Y-57920620D01*
X119059380Y-57320034D01*
X118274678Y-56995000D01*
X117425322Y-56995000D01*
X116640620Y-57320034D01*
X116040034Y-57920620D01*
X115715000Y-58705322D01*
X115715000Y-59554678D01*
X116040034Y-60339380D01*
X116215000Y-60514346D01*
X116215001Y-63742760D01*
X104602762Y-75355000D01*
X102876031Y-75355000D01*
X102715000Y-75322969D01*
X102077054Y-75449864D01*
X101900334Y-75567945D01*
X101536231Y-75811231D01*
X101445014Y-75947747D01*
X99922750Y-77470012D01*
X99786231Y-77561231D01*
X99424864Y-78102056D01*
X99340634Y-78525510D01*
X99297969Y-78740000D01*
X99330000Y-78901030D01*
X99330001Y-85638646D01*
X99297969Y-85799680D01*
X99399733Y-86311280D01*
X99424865Y-86437625D01*
X99786232Y-86978449D01*
X99922748Y-87069666D01*
X100255332Y-87402250D01*
X100346551Y-87538769D01*
X100887375Y-87900136D01*
X101364289Y-87995000D01*
X101364290Y-87995000D01*
X101525319Y-88027031D01*
X101686349Y-87995000D01*
X103214181Y-87995000D01*
X102970712Y-88359378D01*
X102863176Y-88900000D01*
X102970712Y-89440622D01*
X103276950Y-89898940D01*
X103682620Y-90170000D01*
X103276950Y-90441060D01*
X102970712Y-90899378D01*
X102863176Y-91440000D01*
X102970712Y-91980622D01*
X103140000Y-92233980D01*
X103140000Y-92681781D01*
X102961231Y-92801231D01*
X102870014Y-92937747D01*
X101345000Y-94462761D01*
X101345000Y-93874778D01*
X101096086Y-93273847D01*
X100636153Y-92813914D01*
X100035222Y-92565000D01*
X99384778Y-92565000D01*
X98783847Y-92813914D01*
X98323914Y-93273847D01*
X98075000Y-93874778D01*
X98075000Y-94525222D01*
X98323914Y-95126153D01*
X98783847Y-95586086D01*
X99384778Y-95835000D01*
X99972762Y-95835000D01*
X98017748Y-97790014D01*
X97881232Y-97881231D01*
X97790015Y-98017747D01*
X97519865Y-98422055D01*
X97392969Y-99060000D01*
X97425001Y-99221034D01*
X97425001Y-99965000D01*
X92548969Y-99965000D01*
X92546405Y-99965510D01*
X92384880Y-99965510D01*
X92235650Y-100027323D01*
X92072055Y-100059864D01*
X91933366Y-100152533D01*
X91784136Y-100214346D01*
X91669920Y-100328562D01*
X91531231Y-100421231D01*
X91438562Y-100559920D01*
X91324346Y-100674136D01*
X91262533Y-100823366D01*
X91169864Y-100962055D01*
X91137323Y-101125650D01*
X91075510Y-101274880D01*
X91075510Y-101436405D01*
X91042969Y-101600000D01*
X86725000Y-101600000D01*
X86725000Y-95497239D01*
X87096086Y-95126153D01*
X87158921Y-94974457D01*
X87250135Y-94837945D01*
X87282165Y-94676919D01*
X87345000Y-94525222D01*
X87345000Y-94361027D01*
X87377030Y-94200001D01*
X87345000Y-94038975D01*
X87345000Y-93874778D01*
X87282165Y-93723081D01*
X87250135Y-93562055D01*
X87158921Y-93425544D01*
X87096086Y-93273847D01*
X86979982Y-93157743D01*
X86888768Y-93021232D01*
X86752257Y-92930018D01*
X86636153Y-92813914D01*
X86484456Y-92751079D01*
X86347945Y-92659865D01*
X86186919Y-92627835D01*
X86035222Y-92565000D01*
X85871025Y-92565000D01*
X85709999Y-92532970D01*
X85548973Y-92565000D01*
X85384778Y-92565000D01*
X85233081Y-92627835D01*
X85072055Y-92659865D01*
X84935543Y-92751079D01*
X84783847Y-92813914D01*
X84323914Y-93273847D01*
X84323913Y-93273849D01*
X84047748Y-93550014D01*
X83911232Y-93641231D01*
X83716721Y-93932338D01*
X83549865Y-94182055D01*
X83422969Y-94820000D01*
X70052238Y-94820000D01*
X70527239Y-94345000D01*
X81118970Y-94345000D01*
X81280000Y-94377031D01*
X81441030Y-94345000D01*
X81441031Y-94345000D01*
X81917945Y-94250136D01*
X82458769Y-93888769D01*
X82549988Y-93752250D01*
X97452253Y-78849986D01*
X97588769Y-78758769D01*
X97950136Y-78217945D01*
X98045000Y-77741031D01*
X98045000Y-77741027D01*
X98077030Y-77580001D01*
X98045000Y-77418975D01*
X98045000Y-71274778D01*
X98075000Y-71274778D01*
X98075000Y-71925222D01*
X98323914Y-72526153D01*
X98783847Y-72986086D01*
X99384778Y-73235000D01*
X100035222Y-73235000D01*
X100636153Y-72986086D01*
X101096086Y-72526153D01*
X101345000Y-71925222D01*
X101345000Y-71274778D01*
X101096086Y-70673847D01*
X100636153Y-70213914D01*
X100035222Y-69965000D01*
X99384778Y-69965000D01*
X98783847Y-70213914D01*
X98323914Y-70673847D01*
X98075000Y-71274778D01*
X98045000Y-71274778D01*
X97982167Y-71123086D01*
X97950136Y-70962055D01*
X97858919Y-70825539D01*
X97796086Y-70673847D01*
X97679986Y-70557747D01*
X97588769Y-70421231D01*
X97452253Y-70330014D01*
X97336153Y-70213914D01*
X97184459Y-70151080D01*
X97047944Y-70059864D01*
X96886915Y-70027833D01*
X96735222Y-69965000D01*
X96571031Y-69965000D01*
X96410000Y-69932969D01*
X96248969Y-69965000D01*
X96084778Y-69965000D01*
X95933086Y-70027833D01*
X95772055Y-70059864D01*
X95635539Y-70151081D01*
X95483847Y-70213914D01*
X95367747Y-70330014D01*
X95231231Y-70421231D01*
X95140014Y-70557747D01*
X95023914Y-70673847D01*
X94961080Y-70825541D01*
X94869864Y-70962056D01*
X94837833Y-71123085D01*
X94775000Y-71274778D01*
X94775000Y-71438970D01*
X94775001Y-76902760D01*
X80602762Y-91075000D01*
X70011030Y-91075000D01*
X69850000Y-91042969D01*
X69688970Y-91075000D01*
X69688969Y-91075000D01*
X69212055Y-91169864D01*
X68671231Y-91531231D01*
X68580014Y-91667747D01*
X64457750Y-95790012D01*
X64321231Y-95881231D01*
X63959864Y-96422056D01*
X63871696Y-96865309D01*
X63832969Y-97060000D01*
X63865000Y-97221030D01*
X63865001Y-118403520D01*
X63562870Y-118705651D01*
X63215000Y-119545485D01*
X60735000Y-119545485D01*
X60735000Y-117572388D01*
X60749399Y-117500000D01*
X60692354Y-117213217D01*
X60529905Y-116970095D01*
X60286783Y-116807646D01*
X60072388Y-116765000D01*
X60000000Y-116750601D01*
X59927612Y-116765000D01*
X50710000Y-116765000D01*
X50710000Y-97545485D01*
X53215000Y-97545485D01*
X53215000Y-98454515D01*
X53562870Y-99294349D01*
X54205651Y-99937130D01*
X55045485Y-100285000D01*
X55954515Y-100285000D01*
X56794349Y-99937130D01*
X57437130Y-99294349D01*
X57785000Y-98454515D01*
X57785000Y-97545485D01*
X57437130Y-96705651D01*
X56794349Y-96062870D01*
X55954515Y-95715000D01*
X55045485Y-95715000D01*
X54205651Y-96062870D01*
X53562870Y-96705651D01*
X53215000Y-97545485D01*
X50710000Y-97545485D01*
X50710000Y-82550000D01*
X75942041Y-82550000D01*
X76058350Y-83134725D01*
X76389570Y-83630430D01*
X76673281Y-83820000D01*
X76389570Y-84009570D01*
X76058350Y-84505275D01*
X75942041Y-85090000D01*
X76058350Y-85674725D01*
X76389570Y-86170430D01*
X76673281Y-86360000D01*
X76389570Y-86549570D01*
X76058350Y-87045275D01*
X75942041Y-87630000D01*
X76058350Y-88214725D01*
X76389570Y-88710430D01*
X76885275Y-89041650D01*
X77322402Y-89128600D01*
X77617598Y-89128600D01*
X78054725Y-89041650D01*
X78550430Y-88710430D01*
X78681012Y-88515000D01*
X78798988Y-88515000D01*
X78929570Y-88710430D01*
X79425275Y-89041650D01*
X79862402Y-89128600D01*
X80157598Y-89128600D01*
X80594725Y-89041650D01*
X81090430Y-88710430D01*
X81421650Y-88214725D01*
X81537959Y-87630000D01*
X81421650Y-87045275D01*
X81090430Y-86549570D01*
X80806719Y-86360000D01*
X81090430Y-86170430D01*
X81421650Y-85674725D01*
X81537959Y-85090000D01*
X81421650Y-84505275D01*
X81090430Y-84009570D01*
X80806719Y-83820000D01*
X81090430Y-83630430D01*
X81421650Y-83134725D01*
X81537959Y-82550000D01*
X81421650Y-81965275D01*
X81090430Y-81469570D01*
X80806719Y-81280000D01*
X81090430Y-81090430D01*
X81421650Y-80594725D01*
X81537959Y-80010000D01*
X81421650Y-79425275D01*
X81090430Y-78929570D01*
X80594725Y-78598350D01*
X80157598Y-78511400D01*
X79862402Y-78511400D01*
X79425275Y-78598350D01*
X78936932Y-78924651D01*
X78931757Y-78898635D01*
X78791409Y-78688591D01*
X78581365Y-78548243D01*
X78333600Y-78498960D01*
X76606400Y-78498960D01*
X76358635Y-78548243D01*
X76148591Y-78688591D01*
X76008243Y-78898635D01*
X75958960Y-79146400D01*
X75958960Y-80873600D01*
X76008243Y-81121365D01*
X76148591Y-81331409D01*
X76358635Y-81471757D01*
X76384651Y-81476932D01*
X76058350Y-81965275D01*
X75942041Y-82550000D01*
X50710000Y-82550000D01*
X50710000Y-71545485D01*
X53215000Y-71545485D01*
X53215000Y-72454515D01*
X53562870Y-73294349D01*
X54205651Y-73937130D01*
X55045485Y-74285000D01*
X55954515Y-74285000D01*
X56794349Y-73937130D01*
X57437130Y-73294349D01*
X57785000Y-72454515D01*
X57785000Y-71545485D01*
X73215000Y-71545485D01*
X73215000Y-72454515D01*
X73562870Y-73294349D01*
X74205651Y-73937130D01*
X75045485Y-74285000D01*
X75954515Y-74285000D01*
X76794349Y-73937130D01*
X77437130Y-73294349D01*
X77785000Y-72454515D01*
X77785000Y-71545485D01*
X77437130Y-70705651D01*
X76794349Y-70062870D01*
X75954515Y-69715000D01*
X75045485Y-69715000D01*
X74205651Y-70062870D01*
X73562870Y-70705651D01*
X73215000Y-71545485D01*
X57785000Y-71545485D01*
X57437130Y-70705651D01*
X56794349Y-70062870D01*
X55954515Y-69715000D01*
X55045485Y-69715000D01*
X54205651Y-70062870D01*
X53562870Y-70705651D01*
X53215000Y-71545485D01*
X50710000Y-71545485D01*
X50710000Y-62600000D01*
X76292560Y-62600000D01*
X76292560Y-64400000D01*
X76341843Y-64647765D01*
X76482191Y-64857809D01*
X76692235Y-64998157D01*
X76940000Y-65047440D01*
X78138775Y-65047440D01*
X78578969Y-65135000D01*
X81862762Y-65135000D01*
X86350014Y-69622253D01*
X86441231Y-69758769D01*
X86607886Y-69870125D01*
X87375000Y-70637239D01*
X87375000Y-71925222D01*
X87437834Y-72076917D01*
X87469865Y-72237945D01*
X87561079Y-72374457D01*
X87623914Y-72526153D01*
X87740017Y-72642256D01*
X87831232Y-72778769D01*
X87967745Y-72869984D01*
X88083847Y-72986086D01*
X88235542Y-73048920D01*
X88372056Y-73140136D01*
X88533085Y-73172167D01*
X88684778Y-73235000D01*
X88848969Y-73235000D01*
X89010000Y-73267031D01*
X89171031Y-73235000D01*
X89335222Y-73235000D01*
X89486914Y-73172167D01*
X89647945Y-73140136D01*
X89784461Y-73048919D01*
X89936153Y-72986086D01*
X90052253Y-72869986D01*
X90188769Y-72778769D01*
X90279986Y-72642253D01*
X90396086Y-72526153D01*
X90458919Y-72374461D01*
X90550136Y-72237945D01*
X90582167Y-72076914D01*
X90645000Y-71925222D01*
X90645000Y-70121031D01*
X90677031Y-69960000D01*
X90550136Y-69322054D01*
X90313338Y-68967662D01*
X90188769Y-68781231D01*
X90052253Y-68690014D01*
X88899988Y-67537750D01*
X88808769Y-67401231D01*
X88642116Y-67289877D01*
X83809988Y-62457750D01*
X83718769Y-62321231D01*
X83177945Y-61959864D01*
X82701031Y-61865000D01*
X82701030Y-61865000D01*
X82540000Y-61832969D01*
X82378970Y-61865000D01*
X78578969Y-61865000D01*
X78138775Y-61952560D01*
X76940000Y-61952560D01*
X76692235Y-62001843D01*
X76482191Y-62142191D01*
X76341843Y-62352235D01*
X76292560Y-62600000D01*
X50710000Y-62600000D01*
X50710000Y-53235000D01*
X59927612Y-53235000D01*
X60000000Y-53249399D01*
X60072388Y-53235000D01*
X60286783Y-53192354D01*
X60529905Y-53029905D01*
X60692354Y-52786783D01*
X60749399Y-52500000D01*
X60735000Y-52427612D01*
X60735000Y-49545485D01*
X63215000Y-49545485D01*
X63215000Y-50454515D01*
X63562870Y-51294349D01*
X63865000Y-51596479D01*
X63865000Y-52172422D01*
X63832969Y-52333452D01*
X63865000Y-52494482D01*
X63959864Y-52971396D01*
X64321231Y-53512221D01*
X64457750Y-53603440D01*
X64601560Y-53747250D01*
X64692779Y-53883769D01*
X65233603Y-54245136D01*
X65276413Y-54253651D01*
X70485016Y-59462256D01*
X70576231Y-59598769D01*
X70712744Y-59689984D01*
X70712746Y-59689986D01*
X71117054Y-59960136D01*
X71755000Y-60087031D01*
X71916031Y-60055000D01*
X78901031Y-60055000D01*
X79377945Y-59960136D01*
X79385632Y-59955000D01*
X79791182Y-59955000D01*
X80238927Y-59865938D01*
X80746673Y-59526673D01*
X81085938Y-59018927D01*
X81148317Y-58705322D01*
X84015000Y-58705322D01*
X84015000Y-59554678D01*
X84340034Y-60339380D01*
X84940620Y-60939966D01*
X85725322Y-61265000D01*
X85972762Y-61265000D01*
X91075001Y-66367240D01*
X91075000Y-68106030D01*
X91075001Y-68106035D01*
X91075000Y-72982761D01*
X90762762Y-73295000D01*
X88307239Y-73295000D01*
X87629988Y-72617750D01*
X87538769Y-72481231D01*
X87389553Y-72381528D01*
X87345000Y-72336975D01*
X87345000Y-71274778D01*
X87282167Y-71123086D01*
X87250136Y-70962055D01*
X87158919Y-70825539D01*
X87096086Y-70673847D01*
X86979986Y-70557747D01*
X86888769Y-70421231D01*
X86752253Y-70330014D01*
X86636153Y-70213914D01*
X86484459Y-70151080D01*
X86347944Y-70059864D01*
X86186915Y-70027833D01*
X86035222Y-69965000D01*
X85871031Y-69965000D01*
X85710000Y-69932969D01*
X85548969Y-69965000D01*
X85384778Y-69965000D01*
X85233086Y-70027833D01*
X85072055Y-70059864D01*
X84935539Y-70151081D01*
X84783847Y-70213914D01*
X84667747Y-70330014D01*
X84531231Y-70421231D01*
X84440014Y-70557747D01*
X84323914Y-70673847D01*
X84261080Y-70825541D01*
X84169864Y-70962056D01*
X84137833Y-71123085D01*
X84075000Y-71274778D01*
X84075000Y-72853183D01*
X84042969Y-73014213D01*
X84075000Y-73175243D01*
X84075000Y-73175244D01*
X84169865Y-73652158D01*
X84531232Y-74192982D01*
X84667748Y-74284199D01*
X85085799Y-74702250D01*
X85177018Y-74838769D01*
X85326233Y-74938471D01*
X86360014Y-75972252D01*
X86451231Y-76108769D01*
X86992055Y-76470136D01*
X87468969Y-76565000D01*
X87468973Y-76565000D01*
X87629999Y-76597030D01*
X87791025Y-76565000D01*
X91278970Y-76565000D01*
X91440000Y-76597031D01*
X91601030Y-76565000D01*
X91601031Y-76565000D01*
X92077945Y-76470136D01*
X92618769Y-76108769D01*
X92709988Y-75972250D01*
X93752254Y-74929985D01*
X93888769Y-74838769D01*
X94250136Y-74297945D01*
X94345000Y-73821031D01*
X94345000Y-73821027D01*
X94377030Y-73660001D01*
X94345000Y-73498975D01*
X94345000Y-68830000D01*
X99126993Y-68830000D01*
X99489126Y-68980000D01*
X99900874Y-68980000D01*
X100281280Y-68822431D01*
X100572431Y-68531280D01*
X100730000Y-68150874D01*
X100730000Y-67739126D01*
X100616362Y-67464778D01*
X103645000Y-67464778D01*
X103645000Y-68115222D01*
X103893914Y-68716153D01*
X104353847Y-69176086D01*
X104954778Y-69425000D01*
X105605222Y-69425000D01*
X106206153Y-69176086D01*
X106666086Y-68716153D01*
X106915000Y-68115222D01*
X106915000Y-67464778D01*
X106666086Y-66863847D01*
X106206153Y-66403914D01*
X105605222Y-66155000D01*
X104954778Y-66155000D01*
X104353847Y-66403914D01*
X103893914Y-66863847D01*
X103645000Y-67464778D01*
X100616362Y-67464778D01*
X100572431Y-67358720D01*
X100281280Y-67067569D01*
X99900874Y-66910000D01*
X99489126Y-66910000D01*
X99126993Y-67060000D01*
X94345000Y-67060000D01*
X94345000Y-65851030D01*
X94377031Y-65690000D01*
X94345000Y-65528969D01*
X94250136Y-65052055D01*
X93888769Y-64511231D01*
X93752253Y-64420014D01*
X88285000Y-58952762D01*
X88285000Y-58705322D01*
X87959966Y-57920620D01*
X87359380Y-57320034D01*
X86574678Y-56995000D01*
X85725322Y-56995000D01*
X84940620Y-57320034D01*
X84340034Y-57920620D01*
X84015000Y-58705322D01*
X81148317Y-58705322D01*
X81205072Y-58420000D01*
X81085938Y-57821073D01*
X80746673Y-57313327D01*
X80238927Y-56974062D01*
X79791182Y-56885000D01*
X79385632Y-56885000D01*
X79377945Y-56879864D01*
X78901031Y-56785000D01*
X72432240Y-56785000D01*
X67852561Y-52205322D01*
X84015000Y-52205322D01*
X84015000Y-53054678D01*
X84340034Y-53839380D01*
X84940620Y-54439966D01*
X85725322Y-54765000D01*
X86574678Y-54765000D01*
X87359380Y-54439966D01*
X87959966Y-53839380D01*
X88285000Y-53054678D01*
X88285000Y-52205322D01*
X115715000Y-52205322D01*
X115715000Y-53054678D01*
X116040034Y-53839380D01*
X116640620Y-54439966D01*
X117425322Y-54765000D01*
X118274678Y-54765000D01*
X118648881Y-54610000D01*
X134206655Y-54610000D01*
X134334792Y-55254188D01*
X134699695Y-55800305D01*
X135005001Y-56004303D01*
X135005000Y-57017419D01*
X134964136Y-57034346D01*
X134504346Y-57494136D01*
X134255510Y-58094880D01*
X134255510Y-58745120D01*
X134504346Y-59345864D01*
X134964136Y-59805654D01*
X135564880Y-60054490D01*
X136215120Y-60054490D01*
X136815864Y-59805654D01*
X137275654Y-59345864D01*
X137524490Y-58745120D01*
X137524490Y-58514880D01*
X141365510Y-58514880D01*
X141365510Y-59165120D01*
X141614346Y-59765864D01*
X142074136Y-60225654D01*
X142674880Y-60474490D01*
X143325120Y-60474490D01*
X143925864Y-60225654D01*
X144385654Y-59765864D01*
X144402580Y-59725000D01*
X147447839Y-59725000D01*
X147535000Y-59742337D01*
X147622161Y-59725000D01*
X147622165Y-59725000D01*
X147880310Y-59673652D01*
X148173049Y-59478049D01*
X148222425Y-59404153D01*
X150104156Y-57522423D01*
X150178049Y-57473049D01*
X150373652Y-57180310D01*
X150425000Y-56922165D01*
X150425000Y-56922161D01*
X150442337Y-56835001D01*
X150425000Y-56747841D01*
X150425000Y-56363412D01*
X150620430Y-56232830D01*
X150810000Y-55949119D01*
X150999570Y-56232830D01*
X151195000Y-56363412D01*
X151195001Y-57404282D01*
X151074136Y-57454346D01*
X150614346Y-57914136D01*
X150365510Y-58514880D01*
X150365510Y-59165120D01*
X150614346Y-59765864D01*
X151074136Y-60225654D01*
X151674880Y-60474490D01*
X152325120Y-60474490D01*
X152925864Y-60225654D01*
X153385654Y-59765864D01*
X153634490Y-59165120D01*
X153634490Y-58514880D01*
X153385654Y-57914136D01*
X152965000Y-57493482D01*
X152965000Y-56363412D01*
X153160430Y-56232830D01*
X153350000Y-55949119D01*
X153539570Y-56232830D01*
X154035276Y-56564050D01*
X154620000Y-56680359D01*
X155204725Y-56564050D01*
X155700430Y-56232830D01*
X155932842Y-55885000D01*
X156793422Y-55885000D01*
X159138485Y-58230063D01*
X159020510Y-58514880D01*
X159020510Y-59165120D01*
X159269346Y-59765864D01*
X159729136Y-60225654D01*
X160329880Y-60474490D01*
X160980120Y-60474490D01*
X161580864Y-60225654D01*
X162040654Y-59765864D01*
X162289490Y-59165120D01*
X162289490Y-58514880D01*
X162040654Y-57914136D01*
X161580864Y-57454346D01*
X160980120Y-57205510D01*
X160617089Y-57205510D01*
X157847425Y-54435847D01*
X157798049Y-54361951D01*
X157505310Y-54166348D01*
X157247165Y-54115000D01*
X157247161Y-54115000D01*
X157160000Y-54097663D01*
X157072839Y-54115000D01*
X155932843Y-54115000D01*
X155700430Y-53767170D01*
X155204724Y-53435950D01*
X154620000Y-53319641D01*
X154035275Y-53435950D01*
X153539570Y-53767170D01*
X153350000Y-54050881D01*
X153160430Y-53767170D01*
X152664724Y-53435950D01*
X152080000Y-53319641D01*
X151495275Y-53435950D01*
X150999570Y-53767170D01*
X150810000Y-54050881D01*
X150620430Y-53767170D01*
X150124724Y-53435950D01*
X149540000Y-53319641D01*
X148955275Y-53435950D01*
X148460772Y-53766367D01*
X148401927Y-53624302D01*
X148223299Y-53445673D01*
X147989910Y-53349000D01*
X147285750Y-53349000D01*
X147127000Y-53507750D01*
X147127000Y-54873000D01*
X147147000Y-54873000D01*
X147147000Y-55127000D01*
X147127000Y-55127000D01*
X147127000Y-56492250D01*
X147285750Y-56651000D01*
X147989910Y-56651000D01*
X148223299Y-56554327D01*
X148401927Y-56375698D01*
X148460772Y-56233633D01*
X148655000Y-56363412D01*
X148655000Y-56468421D01*
X147168422Y-57955000D01*
X144402580Y-57955000D01*
X144385654Y-57914136D01*
X143925864Y-57454346D01*
X143325120Y-57205510D01*
X142674880Y-57205510D01*
X142074136Y-57454346D01*
X141614346Y-57914136D01*
X141365510Y-58514880D01*
X137524490Y-58514880D01*
X137524490Y-58094880D01*
X137275654Y-57494136D01*
X136815864Y-57034346D01*
X136775000Y-57017420D01*
X136775000Y-56004303D01*
X136859886Y-55947584D01*
X136875673Y-55985698D01*
X137054301Y-56164327D01*
X137287690Y-56261000D01*
X138144250Y-56261000D01*
X138303000Y-56102250D01*
X138303000Y-54737000D01*
X138557000Y-54737000D01*
X138557000Y-56102250D01*
X138715750Y-56261000D01*
X139572310Y-56261000D01*
X139805699Y-56164327D01*
X139984327Y-55985698D01*
X140081000Y-55752309D01*
X140081000Y-55285750D01*
X145501400Y-55285750D01*
X145501400Y-56142309D01*
X145598073Y-56375698D01*
X145776701Y-56554327D01*
X146010090Y-56651000D01*
X146714250Y-56651000D01*
X146873000Y-56492250D01*
X146873000Y-55127000D01*
X145660150Y-55127000D01*
X145501400Y-55285750D01*
X140081000Y-55285750D01*
X140081000Y-54895750D01*
X139922250Y-54737000D01*
X138557000Y-54737000D01*
X138303000Y-54737000D01*
X138283000Y-54737000D01*
X138283000Y-54483000D01*
X138303000Y-54483000D01*
X138303000Y-53117750D01*
X138557000Y-53117750D01*
X138557000Y-54483000D01*
X139922250Y-54483000D01*
X140081000Y-54324250D01*
X140081000Y-53857691D01*
X145501400Y-53857691D01*
X145501400Y-54714250D01*
X145660150Y-54873000D01*
X146873000Y-54873000D01*
X146873000Y-53507750D01*
X146714250Y-53349000D01*
X146010090Y-53349000D01*
X145776701Y-53445673D01*
X145598073Y-53624302D01*
X145501400Y-53857691D01*
X140081000Y-53857691D01*
X140081000Y-53467691D01*
X139984327Y-53234302D01*
X139805699Y-53055673D01*
X139572310Y-52959000D01*
X138715750Y-52959000D01*
X138557000Y-53117750D01*
X138303000Y-53117750D01*
X138144250Y-52959000D01*
X137287690Y-52959000D01*
X137054301Y-53055673D01*
X136875673Y-53234302D01*
X136859886Y-53272416D01*
X136534188Y-53054792D01*
X136052609Y-52959000D01*
X135727391Y-52959000D01*
X135245812Y-53054792D01*
X134699695Y-53419695D01*
X134334792Y-53965812D01*
X134206655Y-54610000D01*
X118648881Y-54610000D01*
X119059380Y-54439966D01*
X119659966Y-53839380D01*
X119985000Y-53054678D01*
X119985000Y-52205322D01*
X119659966Y-51420620D01*
X119059380Y-50820034D01*
X118274678Y-50495000D01*
X117425322Y-50495000D01*
X116640620Y-50820034D01*
X116040034Y-51420620D01*
X115715000Y-52205322D01*
X88285000Y-52205322D01*
X87959966Y-51420620D01*
X87359380Y-50820034D01*
X86574678Y-50495000D01*
X85725322Y-50495000D01*
X84940620Y-50820034D01*
X84340034Y-51420620D01*
X84015000Y-52205322D01*
X67852561Y-52205322D01*
X67309988Y-51662750D01*
X67218769Y-51526231D01*
X67210664Y-51520815D01*
X67437130Y-51294349D01*
X67785000Y-50454515D01*
X67785000Y-49545485D01*
X67437130Y-48705651D01*
X66794349Y-48062870D01*
X65954515Y-47715000D01*
X65045485Y-47715000D01*
X64205651Y-48062870D01*
X63562870Y-48705651D01*
X63215000Y-49545485D01*
X60735000Y-49545485D01*
X60735000Y-46946029D01*
X70715000Y-46946029D01*
X70715000Y-48053971D01*
X71138991Y-49077576D01*
X71922424Y-49861009D01*
X72946029Y-50285000D01*
X74053971Y-50285000D01*
X75077576Y-49861009D01*
X75861009Y-49077576D01*
X76285000Y-48053971D01*
X76285000Y-46946029D01*
X148715000Y-46946029D01*
X148715000Y-48053971D01*
X149138991Y-49077576D01*
X149922424Y-49861009D01*
X150946029Y-50285000D01*
X152053971Y-50285000D01*
X153077576Y-49861009D01*
X153861009Y-49077576D01*
X154285000Y-48053971D01*
X154285000Y-46946029D01*
X153861009Y-45922424D01*
X153077576Y-45138991D01*
X152053971Y-44715000D01*
X150946029Y-44715000D01*
X149922424Y-45138991D01*
X149138991Y-45922424D01*
X148715000Y-46946029D01*
X76285000Y-46946029D01*
X75861009Y-45922424D01*
X75077576Y-45138991D01*
X74053971Y-44715000D01*
X72946029Y-44715000D01*
X71922424Y-45138991D01*
X71138991Y-45922424D01*
X70715000Y-46946029D01*
X60735000Y-46946029D01*
X60735000Y-43210000D01*
X164265000Y-43210000D01*
X164265001Y-52427607D01*
G04 #@! TO.N,GND*
G36*
X126873000Y-94488000D02*
X107442000Y-94488000D01*
X107442000Y-88395773D01*
X119004080Y-88395773D01*
X119004080Y-89404227D01*
X119389999Y-90335917D01*
X120103083Y-91049001D01*
X121034773Y-91434920D01*
X122043227Y-91434920D01*
X122974917Y-91049001D01*
X123688001Y-90335917D01*
X124073920Y-89404227D01*
X124073920Y-88395773D01*
X123688001Y-87464083D01*
X122974917Y-86750999D01*
X122043227Y-86365080D01*
X121034773Y-86365080D01*
X120103083Y-86750999D01*
X119389999Y-87464083D01*
X119004080Y-88395773D01*
X107442000Y-88395773D01*
X107442000Y-83312000D01*
X126873000Y-83312000D01*
X126873000Y-94488000D01*
X126873000Y-94488000D01*
G37*
X126873000Y-94488000D02*
X107442000Y-94488000D01*
X107442000Y-88395773D01*
X119004080Y-88395773D01*
X119004080Y-89404227D01*
X119389999Y-90335917D01*
X120103083Y-91049001D01*
X121034773Y-91434920D01*
X122043227Y-91434920D01*
X122974917Y-91049001D01*
X123688001Y-90335917D01*
X124073920Y-89404227D01*
X124073920Y-88395773D01*
X123688001Y-87464083D01*
X122974917Y-86750999D01*
X122043227Y-86365080D01*
X121034773Y-86365080D01*
X120103083Y-86750999D01*
X119389999Y-87464083D01*
X119004080Y-88395773D01*
X107442000Y-88395773D01*
X107442000Y-83312000D01*
X126873000Y-83312000D01*
X126873000Y-94488000D01*
G04 #@! TD*
M02*
