G04 #@! TF.GenerationSoftware,KiCad,Pcbnew,5.0.2-bee76a0~70~ubuntu18.04.1*
G04 #@! TF.CreationDate,2019-05-07T12:57:47+02:00*
G04 #@! TF.ProjectId,pcb_wifi,7063625f-7769-4666-992e-6b696361645f,rev?*
G04 #@! TF.SameCoordinates,Original*
G04 #@! TF.FileFunction,Legend,Bot*
G04 #@! TF.FilePolarity,Positive*
%FSLAX46Y46*%
G04 Gerber Fmt 4.6, Leading zero omitted, Abs format (unit mm)*
G04 Created by KiCad (PCBNEW 5.0.2-bee76a0~70~ubuntu18.04.1) date Di 07 Mai 2019 12:57:47 CEST*
%MOMM*%
%LPD*%
G01*
G04 APERTURE LIST*
%ADD10C,0.150000*%
%ADD11C,0.400000*%
G04 APERTURE END LIST*
D10*
G04 #@! TO.C,BT1*
X56500000Y-52500000D02*
X56500000Y-117500000D01*
X56500000Y-52500000D02*
X74500000Y-52500000D01*
X74500000Y-52500000D02*
X74500000Y-117500000D01*
X74500000Y-117500000D02*
X56500000Y-117500000D01*
X55268571Y-114694285D02*
X55316190Y-114837142D01*
X55363809Y-114884761D01*
X55459047Y-114932380D01*
X55601904Y-114932380D01*
X55697142Y-114884761D01*
X55744761Y-114837142D01*
X55792380Y-114741904D01*
X55792380Y-114360952D01*
X54792380Y-114360952D01*
X54792380Y-114694285D01*
X54840000Y-114789523D01*
X54887619Y-114837142D01*
X54982857Y-114884761D01*
X55078095Y-114884761D01*
X55173333Y-114837142D01*
X55220952Y-114789523D01*
X55268571Y-114694285D01*
X55268571Y-114360952D01*
X54792380Y-115218095D02*
X54792380Y-115789523D01*
X55792380Y-115503809D02*
X54792380Y-115503809D01*
X55792380Y-116646666D02*
X55792380Y-116075238D01*
X55792380Y-116360952D02*
X54792380Y-116360952D01*
X54935238Y-116265714D01*
X55030476Y-116170476D01*
X55078095Y-116075238D01*
D11*
X61832857Y-48678095D02*
X61832857Y-50201904D01*
X62594761Y-49440000D02*
X61070952Y-49440000D01*
X61832857Y-121068095D02*
X61832857Y-122591904D01*
G04 #@! TD*
M02*
